<?xml version="1.0" encoding="UTF-8" standalone="no"?>
<!-- Created with Inkscape (http://www.inkscape.org/) -->

<svg
   xmlns:dc="http://purl.org/dc/elements/1.1/"
   xmlns:cc="http://creativecommons.org/ns#"
   xmlns:rdf="http://www.w3.org/1999/02/22-rdf-syntax-ns#"
   xmlns:svg="http://www.w3.org/2000/svg"
   xmlns="http://www.w3.org/2000/svg"
   xmlns:sodipodi="http://sodipodi.sourceforge.net/DTD/sodipodi-0.dtd"
   xmlns:inkscape="http://www.inkscape.org/namespaces/inkscape"
   width="30.955841mm"
   height="27.939301mm"
   viewBox="0 0 30.955841 27.939301"
   version="1.1"
   id="svg1117"
   inkscape:version="0.92.4 (5da689c313, 2019-01-14)"
   sodipodi:docname="logoCleanAJH.svg">
  <defs
     id="defs1111" />
  <sodipodi:namedview
     id="base"
     pagecolor="#ffffff"
     bordercolor="#666666"
     borderopacity="1.0"
     inkscape:pageopacity="0.0"
     inkscape:pageshadow="2"
     inkscape:zoom="0.35"
     inkscape:cx="447.07066"
     inkscape:cy="-481.48704"
     inkscape:document-units="mm"
     inkscape:current-layer="layer1"
     showgrid="false"
     fit-margin-top="0"
     fit-margin-left="0"
     fit-margin-right="0"
     fit-margin-bottom="0"
     inkscape:window-width="1280"
     inkscape:window-height="998"
     inkscape:window-x="0"
     inkscape:window-y="0"
     inkscape:window-maximized="1" />
  <metadata
     id="metadata1114">
    <rdf:RDF>
      <cc:Work
         rdf:about="">
        <dc:format>image/svg+xml</dc:format>
        <dc:type
           rdf:resource="http://purl.org/dc/dcmitype/StillImage" />
        <dc:title></dc:title>
      </cc:Work>
    </rdf:RDF>
  </metadata>
  <g
     inkscape:label="Layer 1"
     inkscape:groupmode="layer"
     id="layer1"
     transform="translate(153.81721,7.255365)">
    <g
       transform="translate(1.8504142,-72.737229)"
       id="g1097">
      <path
         sodipodi:nodetypes="cccccccccc"
         inkscape:connector-curvature="0"
         id="path974-1"
         d="m -142.00653,80.477789 c -0.56631,-0.24657 -0.93627,-0.76412 -1.10344,-1.54363 -0.19434,-0.90618 -0.19356,-9.068827 9.2e-4,-9.188997 0.35302,-0.21818 1.73641,-0.44739 2.72615,-0.4517 1.01779,-0.004 2.76436,0.29252 2.98509,0.50752 0.0547,0.0533 -0.0477,0.29655 -0.2277,0.5405 -0.70351,0.95355 -0.80126,1.54095 -0.76046,4.569667 0.0451,3.35016 -0.0906,4.38937 -0.65745,5.03502 -0.60277,0.68652 -2.02235,0.94121 -2.96307,0.53162 z"
         style="fill:#216778;stroke-width:0.13229169" />
      <path
         sodipodi:nodetypes="csccccccccccscccscccccccccscscscccccccccscscscscccc"
         inkscape:connector-curvature="0"
         id="path980-8"
         d="m -145.34605,93.165339 c -0.74376,-0.38448 -1.09189,-0.96715 -1.09189,-1.82754 0,-0.86036 0.34814,-1.44304 1.09189,-1.82755 0.99888,-0.5164 1.99016,-0.26392 2.70078,0.68788 0.38246,0.51226 0.38246,1.76709 0,2.27935 -0.6995,0.93692 -1.71743,1.19616 -2.70078,0.68786 z m -1.44779,-2.43386 c 0.006,-0.15411 0.0377,-0.18546 0.0799,-0.0799 0.0382,0.0955 0.0335,0.2096 -0.0104,0.25356 -0.044,0.044 -0.0752,-0.0342 -0.0695,-0.17363 z m 10.10254,-3.12512 c 0.85412,-0.99785 0.86722,-1.12479 0.86722,-8.40149 0,-7.009595 0.0136,-7.162765 0.67692,-7.627375 0.45889,-0.32141 0.72064,-0.26712 1.31918,0.27362 1.22384,1.10567 2.29391,3.003715 2.78235,4.935235 0.23756,0.93945 0.27144,1.36707 0.21448,2.70727 -0.11809,2.77852 -0.91433,4.59445 -2.87419,6.55497 -0.78166,0.78193 -1.41597,1.27805 -2.07193,1.62058 -1.28073,0.66875 -1.52581,0.65191 -0.91403,-0.0628 z m -18.05048,-4.96692 c -0.82001,-0.40964 -0.92561,-0.82101 -0.92584,-3.6068 -1.7e-4,-2.12053 0.0324,-2.51136 0.24252,-2.91042 0.31154,-0.59163 0.96488,-0.92351 1.81854,-0.92377 l 0.6722,-2.1e-4 0.49136,-1.24146 c 1.63412,-4.128735 4.75153,-6.952215 9.0275,-8.176335 0.89323,-0.25571 1.3564,-0.29858 3.2258,-0.29858 1.8694,0 2.33256,0.0429 3.2258,0.29858 4.27597,1.22412 7.39338,4.0476 9.0275,8.176335 l 0.49136,1.24146 0.6722,2.2e-4 c 0.85366,2.6e-4 1.50699,0.33213 1.81854,0.92377 0.21013,0.39905 0.2427,0.78989 0.24252,2.91041 -1.3e-4,2.06697 -0.0363,2.52177 -0.23151,2.91248 -0.37533,0.75133 -0.89676,0.9256 -2.77011,0.92584 -0.89249,1.1e-4 -1.64797,-0.0567 -1.69158,-0.12731 -0.0434,-0.0701 0.0242,-0.50174 0.15004,-0.95912 0.34537,-1.25498 0.31375,-4.3252 -0.0586,-5.68649 -0.92055,-3.365775 -3.07009,-6.041835 -6.07302,-7.560585 -0.37781,-0.19108 -1.21125,-0.50661 -1.85208,-0.70118 -1.01601,-0.30848 -1.39376,-0.35376 -2.95109,-0.35376 -1.55734,0 -1.93508,0.0453 -2.95109,0.35376 -2.00557,0.60892 -3.53941,1.52982 -4.94143,2.96677 -1.41395,1.44918 -2.42028,3.235055 -2.98367,5.294995 -0.37232,1.36129 -0.40394,4.43151 -0.0586,5.68649 0.12586,0.45738 0.19338,0.88898 0.15004,0.95912 -0.0436,0.0706 -0.7991,0.12742 -1.69158,0.12731 -1.27038,-1.3e-4 -1.71106,-0.0493 -2.07579,-0.23151 z"
         style="fill:#3395d0;stroke-width:0.1322917" />
      <path
         sodipodi:nodetypes="cccsccccsccccc"
         inkscape:connector-curvature="0"
         id="path976-0"
         d="m -142.95563,87.557489 c -4.88077,-1.76189 -7.28392,-6.98953 -5.64412,-12.27784 0.283,-0.9127 1.15794,-2.342424 1.97066,-3.220236 0.46968,-0.507295 0.90792,-0.922354 0.97387,-0.922354 0.069,0 0.12051,1.698799 0.12133,4.00183 0.001,4.19634 0.0441,4.5805 0.63732,5.74324 0.34931,0.68471 1.33224,1.57777 2.11031,1.91738 1.13651,0.49605 3.16182,0.45832 4.42776,-0.0825 0.20972,-0.0896 0.23151,0.003 0.23151,0.98666 0,1.71254 -0.28481,2.11438 -1.78593,2.51978 -0.49519,0.13373 -0.83822,0.35506 -1.36462,0.88049 -0.38674,0.38602 -0.77369,0.6997 -0.8599,0.69708 -0.0862,-0.003 -0.45439,-0.11222 -0.81819,-0.24355 z"
         style="fill:#2f4a74;stroke-width:0.13229169" />
    </g>
  </g>
</svg>
