<svg xmlns="http://www.w3.org/2000/svg" xmlns:xlink="http://www.w3.org/1999/xlink" viewBox="0 0 564.94 462.46"><defs><style>.cls-1{mask:url(#mask);filter:url(#luminosity-noclip-3);}.cls-11,.cls-16,.cls-2,.cls-4{mix-blend-mode:multiply;}.cls-2{fill:url(#radial-gradient);}.cls-3{mask:url(#mask-2);filter:url(#luminosity-noclip-4);}.cls-4{fill:url(#radial-gradient-2);}.cls-14,.cls-20,.cls-22,.cls-23,.cls-5{fill:none;}.cls-6{isolation:isolate;}.cls-7{mask:url(#mask-3);}.cls-8{opacity:0.26;fill:url(#radial-gradient-3);}.cls-9{fill:#daf3f5;}.cls-10{mask:url(#mask-4);}.cls-11{fill:url(#radial-gradient-4);}.cls-12{opacity:0.29;}.cls-13{clip-path:url(#clip-path);}.cls-14{stroke:#071c1f;}.cls-14,.cls-20,.cls-22,.cls-23{stroke-miterlimit:10;}.cls-14,.cls-20{stroke-width:0.75px;}.cls-15{fill:url(#radial-gradient-5);}.cls-16{fill:#28dbde;}.cls-17{fill:url(#radial-gradient-6);}.cls-18{opacity:0.8;}.cls-19{mix-blend-mode:overlay;}.cls-20{stroke:#6fe8ff;}.cls-21{fill:url(#radial-gradient-7);}.cls-22{stroke:#aecfdb;stroke-width:0.2px;}.cls-23{stroke:#fff;stroke-width:0.5px;}.cls-24{fill:#e3f5fc;}.cls-25{clip-path:url(#clip-path-3);}.cls-26{fill:#ffe473;}.cls-27{fill:#ffd561;}.cls-28{fill:#2e8eef;}.cls-29{fill:#2d77e2;}.cls-30{fill:#7ab3ed;}.cls-31{fill:#fe8;}.cls-32{fill:#72dbed;}.cls-33{fill:#65cae5;}.cls-34{fill:#81ecf7;}.cls-35{fill:#71b8ff;}.cls-36{fill:#4884ef;}.cls-37{fill:#2e70e5;}.cls-38{fill:#f6f5fc;}.cls-39{fill:#ecebf2;}.cls-40{fill:#59a1f7;}.cls-41{fill:#fbfaff;}.cls-42{fill:#97bfff;}.cls-43{fill:#69b2f9;}.cls-44{fill:#b4f2fc;}.cls-45{fill:#89e1ef;}.cls-46{fill:#77d3e8;}.cls-47{fill:#ffd86c;}.cls-48{fill:#63adf7;}.cls-120,.cls-49{fill:#fff;}.cls-50{fill:#60a4f4;}.cls-51{fill:#6bbbfc;}.cls-52{fill:#f3faff;}.cls-53{fill:#e3f2fc;}.cls-54{fill:#94caff;}.cls-55{fill:#a1d7ff;}.cls-56{fill:#75b8ef;}.cls-57{fill:#eaf5f9;}.cls-58{fill:#e3f4ff;}.cls-59{fill:#7bb7ff;}.cls-60{fill:#8acdff;}.cls-61{fill:#6bc3f9;}.cls-62{fill:#1c77e5;}.cls-63{fill:#1965dd;}.cls-64{fill:#138ad3;}.cls-119,.cls-64{opacity:0.09;}.cls-65{fill:#d6ecf2;}.cls-66{fill:#61acf7;}.cls-67{fill:#8dc6ff;}.cls-68{fill:#75bdf9;}.cls-69{fill:#422b72;}.cls-70{fill:#47a1ea;}.cls-71{fill:#4f6ddb;}.cls-72{fill:#75b9f2;}.cls-73{fill:#bde1ff;}.cls-74{fill:#98e3f4;}.cls-75{fill:#5fcced;}.cls-76{fill:#f0eff9;}.cls-77{fill:#e1dfea;}.cls-78{fill:#f5f4f9;}.cls-79{fill:#f0fcff;}.cls-80{fill:#def8fc;}.cls-81{fill:#4773bf;}.cls-82{fill:#2e63af;}.cls-83{fill:#0c57c4;}.cls-84{fill:#044ca3;}.cls-85{fill:#176acc;}.cls-86{fill:#3b82ea;}.cls-87{fill:#e9f1f2;}.cls-88{fill:#145ac1;}.cls-89{fill:#eb8e6c;}.cls-90{fill:#c36252;}.cls-91{fill:#49302a;}.cls-92{fill:#dd8064;}.cls-93{fill:#1c2546;}.cls-94{fill:#3845b8;}.cls-95{fill:#3888fc;}.cls-96{fill:#4c94fc;}.cls-97{fill:#283aa3;}.cls-98{fill:#f8f8ff;}.cls-99{fill:#b8d5ff;}.cls-100{fill:#53aaf2;}.cls-101{fill:#58a3ed;}.cls-102{fill:#659bba;}.cls-103{fill:#8acaff;}.cls-104{fill:#050d33;}.cls-105{fill:#4e4ece;}.cls-106{fill:#0e1647;}.cls-107{fill:#23173d;}.cls-108{fill:#fefdfb;}.cls-109{fill:#f7f7f7;}.cls-110{fill:#050530;}.cls-111{fill:#f1eeff;}.cls-112{fill:#2b3b99;}.cls-113{fill:#60bff4;}.cls-114{fill:#52afef;}.cls-115{fill:#4098e2;}.cls-116{fill:#dcf1f9;}.cls-117{fill:#cce9f2;}.cls-118{fill:#eefbff;}.cls-119{fill:#243b9b;}.cls-120{opacity:0.31;}.cls-121{fill:#edf5f7;}.cls-122{fill:#d6e8ed;}.cls-123{fill:#92c6ff;}.cls-124{fill:#71b7ea;}.cls-125{fill:#0f2251;}.cls-126{fill:#1c1c70;}.cls-127{fill:#e8e8ea;}.cls-128{fill:#db7861;}.cls-129{fill:#2582c1;}.cls-130{fill:#95b0d8;}.cls-131{fill:#fff3e1;}.cls-132{fill:#0b2c7f;}.cls-133{fill:#04205e;}.cls-134{fill:#476c99;}.cls-135{fill:#1d3c68;}.cls-136{fill:#192654;}.cls-137{fill:#eeedf2;}.cls-138{fill:#98c2e5;}.cls-139{filter:url(#luminosity-noclip-2);}.cls-140{filter:url(#luminosity-noclip);}</style><filter id="luminosity-noclip" x="0" y="-10667.45" width="564.94" height="32766" filterUnits="userSpaceOnUse" color-interpolation-filters="sRGB"><feFlood flood-color="#fff" result="bg"/><feBlend in="SourceGraphic" in2="bg"/></filter><mask id="mask" x="0" y="-10667.45" width="564.94" height="32766" maskUnits="userSpaceOnUse"><g class="cls-140"/></mask><radialGradient id="radial-gradient" cx="-21574.68" cy="-395016.08" r="4277.79" gradientTransform="translate(1704.24 2455.27) scale(0.07 0.01)" gradientUnits="userSpaceOnUse"><stop offset="0" stop-color="#fff"/><stop offset="0.09" stop-color="#e1e1e1"/><stop offset="0.35" stop-color="#929292"/><stop offset="0.58" stop-color="#545454"/><stop offset="0.77" stop-color="#262626"/><stop offset="0.91" stop-color="#0a0a0a"/><stop offset="1"/></radialGradient><filter id="luminosity-noclip-2" x="81.46" y="-10667.45" width="398.94" height="32766" filterUnits="userSpaceOnUse" color-interpolation-filters="sRGB"><feFlood flood-color="#fff" result="bg"/><feBlend in="SourceGraphic" in2="bg"/></filter><mask id="mask-2" x="81.46" y="-10667.45" width="398.94" height="32766" maskUnits="userSpaceOnUse"><g class="cls-139"/></mask><radialGradient id="radial-gradient-2" cx="-43949.34" cy="-65490.75" r="5954.31" gradientTransform="translate(-229.34 2791.89) rotate(45) scale(0.03)" gradientUnits="userSpaceOnUse"><stop offset="0.31" stop-color="#fff"/><stop offset="0.49" stop-color="#bdbdbd"/><stop offset="0.93" stop-color="#191919"/><stop offset="1"/></radialGradient><filter id="luminosity-noclip-3" x="0" y="418.92" width="564.94" height="43.55" filterUnits="userSpaceOnUse" color-interpolation-filters="sRGB"><feFlood flood-color="#fff" result="bg"/><feBlend in="SourceGraphic" in2="bg"/></filter><mask id="mask-3" x="0" y="418.92" width="564.94" height="43.55" maskUnits="userSpaceOnUse"><g class="cls-1"><path class="cls-2" d="M564.94,440.69c0,12-126.47,21.77-282.47,21.77S0,452.71,0,440.69s126.47-21.77,282.47-21.77S564.94,428.66,564.94,440.69Z"/></g></mask><radialGradient id="radial-gradient-3" cx="-21574.68" cy="-395016.08" r="4277.79" gradientTransform="translate(1704.24 2455.27) scale(0.07 0.01)" gradientUnits="userSpaceOnUse"><stop offset="0" stop-color="#008fcc"/><stop offset="0.09" stop-color="#1e9cd2"/><stop offset="0.35" stop-color="#6dbfe2"/><stop offset="0.58" stop-color="#abdaee"/><stop offset="0.77" stop-color="#d9eef7"/><stop offset="0.91" stop-color="#f5fafd"/><stop offset="1" stop-color="#fff"/></radialGradient><filter id="luminosity-noclip-4" x="81.46" y="0" width="398.94" height="398.94" filterUnits="userSpaceOnUse" color-interpolation-filters="sRGB"><feFlood flood-color="#fff" result="bg"/><feBlend in="SourceGraphic" in2="bg"/></filter><mask id="mask-4" x="81.46" y="0" width="398.94" height="398.94" maskUnits="userSpaceOnUse"><g class="cls-3"><circle class="cls-4" cx="280.93" cy="199.47" r="199.47" transform="translate(-58.76 257.07) rotate(-45)"/></g></mask><radialGradient id="radial-gradient-4" cx="-43949.34" cy="-65490.75" r="5954.31" gradientTransform="translate(-229.34 2791.89) rotate(45) scale(0.03)" gradientUnits="userSpaceOnUse"><stop offset="0.31" stop-color="#3f637a"/><stop offset="0.55" stop-color="#8198a8"/><stop offset="1" stop-color="#fff"/></radialGradient><clipPath id="clip-path"><path class="cls-5" d="M113.11,196.84C92,248.78,22.82,145,96.75,108.58c24-11.83,61.49,3.06,67.06,29.27C172.69,179.63,126.4,164.2,113.11,196.84Z"/></clipPath><radialGradient id="radial-gradient-5" cx="-42581.83" cy="-64797.51" r="7669.85" gradientTransform="translate(1754.55 2388.44) scale(0.04)" gradientUnits="userSpaceOnUse"><stop offset="0" stop-color="#28dbde"/><stop offset="1" stop-color="#008ecc"/></radialGradient><radialGradient id="radial-gradient-6" cx="-35156.8" cy="-64662.73" r="3268.72" xlink:href="#radial-gradient-5"/><radialGradient id="radial-gradient-7" cx="-45507.45" cy="-60124.75" r="3199.7" xlink:href="#radial-gradient-5"/><clipPath id="clip-path-3"><path class="cls-5" d="M451.87,200.88C454.45,262,368,395.93,290.71,361.74c-45-19.92-24.13-81.19-83.24-74.33-22.9,2.65-38.76,15.19-59.82-.66-15.18-11.42-23.5-35.83-27-53.38-17.31-85.85,56.67-190.66,148-186.73,41.34,1.78,85.52,21.92,119.47,44.77C432.66,121.42,449.72,150,451.87,200.88Z"/></clipPath></defs><g class="cls-6"><g id="Layer_2" data-name="Layer 2"><g id="Layer_1-2" data-name="Layer 1"><g class="cls-7"><path class="cls-8" d="M564.94,440.69c0,12-126.47,21.77-282.47,21.77S0,452.71,0,440.69s126.47-21.77,282.47-21.77S564.94,428.66,564.94,440.69Z"/></g><path class="cls-9" d="M346.35,264.38c-.14,68-59.58,157.6-133.85,106.84-36.63-25-42.32-50.23-89.36-57.58-40.44-6.32-75.45-19.48-73.71-67.13C52.22,170.06,151.63,122.1,218,125.17,299.54,128.94,342.91,187,346.35,264.38Z"/><path class="cls-9" d="M466,235.16c-38.07,36-115.41,33.43-154.18-.13-28.18-24.37-14.29-51.74-26.44-81.13-15.11-36.54-31.84-59.36-9.8-99.64C290.61,26.71,320.1,4.82,351.69,1.43c38-4.08,56.19,17.83,71.2,48.53,8.92,18.25,14.82,34.23,31.26,47.09,15,11.72,36.29,15.59,46.16,33.07C519.31,163.79,487.93,210.8,466,235.16Z"/><g class="cls-10"><circle class="cls-11" cx="280.93" cy="199.47" r="199.47" transform="translate(-58.76 257.07) rotate(-45)"/></g><g class="cls-12"><g class="cls-13"><line class="cls-14" x1="54.14" y1="90.65" x2="183.48" y2="90.65"/><line class="cls-14" x1="54.14" y1="96.79" x2="183.48" y2="96.79"/><line class="cls-14" x1="54.14" y1="102.92" x2="183.48" y2="102.92"/><line class="cls-14" x1="54.14" y1="109.05" x2="183.48" y2="109.05"/><line class="cls-14" x1="54.14" y1="115.19" x2="183.48" y2="115.19"/><line class="cls-14" x1="54.14" y1="121.32" x2="183.48" y2="121.32"/><line class="cls-14" x1="54.14" y1="127.45" x2="183.48" y2="127.45"/><line class="cls-14" x1="54.14" y1="133.59" x2="183.48" y2="133.59"/><line class="cls-14" x1="54.14" y1="139.72" x2="183.48" y2="139.72"/><line class="cls-14" x1="54.14" y1="145.85" x2="183.48" y2="145.85"/><line class="cls-14" x1="54.14" y1="151.99" x2="183.48" y2="151.99"/><line class="cls-14" x1="54.14" y1="158.12" x2="183.48" y2="158.12"/><line class="cls-14" x1="54.14" y1="164.25" x2="183.48" y2="164.25"/><line class="cls-14" x1="54.14" y1="170.39" x2="183.48" y2="170.39"/><line class="cls-14" x1="54.14" y1="176.52" x2="183.48" y2="176.52"/><line class="cls-14" x1="54.14" y1="182.65" x2="183.48" y2="182.65"/><line class="cls-14" x1="54.14" y1="188.79" x2="183.48" y2="188.79"/><line class="cls-14" x1="54.14" y1="194.92" x2="183.48" y2="194.92"/><line class="cls-14" x1="54.14" y1="201.05" x2="183.48" y2="201.05"/><line class="cls-14" x1="54.14" y1="207.19" x2="183.48" y2="207.19"/><line class="cls-14" x1="54.14" y1="213.32" x2="183.48" y2="213.32"/><line class="cls-14" x1="54.14" y1="219.45" x2="183.48" y2="219.45"/></g></g><path class="cls-15" d="M451.87,200.88C454.45,262,368,395.93,290.71,361.74c-45-19.92-24.13-81.19-83.24-74.33-22.9,2.65-38.76,15.19-59.82-.66-15.18-11.42-23.5-35.83-27-53.38-17.31-85.85,56.67-190.66,148-186.73,41.34,1.78,85.52,21.92,119.47,44.77C432.66,121.42,449.72,150,451.87,200.88Z"/><path class="cls-16" d="M185.51,83.64a15.17,15.17,0,1,1-15.17-15.16A15.17,15.17,0,0,1,185.51,83.64Z"/><path class="cls-17" d="M518,143.45c2.47,15.43-8.35,38.51-24.94,42-27.46,5.77-10.49-23.23-11.1-42.16-.41-12.68-12.67-39.61,10.06-34.74C502.82,110.86,516.31,133.66,518,143.45Z"/><g class="cls-18"><g class="cls-13"><g class="cls-19"><line class="cls-20" x1="54.14" y1="90.65" x2="183.48" y2="90.65"/><line class="cls-20" x1="54.14" y1="96.79" x2="183.48" y2="96.79"/><line class="cls-20" x1="54.14" y1="102.92" x2="183.48" y2="102.92"/><line class="cls-20" x1="54.14" y1="109.05" x2="183.48" y2="109.05"/><line class="cls-20" x1="54.14" y1="115.19" x2="183.48" y2="115.19"/><line class="cls-20" x1="54.14" y1="121.32" x2="183.48" y2="121.32"/><line class="cls-20" x1="54.14" y1="127.45" x2="183.48" y2="127.45"/><line class="cls-20" x1="54.14" y1="133.59" x2="183.48" y2="133.59"/><line class="cls-20" x1="54.14" y1="139.72" x2="183.48" y2="139.72"/><line class="cls-20" x1="54.14" y1="145.85" x2="183.48" y2="145.85"/><line class="cls-20" x1="54.14" y1="151.99" x2="183.48" y2="151.99"/><line class="cls-20" x1="54.14" y1="158.12" x2="183.48" y2="158.12"/><line class="cls-20" x1="54.14" y1="164.25" x2="183.48" y2="164.25"/><line class="cls-20" x1="54.14" y1="170.39" x2="183.48" y2="170.39"/><line class="cls-20" x1="54.14" y1="176.52" x2="183.48" y2="176.52"/><line class="cls-20" x1="54.14" y1="182.65" x2="183.48" y2="182.65"/><line class="cls-20" x1="54.14" y1="188.79" x2="183.48" y2="188.79"/><line class="cls-20" x1="54.14" y1="194.92" x2="183.48" y2="194.92"/><line class="cls-20" x1="54.14" y1="201.05" x2="183.48" y2="201.05"/><line class="cls-20" x1="54.14" y1="207.19" x2="183.48" y2="207.19"/><line class="cls-20" x1="54.14" y1="213.32" x2="183.48" y2="213.32"/><line class="cls-20" x1="54.14" y1="219.45" x2="183.48" y2="219.45"/></g></g></g><path class="cls-21" d="M142.69,305.15c19.11,2.17,14.15,32.37-.56,38-20.93,8-43.43-20.68-46.46-38.44-1.7-9.95,1-44.08,18.57-35.1,4.24,2.17,3.94,20.05,7.56,24.64C128.86,303.15,132.69,301.87,142.69,305.15Z"/><path class="cls-22" d="M448.11,275.78a12.35,12.35,0,1,1,12.35,12.34A12.35,12.35,0,0,1,448.11,275.78Z"/><path class="cls-23" d="M311.6,56.13A12.35,12.35,0,1,1,324,68.48,12.35,12.35,0,0,1,311.6,56.13Z"/><rect class="cls-24" x="409.55" y="266.64" width="2.92" height="2.92" transform="translate(142.92 679.11) rotate(-90)"/><rect class="cls-24" x="409.55" y="261.49" width="2.92" height="2.92" transform="translate(148.07 673.96) rotate(-90)"/><rect class="cls-24" x="409.55" y="256.34" width="2.92" height="2.92" transform="translate(153.22 668.81) rotate(-90)"/><rect class="cls-24" x="409.55" y="251.18" width="2.92" height="2.92" transform="translate(158.37 663.66) rotate(-90)"/><g class="cls-25"><path class="cls-26" d="M359.68,105.43c.11,10.31-17.83,45.21-20.77,53.52-5.52,15.59-8.29,39.92-14.19,69.2-.79,3.9-2.35,17-6.64,33.8-2.79,10.9-7.65,11.42-6.31-3.79,2-23,5.13-41.48,7.76-55.72,5-27.13,7.54-35,9.82-41.07,2.78-7.44,4.65-12.35,8.34-18.8C339.88,138.76,343,134,348,125a73.86,73.86,0,0,0,3.88-7.8,51.27,51.27,0,0,0,3.47-10.58c1.38-7,.21-11.18,1.06-11.25S359.63,100.15,359.68,105.43Z"/><path class="cls-26" d="M359.68,105.43c.11,10.31-17.83,45.21-20.77,53.52-5.52,15.59-8.29,39.92-14.19,69.2-.79,3.9-2.35,17-6.64,33.8-2.79,10.9-7.65,11.42-6.31-3.79,2-23,5.13-41.48,7.76-55.72,5-27.13,7.54-35,9.82-41.07,2.78-7.44,4.65-12.35,8.34-18.8C339.88,138.76,343,134,348,125a73.86,73.86,0,0,0,3.88-7.8,51.27,51.27,0,0,0,3.47-10.58c1.38-7,.21-11.18,1.06-11.25S359.63,100.15,359.68,105.43Z"/><path class="cls-27" d="M338.91,159c2.94-8.31,20.88-43.21,20.77-53.52a20.55,20.55,0,0,0-.4-3.84c-3.27,21.65-20.37,49.31-23.32,57-5.95,15.43-8,33.13-14.7,62.25-.89,3.87-2.82,17-7.56,33.6a26.24,26.24,0,0,1-2.05,5.3c-.88,13.6,3.74,12.75,6.43,2.24,4.29-16.75,5.85-29.9,6.64-33.8C330.62,198.87,333.39,174.54,338.91,159Z"/><rect class="cls-28" x="343.87" y="74.45" width="16.05" height="28.59" transform="translate(16.7 -50.37) rotate(8.39)"/><path class="cls-29" d="M357.75,104.06l4.17-28.29-4.6-.67c-.09.71-.21,1.52-.33,2.41-.95,7.07-1,8.29-1.47,10.83-1,4.91-1.47,7.37-2.9,9-2.48,2.81-6.86,3.11-10.51,2.75l-.24,1.65Z"/><path class="cls-30" d="M359.14,75.68l-13.35-2a.55.55,0,0,1-.46-.62h0a.54.54,0,0,1,.62-.45l13.34,2a.54.54,0,0,1,.46.61h0A.55.55,0,0,1,359.14,75.68Z"/><path class="cls-30" d="M358.7,77.48l-13.29-2a.57.57,0,0,1-.48-.65h0a.58.58,0,0,1,.65-.48l13.28,2a.59.59,0,0,1,.49.65h0A.58.58,0,0,1,358.7,77.48Z"/><path class="cls-30" d="M358.29,79.28l-13.29-2a.56.56,0,0,1-.48-.64h0a.57.57,0,0,1,.64-.49l13.29,2a.57.57,0,0,1,.48.65h0A.56.56,0,0,1,358.29,79.28Z"/><path class="cls-30" d="M357.83,81.26l-13.28-2a.56.56,0,0,1-.48-.64h0a.56.56,0,0,1,.64-.48L358,80.13a.57.57,0,0,1,.48.65h0A.57.57,0,0,1,357.83,81.26Z"/><path class="cls-30" d="M357.63,83.3l-13.29-2a.57.57,0,0,1-.48-.65h0a.57.57,0,0,1,.64-.48l13.29,2a.57.57,0,0,1,.48.65h0A.56.56,0,0,1,357.63,83.3Z"/><path class="cls-30" d="M357.29,85.31l-13.28-2a.57.57,0,0,1-.48-.65h0a.57.57,0,0,1,.64-.48l13.29,2a.57.57,0,0,1,.48.65h0A.58.58,0,0,1,357.29,85.31Z"/><path class="cls-30" d="M357,87.53l-13.29-2a.58.58,0,0,1-.48-.65h0a.58.58,0,0,1,.65-.48l13.29,2a.58.58,0,0,1,.48.65h0A.57.57,0,0,1,357,87.53Z"/><path class="cls-30" d="M356.69,89.57l-13.29-2a.57.57,0,0,1-.48-.64h0a.57.57,0,0,1,.65-.48l13.29,2a.57.57,0,0,1,.48.65h0A.57.57,0,0,1,356.69,89.57Z"/><path class="cls-30" d="M356.34,92l-13.29-2a.57.57,0,0,1-.48-.64h0a.57.57,0,0,1,.65-.48l13.29,2a.57.57,0,0,1,.48.64h0A.57.57,0,0,1,356.34,92Z"/><path class="cls-30" d="M356,93.69l-13.28-2a.58.58,0,0,1-.49-.65h0a.58.58,0,0,1,.65-.48l13.29,2a.57.57,0,0,1,.48.65h0A.58.58,0,0,1,356,93.69Z"/><path class="cls-30" d="M355.5,95.67l-13.29-2a.58.58,0,0,1-.48-.65h0a.58.58,0,0,1,.65-.48l13.29,2a.58.58,0,0,1,.48.65h0A.57.57,0,0,1,355.5,95.67Z"/><path class="cls-30" d="M355.29,97.71l-13.29-2a.58.58,0,0,1-.48-.65h0a.57.57,0,0,1,.65-.48l13.29,2a.57.57,0,0,1,.48.65h0A.58.58,0,0,1,355.29,97.71Z"/><path class="cls-30" d="M355,99.72l-13.29-2a.58.58,0,0,1-.48-.65h0a.57.57,0,0,1,.65-.48l13.29,2a.57.57,0,0,1,.48.64h0A.59.59,0,0,1,355,99.72Z"/><path class="cls-30" d="M354.7,101.94l-13.29-2a.57.57,0,0,1-.48-.65h0a.57.57,0,0,1,.65-.48l13.28,2a.56.56,0,0,1,.48.65h0A.57.57,0,0,1,354.7,101.94Z"/><path class="cls-30" d="M354.36,104l-13.29-2a.57.57,0,0,1-.48-.65h0a.58.58,0,0,1,.65-.48l13.29,2a.58.58,0,0,1,.48.65h0A.58.58,0,0,1,354.36,104Z"/><rect class="cls-26" x="342.7" y="85.91" width="34.72" height="7.27" rx="2.66" transform="translate(218.96 432.7) rotate(-81.61)"/><path class="cls-27" d="M361.51,104.62l4.29-29.09a2.66,2.66,0,0,0-1.67-2.86l-4.12,28a2.66,2.66,0,0,1-3,2.24l-1.93-.28a2.67,2.67,0,0,1-.57-.16l-.17,1.13a2.66,2.66,0,0,0,2.24,3l1.93.29A2.67,2.67,0,0,0,361.51,104.62Z"/><path class="cls-31" d="M358.77,85.66h0a1.1,1.1,0,0,1-.92-1.24l1.36-9.22a1.1,1.1,0,0,1,1.24-.92h0a1.09,1.09,0,0,1,.92,1.24L360,84.74A1.09,1.09,0,0,1,358.77,85.66Z"/><path class="cls-31" d="M325.59,182.61a1.12,1.12,0,0,1-.9-1.31c.76-4,1.68-8,2.77-11.92a113.92,113.92,0,0,1,5.62-16.26c1.2-2.74,2.53-5.45,4-8.07a1.11,1.11,0,0,1,1.53-.44h0a1.11,1.11,0,0,1,.43,1.51c-1.39,2.56-2.69,5.21-3.87,7.9a112.3,112.3,0,0,0-5.52,16c-1.06,3.84-2,7.79-2.72,11.74a1.13,1.13,0,0,1-1.3.89Z"/><path class="cls-26" d="M176.27,94.19c-1.28,10.23,12.56,46.95,14.53,55.54,3.71,16.12,3.68,40.6,6.21,70.37.34,4,.39,17.21,2.73,34.34,1.53,11.14,6.3,12.21,6.71-3.05.62-23.09-.36-41.79-1.35-56.24-1.89-27.52-3.51-35.61-5.07-41.92-1.92-7.71-3.21-12.8-6.15-19.63-1.74-4-4.25-9.13-8.24-18.66a73.63,73.63,0,0,1-3-8.19,52,52,0,0,1-2.23-10.91c-.57-7.15,1.06-11.13.22-11.3S176.93,89,176.27,94.19Z"/><path class="cls-26" d="M176.27,94.19c-1.28,10.23,12.56,46.95,14.53,55.54,3.71,16.12,3.68,40.6,6.21,70.37.34,4,.39,17.21,2.73,34.34,1.53,11.14,6.3,12.21,6.71-3.05.62-23.09-.36-41.79-1.35-56.24-1.89-27.52-3.51-35.61-5.07-41.92-1.92-7.71-3.21-12.8-6.15-19.63-1.74-4-4.25-9.13-8.24-18.66a73.63,73.63,0,0,1-3-8.19,52,52,0,0,1-2.23-10.91c-.57-7.15,1.06-11.13.22-11.3S176.93,89,176.27,94.19Z"/><path class="cls-27" d="M190.8,149.73c-2-8.59-15.81-45.31-14.53-55.54a21,21,0,0,1,.85-3.77c.77,21.88,14.6,51.32,16.66,59.26,4.15,16,4.16,33.83,7.5,63.52.45,4,.86,17.19,3.68,34.25a25.56,25.56,0,0,0,1.43,5.49c-.68,13.62-5.17,12.25-6.65,1.5-2.34-17.13-2.39-30.38-2.73-34.34C194.48,190.33,194.51,165.85,190.8,149.73Z"/><rect class="cls-28" x="177.89" y="64.21" width="16.05" height="28.59" transform="matrix(-1, 0.03, -0.03, -1, 374.25, 151.03)"/><path class="cls-29" d="M178.35,93.06l-.91-28.58,4.64-.15c0,.72,0,1.53,0,2.43.14,7.13,0,8.35.23,10.93.41,5,.62,7.49,1.85,9.25,2.15,3.07,6.47,3.87,10.13,3.94l.06,1.66Z"/><path class="cls-30" d="M180.21,64.7l13.48-.44a.54.54,0,0,0,.53-.55h0a.55.55,0,0,0-.56-.53l-13.48.43a.55.55,0,0,0-.53.56h0A.55.55,0,0,0,180.21,64.7Z"/><path class="cls-30" d="M180.44,66.54l13.43-.43a.58.58,0,0,0,.55-.59h0a.57.57,0,0,0-.59-.55l-13.42.43a.57.57,0,0,0-.56.58h0A.58.58,0,0,0,180.44,66.54Z"/><path class="cls-30" d="M180.65,68.38,194.07,68a.58.58,0,0,0,.55-.59h0a.56.56,0,0,0-.59-.55l-13.42.43a.57.57,0,0,0-.55.58h0A.57.57,0,0,0,180.65,68.38Z"/><path class="cls-30" d="M180.87,70.4,194.29,70a.57.57,0,0,0,.55-.59h0a.56.56,0,0,0-.58-.55l-13.43.43a.57.57,0,0,0-.55.58h0A.57.57,0,0,0,180.87,70.4Z"/><path class="cls-30" d="M180.84,72.44,194.27,72a.57.57,0,0,0,.55-.59h0a.57.57,0,0,0-.59-.55l-13.42.43a.57.57,0,0,0-.55.59h0A.57.57,0,0,0,180.84,72.44Z"/><path class="cls-30" d="M180.94,74.48l13.43-.43a.58.58,0,0,0,.55-.59h0a.56.56,0,0,0-.59-.55l-13.42.43a.57.57,0,0,0-.56.58h0A.58.58,0,0,0,180.94,74.48Z"/><path class="cls-30" d="M181,76.71l13.43-.43a.57.57,0,0,0,.55-.59h0a.58.58,0,0,0-.59-.55l-13.43.43a.58.58,0,0,0-.55.59h0A.58.58,0,0,0,181,76.71Z"/><path class="cls-30" d="M181.05,78.78l13.43-.43a.57.57,0,0,0,.55-.59h0a.57.57,0,0,0-.59-.55L181,77.64a.56.56,0,0,0-.55.59h0A.57.57,0,0,0,181.05,78.78Z"/><path class="cls-30" d="M181.13,81.23l13.42-.43a.58.58,0,0,0,.56-.59h0a.57.57,0,0,0-.59-.55l-13.43.43a.57.57,0,0,0-.55.58h0A.58.58,0,0,0,181.13,81.23Z"/><path class="cls-30" d="M181.32,83l13.42-.43a.57.57,0,0,0,.56-.58h0a.58.58,0,0,0-.59-.56l-13.43.43a.58.58,0,0,0-.55.59h0A.57.57,0,0,0,181.32,83Z"/><path class="cls-30" d="M181.54,85,195,84.54a.57.57,0,0,0,.55-.58h0a.58.58,0,0,0-.59-.56l-13.42.43a.58.58,0,0,0-.56.59h0A.57.57,0,0,0,181.54,85Z"/><path class="cls-30" d="M181.52,87l13.42-.43a.56.56,0,0,0,.55-.59h0a.57.57,0,0,0-.58-.55l-13.43.43a.58.58,0,0,0-.55.59h0A.57.57,0,0,0,181.52,87Z"/><path class="cls-30" d="M181.62,89.05,195,88.62a.56.56,0,0,0,.55-.58h0a.57.57,0,0,0-.58-.56l-13.43.43a.58.58,0,0,0-.55.59h0A.56.56,0,0,0,181.62,89.05Z"/><path class="cls-30" d="M181.63,91.29l13.42-.43a.57.57,0,0,0,.55-.59h0a.57.57,0,0,0-.59-.55l-13.42.43a.58.58,0,0,0-.55.59h0A.57.57,0,0,0,181.63,91.29Z"/><path class="cls-30" d="M181.73,93.36l13.42-.43a.58.58,0,0,0,.56-.59h0a.58.58,0,0,0-.59-.55l-13.43.43a.57.57,0,0,0-.55.59h0A.58.58,0,0,0,181.73,93.36Z"/><rect class="cls-26" x="174.08" y="61.01" width="7.27" height="34.72" rx="2.66" transform="translate(-2.42 5.73) rotate(-1.83)"/><path class="cls-27" d="M174.55,93.18l-.94-29.39a2.67,2.67,0,0,1,2-2.66l.91,28.26A2.66,2.66,0,0,0,179.24,92l1.95-.07a2.33,2.33,0,0,0,.59-.08l0,1.14a2.65,2.65,0,0,1-2.57,2.74l-2,.07A2.67,2.67,0,0,1,174.55,93.18Z"/><path class="cls-31" d="M179.43,74.66h0a1.1,1.1,0,0,0,1.06-1.13l-.3-9.32a1.09,1.09,0,0,0-1.13-1h0A1.08,1.08,0,0,0,178,64.28l.3,9.32A1.09,1.09,0,0,0,179.43,74.66Z"/><path class="cls-31" d="M201.34,174.76a1.11,1.11,0,0,0,1-1.2c-.29-4.07-.76-8.16-1.39-12.15a113.3,113.3,0,0,0-3.73-16.8c-.88-2.86-1.89-5.71-3-8.47a1.12,1.12,0,0,0-1.47-.62h0a1.12,1.12,0,0,0-.6,1.45c1.09,2.71,2.08,5.5,2.94,8.3a111.74,111.74,0,0,1,3.66,16.49c.62,3.93,1.08,8,1.37,12a1.12,1.12,0,0,0,1.19,1Z"/><path class="cls-26" d="M385.86,119.82c-2.45,10-28.5,39.37-33.41,46.69-9.23,13.73-17.95,36.6-30.95,63.5-1.73,3.58-6.51,15.93-14.82,31.09-5.41,9.87-10.25,9.16-5.18-5.24,7.68-21.79,15.28-38.9,21.37-52.05,11.59-25,16-32,19.71-37.34,4.54-6.51,7.57-10.81,12.75-16.13,3.07-3.15,7.24-7,14.37-14.49a72.94,72.94,0,0,0,5.7-6.59,51.53,51.53,0,0,0,6-9.38c3.09-6.48,3-10.78,3.83-10.64S387.12,114.69,385.86,119.82Z"/><path class="cls-32" d="M385.86,119.82c-2.45,10-28.5,39.37-33.41,46.69-9.23,13.73-17.95,36.6-30.95,63.5-1.73,3.58-6.51,15.93-14.82,31.09-5.41,9.87-10.25,9.16-5.18-5.24,7.68-21.79,15.28-38.9,21.37-52.05,11.59-25,16-32,19.71-37.34,4.54-6.51,7.57-10.81,12.75-16.13,3.07-3.15,7.24-7,14.37-14.49a72.94,72.94,0,0,0,5.7-6.59,51.53,51.53,0,0,0,6-9.38c3.09-6.48,3-10.78,3.83-10.64S387.12,114.69,385.86,119.82Z"/><path class="cls-33" d="M352.45,166.51c4.91-7.32,31-36.67,33.41-46.69a20.86,20.86,0,0,0,.56-3.82c-8.54,20.16-32,42.71-36.73,49.39-9.6,13.48-16,30.11-29.71,56.65-1.83,3.53-7,15.75-15.67,30.67a25.78,25.78,0,0,1-3.31,4.62c-4.22,13,.46,13.29,5.68,3.77C315,245.94,319.77,233.59,321.5,230,334.5,203.11,343.22,180.24,352.45,166.51Z"/><rect class="cls-28" x="374.43" y="87.43" width="16.05" height="28.59" transform="translate(69.18 -140.1) rotate(22.77)"/><path class="cls-29" d="M384.33,118,395.4,91.65l-4.29-1.79-.92,2.25c-2.68,6.61-3,7.79-4.12,10.13-2.16,4.51-3.25,6.77-5,8-3.1,2.1-7.42,1.3-10.87,0l-.65,1.54Z"/><path class="cls-30" d="M392.72,90.87l-12.43-5.22a.54.54,0,0,1-.29-.71h0a.52.52,0,0,1,.7-.29l12.44,5.22a.53.53,0,0,1,.29.71h0A.55.55,0,0,1,392.72,90.87Z"/><path class="cls-30" d="M391.85,92.5l-12.38-5.19a.58.58,0,0,1-.31-.75h0a.58.58,0,0,1,.75-.31l12.38,5.2a.58.58,0,0,1,.31.75h0A.56.56,0,0,1,391.85,92.5Z"/><path class="cls-30" d="M391,94.15,378.62,89a.56.56,0,0,1-.3-.75h0a.56.56,0,0,1,.74-.3l12.39,5.2a.56.56,0,0,1,.3.74h0A.57.57,0,0,1,391,94.15Z"/><path class="cls-30" d="M390.07,96l-12.38-5.2a.58.58,0,0,1-.31-.75h0a.57.57,0,0,1,.75-.3l12.39,5.19a.58.58,0,0,1,.3.75h0A.58.58,0,0,1,390.07,96Z"/><path class="cls-30" d="M389.37,97.88,377,92.68a.56.56,0,0,1-.3-.75h0a.56.56,0,0,1,.74-.3l12.39,5.2a.56.56,0,0,1,.3.74h0A.57.57,0,0,1,389.37,97.88Z"/><path class="cls-30" d="M388.55,99.74l-12.39-5.2a.57.57,0,0,1-.3-.74h0a.57.57,0,0,1,.74-.31L389,98.69a.57.57,0,0,1,.3.75h0A.57.57,0,0,1,388.55,99.74Z"/><path class="cls-30" d="M387.74,101.83l-12.39-5.2a.58.58,0,0,1-.3-.75h0a.57.57,0,0,1,.75-.3l12.38,5.2a.57.57,0,0,1,.31.74h0A.58.58,0,0,1,387.74,101.83Z"/><path class="cls-30" d="M386.9,103.72l-12.38-5.2a.57.57,0,0,1-.31-.74h0a.58.58,0,0,1,.75-.31l12.39,5.2a.57.57,0,0,1,.3.75h0A.58.58,0,0,1,386.9,103.72Z"/><path class="cls-30" d="M386,106l-12.38-5.2a.58.58,0,0,1-.31-.75h0a.57.57,0,0,1,.75-.3l12.38,5.2a.57.57,0,0,1,.31.74h0A.58.58,0,0,1,386,106Z"/><path class="cls-30" d="M385.17,107.52l-12.39-5.19a.57.57,0,0,1-.3-.75h0a.57.57,0,0,1,.74-.31l12.39,5.2a.57.57,0,0,1,.3.75h0A.55.55,0,0,1,385.17,107.52Z"/><path class="cls-30" d="M384.24,109.33l-12.39-5.2a.56.56,0,0,1-.3-.74h0a.57.57,0,0,1,.74-.31l12.39,5.2a.57.57,0,0,1,.3.75h0A.57.57,0,0,1,384.24,109.33Z"/><path class="cls-30" d="M383.53,111.25l-12.39-5.2a.56.56,0,0,1-.3-.74h0a.57.57,0,0,1,.74-.31L384,110.2a.56.56,0,0,1,.3.75h0A.56.56,0,0,1,383.53,111.25Z"/><path class="cls-30" d="M382.71,113.12l-12.39-5.2a.57.57,0,0,1-.3-.75h0a.55.55,0,0,1,.74-.3l12.39,5.19a.57.57,0,0,1,.3.75h0A.57.57,0,0,1,382.71,113.12Z"/><path class="cls-30" d="M381.9,115.2,369.52,110a.57.57,0,0,1-.31-.74h0A.58.58,0,0,1,370,109l12.38,5.2a.58.58,0,0,1,.31.75h0A.57.57,0,0,1,381.9,115.2Z"/><path class="cls-30" d="M381.07,117.1l-12.39-5.2a.56.56,0,0,1-.3-.75h0a.55.55,0,0,1,.74-.3L381.51,116a.58.58,0,0,1,.3.75h0A.57.57,0,0,1,381.07,117.1Z"/><rect class="cls-32" x="372.81" y="100.9" width="34.72" height="7.27" rx="2.66" transform="translate(142.78 423.84) rotate(-67.23)"/><path class="cls-33" d="M387.83,119.5l11.38-27.12a2.65,2.65,0,0,0-.9-3.19l-10.94,26.07a2.66,2.66,0,0,1-3.48,1.42l-1.8-.76a3.29,3.29,0,0,1-.52-.29l-.44,1.06a2.65,2.65,0,0,0,1.42,3.47l1.8.76A2.66,2.66,0,0,0,387.83,119.5Z"/><path class="cls-34" d="M389.89,100.45h0a1.1,1.1,0,0,1-.58-1.43l3.61-8.59a1.09,1.09,0,0,1,1.43-.59h0a1.1,1.1,0,0,1,.58,1.43l-3.61,8.6A1.1,1.1,0,0,1,389.89,100.45Z"/><path class="cls-34" d="M333.66,186.11a1.11,1.11,0,0,1-.54-1.49c1.73-3.7,3.62-7.35,5.64-10.85a114.18,114.18,0,0,1,9.48-14.36c1.85-2.36,3.81-4.65,5.84-6.84a1.13,1.13,0,0,1,1.6,0h0a1.12,1.12,0,0,1,0,1.57c-2,2.14-3.91,4.38-5.71,6.69a112.47,112.47,0,0,0-9.31,14.09c-2,3.46-3.86,7.05-5.56,10.69a1.11,1.11,0,0,1-1.48.54Z"/><polygon class="cls-35" points="288.23 89.26 275.68 89.28 262.16 98.14 301.71 98.14 288.23 89.26"/><rect class="cls-36" x="249.21" y="222.32" width="65.86" height="7.18" transform="translate(-0.35 0.44) rotate(-0.09)"/><polygon class="cls-37" points="307.48 229.46 307.47 223.61 249.21 223.7 249.21 222.38 315.06 222.27 315.07 229.45 307.48 229.46"/><polygon class="cls-38" points="286.92 69.35 276.92 69.37 274.57 89.28 289.34 89.26 286.92 69.35"/><polygon class="cls-39" points="274.57 89.28 274.57 89.27 284.36 89.26 283.73 69.36 286.92 69.35 289.34 89.26 274.57 89.28"/><polygon class="cls-40" points="301.72 98.07 262.16 98.14 249.21 222.38 315.06 222.27 301.72 98.07"/><path class="cls-36" d="M310.83,222.28a415.91,415.91,0,0,0-12.13-69.53c-5.29-19.78-11.47-36.37-25.88-43.67a33.46,33.46,0,0,0-11.45-3.4l.79-7.55,39.56-.06,13.34,124.2Z"/><path class="cls-41" d="M278.58,74.88h0c-.59,0-1.15,1.16-1.24,2.65L277,82.92c-.1,1.49.3,2.72.89,2.75h0c.59,0,1.15-1.16,1.24-2.65l.35-5.4C279.57,76.14,279.16,74.9,278.58,74.88Z"/><circle class="cls-42" cx="282.74" cy="189.9" r="10.03" transform="translate(-55.26 231.83) rotate(-40.96)"/><path class="cls-43" d="M264.52,139.38c.09,0-5.83,56.73-7.22,70a2.59,2.59,0,0,0,2.48,2.85l17.34.56a.58.58,0,0,0,.43-1,49.21,49.21,0,0,1-9.25-13.44,34.84,34.84,0,0,1-3-11.79C263.26,167.44,264.4,139.37,264.52,139.38Z"/><path class="cls-44" d="M232.72,149.84h-4v-5.52H202.5v5.52h-4a6,6,0,0,0-6,6v93.76c0,2,10.34,3.57,23.1,3.57s23.09-1.6,23.09-3.57V155.81A6,6,0,0,0,232.72,149.84Z"/><path class="cls-45" d="M215.6,251.05a117.6,117.6,0,0,1-14.54-.81,24.32,24.32,0,0,1-6.47-1.42v-93a3.89,3.89,0,0,1,3.89-3.89h6.1v-8.33h22v8.33h6.1a3.89,3.89,0,0,1,3.89,3.89v93a24.32,24.32,0,0,1-6.47,1.42A117.6,117.6,0,0,1,215.6,251.05Z"/><path class="cls-46" d="M232.72,151.92h-6.1v-8.33H218.9c.15,4.43.46,8.64.87,9.18s1.91.77,3.15.83a2,2,0,0,1,1.89,1.94l1.5,64.1a32.79,32.79,0,0,1-2.69,13.89,18.13,18.13,0,0,1-2,3.54c-6.7,8.89-18.56,11.07-27,11.41v.34a24.32,24.32,0,0,0,6.47,1.42,130.91,130.91,0,0,0,29.08,0,24.32,24.32,0,0,0,6.47-1.42v-93A3.89,3.89,0,0,0,232.72,151.92Z"/><rect class="cls-26" x="192.5" y="170.8" width="46.19" height="53.16"/><path class="cls-47" d="M238.69,224H214.15c15.82-4,10.62-53.16,10.62-53.16h13.92Z"/><rect class="cls-46" x="202.5" y="141.12" width="26.07" height="6.25"/><path class="cls-48" d="M212.51,116.27h6.18A11.73,11.73,0,0,1,230.42,128v17.24a0,0,0,0,1,0,0H200.78a0,0,0,0,1,0,0V128A11.73,11.73,0,0,1,212.51,116.27Z"/><rect class="cls-44" x="200.78" y="156.76" width="5.16" height="11.84" rx="2.58"/><rect class="cls-31" x="200.78" y="177.81" width="4.22" height="40.83" rx="2.11"/><circle class="cls-49" cx="215.6" cy="178.97" r="3.74"/><path class="cls-49" d="M206.62,186.6h-7.46a1,1,0,0,1-1-1h0a1,1,0,0,1,1-1h7.46a1,1,0,0,1,1,1h0A1,1,0,0,1,206.62,186.6Z"/><rect class="cls-49" x="198.13" y="189.62" width="9.52" height="2.06" rx="1.03"/><rect class="cls-49" x="225.66" y="189.4" width="8.06" height="2.06" rx="1.03"/><rect class="cls-49" x="209.39" y="189.62" width="14.02" height="2.06" rx="1.03"/><path class="cls-49" d="M214.57,196.78H198.83a1,1,0,0,1-1-1h0a1,1,0,0,1,1-1h15.74a1,1,0,0,1,1,1h0A1,1,0,0,1,214.57,196.78Z"/><rect class="cls-49" x="225.34" y="194.5" width="8.06" height="2.06" rx="1.03"/><path class="cls-49" d="M222.06,196.78H219a1,1,0,0,1-1-1h0a1,1,0,0,1,1-1h3.08a1,1,0,0,1,1,1h0A1,1,0,0,1,222.06,196.78Z"/><path class="cls-50" d="M230.42,118.21c0-1.07-1.17-1.94-2.61-1.94H203.39a2.85,2.85,0,0,0-2.32,1c4.39,0,13.06.16,17.34.25a2.46,2.46,0,0,1,2.63,1.91c.33,5.2,1.17,19.73.24,22.14-.56,1.45-2.08,2.66-4.22,3.62h13.36Z"/><rect class="cls-51" x="205" y="124.83" width="2.65" height="17.39" rx="1.33"/><polygon class="cls-49" points="249.74 121.08 250.28 121.28 237.42 155.27 237.14 154.13 249.74 121.08"/><rect class="cls-52" x="225.12" y="174.42" width="4.93" height="11.8" transform="translate(376.62 429.52) rotate(-159.27)"/><rect class="cls-53" x="225.23" y="173.83" width="1.59" height="11.8" transform="translate(373.8 427.83) rotate(-159.27)"/><rect class="cls-54" x="179.87" y="292.6" width="2.97" height="19.47" rx="1.19" transform="translate(-165.6 364.94) rotate(-69.27)"/><rect class="cls-49" x="197.8" y="186.81" width="21.13" height="88.35" transform="translate(321.47 520.77) rotate(-159.27)"/><path class="cls-55" d="M182.73,283.68l10.6-34.93,16.09-42.51,14.54,5.5-16.09,42.51-15,32.74C189.56,285.73,186.12,284.77,182.73,283.68Z"/><path class="cls-54" d="M183,283l10.38-34.2,16.09-42.51,7.31,2.77L188,284.89C186.32,284.27,184.65,283.55,183,283Z"/><path class="cls-56" d="M216.73,209l-.42,1.11L212,208.48,195.89,251l-10,33.07c-1-.38-1.93-.77-2.91-1.11l10.38-34.2,16.09-42.51Z"/><polygon class="cls-57" points="223.28 184.99 227.64 186.65 233.88 193.41 214.12 185.93 223.28 184.99"/><rect class="cls-58" x="225.77" y="174.54" width="4.93" height="8.15" transform="translate(378.47 426.45) rotate(-159.27)"/><path class="cls-59" d="M223.61,179.37l7.59,2.87c1.75-4.8,2.92-8.71,3.68-11.45.25-.89.4-1.5.93-3.49,1.2-4.53,2.17-8.16,2.82-10.54l-3.71-1.4c-1.1,2.21-2.77,5.57-4.87,9.76-.92,1.84-1.21,2.4-1.62,3.23C227.19,170.9,225.48,174.61,223.61,179.37Z"/><polygon class="cls-60" points="237.14 154.13 237.77 154.37 238.63 156.76 234.91 155.36 237.14 154.13"/><polygon class="cls-61" points="237.14 154.13 237.3 154.19 235.62 155.43 238.54 156.53 238.63 156.76 234.91 155.36 237.14 154.13"/><rect class="cls-62" x="214.19" y="197.63" width="6.04" height="19.21" rx="1.28" transform="translate(-53.49 337.03) rotate(-69.27)"/><path class="cls-63" d="M210.5,201.46l2.76,1-.71,1.88a1.28,1.28,0,0,0,.74,1.65l12.81,4.85-.52,1.37a1.28,1.28,0,0,1-1.65.74l-15.57-5.89a1.28,1.28,0,0,1-.74-1.65l1.23-3.25A1.28,1.28,0,0,1,210.5,201.46Z"/><path class="cls-64" d="M218.3,187.52c-5.33,12.68-26.94,65.14-23.85,74.21,1.64,4.83,5.42,8.34,9.47,10.85L202.61,276l-19.76-7.48,31.27-82.63Z"/><path class="cls-65" d="M214.12,185.93l9.15-.94,4.37,1.66.5.54a21.83,21.83,0,0,0-3.92-1.1c-2.53-.35-5.2.4-5.19.92,0,.21,9.66,3.86,14.42,5.93l.43.47Z"/><path class="cls-66" d="M223.61,179.37c1.87-4.76,3.58-8.47,4.82-11,.41-.83.7-1.39,1.62-3.23,2.1-4.19,3.77-7.55,4.87-9.76l.5.19c-2.3,4.78-6.27,12.86-7.34,16.22-.57,1.76-1.11,3.9-.12,5.83a6.74,6.74,0,0,0,1.86,2.14,7.66,7.66,0,0,0,1.89,1.07c-.16.47-.33.95-.51,1.43Z"/><path class="cls-67" d="M223.07,179.7l8.32,3.15a.73.73,0,0,0,.94-.42h0a.73.73,0,0,0-.42-1l-8.33-3.15a.73.73,0,0,0-.94.43h0A.73.73,0,0,0,223.07,179.7Z"/><path class="cls-68" d="M223.58,178.33l.77.29a.74.74,0,0,0,.43.95l7.55,2.86a.73.73,0,0,1-.94.42l-8.32-3.15a.73.73,0,1,1,.51-1.37Z"/><path class="cls-60" d="M231.68,176.72a.46.46,0,0,0,.59-.27c1-2.58,1.86-5.22,2.65-7.86.91-3,1.71-6.12,2.38-9.21a.47.47,0,0,0-.35-.55h0a.46.46,0,0,0-.54.35c-.67,3.07-1.47,6.14-2.37,9.15-.78,2.62-1.67,5.24-2.63,7.8a.46.46,0,0,0,.27.59Z"/><rect class="cls-69" x="221.88" y="197.04" width="0.73" height="12.56" transform="translate(-46.57 339.21) rotate(-69.27)"/><rect class="cls-69" x="225.95" y="199.58" width="0.73" height="5.61" transform="translate(-43.07 342.41) rotate(-69.27)"/><rect class="cls-69" x="224.31" y="203.91" width="0.73" height="5.61" transform="translate(-48.18 343.68) rotate(-69.27)"/><rect class="cls-69" x="223.54" y="205.96" width="0.73" height="5.61" transform="translate(-50.6 344.28) rotate(-69.27)"/><rect class="cls-69" x="222.76" y="208.02" width="0.73" height="5.61" transform="translate(-53.03 344.88) rotate(-69.27)"/><rect class="cls-69" x="221.98" y="210.07" width="0.73" height="5.61" transform="translate(-55.45 345.47) rotate(-69.27)"/><rect class="cls-69" x="220.3" y="214.52" width="0.73" height="5.61" transform="matrix(0.35, -0.94, 0.94, 0.35, -60.7, 346.77)"/><rect class="cls-69" x="219.48" y="216.68" width="0.73" height="5.61" transform="translate(-63.25 347.41) rotate(-69.27)"/><rect class="cls-69" x="218.61" y="218.96" width="0.73" height="5.61" transform="translate(-65.94 348.07) rotate(-69.27)"/><rect class="cls-69" x="217.77" y="221.19" width="0.73" height="5.61" transform="translate(-68.57 348.72) rotate(-69.27)"/><rect class="cls-69" x="216.11" y="225.58" width="0.73" height="5.61" transform="translate(-73.75 350) rotate(-69.27)"/><rect class="cls-69" x="215.29" y="227.75" width="0.73" height="5.61" transform="translate(-76.3 350.64) rotate(-69.27)"/><rect class="cls-69" x="214.56" y="229.69" width="0.73" height="5.61" transform="translate(-78.59 351.2) rotate(-69.27)"/><rect class="cls-69" x="213.74" y="231.85" width="0.73" height="5.61" transform="translate(-81.15 351.84) rotate(-69.27)"/><rect class="cls-69" x="212.03" y="236.36" width="0.73" height="5.61" transform="translate(-86.46 353.15) rotate(-69.27)"/><rect class="cls-69" x="211.28" y="238.35" width="0.73" height="5.61" transform="translate(-88.82 353.74) rotate(-69.27)"/><rect class="cls-69" x="210.46" y="240.52" width="0.73" height="5.61" transform="translate(-91.37 354.37) rotate(-69.27)"/><rect class="cls-69" x="209.64" y="242.69" width="0.73" height="5.61" transform="translate(-93.93 355) rotate(-69.27)"/><rect class="cls-69" x="217.91" y="207.53" width="0.73" height="12.56" transform="translate(-58.95 342.27) rotate(-69.27)"/><rect class="cls-69" x="213.68" y="218.71" width="0.73" height="12.56" transform="translate(-72.14 345.54) rotate(-69.27)"/><rect class="cls-69" x="209.67" y="229.31" width="0.73" height="12.56" transform="translate(-84.65 348.64) rotate(-69.27)"/><rect class="cls-69" x="205.44" y="240.49" width="0.73" height="12.56" transform="translate(-97.84 351.9) rotate(-69.27)"/><path class="cls-43" d="M198.6,274.52l-13.38,29.25-7.7-2.91,9.41-31.21C190.29,270.72,195.29,273.27,198.6,274.52Z"/><path class="cls-70" d="M192.54,272.43l-11.25,29.86-3.89-1.48,9.42-30.74C188.5,270.66,190.86,271.81,192.54,272.43Z"/><path class="cls-71" d="M186.46,271c3.36,1.07,8.36,3.3,11.66,4.54L196.55,279l-11.12-4.21Z"/><path class="cls-54" d="M175.39,268l33.18,12.56a1.91,1.91,0,0,0,2.48-1.12h0a1.9,1.9,0,0,0-1.12-2.47L176.74,264.4a1.91,1.91,0,0,0-2.47,1.11h0A1.92,1.92,0,0,0,175.39,268Z"/><path class="cls-72" d="M176.74,264.4l2,.75a2,2,0,0,0-.47.7h0a1.93,1.93,0,0,0,1.12,2.48l31.19,11.81a1.93,1.93,0,0,1-2,.41L175.39,268a1.92,1.92,0,0,1-1.12-2.48h0A1.91,1.91,0,0,1,176.74,264.4Z"/><rect class="cls-54" x="179.87" y="292.6" width="2.97" height="19.47" rx="1.19" transform="translate(-165.6 364.94) rotate(-69.27)"/><path class="cls-72" d="M173.89,297.92,177,299.1a1.2,1.2,0,0,0-1.31.75l-.21.56a1.19,1.19,0,0,0,.69,1.53l12.87,4.87a1,1,0,0,1-.23-.06l-16-6.05a1.19,1.19,0,0,1-.69-1.53l.21-.56A1.19,1.19,0,0,1,173.89,297.92Z"/><path class="cls-73" d="M181.82,302.48l6.88,2.61a.43.43,0,0,0,.55-.25h0a.43.43,0,0,0-.25-.56l-6.88-2.6a.44.44,0,0,0-.56.25h0A.43.43,0,0,0,181.82,302.48Z"/><rect class="cls-74" x="211.87" y="189.19" width="18.8" height="15.81" transform="translate(358.45 459.74) rotate(-159.27)"/><rect class="cls-32" x="212.34" y="186.6" width="4.19" height="15.81" transform="translate(346.15 452.32) rotate(-159.27)"/><path class="cls-44" d="M225.06,205.13h0a1.32,1.32,0,0,0,1.69-.76l3.23-8.53a1.33,1.33,0,0,0-.77-1.7h0a1.32,1.32,0,0,0-1.69.77l-3.23,8.53A1.32,1.32,0,0,0,225.06,205.13Z"/><path class="cls-65" d="M227.64,186.65l.5.54-.9-.31-.53-.59Z"/><path class="cls-65" d="M233.45,192.94l.43.47-1-.39-.5-.54Z"/><rect class="cls-32" x="224.69" y="181.08" width="3.44" height="4.93" transform="translate(373.19 435.35) rotate(-159.27)"/><rect class="cls-75" x="225.33" y="181.2" width="3.44" height="1.27" transform="translate(375.04 432.27) rotate(-159.27)"/><polygon class="cls-44" points="224.06 185.29 227.14 186.46 232.86 193.02 215.28 186.37 224.06 185.29"/><path class="cls-74" d="M227.14,186.46l.48.55a23.93,23.93,0,0,0-3.4-.92c-2.53-.35-5.2.4-5.19.92,0,.2,8.33,3.36,13.33,5.47l.5.54-17.58-6.65,8.65-1.13Z"/><path class="cls-76" d="M242.67,222.69s-3.79-21.13-1.86-35.17c.72-5.26,2.11-15.35,9.69-23.56,9.64-10.43,22.69-10.66,25.84-10.6a76.73,76.73,0,0,1,20.45,3.54,20.38,20.38,0,0,0,6.82,1.57c5.77.12,8.23-2.9,14-5.11,6.64-2.54,12.42-2,17.23-1.57,5.15.48,10.65,1.29,16.15,4.71,25.84,16.1,17.21,56.11,11.34,74.16-2.53,7.75-.93-21.6-12.42-36.86-12.17-16.17-44.21-7.91-64.23-2.75-19.55,5-26.15,11.9-28.71,14.92C251.28,212.68,242.67,222.69,242.67,222.69Z"/><path class="cls-77" d="M265.84,178.86c.18-2,11.77-4.73,14.3-5.3a17.76,17.76,0,0,1,4.66-.36,28.83,28.83,0,0,1,9,1.79c6,2.11,8.19,4.52,9.33,3.59,1-.78-.46-2.64,0-5.74.72-4.91,5.49-8.32,6.1-7.9s-1.88,2.92-2.16,7.54c0,.64-.31,6.05,2.16,7.18,1.33.61,2.77-.24,5-1.44,11.48-6.1,19.46-4.89,22.61-3.55,9.25,4,10.68,4.71,10.41,6.06-.2,1-7.19-1.26-17.95.36-10.39,1.57-12.23,4.93-20.09,6.82C291.47,192.17,265.47,182.94,265.84,178.86Z"/><path class="cls-41" d="M253.67,275c-1.81-10.86-4.2-21.7-4.46-22.86-4-18-5.86-21.12-6.7-31.16-.92-11-1.48-19.28,3.72-27.7a32.18,32.18,0,0,1,15.63-13.16c11.48-4.43,22.64-.85,25.3,0,6.54,2.1,16.47,7.86,31.25,2.08,8-3.13,7.45-4,12.65-4.85,9.14-1.54,16.83,1.68,19.35,2.77,3.19,1.38,7.21,3.12,10.42,6.93,1.67,2,5,6.73,4.46,22.16-.21,6.15-1,11.46-3,21.47-3.1,15.29-4.24,17-6.7,29.08-1.34,6.59-2.38,13.86-4.46,28.4C350.05,295.86,343.37,356,340,365c-5.95,15.93-14.88,8.31-17.86,0-2.08-5.82-7.58-68.29-12.65-75.49-1.06-1.51-3.6-5-6.69-4.85-1.45.09-3.61,1-6.7,6.93a47.31,47.31,0,0,0-5.21,18c-.68,11.55-1.58,52.5-6.7,58.87-1.23,1.54-3.95,4.93-7.44,4.85-6.4-.16-10.7-11.95-12.65-17.32-4-11.13-4.45-19.62-5.21-30.47C257.64,307.66,256.53,292.13,253.67,275Z"/><path class="cls-78" d="M250.09,170.24c-.7-1,2.42-4.57,5.17-6.89a29.7,29.7,0,0,1,14.21-6.24,31.86,31.86,0,0,1,11.85-.22c8.58,1.56,16.11,7,15.5,8.62-.42,1.15-4.47-.33-14.64-.65-7.58-.24-13.51-.43-20.46,1.51S250.8,171.23,250.09,170.24Z"/><path class="cls-78" d="M310,163.35c-.44-1.15,5.72-5.37,12.71-7.32a36.07,36.07,0,0,1,17.44-.21,27.3,27.3,0,0,1,12.28,5.59c4.36,3.7,7.87,9.44,6.67,10.77s-5.71-3-15.93-6.46a58.32,58.32,0,0,0-22.4-3.44C314.16,162.67,310.3,164.23,310,163.35Z"/><path class="cls-38" d="M360.83,187c-3.21-3.81-7.23-5.55-10.42-6.93-.45-.19-1.07-.46-1.83-.75A48.26,48.26,0,0,1,355,193.12a51,51,0,0,1,.43,25c-5.35,22.72-25.25,34.64-33.59,39.63a72.76,72.76,0,0,1-31,10.77c-6.74.66-16.86,1.65-27.13-3a39.63,39.63,0,0,1-13.91-10.69c.88,4.09,2.54,12.13,3.88,20.19,2.86,17.15,4,32.68,5.21,50.55.76,10.85,1.16,19.34,5.21,30.47,2,5.37,6.25,17.16,12.65,17.32,3.49.08,6.21-3.31,7.44-4.85,5.12-6.37,6-47.32,6.7-58.87a47.31,47.31,0,0,1,5.21-18c3.09-5.92,5.25-6.84,6.7-6.93,3.09-.17,5.63,3.34,6.69,4.85,5.07,7.2,10.57,69.67,12.65,75.49,3,8.31,11.91,15.93,17.86,0,3.38-9.05,10.06-69.15,11.17-76.87,2.08-14.54,3.12-21.81,4.46-28.4,2.46-12.13,3.6-13.79,6.7-29.08,2-10,2.76-15.32,3-21.47C365.83,193.76,362.5,189,360.83,187Z"/><path class="cls-76" d="M336.06,365.84c-4.12,1.76-6.46.43-6.46.43-2.09-1.18-2.63-3.9-3-6-1.69-9.27-2.53-13.91-2.58-15.93,0-.65,0,1.15-3-22-1.44-10.94-2.24-17.35-4.31-26.28-1.66-7.13-3.11-11.88-7.32-15.5-1.78-1.52-5.47-4.69-9.48-3.88-4.32.88-6.53,5.87-8.62,10.77-2.9,6.82-3.65,12.57-4.3,18.52-1.37,12.35-2,18.52-2.16,25.41-.15,9.79-2,19.51-2.15,29.29,0,1.22,0,4.41-2.15,6s-5.44.82-6.9.44a17.42,17.42,0,0,1-6.38-3.44c2.3,4.81,5.49,9.52,9.52,9.62,3.49.08,6.21-3.31,7.44-4.85,5.12-6.37,6-47.32,6.7-58.87a47.31,47.31,0,0,1,5.21-18c3.09-5.92,5.25-6.84,6.7-6.93,3.09-.17,5.63,3.34,6.69,4.85,5.07,7.2,10.57,69.67,12.65,75.49,3,8.31,11.91,15.93,17.86,0a64.52,64.52,0,0,0,2.09-9.2C340.16,361.2,338.13,365,336.06,365.84Z"/><path class="cls-41" d="M271.45,359.37c7.09-1.85,7.39-52.06,6.89-61.88-.41-8.2-1.38-12.88-4.3-17.17-1.06-1.53-5-7.28-9.91-6.77-2.77.28-4.63,2.41-6,4.06a21.46,21.46,0,0,0-3.23,5.17c2,14.17,3,27.62,4,42.75.76,10.85,1.16,19.34,5.21,30.47.26.71.55,1.52.89,2.4A7.94,7.94,0,0,0,271.45,359.37Z"/><path class="cls-41" d="M331.6,355.25c-6.24.92-9.34-70.5-6.56-75.84.41-.8,3-5.78,7.14-5.86,3.56-.07,5.9,3.53,6.21,4,2.17,3.46,2,7.72,1.86,10C339.09,312,338.74,354.21,331.6,355.25Z"/><path class="cls-49" d="M282.62,186.62c-7.91-2-11.87-3-16.46-1.84-9.83,2.47-14.58,11.64-15.36,13.21-3.33,6.71-2.63,12.77-1.66,20.34,1.2,9.3,5.73,28.83,14.28,29.53,4.13.34,7.68-3.83,8.41-4.7,3.53-4.14,2.83-8.18,4-15.7.94-5.87,2.4-15,8-22.36,5.93-7.72,12.93-8.77,12.38-12.2C295.8,189.94,290.25,188.54,282.62,186.62Z"/><path class="cls-49" d="M313,189.89c3.41-1.24,3.91-1.1,6.67-2.16,3.47-1.31,3.84-2,7.33-3.44a38,38,0,0,1,8-2.59c3.31-.63,7.92-1.53,11.85.87a5.88,5.88,0,0,1,3,3.44c.55,2.17,0,4.52-8.61,4.74-2.78.07-6.66.4-14.43,2.37-6.87,1.74-7.42,2.28-10.34,2.37-4.76.15-9.84-1.06-9.9-2.37C306.51,192.24,308.71,191.45,313,189.89Z"/><path class="cls-49" d="M266.59,344.89c-2.37.28-2.38-1.18-3.54-15.37-3.44-42.21-.81-39.63,0-39.63s1.68,4,2.59,10.56c1.59,11.46,2.38,17.2,2.36,23.47C268,333.84,267.76,344.75,266.59,344.89Z"/><path class="cls-49" d="M330.67,341.35c-1.94,0-2.8-30-3.19-38-.32-6.55.4-12,2.37-12,2.29-.06,2.62,9.62,2.6,14.18C332.38,318.41,332.4,341.31,330.67,341.35Z"/><path class="cls-43" d="M248.16,249.37a19.13,19.13,0,0,0-.52-4.93,13.5,13.5,0,0,0-2.59-5.71,14.42,14.42,0,0,1-2-2.34,8.93,8.93,0,0,1-1.17-3.38,8.56,8.56,0,0,1,.13-2.85H221.42a8.84,8.84,0,0,1,.13,2.85,9.12,9.12,0,0,1-1.17,3.38,15,15,0,0,1-1.95,2.34,13.66,13.66,0,0,0-2.6,5.71,19.58,19.58,0,0,0-.52,4.93c-.05,5.11.67,21.83.13,41a.38.38,0,0,0,.11.25,4.56,4.56,0,0,0,4.54,4.43h23.55a4.57,4.57,0,0,0,4.55-4.55h0c0-.14,0-.28,0-.41C248.17,286.74,248.21,254.18,248.16,249.37Z"/><path class="cls-49" d="M248.16,249.37a19.13,19.13,0,0,0-.52-4.93,13.5,13.5,0,0,0-2.59-5.71,14.42,14.42,0,0,1-2-2.34,8.93,8.93,0,0,1-1.17-3.38,8.56,8.56,0,0,1,.13-2.85H221.42a8.84,8.84,0,0,1,.13,2.85,9.12,9.12,0,0,1-1.17,3.38,15,15,0,0,1-1.95,2.34,13.66,13.66,0,0,0-2.6,5.71,19.58,19.58,0,0,0-.52,4.93c-.05,5.11.67,21.83.13,41a.38.38,0,0,0,.11.25,4.56,4.56,0,0,0,4.54,4.43h23.55a4.57,4.57,0,0,0,4.55-4.55h0c0-.14,0-.28,0-.41C248.17,286.74,248.21,254.18,248.16,249.37Z"/><path class="cls-79" d="M245.05,238.73a14.42,14.42,0,0,1-2-2.34,8.93,8.93,0,0,1-1.17-3.38,8.56,8.56,0,0,1,.13-2.85h-8.5a8.18,8.18,0,0,0,.06,1.18,9,9,0,0,0,1.17,3.38,15,15,0,0,0,2,2.34,13.5,13.5,0,0,1,2.59,5.71c.1.38.18.74.24,1.09h7.93A12.92,12.92,0,0,0,245.05,238.73Z"/><path class="cls-32" d="M248.16,249.37a19.13,19.13,0,0,0-.52-4.93c0-.18-.09-.38-.14-.58H216c0,.2-.1.4-.15.58a19.58,19.58,0,0,0-.52,4.93c-.05,5.11.67,21.83.13,41a.38.38,0,0,0,.11.25,4.56,4.56,0,0,0,4.54,4.43h23.55a4.57,4.57,0,0,0,4.55-4.55h0c0-.14,0-.28,0-.41C248.17,286.74,248.21,254.18,248.16,249.37Z"/><path class="cls-34" d="M220.63,288.32h0a1.92,1.92,0,0,1-1.91-1.91V246.87a1.92,1.92,0,0,1,1.91-1.91h0a1.92,1.92,0,0,1,1.91,1.91v39.54A1.92,1.92,0,0,1,220.63,288.32Z"/><path class="cls-33" d="M248.16,249.37a19.13,19.13,0,0,0-.52-4.93c0-.18-.09-.38-.14-.58h-7.93a21.39,21.39,0,0,1,.28,3.84c.05,4.81,0,37.37,0,40.75,0,.13,0,.27,0,.41h0a4.56,4.56,0,0,1-4.55,4.54H216.58a4.55,4.55,0,0,0,3.51,1.68h23.55a4.57,4.57,0,0,0,4.55-4.55h0c0-.14,0-.28,0-.41C248.17,286.74,248.21,254.18,248.16,249.37Z"/><rect class="cls-79" x="215.38" y="254.58" width="32.81" height="17.14"/><rect class="cls-80" x="239.87" y="254.58" width="8.31" height="17.14"/><rect class="cls-49" x="218.72" y="254.58" width="3.82" height="17.14"/><path class="cls-81" d="M220.67,228.66h22.14a0,0,0,0,1,0,0v0a2.79,2.79,0,0,1-2.79,2.79H223.46a2.79,2.79,0,0,1-2.79-2.79v0A0,0,0,0,1,220.67,228.66Z"/><path class="cls-82" d="M238.13,228.66v.88a1.23,1.23,0,0,1-1.24,1.23H220.8a1.25,1.25,0,0,0,1.11.69h19.66a1.25,1.25,0,0,0,1.24-1.24v-1.56Z"/><rect class="cls-83" x="218.3" y="220.29" width="26.88" height="8.7" rx="4.35"/><path class="cls-84" d="M243.62,220.29h-5a1.55,1.55,0,0,1,.42,1.06v5.58a1.56,1.56,0,0,1-1.56,1.56H218.72a1.57,1.57,0,0,0,1.14.5h23.76a1.56,1.56,0,0,0,1.56-1.56v-5.58A1.56,1.56,0,0,0,243.62,220.29Z"/><rect class="cls-85" x="220.67" y="221.53" width="6.68" height="3.88" rx="1.94"/><path class="cls-86" d="M227,259.05H219a.69.69,0,0,1-.69-.69h0a.69.69,0,0,1,.69-.68H227a.68.68,0,0,1,.68.68h0A.68.68,0,0,1,227,259.05Z"/><path class="cls-86" d="M230.44,262.62H219a.69.69,0,0,1-.69-.69h0a.69.69,0,0,1,.69-.68h11.49a.68.68,0,0,1,.68.68h0A.68.68,0,0,1,230.44,262.62Z"/><path class="cls-86" d="M224.84,266.13H219a.68.68,0,0,1-.69-.68h0a.69.69,0,0,1,.69-.68h5.89a.69.69,0,0,1,.68.68h0A.68.68,0,0,1,224.84,266.13Z"/><rect class="cls-86" x="227.49" y="264.77" width="4.29" height="1.36" rx="0.68"/><rect class="cls-86" x="229.58" y="257.68" width="5.17" height="1.36" rx="0.68"/><rect class="cls-86" x="237.29" y="257.68" width="5.17" height="1.36" rx="0.68"/><path class="cls-87" d="M348.73,212.51c-1.23.65-1.92,2.67-2.13,3.28-.4,1.16-.94,3.56.73,8.5.35,1.05,1.81,5.17,6.89,11.61,3.41,4.34,7.25,8.57,9.73,9s4-2.49,5.28-4.94C373.16,232.33,354.17,209.65,348.73,212.51Z"/><path class="cls-87" d="M377.8,219.14c3.24.09,8.74,6.78,8.55,11-.13,2.66-4.32,5.85-11.33,10-12.31,7.34-11.65,4.31-13.69,2.87-1.84-1.3-.46-2.52-3.36-4.38C354.39,236.4,376.4,219.1,377.8,219.14Z"/><path class="cls-88" d="M365.91,357.53c.55-.17.9,1,2.24,1.56a4.57,4.57,0,0,0,2.24.18c2.12-.18,3.19-.45,4.66-.66a39.85,39.85,0,0,1,5.6-.36c2,0,1.72.07,2.83,0,1.58-.11,2.95-1,3.14-.53a6.5,6.5,0,0,1-.14,1.31c-.08.61,0,.77-.11,1s-.7.26-1.12.24c-.93,0-1.85,0-2.77,0-.68,0-1.22,0-2.3,0-1.37,0-1.82.12-3.95.3-3.39.29-2.77.1-4.36.3a14.14,14.14,0,0,1-3.6.18,4.44,4.44,0,0,1-1.94-.66,2,2,0,0,1-.83-.77C365.13,358.8,365.42,357.68,365.91,357.53Z"/><path class="cls-88" d="M412,358.5c.73-.22,1.16.45,2.4.84a6.84,6.84,0,0,0,2.28.18c1.79,0,2.21-.34,5-.78,2.25-.36,2.59-.25,3.24-.72,1.35-1,1.35-2.44,1.86-2.4s.48,3.78.48,3.78a6.88,6.88,0,0,1-3.48,1.92,37.35,37.35,0,0,1-4.55.9,32.38,32.38,0,0,1-5.52,0,4,4,0,0,1-2-.72,1.91,1.91,0,0,1-.72-1,1.67,1.67,0,0,1,0-.84A1.72,1.72,0,0,1,412,358.5Z"/><path class="cls-89" d="M377.41,352.49a8.16,8.16,0,0,0,1.62-3.06c1.43-3.88-.39-6.14.89-7.37,1.45-1.38,5.68-.4,6.84,1.89.77,1.51-.45,2.33-.54,5.75a40.5,40.5,0,0,0,.36,6.75s-1.17-.12-3.51-.27c-3.43-.23-4.9.94-6.56-.18-.23-.16-1-.67-1-1.35S376.48,353.5,377.41,352.49Z"/><path class="cls-89" d="M419.05,344c1-1.83,4.93-2.37,6.29-.9.84.9-.36,2.68,0,5.9a14.78,14.78,0,0,0,1.08,4.62,13,13,0,0,1-3.24,2.25c-2.06.82-5.48,1.49-6.2.27-.23-.38-.53-.93.9-3.33C420.39,348.62,418.35,345.29,419.05,344Z"/><path class="cls-89" d="M385.32,211.63c.23-1.89.06-4,.47-5.59,1-3.89,6.55-5.88,8.2-4.51,1,.82-.71,5.17.18,8.67,1.09,4.28,3.93,2.87,4.89,3.47,1.34.83-1.83,2.58-3.43,3.63-2.26,1.48-6.88,7-9.11,6-3.84-1.78-4.23-5.49-3.62-6.11A10.13,10.13,0,0,0,385.32,211.63Z"/><path class="cls-90" d="M391,210.15c1.61-1,2.54-3,2.89-3.26.05.07-.05.74,0,.83a9.07,9.07,0,0,1-9.26,6.27,6,6,0,0,0,.67-2.36A11,11,0,0,0,391,210.15Z"/><path class="cls-89" d="M383.16,193.35a6.82,6.82,0,0,1,5.53-.55,8.82,8.82,0,0,1,4.89,4.34,11.38,11.38,0,0,1,1.19,7.76c-.56,2.84-4.88,8.9-9,7.41a5.54,5.54,0,0,1-3.09-2.68c-1.07-1.81-.93-3.5-1.39-5.17a18.35,18.35,0,0,1-.77-4.53C380.48,199.25,380.05,195.29,383.16,193.35Z"/><path class="cls-90" d="M384,203a.16.16,0,0,1,.18.14,16,16,0,0,1,.07,1.84c0,.29,0,.54,0,.76,0,.61-.05.92.13,1.09s.73.18,1.43-.08a.19.19,0,0,1,.22.08h0a.17.17,0,0,1-.11.21l-.39.12c-.65.18-1.11.15-1.39-.11s-.27-.63-.23-1.31c0-.22,0-.46,0-.75,0-.61,0-1.21-.06-1.81A.17.17,0,0,1,384,203Z"/><path class="cls-91" d="M387,202.44c.26-.05.53.25.59.65s-.08.77-.34.82-.53-.25-.6-.66S386.7,202.48,387,202.44Z"/><path class="cls-91" d="M382.62,203.2c.26,0,.53.25.6.65s-.09.78-.35.82-.53-.25-.6-.66S382.36,203.24,382.62,203.2Z"/><path class="cls-90" d="M383.94,208.84l.43,0a9.56,9.56,0,0,0,1.84-.31l.78-.2c.18,0,.33.05.27.17a2.88,2.88,0,0,1-1.82,1.07,2,2,0,0,1-1.7-.43C383.64,209,383.75,208.85,383.94,208.84Z"/><path class="cls-92" d="M389.2,204.05c.67-.2,1.31,0,1.43.39s-.31.92-1,1.12-1.31,0-1.44-.39S388.53,204.25,389.2,204.05Z"/><path class="cls-93" d="M383,191.66c6.72-4.37,11.51.79,11.51.79s4.9,1.75,3.34,8.83c0,0-2.24,5.5-3.89,5.61-.51,0,1.84-5.67.82-6.31a2.42,2.42,0,0,0-2.32.7c-.73,1-.15,1.95-.34,2.06-1,.59-1.17-.33-1.12-3.15,0-1.77.7-2.5.21-3s-4.45,1.05-5.63,1.34c-2.58.63-5.16.94-6-1.5C379.22,195.93,379.19,194.12,383,191.66Z"/><path class="cls-89" d="M394.18,200.29c.73.08,1.2,1.13,1.34,1.81.33,1.63-.79,3.54-1.59,3.45s-1.86-2.74-1.07-4.27C392.89,201.23,393.43,200.21,394.18,200.29Z"/><path class="cls-90" d="M394,204.1l0,.06Z"/><path class="cls-90" d="M393.51,202a.83.83,0,0,1,1,.24,1.72,1.72,0,0,1,0,1.69c-.1.22-.28.56-.51.6,0,0-.3,0,0-.37l0-.08L394,204c.13-.2.07-.12,0,0a2,2,0,0,0,.29-.67,1,1,0,0,0-.07-.83.51.51,0,0,0-.58-.13.54.54,0,0,0-.28.43.18.18,0,0,1-.16.16.19.19,0,0,1-.18-.23A.94.94,0,0,1,393.51,202Z"/><path class="cls-90" d="M394,204.08v0L394,204h0Z"/><path class="cls-90" d="M392.79,201.37a.2.2,0,0,0,.11.26.15.15,0,0,0,.2-.1,1.39,1.39,0,0,1,.66-.76.82.82,0,0,1,.61-.05,1,1,0,0,1,.49.49,3.27,3.27,0,0,1-.49,3.72c-.1,0-.12.14-.14.25-.07.31-.16.6-.46.65h0c-.14,0-.21,0-.28-.23a.17.17,0,0,0-.2-.14h0a.19.19,0,0,0-.12.24c.08.27.24.57.67.5h0c.55-.1.67-.7.72-.93h0a3.25,3.25,0,0,0,1-2.49,3.16,3.16,0,0,0-.43-1.76,1.36,1.36,0,0,0-.67-.65,1.09,1.09,0,0,0-.85.07A1.71,1.71,0,0,0,392.79,201.37Zm1.69,3.92Z"/><path class="cls-90" d="M393.56,202.92a.8.8,0,0,1,.25.55c0,.3,0,.58-.09.58s0-.53-.29-.88c-.16-.19-.34-.23-.33-.29S393.38,202.78,393.56,202.92Z"/><path class="cls-42" d="M383.53,216.87h0Z"/><path class="cls-42" d="M377,219.43c.67-.38,5.59-2.24,6.5-2.56h0c.05,0,.28-.12.64.66a4.42,4.42,0,0,0,2.91,2.28c2.64.6,5.53-1.84,6.89-4.08.92-1.52,1.59-2.73,1.9-2.71,7.83.64,12.37,3,15,5.11s3.5,5.22,4.31,7.56c.95,2.73,2.12,13.16,4.67,27.33,2.35,13.12,2.91,20.75,2.91,20.75s-1.55.75-5.13.48c-11.22-.86-12.62-2.84-18.31-2.64a50.85,50.85,0,0,0-13.56,2.7s0-17-2.77-27.52a41.07,41.07,0,0,0-4.78-12C376.74,232.37,376.39,219.8,377,219.43Z"/><path class="cls-94" d="M383.25,287.2c4.6-18.22,3.7-24.36,7.38-25.54,5.28-1.71,15.81,8.2,16.72,18.7.74,8.49-4.87,16.31-6.47,18.53-3.24,4.5-7.05,9.63-8.7,11.84a4,4,0,0,0-.8,2.52c0,1.69.14,4.86.33,9.2.32,7.54-3.2,23.79-5.5,28-1.2,2.16-7.12.83-7.18-1-.42-11.47-1.76-35.38-2-40a4,4,0,0,1,.22-1.53C378,305.63,380.43,298.38,383.25,287.2Z"/><path class="cls-95" d="M366.16,356.63c.5-.43.94-.45,2.52-.72a20.64,20.64,0,0,0,2.4-.48,13.54,13.54,0,0,0,2.1-.84c.51-.26.64-.38,1.32-.72.22-.11.85-.43,1.44-.66a6.8,6.8,0,0,1,3.41-.6,6.34,6.34,0,0,1,2,.72c1.35.64,1.73,1.16,2.7,1.2a2.59,2.59,0,0,0,1.38-.3c1-.56.54-1.71.77-1.66s.82.84.67,2.5a11.17,11.17,0,0,1-.48,3.24c-.85,1.23-2.82.49-7,.6a74.55,74.55,0,0,0-8.21.72c-.93.14-3.21.5-4.8-.54-.27-.18-.92-.62-.95-1.26A1.63,1.63,0,0,1,366.16,356.63Z"/><path class="cls-96" d="M376.9,351.59a3.2,3.2,0,0,1,1.22-1.34,1.48,1.48,0,0,1,1.47.44,1.53,1.53,0,0,1,.36.9c.09.44.27,1.3-.12,1.62s-1,0-1.37-.12c-2.47-.76-5.53,2.14-5.64,2S375.66,353.64,376.9,351.59Z"/><path class="cls-97" d="M387.79,314.12a7.9,7.9,0,0,1,1.49-5.19c4.24-5.84,13.69-14.86,10.1-34.62.93,2.09,7.78,3.8,8,6.05.74,8.49-4.87,16.31-6.47,18.53-3.24,4.5-7.05,9.63-8.7,11.84a4,4,0,0,0-.8,2.52c0,1.69.14,4.86.33,9.2.32,7.54-3.2,23.79-5.5,28a2.69,2.69,0,0,1-2.25,1.1,94.06,94.06,0,0,0,3.6-16.35A119.1,119.1,0,0,0,387.79,314.12Z"/><path class="cls-94" d="M419.14,264.18c2.58,4.08,2.93,10.11,3.23,15.29.09,1.57.06,3.26,0,6.65-.2,11.54-.91,13.87-.36,19.07.37,3.43.8,3.66,2.34,10.25,3.56,15.22,1.42,32.55,1,33.6-1.12,2.73-5.91,2.06-6.17.53-1.4-8.14-2.2-15.28-6.87-30.89-.25-.84-1.43-4-3.78-10.26-5-13.47-5.14-12.94-7.37-19.24-5.44-15.36-2.84-12.75-7-23.38-1.61-4.12-2.42-5.59-1.61-7C395.25,253.93,413.34,255,419.14,264.18Z"/><path class="cls-95" d="M411.72,358.46c.94-.66,3.68-2,4.63-3.63.3-.51,1.63-2.82,1.77-2.9a2.16,2.16,0,0,1,2.33.14c.33.34.32.89.3,1.68s-.17,1.07,0,1.26c.45.49,2-.27,2.22-.36a6.79,6.79,0,0,0,1.56-1.08c.4-.39,1.35-1.52,1.35-1.52a13.91,13.91,0,0,1,1.22,4.22c.18,1.61-2.81,3-2.81,3a23.7,23.7,0,0,1-4.79,1c-3.44.47-5,.74-6.78.12-.36-.12-1.43-.5-1.44-1A1.15,1.15,0,0,1,411.72,358.46Z"/><path class="cls-97" d="M419.14,264.18c2.58,4.08,2.93,10.11,3.23,15.29.09,1.57.06,3.26,0,6.65-.2,11.54-.91,13.87-.36,19.07.37,3.43.8,3.66,2.34,10.25,3.56,15.22,1.42,32.55,1,33.6a3,3,0,0,1-2.19,1.72c2.51-16.83.78-28.25-1.48-35.79a68,68,0,0,1-2.88-11.89c-1.33-9.57.4-14.05.17-22.74A76.13,76.13,0,0,0,415.39,261c-.09-.3-.18-.6-.28-.89A14.49,14.49,0,0,1,419.14,264.18Z"/><path class="cls-98" d="M381.09,217.8a21,21,0,0,1,3.45,9.92s.62,3.11,2.23,10.32c1.19,5.31,2.68,11.93,3.63,11.83.63-.06.78-3,1.08-8.65.34-6.3.22-10.49,1.34-16.3a19.29,19.29,0,0,1,1.21-4.07c.83-1.95,2.19-5.13,5.41-6.56A3.19,3.19,0,0,1,402,214c6.47.93,11,4.58,13.1,10.48,1.44,4,2.66,13.57,4,22.4,3.57,23.66,7.95,53.15,7.95,53.15a229.65,229.65,0,0,1-23.55,2.67c-15.1.72-25-2.16-25-2.16s5.55-16.85,6.43-27.12c.79-9.36-1-20-2.23-25.39-1.05-4.78-3.11-6.66-5.17-12.14-1-2.56-2.42-11.18-1.14-15.73C376.74,218.94,381.09,217.8,381.09,217.8Z"/><path class="cls-42" d="M378.53,218.89a7.23,7.23,0,0,1,2.15-.77,25,25,0,0,1,3.86,9.6s.62,3.11,2.23,10.32c1.19,5.31,2.68,11.93,3.63,11.83.63-.06.78-3,1.08-8.65.34-6.3.22-10.49,1.34-16.3a19.29,19.29,0,0,1,1.21-4.07c.83-1.95,2.19-5.13,5.41-6.56A3.19,3.19,0,0,1,402,214a20.24,20.24,0,0,1,3.33.77,19.56,19.56,0,0,0-2.34,1c-4.87,2.43-7.89,7.83-7.89,7.83l2.42.44L391.1,254.8,379,225.11l2.67-1.78S381.54,221.66,378.53,218.89Z"/><path class="cls-99" d="M383.77,216a4.14,4.14,0,0,0,.4,1.52,4.26,4.26,0,0,0,2.91,2.28c2.64.6,5.53-1.84,6.89-4.08.92-1.52,1.61-2.91,1.92-2.88s.88.25,1.31.3c-.4.66-.95,1.52-1.64,2.48-1.78,2.47-2.7,3.72-4.33,4.58A6.3,6.3,0,0,1,387,221a5.55,5.55,0,0,1-3.62-2.54,3.35,3.35,0,0,1-.44-1.34A1.88,1.88,0,0,1,383.77,216Z"/><path class="cls-49" d="M381.9,217.57c.62,1.41.57,1.4,1.24,3.22a85.87,85.87,0,0,1,2.68,8.59c2.46,9.4,4.39,19,4.64,19s-2.64-27.11,8.4-35a32.86,32.86,0,0,1,4.42,1,45.2,45.2,0,0,0-9.33,7.72l3.25.32L390.75,252l-10.66-27,2.48-1.47a13.19,13.19,0,0,0-3.44-4.89C379.59,218.44,381.19,217.51,381.9,217.57Z"/><path class="cls-87" d="M404.78,219.83a5.65,5.65,0,0,1,5.37,0c3.62,2.24,5.27,9.41,7.49,17.21.49,3.17,1,6.57,1.47,9.86,3.57,23.66,7.95,53.15,7.95,53.15s-4.89.83-11.23,1.59c-.31-8.87-1-16.46-1.63-22.47a267.28,267.28,0,0,0-5.6-34.37C405.36,231,401.86,221.58,404.78,219.83Z"/><path class="cls-42" d="M414,262.29l-10.88,1.46.27,2,10.88-1.46Zm-.34,1.55-9.81,1.31-.12-.94,9.8-1.31Z"/><path class="cls-42" d="M404.37,268.51c.3,1.91.75,4.78.92,5.09.5.71,3.79,1,9.53-.51a.27.27,0,0,1,.33.19.27.27,0,0,1-.19.33,36.67,36.67,0,0,1-4.49.92c-3.23.44-5.13.08-5.63-.62-.19-.27-.45-1.79-1-5.31-.22-1.43-.43-2.78-.52-3.07l.52-.15C403.92,265.69,404.09,266.77,404.37,268.51Z"/><path class="cls-42" d="M393.26,265.88a264,264,0,0,1,2.71,36.9h-.55a264.41,264.41,0,0,0-2.7-36.82c-.56-4-1.56-10.28-2.24-13.93l.54-.1C391.7,255.58,392.71,261.83,393.26,265.88Z"/><path class="cls-43" d="M335.93,179.72s-7.65,1.92-6.78,3.63c12.91,25.28,20.43,42.92,20.43,42.92l37.28,45.1c2.74,3.08,4.94.88,5.91,0l5.6-5c2-1.81,3.18-4.09.94-6.61l-40.62-41.62Z"/><path class="cls-100" d="M335.93,179.72s-.7.17-1.65.46c6.91,12.49,22.37,40,22.64,40.33,2.89,3.36,7.43,7.68,10.47,10.73,4.64,4.65,3.53,3.75,8.64,8.91,6.26,6.31,7.66,7.37,10.07,10.72s3.5,4.87,4.11,7.09c1.34,4.91-.84,9.9-3.22,13.55,2.68,2.87,4.82.72,5.78-.12l5.6-5c2-1.81,3.18-4.09.94-6.61l-40.62-41.62Z"/><path class="cls-101" d="M335.93,179.72s-7.65,1.92-6.78,3.63,1.64,3.22,2.42,4.77l7.16-3.67Z"/><path class="cls-102" d="M328.12,183.31a.39.39,0,0,0-.53-.17L300,197.64a.41.41,0,0,0-.19.24.35.35,0,0,0,0,.3.41.41,0,0,0,.24.19.36.36,0,0,0,.14,0,.42.42,0,0,0,.16,0L328,183.84a.37.37,0,0,0,.19-.23A.39.39,0,0,0,328.12,183.31Z"/><rect class="cls-97" x="319.44" y="184.4" width="9.33" height="1.83" rx="0.92" transform="translate(-49.11 175.3) rotate(-28.22)"/><rect class="cls-83" x="325.58" y="176.81" width="13.49" height="8.65" rx="4.32" transform="translate(-46.15 178.69) rotate(-28.22)"/><path class="cls-84" d="M334.77,175.23a4.72,4.72,0,0,1,1.16,2.73c.08,1.55-.79,2.84-2.18,4.31a28.76,28.76,0,0,1-5.5,4.43,3.11,3.11,0,0,0,2.89,0l6.47-3.47a3.07,3.07,0,0,0,1.25-4.16l-1.18-2.2A3.08,3.08,0,0,0,334.77,175.23Z"/><path class="cls-85" d="M333.16,178.45l-5.24,2.81a.66.66,0,0,1-.9-.27h0a.66.66,0,0,1,.27-.9l5.24-2.81a.67.67,0,0,1,.9.27h0A.67.67,0,0,1,333.16,178.45Z"/><path class="cls-103" d="M349.63,218.89h0a.9.9,0,0,1-1.21-.41L334,189.53a.91.91,0,0,1,.41-1.22h0a.91.91,0,0,1,1.22.41L350,217.67A.9.9,0,0,1,349.63,218.89Z"/><path class="cls-103" d="M378.37,255.9h0a.9.9,0,0,1-1.28-.1l-24.24-28.62a.9.9,0,0,1,.11-1.28h0a.91.91,0,0,1,1.28.1l24.23,28.62A.9.9,0,0,1,378.37,255.9Z"/><path class="cls-93" d="M382.51,209.07a2.32,2.32,0,0,0,0,.79c.22,1.42.23,1.91,1.19,2.68a3.1,3.1,0,0,0,2.5.48,9.76,9.76,0,0,0,4.79-1.89c1.62-1.1,3.19-3.28,2.47-3.84-1-.82-1.13-3.27-1.53-3.33-.21,0-.46.52-.55.77a3,3,0,0,0-.13,1.35c0,1.23-1.64,2.28-2.82,2.9-.41-1.79-1.79-1.69-3.5-1.37a4.53,4.53,0,0,0-2.26,1.15.38.38,0,0,0-.13.19s0,0,0,.06a.43.43,0,0,0,0,.05Zm3-.74c1.75-.35,2.68-.24,1.26,1.17a1.86,1.86,0,0,1-1,.51l-.49.06h0a1.78,1.78,0,0,1-1.55-.69C383.28,208.82,383.76,208.68,385.48,208.33Z"/><path class="cls-89" d="M382.49,271.9c0-.24.84-.57.84-.57a11.7,11.7,0,0,1-1.94-.6c-.59-.24-1.16-.47-1.26-.93a2.87,2.87,0,0,1,0-.91s-1-.69-.86-1.08a1.17,1.17,0,0,1,1.07-.8,2,2,0,0,1,.37-.6c.4-.31,1,.15,1.9.3a3.68,3.68,0,0,0,2.89-.79c.31-.26.77-.78.63-1.08s-.38-.21-1-.28c-2.25-.25-2.17-.73-2.07-.9.34-.55,1.07-.42,2.19-.65,1.73-.36,1.72-1,3-1a3.78,3.78,0,0,1,2,.47,2.67,2.67,0,0,0,1.21.61,1.88,1.88,0,0,0,.93-.17c1.2-.43,1.65-.74,2-.84,1.65-.51,4.81,3,4.18,4.21-.23.43-.79.31-3.56,1.24a3.51,3.51,0,0,0-1.35.76,3.57,3.57,0,0,0-.73,1c-.91,1.73-4.14,2.52-5.48,2.84a8.88,8.88,0,0,1-2.91.29C383.53,272.39,382.5,272.16,382.49,271.9Z"/><path class="cls-90" d="M380.28,267l.14-.11a2.71,2.71,0,0,1,.26.15,7.51,7.51,0,0,0,1.27.63,5.84,5.84,0,0,0,1.64.32,4.92,4.92,0,0,0,2.27-.56c.25-.13.41.08.12.22a5,5,0,0,1-2.39.59,5.62,5.62,0,0,1-1.72-.33A11.91,11.91,0,0,1,380.28,267Z"/><path class="cls-90" d="M380.15,268.89c.1,0,1.58.32,2.12.4a7.55,7.55,0,0,0,1.74.12,5.51,5.51,0,0,0,2.2-.7c.28-.2.5,0,.23.14a4.65,4.65,0,0,1-2.42.81,8.51,8.51,0,0,1-1.79-.11c-.55-.09-2-.46-2.1-.48Z"/><path class="cls-90" d="M386.58,270.47c.41-.2.59,0,.1.23a7,7,0,0,1-1.72.55,19,19,0,0,1-1.93.22l.15-.17A10.78,10.78,0,0,0,386.58,270.47Z"/><path class="cls-49" d="M400.14,233a15,15,0,0,1-2.45-4.88,9.84,9.84,0,0,1,.54-6.15c1-2.67,5.66-7.24,7.11-7.24a11.59,11.59,0,0,1,4.08,1.33,31.17,31.17,0,0,1,7.68,6,48.65,48.65,0,0,1,8,13.34,42.59,42.59,0,0,1,2.66,12,6.65,6.65,0,0,1-1.08,4.73,5.89,5.89,0,0,1-2.66,1.8c-4,1.25-9.32-4-14.5-9.11C406.58,241.94,404.44,239,400.14,233Z"/><path class="cls-49" d="M394,261.32c3.37-4.73,22.46-15.49,24.21-16,1-.31,2.57-1.58,4.44-1.19s4.79,4.21,4.87,4.75c.82,5.63-12.06,12.91-15.46,14.17-9.63,3.58-13.49,4.12-15.5,4.12C395,267.15,392.89,262.87,394,261.32Z"/><path class="cls-42" d="M412.62,248.22c-1.84-1.81-6.68-5.93-10.66-11.76a1.48,1.48,0,0,1,.44-.25,67.77,67.77,0,0,0,11,12l.26.25-.47.13c-.09,0-17,9.13-19.43,13.35-.07.12-.23-.6.22-1.18C396.78,257.14,411,249.07,412.62,248.22Z"/><path class="cls-42" d="M413.1,248.61a.25.25,0,0,1,0-.36h0a.26.26,0,0,1,.36,0,9,9,0,0,0,1.86,1.33,9.15,9.15,0,0,0,2.48.92.25.25,0,0,1,.19.29h0a.25.25,0,0,1-.3.21,9.84,9.84,0,0,1-4.58-2.38Z"/><path class="cls-89" d="M346.11,218.42a3.46,3.46,0,0,1-.63-.18,1.59,1.59,0,0,1-.75-.58c-.29-.47,0-.86-.28-1.08s-.5.08-.84-.1a1.21,1.21,0,0,1-.46-1.29c.11-.46.49-.68.38-.87s-.17-.09-.42-.17-.8-.22-.91-.51.26-.44.72-1.14.34-.84.76-1.38c.07-.09.79-1,1.17-.86.22.09.23.51.23.57,0,.72-.66.94-.82,1.82,0,.22-.12.68.1.86s.57,0,2.19-.7a2.28,2.28,0,0,1,1.5-.28c.13,0,.47.11.57.35s-.24.73-.14.82.52-.43,1-.37a.83.83,0,0,1,.64.51.91.91,0,0,1-.18.79c-.28.35-.66.3-.7.52s.39.36.38.66c0,.12-.06.23-.54.61-.63.52-.8.56-1,.86a1,1,0,0,0-.28.78c.11.4.83.9.81,1.08s-.72-.1-1.26-.19S346.85,218.63,346.11,218.42Z"/><path class="cls-90" d="M345.5,214.94c.43-.24.88-.45,1.32-.67s1.17-.58,1.72-.82l0,.25c-.54.25-1.08.54-1.63.8s-.86.47-1.31.66S345.25,215.08,345.5,214.94Z"/><path class="cls-90" d="M346.74,216.09c.16-.1.33-.18.5-.27a10.45,10.45,0,0,1,2.07-.76l0,.19c-.53.21-1.43.52-1.93.79l-.48.23C346.52,216.42,346.41,216.32,346.74,216.09Z"/><path class="cls-104" d="M191,170.69c-.16.11,0,.48.06,2.6,0,.49,0,.74,0,.91-.1,1.14-.54,1.46-.85,2.6a5.16,5.16,0,0,0-.21,2,12.58,12.58,0,0,0,.69,2.18,7.61,7.61,0,0,1,.16,2.34c-.07,1.63-8.83-1.63-9-.22-.12,1.06-1.36,6.9-.31,8.35.16.22,10.41.74,11.83,1s4.94.76,6.09-4.12c1-4.24-1.31-5.71-1.61-11.77C197.64,172.2,191.48,170.36,191,170.69Z"/><path class="cls-42" d="M225.9,201.38c-.29.19,0,1.07.31,2a5.65,5.65,0,0,0,2,3.32c.59.4,1.95,1,2.32.63s-.91-2.55-1.81-3.7S226.33,201.09,225.9,201.38Z"/><path class="cls-89" d="M195,226.24c-2.25-.32-4.16,8.58-4.85,18.28-.3,4.13,2.45,11,3.08,13.85.75,3.37,2,5.16,2,8.84a17.36,17.36,0,0,1-.73,4.74c-2,7.69-.39,17.52,0,19.83,1.13,6.78,3.05,14.25,3.18,18.9,0,1.93-.86,7.29-.61,8.76s2.06,2.34,3.27,3.81a14,14,0,0,0,4.74,3.67c.43.2,1.8-.89.08-3.74-.57-.95-2.37-8.34-2.64-10.27a75.15,75.15,0,0,1-.36-13.58c.54-12.35,3.67-26.88,3.91-31,.13-2.3-2.07-16.61-3.54-26.94C200.58,227.71,195.45,226.31,195,226.24Z"/><path class="cls-92" d="M197.13,298a71,71,0,0,1-1.8-12.18,44,44,0,0,1,.14-5.4c.16-1.78.39-3.11.69-4.84.77-4.4,1.23-5.17,1.25-7.48a19.92,19.92,0,0,0-.42-4,83.12,83.12,0,0,0-3.32-12.18,93.47,93.47,0,0,1-3.12-10.45,24.81,24.81,0,0,0-.41,3.1c-.3,4.13,2.45,11,3.08,13.85.75,3.37,2,5.16,2,8.84a17.36,17.36,0,0,1-.73,4.74c-2,7.69-.39,17.52,0,19.83,1.13,6.78,3.05,14.25,3.18,18.9,0,1.93-.86,7.29-.61,8.76a2.15,2.15,0,0,0,.2.62,26.74,26.74,0,0,0,1.66-11.3C198.71,306.07,197.94,302.09,197.13,298Z"/><path class="cls-89" d="M188.3,235.39c-3-2.19-9.43-4.22-12.36,2.57-1.84,4.24-2.71,16-2.78,19.64-.08,3.51.27,6.16-.37,11-.31,2.35-.75,4.44-.91,5.17a68,68,0,0,1-1.82,6.69c-1.66,5.07-4.19,12.85-4.93,21.55-.16,1.83-.54,6.92-.84,11-.08,1.17-1,2.49-1.18,3.57-.78,3.72-1.82,8.22-1.26,9.17.4.69,1.63.55,2.37.22.25-.12,2.4,1.84,3.66-1.05.74-1.71,1.37-8.86,1.37-8.86.19-.72,4.47-10.08,7.19-19a186.54,186.54,0,0,0,3.83-18.32c.24-1.48.47-2.87.91-4.74a64.66,64.66,0,0,1,2.56-8.19c2.27-6.17,2.43-5.77,3.64-9.27,1.57-4.51,3.67-11.29,3.61-16.13C191,237.14,190.06,236.68,188.3,235.39Z"/><path class="cls-92" d="M173.16,257.6c-.08,3.51.27,6.16-.37,11-.31,2.35-.75,4.44-.91,5.17a68,68,0,0,1-1.82,6.69c-1.66,5.07-4.19,12.85-4.93,21.55-.16,1.83-.54,6.92-.84,11-.08,1.17-1,2.49-1.18,3.57-.78,3.72-1.82,8.22-1.26,9.17a.75.75,0,0,0,.24.26,103.14,103.14,0,0,1,2.51-10.42c.77-2.6.84-2.45,1.25-4,1.51-5.74.54-7.35,1.52-14a62.42,62.42,0,0,1,2.35-10c.93-2.84,1.1-2.64,2.36-6.37a69.58,69.58,0,0,0,2.76-10.1,57.15,57.15,0,0,0,.84-6.09c.18-2.37.1-3.6.13-6.09,0-3.26.21-5.11.42-8.45.19-3,.43-7.52.7-14.32a9.41,9.41,0,0,0-1,1.79C174.1,242.2,173.23,253.94,173.16,257.6Z"/><path class="cls-105" d="M207.67,326.77c-.35-.62-.65-1-1-1.53-1.1-1.58-1.44-2.11-1.53-2.06s1.15,1.51.58,2.21c-.41.52-1.81.19-2.55-.12s-1.45-.51-2.51-2.36a22.55,22.55,0,0,1-2.34-5.83c-.55-2.38-.5-3.8-1-3.86s-1.28,1.79-1.35,2a4.15,4.15,0,0,0-.36,1.8,4.59,4.59,0,0,0,.81,2.15,22.3,22.3,0,0,0,1.52,2.07,11.91,11.91,0,0,1,1.53,2.42,9.53,9.53,0,0,1,.63,2,17.84,17.84,0,0,1,.18,2.24c.08,1.79,0,2.07.27,2.61.11.26,0,1.61,5.92,1.16a1.62,1.62,0,0,0,1.25-.45,10.19,10.19,0,0,0,.54-3.05A4.32,4.32,0,0,0,207.67,326.77Z"/><path class="cls-105" d="M196,316.51c-.17.11.13.56,1,3.95a20,20,0,0,1,.51,2.48,18.61,18.61,0,0,1,.15,2.27c0,2.41.08,3.62.09,4s.86.35.86.06a33.75,33.75,0,0,0,.09-4,7.56,7.56,0,0,1,.12-1.85,9.62,9.62,0,0,1,.6-1.68C200.08,319.62,196.5,316.18,196,316.51Z"/><path class="cls-105" d="M169.25,316c-.11,0-.3.84-.39,1.44a9.46,9.46,0,0,0-.12,1.58,17.32,17.32,0,0,1-.42,3.8c-.28,1.16-.44,1.75-1,2.18a3.2,3.2,0,0,1-2.39.45c-.61-.05-2.18-.17-2.72-1.22A2.79,2.79,0,0,1,162,323a3.26,3.26,0,0,1,.18-1,16.07,16.07,0,0,0,.39-2.69c.29-2,.71-3.21.66-3.23a11.71,11.71,0,0,0-1.08,3.65c-.13.81-.1,1-.3,2.27-.15.93-.21,1.05-.42,2.22a19.54,19.54,0,0,0-.36,2.57c0,.36,0,1,.12,2.21.12,1.63.19,2,.48,2.27s.61.34,1.32.48a5.68,5.68,0,0,0,3.46,0,3.15,3.15,0,0,0,1.32-.83,4.12,4.12,0,0,0,.84-2.34,32,32,0,0,0,.18-3.59c0-1.21.12-2.16.18-2.81.14-1.79.23-2.07.3-3.23A15,15,0,0,0,169.25,316Z"/><path class="cls-89" d="M202,208c.81-7.15.78-8.89-1.12-11.81-.5-.77-9.16-4.07-13.19-3.78a28.4,28.4,0,0,0-4.91.65c-2.31.71-9.9,2-11.42,3.62-1.86,1.92.12,7.07,1.06,10.56a53.73,53.73,0,0,0,3.08,7.55c3,6.6,3.1,8.63,3.21,11.08.39,8.78-5.55,10.16-6.29,31.95,0,1,1.47,1.16,3.31,1.63a50.79,50.79,0,0,0,13.58,1.77c7.44-.36,16.06-.82,16.21-3.55.71-12.76-5.95-25.24-6-31.59C199.42,220.94,200.67,219.66,202,208Z"/><path class="cls-106" d="M187.22,170c-5.28.92-7.54,5-8,9.21-.1.8.61,2.51,2.37,5,1.59,2.28,3.72,3.48,6.13,2.94,5.38-1.2,12-10.44,8.16-14.58C193.79,170.37,189.44,169.58,187.22,170Z"/><path class="cls-89" d="M194.52,195.65c-.73-.56-2.83-2.9-3.15-4.06-.36-1.35.38-3,.28-4.17-.23-2.8-9.26-6.87-8.78-5.09,1.65,6.13.5,10.58-2.6,11.35-2.2.55,4.09,10.4,13,8.51,2.33-.49,3-5.72,1.51-7.18C194.48,194.73,195.22,196.19,194.52,195.65Z"/><path class="cls-90" d="M191.43,190.17a11.46,11.46,0,0,1-5.07-2.32,13,13,0,0,1-2-2.7,1,1,0,0,0-.15.2c.93,6.11,7.25,7,7.57,7.05A3,3,0,0,1,191.43,190.17Z"/><path class="cls-89" d="M195,172.46a6.62,6.62,0,0,0-5.31-.79,8.54,8.54,0,0,0-4.92,4,10.91,10.91,0,0,0-1.5,7.43c.4,2.76,4.3,8.81,8.38,7.57a5.38,5.38,0,0,0,3.1-2.45c1.12-1.7,1.06-3.34,1.58-4.93a18,18,0,0,0,.95-4.34C197.28,178.28,197.88,174.48,195,172.46Z"/><path class="cls-106" d="M194.24,171.57c-.17-.08-.33-.18-.49-.25a7.11,7.11,0,0,0-2.66-.6,8.79,8.79,0,0,0-2.9.44,9,9,0,0,0-5,4.74,7.2,7.2,0,0,0-1.09,3.29c2.42.66,12.82,2.07,13.83-3.48.09-.49,1.76,2.93.67,6.6C197.17,181.15,200.24,174.45,194.24,171.57Z"/><path class="cls-90" d="M193.55,181.89a.17.17,0,0,0-.19.12,14.9,14.9,0,0,0-.14,1.77c0,.29,0,.53,0,.74,0,.59,0,.89-.18,1s-.71.14-1.38-.13a.16.16,0,0,0-.21.06h0a.17.17,0,0,0,.09.21l.37.14a1.41,1.41,0,0,0,1.36-.05c.28-.24.28-.6.28-1.25,0-.21,0-.45,0-.73a14.24,14.24,0,0,1,.15-1.74A.16.16,0,0,0,193.55,181.89Z"/><path class="cls-107" d="M190.59,181c-.25,0-.52.22-.6.61s0,.75.3.8.52-.21.6-.6S190.84,181.1,190.59,181Z"/><path class="cls-107" d="M195.14,181.79c-.25,0-.52.22-.61.61s.05.75.3.8.52-.21.61-.6S195.39,181.85,195.14,181.79Z"/><path class="cls-42" d="M183.62,202.54c.7-.55,1.72.63,4.53.65,3.91,0,5.46-2.21,6.74-1.61C198,203,196,219,191.82,219.5S181.33,204.29,183.62,202.54Z"/><path class="cls-108" d="M193.13,187.13l-.46-.06a9.77,9.77,0,0,1-2-.43l-.84-.27c-.19-.06-.36,0-.31.2a3.11,3.11,0,0,0,1.92,1.32,2.09,2.09,0,0,0,1.89-.45C193.45,187.33,193.34,187.15,193.13,187.13Z"/><path class="cls-92" d="M188.65,182.51c-.63-.22-1.26-.08-1.4.31s.26.9.89,1.13,1.26.09,1.4-.31S189.28,182.74,188.65,182.51Z"/><path class="cls-109" d="M200.48,224.53c0-2.89.76-5.76,1.8-13.42.14-1,.29-2.12.43-3.35.8-7.14,2-9-.57-11.58a21.12,21.12,0,0,0-8.51-3.24c-.08.6,0,5.8,0,9,0,2.59-1.23,14.61-1.62,13.53a42,42,0,0,0-4.14-6.36,50.77,50.77,0,0,0-3.56-5.64c-1.88-2.43-2.45-2.49-3.95-4.46a22.29,22.29,0,0,1-2.75-4.72c-2.66.66-6.18,1.67-7,2.55-1.86,1.92.89,6.87,1.83,10.36.53,2,1.18,2.77,2.2,6.47,3.36,12.11-1,25.11-2.08,30.28-2.34,7.54-3.2,17.07-3.2,30.23,0,2.49,36.58,3.45,36.74.73C208.29,237.33,200.36,236.65,200.48,224.53Z"/><path class="cls-110" d="M194.82,177.35a4.21,4.21,0,0,1-1.12.92,6.28,6.28,0,0,1-2,.83l.09.4a6.77,6.77,0,0,0,2.15-.88,4.63,4.63,0,0,0,1.21-1,4.12,4.12,0,0,0,.89-2l-.41-.07A3.8,3.8,0,0,1,194.82,177.35Z"/><path class="cls-39" d="M175,211.25a15.45,15.45,0,0,0-2.78-3.26c.52,1.81,1.16,2.68,2.13,6.22,3.36,12.11-1,25.11-2.08,30.29-2.34,7.54-3.2,17.06-3.2,30.22,0,.45,3.28.61,5.21.95-1.17-4.59-.41-23.85,0-26.6,1-6.07,1.28-7.45,2.38-13,.94-4.71,2-10.26.85-16.93C177.09,216.21,176.69,213.84,175,211.25Z"/><path class="cls-42" d="M191.7,215.05h0a.4.4,0,0,0-.36.41c.88,15.4.72,28,.14,44.57-.21,5.84-.51,10.12-.89,15.53l0,.62a.38.38,0,0,0,.35.41h0a.38.38,0,0,0,.4-.36l.05-.61c.38-5.43.68-9.71.88-15.56.59-16.57.75-29.22-.14-44.65A.38.38,0,0,0,191.7,215.05Z"/><path class="cls-42" d="M196.37,193.43a4.19,4.19,0,0,0-2.71-.07c-.71.49.6,2.78.85,4.14.54,3-.5,3.84-1.38,9.22-1,5.91-1.12,8.78-1.12,8.78s-1.89-2.57-5.61-9a21.48,21.48,0,0,0-2.73-3.76c-.95-1-.89-.76-1.55-1.54-1.27-1.49-1.85-2.91-3.59-5.27-.24-.32-.3-1.63-.79-1.79-.33-.1-2,.69-3.61,1.15a23.75,23.75,0,0,0,2.72,9.77,1.41,1.41,0,0,0,1.41.48c3.39-.26,4.36-1.54,4.36-1.54l-1.36,2.91a1.25,1.25,0,0,0,.33,1.47L192,217.22l6.42-10.43a1,1,0,0,0,.06-1.21l-2.75-4.41,5.11,1.12c.49.11.65-.34.63-.85C201.37,198.27,198.09,194.7,196.37,193.43Z"/><path class="cls-49" d="M180.86,193.48c.2-.86-5.6.68-5.88,1.55a10.49,10.49,0,0,0,.24,3.3,20.29,20.29,0,0,0,2.78,6.3s3.38-.17,5.13-1.45c.66-.48-1.14,4.19-1.14,4.19s9.13,9.41,10,8.48c.44-.45-5.4-10.64-6.55-12.16C185.07,203.14,180.53,194.87,180.86,193.48Z"/><path class="cls-49" d="M195.24,193.17c-1.05-.29-2.87-.44-2.67-.14,1.2,1.88,1.19,6.06.81,10.15s-1.74,13.17-1.34,12.67c2.19-2.74,6-10,6-10a27.21,27.21,0,0,1-2.67-5.06,2.66,2.66,0,0,1,1.4,0c2.58.37,3.75.63,3.75.63a8,8,0,0,0-2-4.73C195.6,193,195.41,193.21,195.24,193.17Z"/><path class="cls-42" d="M173.91,204.33h0a.38.38,0,0,0-.33.43,13.57,13.57,0,0,1-.27,6.17.39.39,0,0,0,.19.48.39.39,0,0,0,.53-.21,14.24,14.24,0,0,0,.31-6.53A.4.4,0,0,0,173.91,204.33Z"/><path class="cls-111" d="M215.59,210.19a9.33,9.33,0,0,1-2.38-1.91c-1.57-1.48-8.49-11.45-12.46-12.94-.89-.34,1.44,4.49.9,7.13-1.17,5.69-.86,6.22-.34,6.92.12.17,3.08,2.5,3.65,3a52.25,52.25,0,0,0,5.26,4.09c1.72,1.3,3.52,4.36,6.05,3.32C218.27,219,218.4,211.82,215.59,210.19Z"/><path class="cls-111" d="M214.12,210.81c2.85-.85,5.4-3.42,12.19-8,0,0,0,1.3,1.83,3.35a4,4,0,0,0,4.43,1.2c.05.25-3,2.68-7.27,6.3-1.78,1.49-3.68,2.83-5.47,4.31a8.38,8.38,0,0,1-4.71,2C213,220.28,213.27,211.07,214.12,210.81Z"/><path class="cls-42" d="M203.08,203.7c-.14,0-.39,1.78-.82,7.53l.92.74c.06-.81.11-1.65.13-2.53C203.36,207.19,203.29,203.71,203.08,203.7Z"/><path class="cls-112" d="M215,215.47h0a.34.34,0,0,1-.32-.38,12.08,12.08,0,0,1,.87-3.49c.06-.15.13-.29.19-.44a.36.36,0,0,1,.48-.17h0a.35.35,0,0,1,.16.46l-.18.42a11.68,11.68,0,0,0-.82,3.29A.35.35,0,0,1,215,215.47Z"/><polygon class="cls-113" points="238.21 193.33 270.06 172.28 274.65 174.73 269.02 176.07 239.34 196.75 238.21 193.33"/><path class="cls-114" d="M152.56,253.48h0a1.53,1.53,0,0,1,.23-2l9.41-8.61.17-.14L238,191.43a1.51,1.51,0,0,1,2.1.4l2,3a1.52,1.52,0,0,1-.4,2.11L166.1,248.26l-.18.11L154.48,254A1.53,1.53,0,0,1,152.56,253.48Z"/><path class="cls-115" d="M242.13,194.82l-1.61-2.37a1.51,1.51,0,0,1-.4,2.1l-75.63,51.33-.18.11-11.44,5.62a1.17,1.17,0,0,1-.26.1,1.52,1.52,0,0,0-.05,1.77h0a1.53,1.53,0,0,0,1.92.51l11.44-5.62.18-.11,75.63-51.33A1.52,1.52,0,0,0,242.13,194.82Z"/><path class="cls-113" d="M181.26,232.32h0a.66.66,0,0,1,.18-.91l46.14-31.32a.66.66,0,0,1,.92.17h0a.67.67,0,0,1-.18.92L182.18,232.5A.67.67,0,0,1,181.26,232.32Z"/><path class="cls-113" d="M232.57,197.5h0a.66.66,0,0,1,.17-.92l4.78-3.24a.67.67,0,0,1,.92.18h0a.66.66,0,0,1-.18.91l-4.77,3.24A.66.66,0,0,1,232.57,197.5Z"/><path class="cls-106" d="M188.26,169.87c-9.42-.05-8.63,6.45-9.09,6.65-4.24,1.81-2.52,4.58-2.66,5.69-.16,1.31-1.82,1.47-2.38,2.48a4.3,4.3,0,0,0-.23,3.8c2.1,4.11,9,3.76,8.91,2.92s-1-1.39-.26-3.12c.48-1.19.78-.89.95-1.56.43-1.71-.43-2.64,0-4,.36-1.19,1.58-.31,2.07-1.69s0-2,.64-2.76,1.12-.37,2-1.06c1.1-.89.65-1.8,1.63-3.05,1.21-1.54,6-.83,6-1.57C195.85,172.05,188.26,169.87,188.26,169.87Z"/><path class="cls-89" d="M184,179c-.7,0-1.21,1-1.37,1.68-.39,1.56.6,3.45,1.38,3.4s1.91-2.56,1.22-4.07C185.21,179.92,184.73,178.91,184,179Z"/><path class="cls-90" d="M184.57,180.64a.79.79,0,0,0-.95.18,1.69,1.69,0,0,0-.06,1.64c.08.21.24.55.46.59,0,0,.29,0,.07-.35l-.05-.08,0-.09c-.12-.2-.07-.12,0,0a2.08,2.08,0,0,1-.24-.66.91.91,0,0,1,.11-.79.47.47,0,0,1,.56-.11.55.55,0,0,1,.25.43.16.16,0,0,0,.15.16.18.18,0,0,0,.18-.21A.86.86,0,0,0,184.57,180.64Z"/><path class="cls-90" d="M184.09,182.7l0-.06Z"/><path class="cls-90" d="M184,182.53l0,.09v0l-.07-.12Z"/><path class="cls-90" d="M184.54,179.11a1.08,1.08,0,0,0-.82-.1,1.31,1.31,0,0,0-.68.59,3.07,3.07,0,0,0-.49,1.68,3.12,3.12,0,0,0,.86,2.45h0c0,.22.12.81.65.93h0c.41.09.58-.2.67-.45a.17.17,0,0,0-.1-.23h0a.16.16,0,0,0-.21.11c-.07.22-.14.25-.28.21h0c-.28-.06-.36-.34-.41-.64,0-.11,0-.21-.12-.24a2.73,2.73,0,0,1-.73-2.16,2.62,2.62,0,0,1,.42-1.46,1,1,0,0,1,.5-.46.78.78,0,0,1,.59.09,1.21,1.21,0,0,1,.59.76.16.16,0,0,0,.2.1.19.19,0,0,0,.11-.24A1.58,1.58,0,0,0,184.54,179.11Zm-1.06,4.66Z"/><path class="cls-90" d="M184.47,181.52a.76.76,0,0,0-.26.52c-.05.28,0,.56.07.56s0-.51.32-.84c.16-.17.33-.2.32-.26S184.66,181.4,184.47,181.52Z"/><path class="cls-89" d="M195.32,231.15c-.34-.14-.65.06-1,.2a4.44,4.44,0,0,1-2.53,0,5.11,5.11,0,0,1-1.83-.74c-.6-.4-1.17-1-1.09-1.09s.64.16,1.14.4c1.18.55,1.36.85,2,.89.05,0,1,.05,1.24-.45a.86.86,0,0,0-.05-.69c-.32-.62-1.16-.51-2.48-1-.77-.32-.62-.41-1.23-.65-.41-.15-1.27-.41-4.16,0a15.07,15.07,0,0,1-2.28.29,6.9,6.9,0,0,1-3-.94c-3.42-1.68-3.46-1-6.39-2.57a30.6,30.6,0,0,1-3.76-2.43c-2.12-1.63-2.16-2.16-3.12-2.38-2.31-.5-4.61,6.71-4.33,7.17.47.75,14.87,5.7,15.92,5.9a11.59,11.59,0,0,1,2,.6,14.69,14.69,0,0,1,3.12,1.78c1.51,1.11,1.65,1.58,2.72,1.93a6.07,6.07,0,0,0,1.83.25,9.28,9.28,0,0,0,3.52-.59c.27-.11.8-.34.79-.6s-.48-.38-.45-.49.44,0,1-.05,1.18-.07,1.34-.45c0-.08.08-.28-.15-.64a1.13,1.13,0,0,0,1.19-.55.91.91,0,0,0,0-.79c-.17-.3-.47-.28-.5-.44,0-.33,1.08-.51,1.14-1A.76.76,0,0,0,195.32,231.15Z"/><path class="cls-90" d="M194.72,232.93a.24.24,0,0,0-.25-.09,13.68,13.68,0,0,1-2.85.39h-.83a.2.2,0,0,0-.21.14h0a.17.17,0,0,0,.19.15h.87a14.56,14.56,0,0,0,3-.41.15.15,0,0,0,.13-.19Z"/><path class="cls-90" d="M194,234.62a.21.21,0,0,0-.23-.13c-.58.06-1.17.11-1.75.13s-1.2,0-1.8,0c-.12,0-.21.05-.22.14h0c0,.08.09.15.2.15H192c.6,0,1.2-.07,1.78-.13.12,0,.19-.09.18-.17Z"/><path class="cls-90" d="M191.56,235.79l-.82.07-.89.07c-.14,0-.24.09-.24.17h0c0,.08.11.14.24.13l.9-.08.81-.06c.13,0,.24-.09.24-.17h0C191.8,235.84,191.69,235.78,191.56,235.79Z"/><path class="cls-90" d="M168.53,221.31a.25.25,0,0,0-.29-.21,8.12,8.12,0,0,0-1.81.51,7.4,7.4,0,0,0-1.89,1.11.24.24,0,0,0,0,.35.25.25,0,0,0,.34,0,6.6,6.6,0,0,1,1.76-1,7.2,7.2,0,0,1,1.72-.48.25.25,0,0,0,.2-.28Z"/><path class="cls-109" d="M171.6,196.22c-2.13.77-3.55,3.32-4.71,5.56a17.11,17.11,0,0,0-1,2.23,109.31,109.31,0,0,0-4.55,18.06c-.29,1.7-.25,3.47.47,4.22,1,1.07,3.56.68,5.16-.45,1.05-.74,1.68-2.1,2.88-4.79.28-.63.51-1.19,1.59-4,1.81-4.74,2-5.3,2.11-6a18.79,18.79,0,0,0,.19-5.17C173.61,204,173.43,195.55,171.6,196.22Z"/><path class="cls-109" d="M182.91,227.88a37.58,37.58,0,0,1-7.6-3.06,42.7,42.7,0,0,1-4.78-3c-2.25-1.65-2.56-2.26-3.64-2.36-2.16-.2-4.71,1.92-5.23,4.46a2,2,0,0,0,.13,2.37c.83,1.23,3.38,2.32,5.69,2.94,0,0,2.43,1,6.81,2.74a40.78,40.78,0,0,0,6.32,2.23C182.24,234.62,184.48,228.48,182.91,227.88Z"/><path class="cls-42" d="M169.75,220.86a6.27,6.27,0,0,0-1.25-.34,6,6,0,0,0-2.91.27.38.38,0,1,0,.25.72,5.1,5.1,0,0,1,2.53-.23,4.62,4.62,0,0,1,1.09.29.37.37,0,0,0,.49-.19h0A.39.39,0,0,0,169.75,220.86Z"/><path class="cls-89" d="M235.67,208a6.06,6.06,0,0,0,.89,0,2.15,2.15,0,0,0,1.17-.5c.54-.52.31-1.12.73-1.32s.63.27,1.13.15a1.64,1.64,0,0,0,1-1.54c0-.64-.41-1.05-.21-1.27s.25-.06.61-.07,1.12,0,1.35-.37-.18-.67-.55-1.73-.17-1.21-.54-2.06c-.06-.14-.7-1.6-1.24-1.51-.32.05-.47.59-.49.66-.27.94.55,1.45.47,2.66,0,.3-.07.93-.42,1.09s-.74-.24-2.63-1.65a3.24,3.24,0,0,0-1.87-.86,1,1,0,0,0-.87.27c-.29.39.07,1-.09,1.11s-.53-.73-1.21-.82a1.11,1.11,0,0,0-1,.45,1.23,1.23,0,0,0,0,1.1c.25.54.76.61.74.91s-.62.34-.72.74c0,.16,0,.32.51,1,.65.89.85,1,1,1.45.12.3.1.41-.28.73s-1.81,1-1.84,1.22,1.78.42,2.52.48S234.64,208,235.67,208Z"/><path class="cls-90" d="M237.63,203.6c-.48-.46-1-.88-1.5-1.31s-1.34-1.15-2-1.65L234,201c.63.5,1.24,1.07,1.87,1.59s1,.9,1.49,1.3S237.92,203.87,237.63,203.6Z"/><path class="cls-90" d="M235.62,204.7c-.17-.19-.36-.35-.55-.53a15.12,15.12,0,0,0-2.47-1.68l0,.26c.63.45,1.7,1.16,2.26,1.67a5.93,5.93,0,0,0,.56.46C235.81,205.2,236,205.1,235.62,204.7Z"/><circle class="cls-113" cx="289.8" cy="183.16" r="13.11"/><circle class="cls-116" cx="289.8" cy="183.16" r="11.58" transform="translate(-45.48 111.59) rotate(-20.24)"/><path class="cls-117" d="M292.41,189.26a11.6,11.6,0,0,1-14.11-7.48A11.58,11.58,0,1,0,301,180c-.05-.19-.11-.37-.17-.55A11.61,11.61,0,0,1,292.41,189.26Z"/><path class="cls-118" d="M294.44,172.56,281.59,175a11.5,11.5,0,0,0-3,5.29l20.61-3.9A11.57,11.57,0,0,0,294.44,172.56Z"/><path class="cls-49" d="M405,141.66,384.79,151a5.9,5.9,0,0,0-2.89,7.8h0a5.9,5.9,0,0,0,7.8,2.89l20.24-9.29a5.9,5.9,0,0,0,2.89-7.8h0A5.9,5.9,0,0,0,405,141.66Z"/><path class="cls-59" d="M405,141.66l-10.12,4.64L399.82,157l10.12-4.64A5.88,5.88,0,1,0,405,141.66Z"/><path class="cls-119" d="M408.74,149.73,388.5,159a5.92,5.92,0,0,1-7-1.66,6,6,0,0,0,.44,1.38,5.9,5.9,0,0,0,7.8,2.89l20.24-9.29a5.9,5.9,0,0,0,2.89-7.8,6,6,0,0,0-.77-1.24A5.9,5.9,0,0,1,408.74,149.73Z"/><path class="cls-120" d="M403.52,144.11l-16.71,7.68a.93.93,0,0,0,.77,1.69l16.72-7.67a.94.94,0,0,0-.78-1.7Z"/><circle class="cls-49" cx="416.79" cy="177.2" r="10.23" transform="translate(0.98 356.68) rotate(-46.38)"/><path class="cls-121" d="M423.74,178.47a10.23,10.23,0,0,1-17.18-1.09,10.23,10.23,0,1,0,19.17-5.15A10.25,10.25,0,0,1,423.74,178.47Z"/><path class="cls-122" d="M415.67,169.5a1,1,0,0,0-1.89.76l5.2,12.85a1,1,0,0,0,1.33.56,1,1,0,0,0,.56-1.32Z"/><path class="cls-89" d="M494.92,289.68c-.75-1.38-3.63-1.62-4.37-.65-.36.46,0,1-.51,2-.36.76-.67.77-.82,1.26a2.93,2.93,0,0,0,5.53,1.78c.05-.12.54-.33.17-1.26S495.12,290.05,494.92,289.68Z"/><path class="cls-89" d="M480,289.9c.08-1,.3-1.17.13-1.61-.55-1.41-3.6-2-4.42-1-.54.66.29,1.59-.43,3a1.86,1.86,0,0,0-.34,1.13c.07.42.38.64.82,1,1.35,1.22,1.14,1.54,1.75,1.78a2.35,2.35,0,0,0,2.62-.7C480.66,292.77,479.83,292.05,480,289.9Z"/><path class="cls-123" d="M485.82,237.86c-2.75-3.32-6.52-8.06-8.59-6.09-1.29,1.23-3.64,11.52-2.85,21.71.2,2.55.59,5,.83,6.38.57,3.22,1,4.28,1,6.72,0,1.3-.11,2.94-.16,3.7-.12,1.62-.23,2.55-.33,3.52-.45,4.42-.13,4.52-.33,8.57-.14,2.6,0,6.3,0,6.3l5.22.5a33.56,33.56,0,0,1,.25-3.95c.44-2.84,1-2.85,1.49-5.37a48.14,48.14,0,0,0,.28-9.74,8.72,8.72,0,0,1,.33-2.83c1-3.47,1.89-14.42.7-19.74C483.3,246,489.51,242.32,485.82,237.86Z"/><path class="cls-124" d="M481.54,241.09c-1.19.64.89,13.46.87,16a41,41,0,0,1-.39,4.79c-.28,2.35-.4,2.33-.57,4.1,0,.4-.16,1.62-.2,5.17s.07,3.4,0,4.59c-.18,3.18-.91,4.21-1.44,7.13a26.41,26.41,0,0,0-.39,6.14l1.18.11a33.56,33.56,0,0,1,.25-3.95c.44-2.84,1-2.85,1.49-5.37a48.14,48.14,0,0,0,.28-9.74,8.72,8.72,0,0,1,.33-2.83c1-3.47,1.89-14.42.7-19.74-.09-.4.25-.94.74-1.59C483.17,244.28,482,240.84,481.54,241.09Z"/><path class="cls-123" d="M494.61,264.73c-.33-1.75-.28-3.76-.17-7.72.1-3.26.14-4.89.34-7.22.37-4.54.81-5.81.33-8.4-.34-1.8-2.49-8.45-3.55-9.62-3.24-3.56-9.86-1.81-10.84,1-.11.31.57,5.51,1,8,.1.63,1.9,15.84,5.1,26.13.48,1.56,1.47,3,2,4.43a15.45,15.45,0,0,1,.83,4c.44,3.75.08,4.08.49,7.9.22,2-.51,6.55-.08,7.21,0,0,5.21.27,5.22-.16.17-4.45,1.47-9.41,1.5-13.43a30.56,30.56,0,0,0-.5-6.22C495.68,267.5,495.11,267.44,494.61,264.73Z"/><path class="cls-94" d="M494.86,292.11c-.22,0-.1,1.12-.66,1.34-.1,0-.36.11-1.33-.5s-.94-.79-1.49-1.09-1.74-.74-2.32-.26c-.39.32-.14.69-.5,1.77a6.11,6.11,0,0,1-1.16,2,7,7,0,0,1-1.25,1.18c-.68.49-1,.5-1.41,1a2,2,0,0,0-.58,1.17,1.46,1.46,0,0,0,.34,1.09c.24.25.54.27,1.07.34s1.22.19,1.83.25a14.26,14.26,0,0,0,2.57.25,4.8,4.8,0,0,0,1.9-.58c.74-.42.68-.67,1.5-1.18s1.33-.44,1.74-.92c.24-.28.4-.68.41-1.93C495.54,294.06,495.15,292.09,494.86,292.11Z"/><path class="cls-94" d="M480.1,291.94c-.25,0-.2.88-.91,1.34a1.38,1.38,0,0,1-1.24.17c-.51-.22-.43-.72-.92-1.34a2.39,2.39,0,0,0-2.4-1c-.27.12-.23.25-.91,1.18-.4.53-.73.91-1.25,1.51s-.76.88-1,1.09a6.24,6.24,0,0,1-1.91,1.26c-1.18.46-1.67.1-2.24.67a2.37,2.37,0,0,0-.58,1.26,1.58,1.58,0,0,0,.09,1c.24.46.8.63,1.57.75a9.33,9.33,0,0,0,3.57.09c1.41-.24,1.27-.48,3.23-.93,1.57-.35,2.82-.5,2.82-.5,1.78-.21,2.24-.07,2.65-.5s.36-1.17.25-2.61S480.48,291.93,480.1,291.94Z"/><path class="cls-125" d="M492.7,297.73a6.31,6.31,0,0,1-2.07.68,8.08,8.08,0,0,1-2.24,0c-.79-.12-1.1-.3-2.15-.42-.28,0-1.12-.06-1.78-.07a1.82,1.82,0,0,0-.3.82,1.46,1.46,0,0,0,.34,1.09c.24.25.54.27,1.07.34s1.22.19,1.83.25a14.26,14.26,0,0,0,2.57.25,4.8,4.8,0,0,0,1.9-.58c.74-.42.68-.67,1.5-1.18s1.33-.44,1.74-.92c.24-.28.4-.68.41-1.93v-.27A25.52,25.52,0,0,1,492.7,297.73Z"/><path class="cls-125" d="M477.61,296.89a26.24,26.24,0,0,1-4.89,1,14.35,14.35,0,0,1-5.9-.16c0,.16-.06.28-.07.33a1.58,1.58,0,0,0,.09,1c.24.46.8.63,1.57.75a9.33,9.33,0,0,0,3.57.09c1.41-.24,1.27-.48,3.23-.93,1.57-.35,2.82-.5,2.82-.5,1.78-.21,2.24-.07,2.65-.5s.36-.9.3-1.86C479.67,296.43,478.08,296.77,477.61,296.89Z"/><path class="cls-126" d="M478.5,293.57a1.27,1.27,0,0,1-.75-.13.63.63,0,0,1-.24-.38,2.37,2.37,0,0,0-.28-.61,3.1,3.1,0,0,0-1.15-1.05,3.64,3.64,0,0,0-.87-.36l-.08.29a3.74,3.74,0,0,1,.8.33,3,3,0,0,1,1.05.95,2.14,2.14,0,0,1,.24.54.9.9,0,0,0,.37.55,1.35,1.35,0,0,0,.72.18h.21a1.87,1.87,0,0,0,.82-.25l-.15-.26A1.73,1.73,0,0,1,478.5,293.57Z"/><path class="cls-126" d="M494.3,293.39c-.23.11-.49,0-.86-.12a4,4,0,0,1-.81-.45,3.86,3.86,0,0,1-.47-.37c-.11-.09-.22-.19-.4-.32a4.79,4.79,0,0,0-1-.51l-.11.28a4.26,4.26,0,0,1,.92.49c.16.11.26.2.37.29a4.8,4.8,0,0,0,1.37.88,2.19,2.19,0,0,0,.74.19.78.78,0,0,0,.36-.08,1,1,0,0,0,.37-.32l-.25-.18A.65.65,0,0,1,494.3,293.39Z"/><path class="cls-124" d="M495.3,273.84a50.58,50.58,0,0,0-1.59-5.37,12.16,12.16,0,0,1-.75-2.26c-.3-1.61,0-2.46,0-4.3a21.28,21.28,0,0,0-.31-3.55c-.8-6.15-1.39-10.89-.64-14.41a13.38,13.38,0,0,1,2.39-5.18c.35,1.12.61,2.09.71,2.62.48,2.59,0,3.86-.33,8.4-.2,2.33-.24,4-.34,7.22-.11,4-.16,6,.17,7.72.5,2.71,1.07,2.77,1.66,5.88a30.56,30.56,0,0,1,.5,6.22c0,4-1.33,9-1.5,13.43,0,.14-.53.2-1.24.23.5-3.18.83-5.9,1.06-8C495.76,276.17,495.53,274.79,495.3,273.84Z"/><path class="cls-106" d="M480.49,184.46a8.6,8.6,0,0,0-.19,2.86c0,.39,0,.58,0,.72a10,10,0,0,1-.67,2.07,4.33,4.33,0,0,0-.16,1.56,10.33,10.33,0,0,0,.54,1.74,6,6,0,0,1,.12,1.86,22.75,22.75,0,0,1-.46,2.58,4.84,4.84,0,0,0,.59,3.43,3.15,3.15,0,0,0,1.88,1.27,3.37,3.37,0,0,0,2.46-.68,6.06,6.06,0,0,0,2.38-3.3c1-3.32-1-6.55-2.29-8.71C482.89,186.93,480.87,184.2,480.49,184.46Z"/><path class="cls-127" d="M476.15,201.21c-.57-.12-1.36,1.33-1.84,2.22a11.54,11.54,0,0,0-1.13,3.59,43.16,43.16,0,0,0-.64,4.51c-.34,3.49,0,2.35-.21,5.81a4.19,4.19,0,0,0,.28,2.44c.42.81,1.35,1.72,2.05,1.57s1.32-1.72,1.77-8.1C476.84,207.56,477.27,201.44,476.15,201.21Z"/><path class="cls-128" d="M473.23,216.54a2.75,2.75,0,0,0,0-1.31,2.6,2.6,0,0,0-1-1.22,13.64,13.64,0,0,0-2.39-1.46c-1.47-.8-1.37-.71-1.62-.88a7.83,7.83,0,0,0-1.51-.91c-.68-.28-1-.24-1.14-.14a.8.8,0,0,0-.44.64c0,.25.11.44.33.72s.57.44.54.55-.32,0-.64.22a.89.89,0,0,0-.45.66c0,.34.28.49.19.67s-.29.07-.54.27a1,1,0,0,0-.33.62,1.39,1.39,0,0,0,.16.81,3.38,3.38,0,0,0,.48.79,7.21,7.21,0,0,0,3.28,2.22c1.34.38,3.84.59,4.62-.64A4.36,4.36,0,0,0,473.23,216.54Z"/><path class="cls-129" d="M467.75,217.71h0a.35.35,0,0,1-.26-.43l1.84-8.29a.35.35,0,0,1,.42-.27h0a.36.36,0,0,1,.27.43l-1.84,8.29A.37.37,0,0,1,467.75,217.71Z"/><path class="cls-130" d="M482.82,197.4c-.21.15-.06.72,0,.9a1.32,1.32,0,0,0,.58.64c.66.34,1.67,0,1.77-.54a.51.51,0,0,0-.19-.56A2.06,2.06,0,0,0,482.82,197.4Z"/><path class="cls-109" d="M476.57,200.85s0,0,1.38-.57c2.15-.9,2.45-1.05,3.17-1.29.4-.13,1.52.44,2.51.24,1.67-.32,1.41-.87,2.81-1.1,2.14-.37,2.53-1.11,4.14-.94a6.6,6.6,0,0,1,1.66.43,11.47,11.47,0,0,1,2.07,1.29c.89.63,1.49,1.09,2.14,1.58a29.07,29.07,0,0,0,2.68,1.89c.4.26-1,.46-1.5,1.05a2.6,2.6,0,0,0-.49,1.29c-.47,2.85-.53-.47-1.72,8.46-.45,3.37-.68,5-.69,6.09a48.25,48.25,0,0,0,.41,6c.51,5.18.59,5.67.69,6.81.44,5-.15,6-.14,12.76,0,7.95,1,8.14.07,9.53-3,4.3-24.21,3-24,1,.06-.65.57-18.66,1.46-23.91.61-3.63.83-4,1.1-6.52a70,70,0,0,0,.34-7.6c0-3.52-.23-3.27-.13-6.52C474.73,203.13,476,201.43,476.57,200.85Z"/><path class="cls-49" d="M457.92,212.07l-.77,1.65,4.17,2.4c2.23,1.28,3.86,2.15,3.86,2.15s2.2-.46,2.09-1.11S457.92,212.07,457.92,212.07Z"/><path class="cls-89" d="M472.57,214.31a6.45,6.45,0,0,0-.83-1c-.1-.1-.37-.41-.92-1-.21-.23-.3-.34-.47-.38s-.25,0-.85.31a3.45,3.45,0,0,0-1,.74c-.27.31-.26.44-.26.48,0,.32.52.49.64.53a1.09,1.09,0,0,0,.78,0c.25-.11.35-.3.44-.26s0,.27.07.52a1.26,1.26,0,0,0,.67.89C471.55,215.48,472.87,214.73,472.57,214.31Z"/><path class="cls-89" d="M466.88,217.09a.79.79,0,0,0,.61-.33.6.6,0,0,0,0-.57c-.15-.29-.49-.37-.47-.41s.1,0,.28.05c.47.12.48.15.57.14a.62.62,0,0,0,.54-.5.87.87,0,0,0-.14-.41,2.79,2.79,0,0,0-.35-.55c-.25-.28-.47-.41-.45-.45s.18.09.42.09a.72.72,0,0,0,.52-.16c0-.05.2-.27-.28-1.27a8.62,8.62,0,0,0-.83-1.34l-.37-.53-.19-.09c-.68-.28-1-.24-1.14-.14a.8.8,0,0,0-.44.64c0,.25.11.44.33.72s.57.44.54.55-.32,0-.64.22a.89.89,0,0,0-.45.66c0,.34.28.49.19.67s-.29.07-.54.27a1,1,0,0,0-.33.62,1.25,1.25,0,0,0,.14.75C465.19,216.4,466.27,217.19,466.88,217.09Z"/><path class="cls-90" d="M467.34,214h0a.11.11,0,0,0,0-.15c-.23-.25-.45-.5-.68-.74l-.51-.56a.1.1,0,0,0-.15,0h0a.11.11,0,0,0,0,.15l.52.56.67.74A.1.1,0,0,0,467.34,214Z"/><path class="cls-90" d="M466.9,215.67h0a.1.1,0,0,0,0-.15q-.51-.5-1-1c-.19-.17-.39-.33-.59-.49a.11.11,0,0,0-.15,0h0a.11.11,0,0,0,0,.15l.58.49q.54.47,1.05,1A.09.09,0,0,0,466.9,215.67Z"/><path class="cls-131" d="M468.89,212.82a.47.47,0,0,1,.34-.13.45.45,0,0,1,.31.14.46.46,0,0,1,.18.27c0,.16-.12.29-.22.39a.88.88,0,0,1-.6.3c-.2,0-.52-.08-.57-.28S468.63,213,468.89,212.82Z"/><path class="cls-131" d="M467.16,213.56c0,.06,0,.09.2.21a1.56,1.56,0,0,0,.31.21.49.49,0,0,0,.45,0,.48.48,0,0,0,.13-.24.64.64,0,0,0-.16-.65.54.54,0,0,0-.45-.08.59.59,0,0,0-.43.28A.36.36,0,0,0,467.16,213.56Z"/><path class="cls-42" d="M481.83,257.31h0a.25.25,0,0,0,.24-.26c-.2-6.27-.4-15.47-.28-24.2,0-1.53,0-2.28.07-3.33,0-1.22.08-2.74.14-6.25,0-1.32.05-2.42.06-3.35a52.38,52.38,0,0,1,.3-6.5c.07-.58.15-1.16.25-1.83.18-1.28.4-2.87.67-5.28.12-1.08.23-2.17.33-3.24a.26.26,0,0,0-.23-.28h0a.26.26,0,0,0-.27.23c-.09,1.07-.21,2.15-.33,3.23-.26,2.4-.49,4-.67,5.27-.09.67-.17,1.25-.24,1.84a51.37,51.37,0,0,0-.3,6.55c0,.93,0,2-.06,3.35-.07,3.51-.11,5-.14,6.25,0,1-.05,1.8-.07,3.33-.13,8.74.08,17.95.27,24.22A.26.26,0,0,0,481.83,257.31Z"/><polygon class="cls-132" points="465.07 217.66 477.39 213.61 481.78 219.02 469 222.86 465.07 217.66"/><path class="cls-133" d="M465.07,217.66c-.65-.27-9.45-4.94-9.45-4.94s6.51,5.46,9.52,7.81c3.27,2.54,3.77,3.14,4,2.94C469.8,223,467.76,218.8,465.07,217.66Z"/><path class="cls-134" d="M486.33,210.18a2.8,2.8,0,0,0-1.09.75,11.72,11.72,0,0,0-2.35,4.07,5.59,5.59,0,0,0-.43,2.33,4.8,4.8,0,0,0,1.46,2.93l.36-.37a4.29,4.29,0,0,1-1.31-2.6,5.28,5.28,0,0,1,.41-2.13,11.6,11.6,0,0,1,2.23-3.87,2.21,2.21,0,0,1,.89-.62,2.65,2.65,0,0,1,2.09.13l.29-.44A3.17,3.17,0,0,0,486.33,210.18Z"/><path class="cls-134" d="M484.25,219.57a.53.53,0,1,0-.29,1,.52.52,0,0,0,.64-.36A.53.53,0,0,0,484.25,219.57Z"/><path class="cls-134" d="M489,210.45l-.34.39a2.8,2.8,0,0,1,.68,2,2.46,2.46,0,0,1-.36,1,11.55,11.55,0,0,1-3.1,3.21A5.09,5.09,0,0,1,484,218a4.11,4.11,0,0,1-2.82-.6l-.26.46a4.66,4.66,0,0,0,3.17.66,5.4,5.4,0,0,0,2.11-1,11.69,11.69,0,0,0,3.26-3.37,2.79,2.79,0,0,0,.43-1.26A3.25,3.25,0,0,0,489,210.45Z"/><path class="cls-134" d="M480.73,217.22a.52.52,0,0,0,.54.9.53.53,0,0,0,.17-.72A.51.51,0,0,0,480.73,217.22Z"/><path class="cls-135" d="M479.09,202.73a25.31,25.31,0,0,0-1.49,9.54l.57,0a24.62,24.62,0,0,1,1.46-9.3c1.09-3,2.22-4.4,2.94-4.47a.63.63,0,0,0,.07-.16,1,1,0,0,0,.05-.29.81.81,0,0,0,0-.18C481.38,198,480.16,199.8,479.09,202.73Z"/><path class="cls-134" d="M478.22,211a1.31,1.31,0,1,0,.92,1.61A1.33,1.33,0,0,0,478.22,211Z"/><path class="cls-136" d="M478.07,211.56a.7.7,0,0,0-.87.51.71.71,0,1,0,.87-.51Z"/><path class="cls-135" d="M491.76,196a3.71,3.71,0,0,0,0,.75c.71.53.61,2.56.09,5.29a24,24,0,0,1-3.51,8.65l.49.31a24.86,24.86,0,0,0,3.53-8.86C492.91,199,493.28,196.47,491.76,196Z"/><path class="cls-89" d="M483.38,196.27c-.12.55.28.64.34,1.58.1,1.69-.8,4-.44,4.52s1.2-.68,2.29-.91a16.31,16.31,0,0,0,4.08-2.36c1-.7,1.7-1.24,1.78-2.07a2.47,2.47,0,0,0-.48-1.46c-1.34-2.48.45-5.76,0-5.94s-.88,2.44-3.14,4.08C485.81,195.16,483.64,195,483.38,196.27Z"/><path class="cls-90" d="M483.72,197.85c-.06-.94-.46-1-.34-1.58.26-1.27,2.43-1.11,4.43-2.56a7.59,7.59,0,0,0,2.05-2.31,12,12,0,0,1-2.81,5.56c-.72.76-1.74,1.81-2.95,1.62a3.26,3.26,0,0,1-.4-.11A4.19,4.19,0,0,0,483.72,197.85Z"/><path class="cls-49" d="M493.3,198.23c-.08-.42-.48-.84-.85-1.91-.2-.55-.18-1-.43-1s-.7.34-1.08.71a18.6,18.6,0,0,1-5.57,3.14c-.65.24-1.48,2.32-1.73,3.25C483.27,203.75,493.6,199.84,493.3,198.23Z"/><path class="cls-49" d="M481,199c.14-.39,1.92-1.92,1.92-1.47a1.63,1.63,0,0,0,.75,1.34c.44.54-.08,2.62-.34,3.55S480.73,199.64,481,199Z"/><path class="cls-89" d="M480.51,185.29c-.15.25.39,2.82.12,3.89-.06.22-.59,1.75,1.28,5.13.21.39.08.66.3,1.16a2.34,2.34,0,0,0,.51.84,2.57,2.57,0,0,0,1.93.47,4.35,4.35,0,0,0,2.18-1,13.47,13.47,0,0,0,2.32-2.07,13.08,13.08,0,0,0,2.86-4.5c.51-1.5,1-3,.35-4.78a6,6,0,0,0-8.87-2.59,14.56,14.56,0,0,0-1.75,1.79C481.62,183.92,480.77,184.88,480.51,185.29Z"/><path class="cls-106" d="M484,183.19a3.56,3.56,0,0,0-2.67,1.43c-.77,1.06-.6,3.29-.67,3.29a6.5,6.5,0,0,1-.2-4.21,6,6,0,0,1,2.71-2.76,6.38,6.38,0,0,1,3.77-1.15c1.67.05,3.47.81,3.42,1.27C490.3,181.83,485.42,183.05,484,183.19Z"/><path class="cls-106" d="M485.48,181.13a8.85,8.85,0,0,1,2.5-1c1-.09,3.52-1,5.29,2.09a4.86,4.86,0,0,1,.62,1.8,11.47,11.47,0,0,0,.38,2.1c.26.71,1,1.49,1.18,2.13a22.27,22.27,0,0,1,.16,2.6c.13,1,.79,1.14,1,2,.39,1.63-.19,2.62.09,3,1.95,2.54,0,3.84-2.71,2.86-1.19-.42-2.92,1.65-3.6,1.13s.29-2-.27-3.4c-.38-.94-.95-1.09-1.08-1.63-.35-1.36.62-2,.28-3.11-.29-.94-.45-.73-.84-1.83s0-1.59-.5-2.2-.88-.29-1.56-.85c-.86-.7-.51-1.42-1.28-2.42-.94-1.23-2.21-1.1-2.22-1.7C482.91,182.35,483.76,181.94,485.48,181.13Z"/><path class="cls-89" d="M489.36,188.24c-.54-.15-1.06.53-1.09.57-.76,1-.38,3.1.25,3.29s1.63-1.1,1.59-2.35C490.1,189.22,489.88,188.39,489.36,188.24Z"/><path class="cls-90" d="M488.72,191l0,0Z"/><path class="cls-90" d="M488.66,189.42a.68.68,0,0,0-.43.47.14.14,0,0,0,.1.19.12.12,0,0,0,.13-.1.47.47,0,0,1,.26-.29.4.4,0,0,1,.41.18.73.73,0,0,1-.05.62,1.59,1.59,0,0,1-.29.46c.06-.07.11-.13,0,0l0,0-.05.06c-.23.25,0,.28,0,.28s.35-.23.45-.38a1.31,1.31,0,0,0,.22-1.25A.62.62,0,0,0,488.66,189.42Z"/><path class="cls-90" d="M488.73,191l0,0h0l-.07.08Z"/><path class="cls-90" d="M489.56,188.33a.77.77,0,0,0-.63-.06,1.23,1.23,0,0,0-.72.6.15.15,0,0,0,.05.2.12.12,0,0,0,.16,0,1,1,0,0,1,.57-.48.59.59,0,0,1,.46,0,.85.85,0,0,1,.3.42,2.14,2.14,0,0,1,.07,1.19c-.15.81-.64,1.47-.9,1.51-.07,0-.1.08-.13.16s-.19.43-.41.43h0c-.11,0-.16,0-.18-.21s-.07-.13-.13-.12h0a.13.13,0,0,0-.12.16c0,.2.11.45.43.45h0c.41,0,.58-.43.64-.6h0a2.42,2.42,0,0,0,1.05-1.71,2.53,2.53,0,0,0-.09-1.36A1.05,1.05,0,0,0,489.56,188.33ZM489,192Z"/><path class="cls-90" d="M488.25,190s.11.1.2.25c.18.31.06.68.11.69s.13-.19.14-.41a.61.61,0,0,0-.12-.44C488.47,190,488.27,190,488.25,190Z"/><path class="cls-91" d="M486.14,187.73a6.37,6.37,0,0,0-1.23-.09c-.25,0-.51.05-.76.09a.19.19,0,0,0-.15.22.17.17,0,0,0,.21.14,5.87,5.87,0,0,1,.72-.08,4.83,4.83,0,0,1,1.14.08.17.17,0,0,0,.21-.14h0A.18.18,0,0,0,486.14,187.73Z"/><path class="cls-91" d="M481.09,187.73a1.9,1.9,0,0,1,.67-.09l.42.09c.05,0,.09.12.08.22s-.06.16-.12.14a1.8,1.8,0,0,0-.39-.08,1.52,1.52,0,0,0-.63.08c-.05,0-.1,0-.11-.14h0C481,187.85,481,187.75,481.09,187.73Z"/><path class="cls-90" d="M483.73,191.85a.13.13,0,0,0-.14-.08c-.5.1-.85.06-1-.12s-.05-.36,0-.79l.11-.53a11.88,11.88,0,0,0,.16-1.32.1.1,0,0,0-.11-.11.11.11,0,0,0-.12.1c0,.43-.09.87-.16,1.29,0,.21-.08.38-.11.53-.1.48-.16.74,0,1s.48.3.94.25l.27,0a.13.13,0,0,0,.1-.14Z"/><path class="cls-91" d="M484.79,188.55c-.18,0-.33.24-.33.52s.15.52.33.52.33-.23.33-.52S485,188.55,484.79,188.55Z"/><path class="cls-91" d="M481.66,188.55c-.18,0-.33.24-.33.52s.15.52.33.52.33-.23.33-.52S481.84,188.55,481.66,188.55Z"/><path class="cls-49" d="M484.42,193.06l-.57.08a4.79,4.79,0,0,1-1.31,0l-.3,0a.16.16,0,0,0-.17.23,1.26,1.26,0,0,0,1.13.77,1.76,1.76,0,0,0,1.39-.8A.17.17,0,0,0,484.42,193.06Z"/><path class="cls-92" d="M485.59,189.86c-.48.06-.83.35-.79.65s.45.49.92.43.83-.35.79-.65S486.06,189.8,485.59,189.86Z"/><path class="cls-137" d="M491.17,237.71a61,61,0,0,0-.71-8.32c-1.09-11.26,1.24-17,1.84-18.35a8.49,8.49,0,0,1,3-4,7.3,7.3,0,0,1,1.42-.72c-.24.51-.54,1.32-1.28,6.88-.45,3.37-.68,5-.69,6.09a48.25,48.25,0,0,0,.41,6c.51,5.18.59,5.67.69,6.81.44,5,2.62,19.95,1.66,21.34-.69,1-3.48,2.5-5.69,2.94C491.08,253.71,491.13,241.46,491.17,237.71Z"/><path class="cls-138" d="M493.34,227.58c-1.69,1.24-3.33,1.42-6.6,1.76a29.86,29.86,0,0,1-9.21-.57c-1.48-.29-2.73-.62-3.67-.9.17-.87.29-1.59.43-2.86,0-.36.07-.71.1-1a20.19,20.19,0,0,0,8.95.22,47.36,47.36,0,0,0,10.24-4l1.14-.62a54,54,0,0,0,.42,5.75l.05.47A10.24,10.24,0,0,1,493.34,227.58Z"/><path class="cls-49" d="M488.83,218c.72-1.61.4-1.36,2-6.29a24.47,24.47,0,0,1,2.84-6.66,11.22,11.22,0,0,1,2.49-2.49,2.53,2.53,0,0,1,1.49-.74,2.18,2.18,0,0,1,1.49.52,3.29,3.29,0,0,1,.92,2.27,7.65,7.65,0,0,1-.07,2.41c-1.23,6.05-1.85,8.13-1.85,8.13a32.41,32.41,0,0,1-2.2,6.22c-.95,1.87-1.46,2.83-2.55,3.44-2.42,1.36-6.23.19-6.82-1.68C486.19,222,487.35,221.38,488.83,218Z"/><path class="cls-138" d="M474,220a.69.69,0,0,0-.51-.28.47.47,0,0,0-.31.14,5.38,5.38,0,0,0-1,1.82c-.44,1.23-.42,1-.56,1.5a9.6,9.6,0,0,0-.36,2,2.29,2.29,0,0,0,.15,1.27.86.86,0,0,0,.59.64c.59.26,1.32-.39,1.53-.57C475.58,224.63,474.48,220.5,474,220Z"/><path class="cls-89" d="M474.13,225.55c-.3,0-.27,0-2.3-.65a14.63,14.63,0,0,0-2.79-.71c-.62,0-1.13.15-1.63-.18a6.53,6.53,0,0,1-.67-.65c-.38-.38-.65-.68-.68-.72-.82-.92-1.54-1-2.47-2-.65-.68-.36-.67-1.17-1.58,0,0-.34-.38-1.77-1.69h0s.15-.37.35-.43.3.19.71.36a3,3,0,0,0,.57.15,2.26,2.26,0,0,1,1.06.79,14.13,14.13,0,0,0,1.41,1.18,7,7,0,0,0,2.27,1.07,9,9,0,0,0,2.83.4c.43,0,.87,0,1-.22s-.15-.35-.5-1-.43-.81-.35-1.11a1,1,0,0,1,.53-.61.81.81,0,0,1,.67-.11c.21.09.28.29.46.65s.39.61.57.93a6.57,6.57,0,0,0,2.62,2.58c1.17.55,1.79.17,2,.61C477.2,223.37,475.75,225.38,474.13,225.55Z"/><path class="cls-49" d="M473.62,219.7s1.58.33,4,.79a15,15,0,0,0,5.45,0c1.79-.33,4.71-.87,6.58-2.86a1.79,1.79,0,0,1,.92-.65c1.33-.29,3.1,1.6,3.75,3.51.19.55,1.33.85,1,1.94a9.07,9.07,0,0,1-3.3,3.44,13.36,13.36,0,0,1-5.74,1.72,48,48,0,0,1-10.05.14,13.34,13.34,0,0,1-4.54-.84c0-.1.86.28,1.92-2.88A7.13,7.13,0,0,0,473.62,219.7Z"/><path class="cls-42" d="M480.61,220.82c.37,0,.7,0,1,0,4.95-.41,7.18-2.26,7.27-2.34a.13.13,0,0,0,0-.06c0-.09,2.36-9.08,3.84-11.2a.11.11,0,0,0,0-.14.07.07,0,0,0-.07,0,.13.13,0,0,0-.09,0c-1.44,2.09-3.59,10.2-3.83,11.11a.38.38,0,0,1-.15.22,14.1,14.1,0,0,1-7,2.19c-.3,0-.64,0-1,0a33.63,33.63,0,0,1-6.9-.93h0a.11.11,0,0,0-.11.08.11.11,0,0,0,0,.08.12.12,0,0,0,.07,0A34.09,34.09,0,0,0,480.61,220.82Z"/><path class="cls-42" d="M490.82,221.16h0a.1.1,0,0,0,.08-.13,4.25,4.25,0,0,0-1.39-2.18,3.91,3.91,0,0,0-.6-.4h-.06a.09.09,0,0,0-.09.06.11.11,0,0,0,.05.14,4.35,4.35,0,0,1,.57.38,4.08,4.08,0,0,1,1.32,2.07A.11.11,0,0,0,490.82,221.16Z"/><path class="cls-131" d="M471.38,218.64a.51.51,0,0,0-.24-.38.55.55,0,0,0-.52,0,.6.6,0,0,0-.35.31.52.52,0,0,0,0,.57.56.56,0,0,0,.5.1C471.06,219.14,471.38,218.93,471.38,218.64Z"/><path class="cls-131" d="M467.81,214.84a.68.68,0,0,1,.36.31.48.48,0,0,1-.07.52c-.07.05-.14.05-.29.05a.93.93,0,0,1-.59-.12.53.53,0,0,1-.26-.4.5.5,0,0,1,.29-.46A.63.63,0,0,1,467.81,214.84Z"/><path class="cls-131" d="M466.8,216a.85.85,0,0,1,.35.12.52.52,0,0,1,.24.36.43.43,0,0,1-.12.29c-.15.15-.38.13-.64.12s-.44,0-.52-.15a.61.61,0,0,1,.33-.76A.77.77,0,0,1,466.8,216Z"/></g></g></g></g></svg>