<svg xmlns="http://www.w3.org/2000/svg" xmlns:xlink="http://www.w3.org/1999/xlink" viewBox="0 0 564.94 462.46"><defs><style>.cls-1{mask:url(#mask);filter:url(#luminosity-noclip-3);}.cls-11,.cls-16,.cls-2,.cls-4{mix-blend-mode:multiply;}.cls-2{fill:url(#radial-gradient);}.cls-3{mask:url(#mask-2);filter:url(#luminosity-noclip-4);}.cls-4{fill:url(#radial-gradient-2);}.cls-14,.cls-20,.cls-22,.cls-23,.cls-5{fill:none;}.cls-6{isolation:isolate;}.cls-7{mask:url(#mask-3);}.cls-8{opacity:0.26;fill:url(#radial-gradient-3);}.cls-9{fill:#daf3f5;}.cls-10{mask:url(#mask-4);}.cls-11{fill:url(#radial-gradient-4);}.cls-12{opacity:0.29;}.cls-13{clip-path:url(#clip-path);}.cls-14{stroke:#071c1f;}.cls-14,.cls-20,.cls-22,.cls-23{stroke-miterlimit:10;}.cls-14,.cls-20{stroke-width:0.75px;}.cls-15{fill:url(#radial-gradient-5);}.cls-16{fill:#28dbde;}.cls-17{fill:url(#radial-gradient-6);}.cls-18{opacity:0.8;}.cls-19{mix-blend-mode:overlay;}.cls-20{stroke:#6fe8ff;}.cls-21{fill:url(#radial-gradient-7);}.cls-22{stroke:#aecfdb;stroke-width:0.2px;}.cls-23{stroke:#fff;stroke-width:0.5px;}.cls-24{fill:#e3f5fc;}.cls-25{clip-path:url(#clip-path-3);}.cls-26{fill:#ff9884;}.cls-27{fill:#00b4e9;}.cls-28{fill:#d3e1fc;}.cls-29{fill:#000145;}.cls-30{fill:#f08170;}.cls-31{fill:#fff;}.cls-32{fill:#eaf2ff;}.cls-33{fill:#80b4df;}.cls-34{fill:#003b4b;}.cls-35{fill:#f3845c;}.cls-36{fill:#000144;}.cls-37{fill:#def4fa;}.cls-38{opacity:0.5;}.cls-39{opacity:0.7;}.cls-40{clip-path:url(#clip-path-4);}.cls-41{filter:url(#luminosity-noclip-2);}.cls-42{filter:url(#luminosity-noclip);}</style><filter id="luminosity-noclip" x="0" y="-10667.45" width="564.94" height="32766" filterUnits="userSpaceOnUse" color-interpolation-filters="sRGB"><feFlood flood-color="#fff" result="bg"/><feBlend in="SourceGraphic" in2="bg"/></filter><mask id="mask" x="0" y="-10667.45" width="564.94" height="32766" maskUnits="userSpaceOnUse"><g class="cls-42"/></mask><radialGradient id="radial-gradient" cx="-21574.68" cy="-395016.08" r="4277.79" gradientTransform="translate(1704.24 2455.27) scale(0.07 0.01)" gradientUnits="userSpaceOnUse"><stop offset="0" stop-color="#fff"/><stop offset="0.09" stop-color="#e1e1e1"/><stop offset="0.35" stop-color="#929292"/><stop offset="0.58" stop-color="#545454"/><stop offset="0.77" stop-color="#262626"/><stop offset="0.91" stop-color="#0a0a0a"/><stop offset="1"/></radialGradient><filter id="luminosity-noclip-2" x="81.46" y="-10667.45" width="398.94" height="32766" filterUnits="userSpaceOnUse" color-interpolation-filters="sRGB"><feFlood flood-color="#fff" result="bg"/><feBlend in="SourceGraphic" in2="bg"/></filter><mask id="mask-2" x="81.46" y="-10667.45" width="398.94" height="32766" maskUnits="userSpaceOnUse"><g class="cls-41"/></mask><radialGradient id="radial-gradient-2" cx="-43949.34" cy="-65490.75" r="5954.31" gradientTransform="translate(-229.34 2791.89) rotate(45) scale(0.03)" gradientUnits="userSpaceOnUse"><stop offset="0.31" stop-color="#fff"/><stop offset="0.49" stop-color="#bdbdbd"/><stop offset="0.93" stop-color="#191919"/><stop offset="1"/></radialGradient><filter id="luminosity-noclip-3" x="0" y="418.92" width="564.94" height="43.55" filterUnits="userSpaceOnUse" color-interpolation-filters="sRGB"><feFlood flood-color="#fff" result="bg"/><feBlend in="SourceGraphic" in2="bg"/></filter><mask id="mask-3" x="0" y="418.92" width="564.94" height="43.55" maskUnits="userSpaceOnUse"><g class="cls-1"><path class="cls-2" d="M564.94,440.69c0,12-126.47,21.77-282.47,21.77S0,452.71,0,440.69s126.47-21.77,282.47-21.77S564.94,428.66,564.94,440.69Z"/></g></mask><radialGradient id="radial-gradient-3" cx="-21574.68" cy="-395016.08" r="4277.79" gradientTransform="translate(1704.24 2455.27) scale(0.07 0.01)" gradientUnits="userSpaceOnUse"><stop offset="0" stop-color="#008fcc"/><stop offset="0.09" stop-color="#1e9cd2"/><stop offset="0.35" stop-color="#6dbfe2"/><stop offset="0.58" stop-color="#abdaee"/><stop offset="0.77" stop-color="#d9eef7"/><stop offset="0.91" stop-color="#f5fafd"/><stop offset="1" stop-color="#fff"/></radialGradient><filter id="luminosity-noclip-4" x="81.46" y="0" width="398.94" height="398.94" filterUnits="userSpaceOnUse" color-interpolation-filters="sRGB"><feFlood flood-color="#fff" result="bg"/><feBlend in="SourceGraphic" in2="bg"/></filter><mask id="mask-4" x="81.46" y="0" width="398.94" height="398.94" maskUnits="userSpaceOnUse"><g class="cls-3"><circle class="cls-4" cx="280.93" cy="199.47" r="199.47" transform="translate(-58.76 257.07) rotate(-45)"/></g></mask><radialGradient id="radial-gradient-4" cx="-43949.34" cy="-65490.75" r="5954.31" gradientTransform="translate(-229.34 2791.89) rotate(45) scale(0.03)" gradientUnits="userSpaceOnUse"><stop offset="0.31" stop-color="#3f637a"/><stop offset="0.55" stop-color="#8198a8"/><stop offset="1" stop-color="#fff"/></radialGradient><clipPath id="clip-path"><path class="cls-5" d="M113.11,196.84C92,248.78,22.82,145,96.75,108.58c24-11.83,61.49,3.06,67.06,29.27C172.69,179.63,126.4,164.2,113.11,196.84Z"/></clipPath><radialGradient id="radial-gradient-5" cx="-42581.83" cy="-64797.51" r="7669.85" gradientTransform="translate(1754.55 2388.44) scale(0.04)" gradientUnits="userSpaceOnUse"><stop offset="0" stop-color="#28dbde"/><stop offset="1" stop-color="#008ecc"/></radialGradient><radialGradient id="radial-gradient-6" cx="-35156.8" cy="-64662.73" r="3268.72" xlink:href="#radial-gradient-5"/><radialGradient id="radial-gradient-7" cx="-45507.45" cy="-60124.75" r="3199.7" xlink:href="#radial-gradient-5"/><clipPath id="clip-path-3"><path class="cls-5" d="M451.87,200.88C454.45,262,368,395.93,290.71,361.74c-45-19.92-24.13-81.19-83.24-74.33-22.9,2.65-38.76,15.19-59.82-.66-15.18-11.42-23.5-35.83-27-53.38-17.31-85.85,56.67-190.66,148-186.73,41.34,1.78,85.52,21.92,119.47,44.77C432.66,121.42,449.72,150,451.87,200.88Z"/></clipPath><clipPath id="clip-path-4"><polygon class="cls-5" points="21.57 196.25 121.47 238.72 460.46 223.74 460.46 148.27 435.97 90.65 139.2 104.47 21.57 196.25"/></clipPath></defs><g class="cls-6"><g id="Layer_2" data-name="Layer 2"><g id="Layer_1-2" data-name="Layer 1"><g class="cls-7"><path class="cls-8" d="M564.94,440.69c0,12-126.47,21.77-282.47,21.77S0,452.71,0,440.69s126.47-21.77,282.47-21.77S564.94,428.66,564.94,440.69Z"/></g><path class="cls-9" d="M346.35,264.38c-.14,68-59.58,157.6-133.85,106.84-36.63-25-42.32-50.23-89.36-57.58-40.44-6.32-75.45-19.48-73.71-67.13C52.22,170.06,151.63,122.1,218,125.17,299.54,128.94,342.91,187,346.35,264.38Z"/><path class="cls-9" d="M466,235.16c-38.07,36-115.41,33.43-154.18-.13-28.18-24.37-14.29-51.74-26.44-81.13-15.11-36.54-31.84-59.36-9.8-99.64C290.61,26.71,320.1,4.82,351.69,1.43c38-4.08,56.19,17.83,71.2,48.53,8.92,18.25,14.82,34.23,31.26,47.09,15,11.72,36.29,15.59,46.16,33.07C519.31,163.79,487.93,210.8,466,235.16Z"/><g class="cls-10"><circle class="cls-11" cx="280.93" cy="199.47" r="199.47" transform="translate(-58.76 257.07) rotate(-45)"/></g><g class="cls-12"><g class="cls-13"><line class="cls-14" x1="54.14" y1="90.65" x2="183.48" y2="90.65"/><line class="cls-14" x1="54.14" y1="96.79" x2="183.48" y2="96.79"/><line class="cls-14" x1="54.14" y1="102.92" x2="183.48" y2="102.92"/><line class="cls-14" x1="54.14" y1="109.05" x2="183.48" y2="109.05"/><line class="cls-14" x1="54.14" y1="115.19" x2="183.48" y2="115.19"/><line class="cls-14" x1="54.14" y1="121.32" x2="183.48" y2="121.32"/><line class="cls-14" x1="54.14" y1="127.45" x2="183.48" y2="127.45"/><line class="cls-14" x1="54.14" y1="133.59" x2="183.48" y2="133.59"/><line class="cls-14" x1="54.14" y1="139.72" x2="183.48" y2="139.72"/><line class="cls-14" x1="54.14" y1="145.85" x2="183.48" y2="145.85"/><line class="cls-14" x1="54.14" y1="151.99" x2="183.48" y2="151.99"/><line class="cls-14" x1="54.14" y1="158.12" x2="183.48" y2="158.12"/><line class="cls-14" x1="54.14" y1="164.25" x2="183.48" y2="164.25"/><line class="cls-14" x1="54.14" y1="170.39" x2="183.48" y2="170.39"/><line class="cls-14" x1="54.14" y1="176.52" x2="183.48" y2="176.52"/><line class="cls-14" x1="54.14" y1="182.65" x2="183.48" y2="182.65"/><line class="cls-14" x1="54.14" y1="188.79" x2="183.48" y2="188.79"/><line class="cls-14" x1="54.14" y1="194.92" x2="183.48" y2="194.92"/><line class="cls-14" x1="54.14" y1="201.05" x2="183.48" y2="201.05"/><line class="cls-14" x1="54.14" y1="207.19" x2="183.48" y2="207.19"/><line class="cls-14" x1="54.14" y1="213.32" x2="183.48" y2="213.32"/><line class="cls-14" x1="54.14" y1="219.45" x2="183.48" y2="219.45"/></g></g><path class="cls-15" d="M451.87,200.88C454.45,262,368,395.93,290.71,361.74c-45-19.92-24.13-81.19-83.24-74.33-22.9,2.65-38.76,15.19-59.82-.66-15.18-11.42-23.5-35.83-27-53.38-17.31-85.85,56.67-190.66,148-186.73,41.34,1.78,85.52,21.92,119.47,44.77C432.66,121.42,449.72,150,451.87,200.88Z"/><path class="cls-16" d="M185.51,83.64a15.17,15.17,0,1,1-15.17-15.16A15.17,15.17,0,0,1,185.51,83.64Z"/><path class="cls-17" d="M518,143.45c2.47,15.43-8.35,38.51-24.94,42-27.46,5.77-10.49-23.23-11.1-42.16-.41-12.68-12.67-39.61,10.06-34.74C502.82,110.86,516.31,133.66,518,143.45Z"/><g class="cls-18"><g class="cls-13"><g class="cls-19"><line class="cls-20" x1="54.14" y1="90.65" x2="183.48" y2="90.65"/><line class="cls-20" x1="54.14" y1="96.79" x2="183.48" y2="96.79"/><line class="cls-20" x1="54.14" y1="102.92" x2="183.48" y2="102.92"/><line class="cls-20" x1="54.14" y1="109.05" x2="183.48" y2="109.05"/><line class="cls-20" x1="54.14" y1="115.19" x2="183.48" y2="115.19"/><line class="cls-20" x1="54.14" y1="121.32" x2="183.48" y2="121.32"/><line class="cls-20" x1="54.14" y1="127.45" x2="183.48" y2="127.45"/><line class="cls-20" x1="54.14" y1="133.59" x2="183.48" y2="133.59"/><line class="cls-20" x1="54.14" y1="139.72" x2="183.48" y2="139.72"/><line class="cls-20" x1="54.14" y1="145.85" x2="183.48" y2="145.85"/><line class="cls-20" x1="54.14" y1="151.99" x2="183.48" y2="151.99"/><line class="cls-20" x1="54.14" y1="158.12" x2="183.48" y2="158.12"/><line class="cls-20" x1="54.14" y1="164.25" x2="183.48" y2="164.25"/><line class="cls-20" x1="54.14" y1="170.39" x2="183.48" y2="170.39"/><line class="cls-20" x1="54.14" y1="176.52" x2="183.48" y2="176.52"/><line class="cls-20" x1="54.14" y1="182.65" x2="183.48" y2="182.65"/><line class="cls-20" x1="54.14" y1="188.79" x2="183.48" y2="188.79"/><line class="cls-20" x1="54.14" y1="194.92" x2="183.48" y2="194.92"/><line class="cls-20" x1="54.14" y1="201.05" x2="183.48" y2="201.05"/><line class="cls-20" x1="54.14" y1="207.19" x2="183.48" y2="207.19"/><line class="cls-20" x1="54.14" y1="213.32" x2="183.48" y2="213.32"/><line class="cls-20" x1="54.14" y1="219.45" x2="183.48" y2="219.45"/></g></g></g><path class="cls-21" d="M142.69,305.15c19.11,2.17,14.15,32.37-.56,38-20.93,8-43.43-20.68-46.46-38.44-1.7-9.95,1-44.08,18.57-35.1,4.24,2.17,3.94,20.05,7.56,24.64C128.86,303.15,132.69,301.87,142.69,305.15Z"/><path class="cls-22" d="M448.11,275.78a12.35,12.35,0,1,1,12.35,12.34A12.35,12.35,0,0,1,448.11,275.78Z"/><path class="cls-23" d="M311.6,56.13A12.35,12.35,0,1,1,324,68.48,12.35,12.35,0,0,1,311.6,56.13Z"/><rect class="cls-24" x="409.55" y="266.64" width="2.92" height="2.92" transform="translate(142.92 679.11) rotate(-90)"/><rect class="cls-24" x="409.55" y="261.49" width="2.92" height="2.92" transform="translate(148.07 673.96) rotate(-90)"/><rect class="cls-24" x="409.55" y="256.34" width="2.92" height="2.92" transform="translate(153.22 668.81) rotate(-90)"/><rect class="cls-24" x="409.55" y="251.18" width="2.92" height="2.92" transform="translate(158.37 663.66) rotate(-90)"/><g class="cls-25"><path class="cls-26" d="M242,254.19s-2.55.81-8.45-3.35l5.43-3Z"/><path class="cls-26" d="M247,248.77a4.19,4.19,0,0,1-3.11-2.4l1.74-.64Z"/><path class="cls-26" d="M249.52,246.08a4.18,4.18,0,0,1-2.5-3l1.84-.25Z"/><path class="cls-26" d="M244.24,251.51a4.2,4.2,0,0,1-3.21-2.26l1.71-.72Z"/><path class="cls-26" d="M248.72,245.35s-1.42-3.07-3.28-3.33l-8.51.17h0a17.47,17.47,0,0,0-3.22,1.19l-1-.21-2.75-.61L222.05,250l3.85.75c1.71.34,3.43.63,5.14.95l5.05.87C238.4,253,248.72,245.35,248.72,245.35Z"/><path class="cls-26" d="M298.36,222.53s.36,2.65,6.66,6.18l.38-6.19Z"/><path class="cls-26" d="M301.09,215.67a4.2,4.2,0,0,0,3.5,1.78l-.16-1.85Z"/><path class="cls-26" d="M302.44,212.25a4.18,4.18,0,0,0,3.8.95l-.57-1.77Z"/><path class="cls-26" d="M299.81,219.34a4.17,4.17,0,0,0,3.42,1.93l-.08-1.86Z"/><path class="cls-26" d="M303.45,212.65s3.38,0,4.41,1.53l3.5,7.75h0a17.78,17.78,0,0,1,.32,3.42l.61.8,1.73,2.22-3.3,10.35c-.78-1.05-1.56-2.09-2.33-3.15-1-1.4-2.05-2.82-3.07-4.23l-3-4.18C301,225.25,303.45,212.65,303.45,212.65Z"/><path class="cls-26" d="M147.16,432.16l4.65-10.62a5.12,5.12,0,0,0,.31-3.14c-.54-2.45-1.41-6.2-2.65-10.44h11.37c.81,4.23,2.18,10.33,2.44,11.89,0,.08,0,.16.05.24l2.76,12.28a1.15,1.15,0,0,1-1.12,1.4H148.21A1.15,1.15,0,0,1,147.16,432.16Z"/><path class="cls-26" d="M155.83,271l.51,19.47.57,19.49q.61,19.5,1.31,39c.49,13,1,26,1.61,39s1.27,25.95,2.11,38.9h0A5.1,5.1,0,0,1,151.82,428c-2.18-12.89-4.18-25.79-6.13-38.7s-3.8-25.82-5.63-38.74-3.6-25.84-5.34-38.77l-2.58-19.39-2.53-19.43a13.16,13.16,0,1,1,26.11-3.39,11.92,11.92,0,0,1,.11,1.33Z"/><path class="cls-26" d="M182.3,257.72,185,268l2.7,10.29q2.67,10.31,5.31,20.6,5.28,20.61,10.31,41.29c.84,3.44,1.69,6.88,2.51,10.34l2.46,10.35c.82,3.46,1.6,6.92,2.41,10.38l1.2,5.18,1.16,5.21c1.57,6.92,3,13.88,4.51,20.85L219.69,413l1.9,10.56a5.09,5.09,0,0,1-9.91,2.31l0-.16-2.84-10.09-3-10.09c-2.09-6.71-4.19-13.42-6.4-20.11l-1.63-5-1.67-5c-1.12-3.34-2.23-6.69-3.36-10l-3.41-10c-1.14-3.34-2.31-6.67-3.46-10q-6.93-20-14.1-39.91-3.58-10-7.21-19.9l-3.63-9.93-3.66-9.9,0-.07a13.16,13.16,0,1,1,24.7-9.12C182.07,256.92,182.2,257.33,182.3,257.72Z"/><path class="cls-26" d="M212.2,432.44h32.14a1,1,0,0,0,.45-2l-24.08-11.37-10.43.9Z"/><path class="cls-27" d="M140.68,233.39s12,7.26,39,4.77L206,329a130.64,130.64,0,0,1,4.43,19.64c1.75,11.93,8.61,48.89,10.84,64.69,0,0-12.92,2.95-14.28,3.17-.45.08-13.54-39.06-17.52-51.73-.88-2.79-4.7-21.07-5.76-23.79L160.4,281.23l.68,69.37s3.14,60.09,2.47,65.3L149.27,417s-7.72-41.26-9-51.26c-.47-3.61-1.47-15.5-1.47-15.5s-13.07-65.88-11.48-84.68C128.66,249.49,135.24,240.42,140.68,233.39Z"/><path class="cls-28" d="M150,425.41s6,5.93,14.51,0l1.61,7a1.93,1.93,0,0,1-1.89,2.37H148.61a1.94,1.94,0,0,1-1.76-2.76Z"/><path class="cls-28" d="M211,425.33a1,1,0,0,1,.69-.93c1.59-.49,5.64-1.45,9,.33,3.88,2,12.28,1.24,13.9,1.06a.93.93,0,0,1,.52.09l10,4.7a1,1,0,0,1-.42,1.86H211.94a1,1,0,0,1-1-1Z"/><path class="cls-29" d="M135.49,130.87c.64,11.24-2.65,11.23-9.25,18.38-5.77,6.25-4.4,25.29,11.74,25.91,27.06,1,33.62-2,39.75-6.82s-1-31.6-2.95-37.93C164.1,95.89,134.44,112.73,135.49,130.87Z"/><path class="cls-26" d="M162.45,173.47a5.68,5.68,0,0,1-10.59-4.09c2.29-5.92.31-18.2-.56-22,0-.18-.07-.36-.1-.54a5.68,5.68,0,0,1,11.17-2,81.5,81.5,0,0,1,1.48,9.1C164.5,160,164.67,167.73,162.45,173.47Z"/><path class="cls-30" d="M163.85,153.93a18.7,18.7,0,0,1-12.65-7.12,5.68,5.68,0,0,1,11.17-2A81.5,81.5,0,0,1,163.85,153.93Z"/><path class="cls-26" d="M166.15,150.63c-6.93,3.23-18.88-3.12-20-10.68l-2.39-6.41a13.84,13.84,0,0,1,11.68-15.7h0a13.82,13.82,0,0,1,15.69,11.68l.92,6.24C172.73,142.45,169.55,149,166.15,150.63Z"/><path class="cls-29" d="M161,118.15s-9.55,14.4-15.49,16.58-2-12.95-2-12.95L159.79,115Z"/><path class="cls-26" d="M146.85,136.73c1.18,1.85,1.06,4-.26,4.88s-3.36,0-4.53-1.84-1.06-4,.27-4.88S145.68,134.88,146.85,136.73Z"/><polygon class="cls-26" points="143.01 167.31 153.04 164.13 163.15 164.43 172.69 167.16 168.07 174.54 146.68 172.84 143.01 167.31"/><path class="cls-26" d="M185.45,198.72a122,122,0,0,1-1.65-27c-6.82-2.7-11.11-4.54-11.11-4.54s-13.74,10.06-27.26-.63l-11.28,3.77c-1.12,4.55-2.36,9.07-1.08,14,.94,4.07.26,8-.7,12,.29,2.18,2.29,6.74,2.54,10.41l.78,45.68A76.92,76.92,0,0,0,157.6,256c10.5,0,23.63-3.7,23.63-3.7s3-30.25,2.43-42.86C183.63,208.78,185.23,200.4,185.45,198.72Z"/><path class="cls-29" d="M157.08,133.06a1.14,1.14,0,1,1-1.1-1.17A1.14,1.14,0,0,1,157.08,133.06Z"/><path class="cls-29" d="M168.11,131.34a1.14,1.14,0,1,1-1.11-1.16A1.13,1.13,0,0,1,168.11,131.34Z"/><path class="cls-29" d="M158.77,128.22a5.5,5.5,0,0,0-1.5-.12,6.51,6.51,0,0,0-1.45.21,6.58,6.58,0,0,0-1.37.49,7.76,7.76,0,0,0-1.25.74.25.25,0,0,0-.06.35.25.25,0,0,0,.33.06h0a6.87,6.87,0,0,1,1.19-.64,6,6,0,0,1,1.29-.4,6.52,6.52,0,0,1,1.33-.13c.22,0,.44,0,.66,0a3.93,3.93,0,0,1,.63.11h0a.38.38,0,0,0,.45-.26.37.37,0,0,0-.26-.46Z"/><path class="cls-31" d="M153,175s7.47,1.47,13.84,0l-6.92,19Z"/><path class="cls-29" d="M165.37,128a5.07,5.07,0,0,1,1-.45,5.65,5.65,0,0,1,1.08-.25,4.49,4.49,0,0,1,1.1,0,4.38,4.38,0,0,1,1.07.25h0a.24.24,0,0,0,.17-.45,5,5,0,0,0-1.19-.34,5.16,5.16,0,0,0-1.24-.05,7.15,7.15,0,0,0-1.21.22,6,6,0,0,0-1.16.46.36.36,0,0,0-.16.48.37.37,0,0,0,.49.16h0Z"/><path class="cls-29" d="M153.92,133.48s.06,0,.07,0a4.39,4.39,0,0,1,4.22-1.85.12.12,0,0,0,.14-.1.12.12,0,0,0-.11-.13,4.62,4.62,0,0,0-4.45,2,.13.13,0,0,0,0,.17A.14.14,0,0,0,153.92,133.48Z"/><path class="cls-29" d="M164.54,132a.16.16,0,0,0,.08-.05,4.36,4.36,0,0,1,4.22-1.85.12.12,0,0,0,0-.23,4.62,4.62,0,0,0-4.45,1.95.12.12,0,0,0,0,.17A.11.11,0,0,0,164.54,132Z"/><path class="cls-29" d="M162.77,140.86a3.44,3.44,0,0,0,2.55-1.73.14.14,0,0,0,0-.11,12,12,0,0,1-1.89-8.9.12.12,0,0,0-.08-.15.13.13,0,0,0-.15.09,12.29,12.29,0,0,0,1.88,9c-.15.27-.95,1.51-3.32,1.67a.12.12,0,1,0,0,.23A5.72,5.72,0,0,0,162.77,140.86Z"/><path class="cls-31" d="M166.22,142.48,159,144a10.09,10.09,0,0,0,5.58,2.49S167.07,144.79,166.22,142.48Z"/><path class="cls-32" d="M110.64,221a15.34,15.34,0,0,0,1.18,10.28c1.25,2.49,3.24,4.63,6.35,4.26,7.13-.83,7.74-10,7.74-10l4.91-20.45c-.37,12.78-3,30.83-3.14,32l-2,14a115.27,115.27,0,0,0-1.12,17.41l.61,54a2.72,2.72,0,0,0,2.78,3.11,209.08,209.08,0,0,0,35.52,1.87s2.06-22.07,2.06-22.07l8,20.84a253.79,253.79,0,0,0,29-4.41,2.79,2.79,0,0,0,2-1,2.74,2.74,0,0,0,.62-2.14L189.79,250l-3-48.84S198,236.88,207,237.43c1.26.07,35.69,6.22,36.55,5.49,2.4-2,6.3-7.54,6.7-10,.26-1.51-36.68-11.8-36.68-11.8l-15.16-41.59a11.69,11.69,0,0,0-7.85-7.4l-23.4-6.63c-.59,12.79-7.23,26.15-7.23,26.15s-8.16-24.49-11.31-27.06L128.31,171a0,0,0,0,1,0,0l-.36.1a11.64,11.64,0,0,0-7.85,7.39Z"/><path class="cls-33" d="M157.38,205.91a1.11,1.11,0,1,0,1.07-1.14A1.1,1.1,0,0,0,157.38,205.91Z"/><path class="cls-33" d="M157,226.31a1.11,1.11,0,0,0,2.21-.08,1.11,1.11,0,1,0-2.21.08Z"/><path class="cls-33" d="M157.83,250.79a1.11,1.11,0,1,0,1.07-1.14A1.11,1.11,0,0,0,157.83,250.79Z"/><path class="cls-33" d="M158.54,271.39a1.11,1.11,0,1,0,1.07-1.15A1.11,1.11,0,0,0,158.54,271.39Z"/><path class="cls-33" d="M159.28,292.64a1.11,1.11,0,1,0,2.21-.08,1.09,1.09,0,0,0-1.14-1.06A1.11,1.11,0,0,0,159.28,292.64Z"/><path class="cls-33" d="M189.27,254.5l.36,1.61a1,1,0,0,1-.81,1.17l-14.46,1.88a1,1,0,0,1-1.09-.87l-.15-1.7a1,1,0,0,1,.83-1l14.26-1.8A1,1,0,0,1,189.27,254.5Z"/><path class="cls-33" d="M131.31,255.75l-.36,1.62a1,1,0,0,0,.82,1.17l14.46,1.87a1,1,0,0,0,1.08-.86l.16-1.7a1,1,0,0,0-.84-1L132.37,255A1,1,0,0,0,131.31,255.75Z"/><path class="cls-26" d="M394.26,162.47l3,8.16a7.41,7.41,0,0,0,10.3,4.07c10.16-5.15,26.42-15.24,18.17-17.78-8.76-2.71-8.8-11.42-8.8-11.42a86.72,86.72,0,0,1-.27-9.94c.07-3,.27-5.62.44-7.16a5.63,5.63,0,0,0,0-.71,7.31,7.31,0,0,0-14.57-.93c-.11.9-.47,4.41-.57,9.12,0,.88,0,1.8,0,2.75,0,1.41.12,3.79.22,5.61a9,9,0,0,1-.18,2.43,8.72,8.72,0,0,1-.49,1.6,8.32,8.32,0,0,1-.74,1.42c-.19.3-.38.58-.58.85a12.26,12.26,0,0,1-4.63,4.2C392.67,156.29,393.13,159.38,394.26,162.47Z"/><path class="cls-34" d="M408.64,420.53v.05a7.88,7.88,0,0,0,15.65,1.76c.69-4.25.36-7.56.11-12.77H409.84C409.64,413.23,408.89,416.88,408.64,420.53Z"/><path class="cls-35" d="M436.3,279v2.34c0,1.55,0,3.09-.05,4.63,0,3.08-.11,6.14-.19,9.2q-.26,9.18-.69,18.31c-.38,7.76-9.84,88.32-11,96.09H409.84c.45-8.23.76-60.68.76-60.78,0-1.7,0-3.4-.05-5.1q-.21-15.17-.88-30.27-.41-8.9-1-17.75c-.2-2.95-.4-5.9-.63-8.83-.11-1.47-.24-2.93-.36-4.38l-.2-2.17-.1-1.07-.1-1v0a14.52,14.52,0,1,1,28.89-3c.05.45.07.91.08,1.35V279Z"/><path class="cls-35" d="M389.34,174.6a.47.47,0,0,1-.06.09L378.07,189l-2.82,3.6-8.43,10.76a7.2,7.2,0,0,0-1.22,6.53l10.27,33.58a4.76,4.76,0,0,1-9,3L352.2,206.51a5.79,5.79,0,0,1,.8-5.46l.17-.23,12-15.85,3-3.94,10.73-14.16a6.62,6.62,0,0,1,9.3-1.3A6.5,6.5,0,0,1,389.34,174.6Z"/><path class="cls-34" d="M340.77,409.84l-5.69,9.83c-.48,3.94,3.53,8.95,7.49,9.88a7.9,7.9,0,0,0,9.48-5.88s2.39-4.28,2.39-14Z"/><path class="cls-35" d="M409.91,268.56c-.09.19-.21.42-.31.6l-35.7,65.2-2.23,4.07s-.37,2.89-.9,6.65c-.74,5.3-10,37.63-16.33,64.61a103,103,0,0,1-13.67.15l43.07-154a14.51,14.51,0,1,1,26.07,12.74Z"/><path class="cls-36" d="M426,413.73l3.25,17a2.71,2.71,0,0,1-2.7,3.23l-22.47-.32a2.71,2.71,0,0,1-2.46-3.77l7.06-16.82A1.85,1.85,0,0,1,410,412a29.83,29.83,0,0,1,14.71.31A1.85,1.85,0,0,1,426,413.73Z"/><path class="cls-36" d="M355,413.8l3.39,17.45a2.3,2.3,0,0,1-2.27,2.74l-33.43-.34a2.3,2.3,0,0,1-1.65-3.88l16.31-17.2a2.19,2.19,0,0,1,.83-.55,20.58,20.58,0,0,1,4-1.07,22.45,22.45,0,0,1,11.4,1.22A2.2,2.2,0,0,1,355,413.8Z"/><path class="cls-30" d="M415.9,138.43c-1.43,2.24-2.42,6.54-5,8.28s-6.54.81-9.38,1.56a9.24,9.24,0,0,0,.67-4c-.1-1.82-.21-4.2-.22-5.61,0-.95,0-1.87,0-2.74a8.21,8.21,0,0,1,7.28-3.49C413.11,132.59,416,135.23,415.9,138.43Z"/><path class="cls-29" d="M424.86,124.66s8.84-14.75-3.86-21.74-32.11-4.41-28.37,18.76C397,148.64,424.86,124.66,424.86,124.66Z"/><path class="cls-26" d="M400.16,143.62c8,2.69,20.27-5.73,20.56-14.13l1.82-7.32a15.23,15.23,0,0,0-14.7-15.74h0a15.23,15.23,0,0,0-15.74,14.71l-.24,6.93C391.94,135.48,396.23,142.3,400.16,143.62Z"/><path class="cls-29" d="M406.09,123.38a1.18,1.18,0,0,0,1.31,1,1.19,1.19,0,1,0-1.31-1Z"/><path class="cls-29" d="M395,122.78a1.18,1.18,0,0,0,1.31,1,1.19,1.19,0,1,0-1.31-1Z"/><path class="cls-29" d="M404.34,118.79a3.1,3.1,0,0,1,.42-.1l.4-.08a7.18,7.18,0,0,1,.8-.06,7.45,7.45,0,0,1,1.57.1,8,8,0,0,1,1.52.42,7.78,7.78,0,0,1,1.38.7.41.41,0,0,1,.15.57.41.41,0,0,1-.54.16h0a6.69,6.69,0,0,0-1.27-.53,6.23,6.23,0,0,0-1.35-.28,6.77,6.77,0,0,0-1.35,0c-.23,0-.45.06-.67.1l-.32.09a1.54,1.54,0,0,0-.28.09h0a.62.62,0,1,1-.45-1.16Z"/><path class="cls-29" d="M398.18,118.62a3.56,3.56,0,0,0-.5-.18l-.54-.14a5.24,5.24,0,0,0-1.11-.12,4.65,4.65,0,0,0-1.11.11,5.64,5.64,0,0,0-1,.38l0,0a.42.42,0,0,1-.56-.2.43.43,0,0,1,.17-.54,5.79,5.79,0,0,1,1.21-.56,5.49,5.49,0,0,1,1.32-.25,6.56,6.56,0,0,1,1.33,0,6.49,6.49,0,0,1,.66.11,5,5,0,0,1,.68.19.62.62,0,0,1,.38.8.62.62,0,0,1-.8.38l-.05,0Z"/><path class="cls-29" d="M410.49,124a.11.11,0,0,1-.12,0,4.59,4.59,0,0,0-4.57-1.54.14.14,0,0,1-.15-.1.13.13,0,0,1,.1-.15,4.84,4.84,0,0,1,4.82,1.65.12.12,0,0,1,0,.17Z"/><path class="cls-29" d="M399.27,123.35a.11.11,0,0,1-.12,0,4.63,4.63,0,0,0-4.57-1.54.14.14,0,0,1-.15-.1.13.13,0,0,1,.1-.15,4.85,4.85,0,0,1,4.82,1.65.12.12,0,0,1,0,.17Z"/><path class="cls-29" d="M403.07,133.55h0c-3,.06-3.84-1.57-3.87-1.64a.11.11,0,0,1,0-.11,12.58,12.58,0,0,0,1.17-9.46.13.13,0,0,1,.08-.16.13.13,0,0,1,.16.08,12.83,12.83,0,0,1-1.16,9.59c.18.28,1.13,1.5,3.62,1.45a.13.13,0,0,1,0,.25Z"/><path class="cls-33" d="M349.74,332.12s-.21,14.68,24.31,11.06c4.86-8.79,25.46-50.22,27.9-58.85,1,20.23,3.65,37.36,4.64,57.59,0,0,7.54,9.18,26.91,2.61,0,0,8.77-94.28-1.24-108.91a91.74,91.74,0,0,1-27.55,4c-9.12,0-16-3.33-21.86-4.86C368.18,268,360,299.93,349.74,332.12Z"/><path class="cls-31" d="M410.47,416.74a.61.61,0,0,1-.57-.36.62.62,0,0,1,.3-.83c.28-.13,6.85-3.09,13.45,0a.62.62,0,0,1-.53,1.13c-6.08-2.84-12.33,0-12.39,0A.63.63,0,0,1,410.47,416.74Z"/><path class="cls-31" d="M410.09,420.38a.62.62,0,0,1-.57-.36.64.64,0,0,1,.31-.83c.27-.13,6.84-3.09,13.45,0a.63.63,0,0,1-.53,1.14c-6.09-2.85-12.33,0-12.4,0A.58.58,0,0,1,410.09,420.38Z"/><path class="cls-31" d="M422.93,423.88a.66.66,0,0,1-.27-.06c-6.07-2.84-12.33,0-12.39,0a.63.63,0,0,1-.53-1.14c.28-.12,6.85-3.08,13.45,0a.62.62,0,0,1,.3.83A.63.63,0,0,1,422.93,423.88Z"/><path class="cls-31" d="M349.49,417.47a.61.61,0,0,1-.31-.09c-5.82-3.3-12.29-1-12.35-1A.63.63,0,0,1,336,416a.63.63,0,0,1,.37-.8c.29-.11,7.07-2.54,13.41,1.06a.62.62,0,0,1,.24.85A.65.65,0,0,1,349.49,417.47Z"/><path class="cls-31" d="M346.49,420.58a.54.54,0,0,1-.3-.08c-5.85-3.31-12.3-1-12.36-1a.63.63,0,0,1-.81-.37.64.64,0,0,1,.37-.81c.29-.1,7.07-2.53,13.41,1.06a.62.62,0,0,1-.31,1.17Z"/><path class="cls-31" d="M344.25,424.17a.68.68,0,0,1-.31-.08c-5.84-3.32-12.29-1-12.36-1a.62.62,0,0,1-.8-.37.63.63,0,0,1,.37-.8c.28-.11,7.06-2.54,13.41,1.06a.62.62,0,0,1,.23.85A.63.63,0,0,1,344.25,424.17Z"/><path class="cls-29" d="M414.69,110.41s-18.12-6.83-21.71,4.32l2.54-6L405,104.5l10.38,2.15L423,113l.31,10.9-2.64,1S413.75,125.9,414.69,110.41Z"/><path class="cls-26" d="M419.56,126c-1.06,2.18-.66,4.55.9,5.31s3.66-.39,4.72-2.57.66-4.55-.89-5.3S420.62,123.87,419.56,126Z"/><path class="cls-31" d="M407.92,136.06c-1.34,1.92-5.7,7.05-10-.29a.32.32,0,0,1,.35-.47,21.68,21.68,0,0,0,4.55.63,22,22,0,0,0,4.74-.36A.32.32,0,0,1,407.92,136.06Z"/><path class="cls-33" d="M433.5,344.53l-4.21,67.31a36.75,36.75,0,0,1-22.4-.63l-.3-69.29Z"/><path class="cls-33" d="M374.05,343.18,358,413.54s-7.92,2.4-20.72-2.35l12.51-79.07Z"/><path class="cls-37" d="M373.69,195.58s-6.77,7.75-7.53,10.62,8.93,32.13,8.93,32.13l-13.86,4.52s-10-32.81-10.13-38.56,11-20.5,11-20.5Z"/><path class="cls-28" d="M419.41,157.63s-11.89,3.06-21.45-.53L404.78,168l14.29-2.19Z"/><path class="cls-33" d="M358,186.36s0,7.38,5.59,9.94a51.18,51.18,0,0,0,9.63,2.94c1.5-2.11,5.22-7.48,6.38-9.11.28-.39-6.44,63.67-5.88,66.22,16.7,13.78,61.35,7.22,63.76,7,0-.21-1.83-74.11-1.78-73,0-.3,1.62,12.83,1.62,12.83s10.24-1.41,12.57-2.29c5.65-2.13,6.48-5.56,6.48-5.56S445,165.61,440.8,162.29c-6.89-5.49-17.55-6.5-17.55-6.5-2.93,1.51-12.2,5.68-15.27,7.06a1.93,1.93,0,0,1-1.9-.19l-10.65-7.49a1.64,1.64,0,0,0-.5-.09c-6,.55-13.78,1.71-18.37,6.56A131.15,131.15,0,0,0,358,186.36Z"/><path class="cls-35" d="M369.33,264.65a1.36,1.36,0,0,1-1.93.26,1.39,1.39,0,0,1-.37-1.78l3.18-5.89a2.1,2.1,0,0,1,2.71-.76c.89.51.79,1.77.29,2.66C373.17,259.21,369.33,264.65,369.33,264.65Z"/><path class="cls-35" d="M367,262.17a1.39,1.39,0,0,1-1.89.51,1.4,1.4,0,0,1-.6-1.71l2.26-5.75a1.85,1.85,0,0,1,2.39-1,2.33,2.33,0,0,1,1.3,2.69C370.47,257,367,262.17,367,262.17Z"/><path class="cls-35" d="M367.35,255.05l-2.13,3.39a1.39,1.39,0,0,1-2.49-1.19l1.3-3.78a1.85,1.85,0,1,1,3.5,1.2A2.22,2.22,0,0,1,367.35,255.05Z"/><path class="cls-35" d="M364.72,251.93l-.94,3a1.21,1.21,0,0,1-2.34-.6l.61-3a1.38,1.38,0,0,1,2.71.54A.83.83,0,0,1,364.72,251.93Z"/><path class="cls-35" d="M361.91,251.79s1.61-6.79,5.76-10c3-2.31,7.39-2.34,8.69,2.28.88,3.13,0,9.64-3.15,15,0,0-2.72-.84-2.81-1.69,0-.45-.31-.36-.49-.27C367.76,258.27,361.91,251.79,361.91,251.79Z"/><path class="cls-35" d="M377.58,261.66a1.08,1.08,0,0,1-.92.2,3.1,3.1,0,0,1-2.2-2.42c-.47-2.43-.75-5.31-.75-5.31l2.77-5.46a40.58,40.58,0,0,1,.66,5,36.38,36.38,0,0,0-.07,4.86C377.25,259.44,378.39,261,377.58,261.66Z"/><rect class="cls-29" x="410.77" y="185.28" width="18.61" height="20.36" rx="2.69" transform="translate(840.14 390.92) rotate(180)"/><rect class="cls-31" x="387.44" y="176.44" width="11.92" height="4.66" rx="0.75" transform="translate(786.8 357.54) rotate(180)"/><path class="cls-29" d="M179.5,186.3h-.21l-22.11-2.37a1.95,1.95,0,0,1,.42-3.87l22.11,2.37a1.95,1.95,0,0,1-.21,3.88Z"/><path class="cls-29" d="M418.45,220.77l-.34,0-21.9-3.84a1.94,1.94,0,0,1,.67-3.83l21.91,3.83a2,2,0,0,1-.34,3.87Z"/><circle class="cls-29" cx="217.88" cy="205.29" r="48.9" transform="translate(-81.35 214.2) rotate(-45)"/><path class="cls-29" d="M322,205.82a46.57,46.57,0,0,0-31.56-19.09,47.17,47.17,0,0,0-36,9.94l-2.44-3a51,51,0,0,1,39-10.77,50.4,50.4,0,0,1,34.18,20.67Z"/><path class="cls-28" d="M262.26,211.56c-.08.55-.16,1.09-.26,1.63a44.84,44.84,0,0,1-62.6,32.94,43.49,43.49,0,0,1-9.39-5.74,42.91,42.91,0,0,1-5.5-5.19,44.69,44.69,0,0,1-11.44-30.77,47.12,47.12,0,0,1,.43-5.4,44.83,44.83,0,0,1,88-4.28,43.8,43.8,0,0,1,1.07,6.61A44.28,44.28,0,0,1,262.26,211.56Z"/><g class="cls-38"><path class="cls-29" d="M253.16,177.66a44.81,44.81,0,0,0-78.41,22.9,47.13,47.13,0,0,0-.43,5.39,44.68,44.68,0,0,0,9.5,28.46,44.67,44.67,0,0,1-10.75-30,46.77,46.77,0,0,1,.43-5.39,44.79,44.79,0,0,1,79.66-21.38Z"/></g><g class="cls-39"><path class="cls-31" d="M261.46,194.75,184.51,235.2a44.69,44.69,0,0,1-11.44-30.77l68.77-37A45,45,0,0,1,261.46,194.75Z"/></g><g class="cls-39"><path class="cls-31" d="M262.26,211.56c-.08.55-.16,1.09-.26,1.63l-62.6,32.94a43.49,43.49,0,0,1-9.39-5.74l72.52-39A44.28,44.28,0,0,1,262.26,211.56Z"/></g><circle class="cls-29" cx="352.68" cy="224.32" r="48.9" transform="translate(-41.05 364.61) rotate(-52.07)"/><path class="cls-28" d="M397.06,230.58c-.08.55-.17,1.09-.27,1.63a44.85,44.85,0,0,1-62.6,32.94,44.78,44.78,0,0,1-14.89-10.93,44.64,44.64,0,0,1-11.43-30.77,43,43,0,0,1,.43-5.4,44.82,44.82,0,0,1,89,2.33A45.43,45.43,0,0,1,397.06,230.58Z"/><g class="cls-39"><path class="cls-31" d="M396.25,213.77,319.3,254.22a44.64,44.64,0,0,1-11.43-30.77l68.77-37A45,45,0,0,1,396.25,213.77Z"/></g><g class="cls-39"><path class="cls-31" d="M397.06,230.58c-.08.55-.17,1.09-.27,1.63l-62.6,32.94a44,44,0,0,1-9.39-5.74l72.53-39A45.43,45.43,0,0,1,397.06,230.58Z"/></g><g class="cls-38"><path class="cls-29" d="M388,196.68a44.81,44.81,0,0,0-78.41,22.91,45,45,0,0,0,9.07,33.84A44.81,44.81,0,1,1,388,196.68Z"/></g><path class="cls-26" d="M411.93,220.23s.44-.72-15.13,4.63c-2.61.89-.94,2.15.91,1.92,3.33-.41,6.15-.89,6.15-.89s-11.72,10.25-12.1,12.06,10.69-7.52,10.69-7.52-9.91,9.62-9.85,11.29,11.07-8.89,11.07-8.89-8.61,8.91-8.69,10.42,11.57-9.68,11.57-9.68-5.33,7.27-5.13,8.79,15-17.61,15-17.61Z"/><path class="cls-26" d="M451.11,204.6h0c-1,.17-9.25,3.17-17.75,6.4-7.47,2.85-15.15,5.88-18.3,7.33-.3.14-3.48,1.75-3.67,1.92-1.31,1.22,2.76,1.84,1.5,3.77-1.84,2.8,1.85,2.57,7.08,1.28l.83-.21.59-.16h0c2.2-.58,29.62-7.73,30.24-8.24C454.54,214.32,452.06,204.51,451.11,204.6Z"/><path class="cls-28" d="M412.93,218.76l5.17,10.37s32.37-10.41,34-12.31c2.88-3.41,4.48-9.89.59-20.56l-15,3.91s1.43,5.52-1.09,7.4S412.93,218.76,412.93,218.76Z"/><path class="cls-26" d="M300.22,220.35l3.61.68a1.53,1.53,0,0,1,1.22,1.78,1.54,1.54,0,0,1-1.65,1.24l-3.66-.37a1.68,1.68,0,0,1,.34-3.35Z"/><path class="cls-26" d="M303.78,209.47l3.54.21a1.53,1.53,0,0,1-.05,3l-3.55.1a1.68,1.68,0,0,1-.09-3.36Z"/><path class="cls-26" d="M302.53,213.14l4.34.29a1.52,1.52,0,0,1-.09,3l-4.35,0a1.68,1.68,0,0,1,0-3.36Z"/><path class="cls-26" d="M301.31,216.75l4.47.54a1.52,1.52,0,0,1,1.34,1.69,1.55,1.55,0,0,1-1.59,1.35L301,220.1a1.68,1.68,0,0,1,.17-3.36Z"/><path class="cls-26" d="M243.15,251.57l-2.16-3a1.52,1.52,0,0,0-2.13-.33,1.54,1.54,0,0,0-.41,2l1.91,3.13a1.68,1.68,0,0,0,2.87-1.74A.83.83,0,0,0,243.15,251.57Z"/><path class="cls-26" d="M251.44,243.68l-1.71-3.11a1.53,1.53,0,0,0-2.73,1.36l1.44,3.24a1.68,1.68,0,0,0,3.07-1.36A.54.54,0,0,0,251.44,243.68Z"/><path class="cls-26" d="M248.67,246.38l-2.12-3.79a1.53,1.53,0,0,0-2.72,1.39l1.85,3.94a1.68,1.68,0,0,0,3-1.43Z"/><path class="cls-26" d="M245.94,249l-2.41-3.81a1.52,1.52,0,0,0-2.63,1.54l2.14,4a1.68,1.68,0,1,0,3-1.6S246,249.07,245.94,249Z"/><path class="cls-33" d="M437.31,203.2s12.06-.35,17-4.93l-2.23-4.4-14.77,5.23Z"/><path class="cls-36" d="M172.62,323.79a.26.26,0,0,1-.25-.17l-6.61-17a.29.29,0,0,1,0-.09l-5.75-106-13.85-22a.26.26,0,0,1,0-.28l1.9-3.31-2.83-.12a.28.28,0,0,1-.26-.28v-8.89a.28.28,0,1,1,.55,0v8.62l3,.13a.27.27,0,0,1,.23.15.26.26,0,0,1,0,.27l-2.05,3.56,13.81,21.94a.33.33,0,0,1,0,.13l5.75,106.09,6.59,16.95a.27.27,0,0,1-.16.36Z"/><path class="cls-36" d="M161.44,198.62a.37.37,0,0,1-.14,0,.28.28,0,0,1-.1-.38L172.3,179l-2.21-3.82a.26.26,0,0,1,0-.23.3.3,0,0,1,.16-.17l2.71-1-1.22-6.85a.3.3,0,0,1,.23-.33.29.29,0,0,1,.32.23l1.25,7.08a.28.28,0,0,1-.17.31l-2.61,1,2.12,3.67a.28.28,0,0,1,0,.28l-11.18,19.31A.27.27,0,0,1,161.44,198.62Z"/><path class="cls-26" d="M179.42,198.93a1.4,1.4,0,0,1,.43,2.77l-6.63,1.65a2.14,2.14,0,0,1-2.42-1.53c-.23-1,.79-1.81,1.8-2C172.68,199.76,179.42,198.93,179.42,198.93Z"/><path class="cls-26" d="M179.12,202.36a1.41,1.41,0,0,1,.8,2.7L174,207.29a1.87,1.87,0,0,1-2.42-1.09,2.38,2.38,0,0,1,1.14-2.82C172.83,203.35,179.12,202.36,179.12,202.36Z"/><path class="cls-26" d="M173.54,207l4-.72a1.42,1.42,0,0,1,1.64,1.15,1.4,1.4,0,0,1-.83,1.54l-3.75,1.61a1.88,1.88,0,1,1-1.49-3.46A1.55,1.55,0,0,1,173.54,207Z"/><path class="cls-26" d="M173,211.13l2.88-1.33A1.23,1.23,0,0,1,177,212l-2.72,1.63a1.41,1.41,0,1,1-1.45-2.41Z"/><path class="cls-26" d="M174.8,213.34s-6.23,3.44-11.46,2.48c-3.82-.71-6.84-4-4.24-8.12,1.76-2.81,7.3-6.58,13.5-7.92,0,0,1.23,2.63.66,3.28-.31.35-.07.47.13.55C175.68,204.49,174.8,213.34,174.8,213.34Z"/><path class="cls-26" d="M171.51,194.76a1.06,1.06,0,0,1,.78.55,3.14,3.14,0,0,1-.32,3.32c-1.51,2-3.49,4.2-3.49,4.2l-6,1.65a41.82,41.82,0,0,1,3.29-3.89,37.5,37.5,0,0,0,3.71-3.27C170.06,196.53,170.43,194.62,171.51,194.76Z"/><path class="cls-32" d="M118.17,219.34,156.45,205s5,6.36,5.29,13.38L120,235.08Z"/><path class="cls-36" d="M119.1,220.08a.28.28,0,0,1-.26-.17.28.28,0,0,1,.15-.36c.24-.11,24.41-10.79,36-13.91a.28.28,0,0,1,.34.2.28.28,0,0,1-.2.34c-11.51,3.1-35.65,13.77-35.89,13.87A.23.23,0,0,1,119.1,220.08Z"/><path class="cls-36" d="M128,216.19l-.1,0a24.86,24.86,0,0,0-6.21-1.44.28.28,0,0,1-.26-.3.29.29,0,0,1,.3-.26,25.3,25.3,0,0,1,6.36,1.48.29.29,0,0,1,.17.36A.29.29,0,0,1,128,216.19Z"/><path class="cls-36" d="M128.45,232.12a.28.28,0,0,1-.26-.19.27.27,0,0,1,.17-.35c.2-.08,20.75-7.64,30-11.66a.27.27,0,0,1,.37.14.29.29,0,0,1-.14.37c-9.26,4-29.82,11.59-30,11.67Z"/><path class="cls-36" d="M130.82,205.36a.29.29,0,0,1-.28-.28v-6.53a.27.27,0,0,1,.27-.28h0a.27.27,0,0,1,.28.28v6.53a.28.28,0,0,1-.28.28Z"/><path class="cls-36" d="M175.09,259.28a.28.28,0,0,1-.28-.24.29.29,0,0,1,.25-.31l13.43-1.67a.27.27,0,0,1,.31.25.27.27,0,0,1-.24.31l-13.44,1.66Z"/><path class="cls-36" d="M145.31,260.53h0l-13.44-1.66a.28.28,0,0,1,.07-.56L145.34,260a.28.28,0,0,1,0,.55Z"/><path class="cls-36" d="M156.37,328A233.12,233.12,0,0,1,127,325.69a.28.28,0,0,1-.23-.32.27.27,0,0,1,.31-.23c.21,0,21.24,3.13,36.39,2a.28.28,0,1,1,0,.56C161.25,327.89,158.83,328,156.37,328Z"/><path class="cls-36" d="M206.94,416.74a.28.28,0,0,1-.27-.22.27.27,0,0,1,.21-.33L221.16,413a.28.28,0,0,1,.33.21.27.27,0,0,1-.21.33L207,416.73Z"/><path class="cls-36" d="M398.84,264.8c-7,0-13.87-.17-19.41-.62a.28.28,0,0,1,.05-.55c20.1,1.64,57.6-.53,58-.55a.29.29,0,0,1,.3.26.28.28,0,0,1-.26.29C437.21,263.65,417.39,264.8,398.84,264.8Z"/><path class="cls-36" d="M402,284.61a.28.28,0,0,1-.27-.23c0-.09-1.44-8.83-1.71-12a.29.29,0,0,1,.25-.3.28.28,0,0,1,.3.25c.28,3.11,1.69,11.83,1.7,11.92a.27.27,0,0,1-.22.32Z"/><path class="cls-36" d="M355.7,343.57a.29.29,0,0,1-.22-.11.28.28,0,0,1,0-.39c2.83-2.21,3.23-6.34,3.23-6.38a.27.27,0,0,1,.3-.25.27.27,0,0,1,.25.3c0,.18-.41,4.4-3.44,6.77A.27.27,0,0,1,355.7,343.57Z"/><path class="cls-36" d="M424.46,347.13a.28.28,0,0,1-.22-.11.27.27,0,0,1,.06-.39c2.89-2.11,2.53-6.65,2.52-6.7a.28.28,0,0,1,.26-.3.29.29,0,0,1,.3.25c0,.2.39,4.91-2.75,7.2A.34.34,0,0,1,424.46,347.13Z"/><path class="cls-36" d="M416.66,346.24a.27.27,0,0,1-.17-.06c-3.09-2.37-2.59-7.06-2.56-7.26a.27.27,0,0,1,.3-.25.28.28,0,0,1,.25.31s-.49,4.58,2.35,6.76a.28.28,0,0,1,.05.39A.29.29,0,0,1,416.66,346.24Z"/><path class="cls-36" d="M435.69,190.65a.29.29,0,0,1-.27-.21c0-.05-1.52-5.63-2.34-10a.27.27,0,0,1,.22-.32.27.27,0,0,1,.32.22c.83,4.38,2.33,9.94,2.34,10a.28.28,0,0,1-.2.34Z"/><path class="cls-36" d="M397.27,176.67h-7.74a.27.27,0,0,1-.28-.28.28.28,0,0,1,.28-.28h7.74a.29.29,0,0,1,.28.28A.28.28,0,0,1,397.27,176.67Z"/></g><g class="cls-40"><path class="cls-26" d="M242,254.19s-2.55.81-8.45-3.35l5.43-3Z"/><path class="cls-26" d="M247,248.77a4.19,4.19,0,0,1-3.11-2.4l1.74-.64Z"/><path class="cls-26" d="M249.52,246.08a4.18,4.18,0,0,1-2.5-3l1.84-.25Z"/><path class="cls-26" d="M244.24,251.51a4.2,4.2,0,0,1-3.21-2.26l1.71-.72Z"/><path class="cls-26" d="M248.72,245.35s-1.42-3.07-3.28-3.33l-8.51.17h0a17.47,17.47,0,0,0-3.22,1.19l-1-.21-2.75-.61L222.05,250l3.85.75c1.71.34,3.43.63,5.14.95l5.05.87C238.4,253,248.72,245.35,248.72,245.35Z"/><path class="cls-26" d="M298.36,222.53s.36,2.65,6.66,6.18l.38-6.19Z"/><path class="cls-26" d="M301.09,215.67a4.2,4.2,0,0,0,3.5,1.78l-.16-1.85Z"/><path class="cls-26" d="M302.44,212.25a4.18,4.18,0,0,0,3.8.95l-.57-1.77Z"/><path class="cls-26" d="M299.81,219.34a4.17,4.17,0,0,0,3.42,1.93l-.08-1.86Z"/><path class="cls-26" d="M303.45,212.65s3.38,0,4.41,1.53l3.5,7.75h0a17.78,17.78,0,0,1,.32,3.42l.61.8,1.73,2.22-3.3,10.35c-.78-1.05-1.56-2.09-2.33-3.15-1-1.4-2.05-2.82-3.07-4.23l-3-4.18C301,225.25,303.45,212.65,303.45,212.65Z"/><path class="cls-26" d="M147.16,432.16l4.65-10.62a5.12,5.12,0,0,0,.31-3.14c-.54-2.45-1.41-6.2-2.65-10.44h11.37c.81,4.23,2.18,10.33,2.44,11.89,0,.08,0,.16.05.24l2.76,12.28a1.15,1.15,0,0,1-1.12,1.4H148.21A1.15,1.15,0,0,1,147.16,432.16Z"/><path class="cls-26" d="M155.83,271l.51,19.47.57,19.49q.61,19.5,1.31,39c.49,13,1,26,1.61,39s1.27,25.95,2.11,38.9h0A5.1,5.1,0,0,1,151.82,428c-2.18-12.89-4.18-25.79-6.13-38.7s-3.8-25.82-5.63-38.74-3.6-25.84-5.34-38.77l-2.58-19.39-2.53-19.43a13.16,13.16,0,1,1,26.11-3.39,11.92,11.92,0,0,1,.11,1.33Z"/><path class="cls-26" d="M182.3,257.72,185,268l2.7,10.29q2.67,10.31,5.31,20.6,5.28,20.61,10.31,41.29c.84,3.44,1.69,6.88,2.51,10.34l2.46,10.35c.82,3.46,1.6,6.92,2.41,10.38l1.2,5.18,1.16,5.21c1.57,6.92,3,13.88,4.51,20.85L219.69,413l1.9,10.56a5.09,5.09,0,0,1-9.91,2.31l0-.16-2.84-10.09-3-10.09c-2.09-6.71-4.19-13.42-6.4-20.11l-1.63-5-1.67-5c-1.12-3.34-2.23-6.69-3.36-10l-3.41-10c-1.14-3.34-2.31-6.67-3.46-10q-6.93-20-14.1-39.91-3.58-10-7.21-19.9l-3.63-9.93-3.66-9.9,0-.07a13.16,13.16,0,1,1,24.7-9.12C182.07,256.92,182.2,257.33,182.3,257.72Z"/><path class="cls-26" d="M212.2,432.44h32.14a1,1,0,0,0,.45-2l-24.08-11.37-10.43.9Z"/><path class="cls-27" d="M140.68,233.39s12,7.26,39,4.77L206,329a130.64,130.64,0,0,1,4.43,19.64c1.75,11.93,8.61,48.89,10.84,64.69,0,0-12.92,2.95-14.28,3.17-.45.08-13.54-39.06-17.52-51.73-.88-2.79-4.7-21.07-5.76-23.79L160.4,281.23l.68,69.37s3.14,60.09,2.47,65.3L149.27,417s-7.72-41.26-9-51.26c-.47-3.61-1.47-15.5-1.47-15.5s-13.07-65.88-11.48-84.68C128.66,249.49,135.24,240.42,140.68,233.39Z"/><path class="cls-28" d="M150,425.41s6,5.93,14.51,0l1.61,7a1.93,1.93,0,0,1-1.89,2.37H148.61a1.94,1.94,0,0,1-1.76-2.76Z"/><path class="cls-28" d="M211,425.33a1,1,0,0,1,.69-.93c1.59-.49,5.64-1.45,9,.33,3.88,2,12.28,1.24,13.9,1.06a.93.93,0,0,1,.52.09l10,4.7a1,1,0,0,1-.42,1.86H211.94a1,1,0,0,1-1-1Z"/><path class="cls-29" d="M135.49,130.87c.64,11.24-2.65,11.23-9.25,18.38-5.77,6.25-4.4,25.29,11.74,25.91,27.06,1,33.62-2,39.75-6.82s-1-31.6-2.95-37.93C164.1,95.89,134.44,112.73,135.49,130.87Z"/><path class="cls-26" d="M162.45,173.47a5.68,5.68,0,0,1-10.59-4.09c2.29-5.92.31-18.2-.56-22,0-.18-.07-.36-.1-.54a5.68,5.68,0,0,1,11.17-2,81.5,81.5,0,0,1,1.48,9.1C164.5,160,164.67,167.73,162.45,173.47Z"/><path class="cls-30" d="M163.85,153.93a18.7,18.7,0,0,1-12.65-7.12,5.68,5.68,0,0,1,11.17-2A81.5,81.5,0,0,1,163.85,153.93Z"/><path class="cls-26" d="M166.15,150.63c-6.93,3.23-18.88-3.12-20-10.68l-2.39-6.41a13.84,13.84,0,0,1,11.68-15.7h0a13.82,13.82,0,0,1,15.69,11.68l.92,6.24C172.73,142.45,169.55,149,166.15,150.63Z"/><path class="cls-29" d="M161,118.15s-9.55,14.4-15.49,16.58-2-12.95-2-12.95L159.79,115Z"/><path class="cls-26" d="M146.85,136.73c1.18,1.85,1.06,4-.26,4.88s-3.36,0-4.53-1.84-1.06-4,.27-4.88S145.68,134.88,146.85,136.73Z"/><polygon class="cls-26" points="143.01 167.31 153.04 164.13 163.15 164.43 172.69 167.16 168.07 174.54 146.68 172.84 143.01 167.31"/><path class="cls-26" d="M185.45,198.72a122,122,0,0,1-1.65-27c-6.82-2.7-11.11-4.54-11.11-4.54s-13.74,10.06-27.26-.63l-11.28,3.77c-1.12,4.55-2.36,9.07-1.08,14,.94,4.07.26,8-.7,12,.29,2.18,2.29,6.74,2.54,10.41l.78,45.68A76.92,76.92,0,0,0,157.6,256c10.5,0,23.63-3.7,23.63-3.7s3-30.25,2.43-42.86C183.63,208.78,185.23,200.4,185.45,198.72Z"/><path class="cls-29" d="M157.08,133.06a1.14,1.14,0,1,1-1.1-1.17A1.14,1.14,0,0,1,157.08,133.06Z"/><path class="cls-29" d="M168.11,131.34a1.14,1.14,0,1,1-1.11-1.16A1.13,1.13,0,0,1,168.11,131.34Z"/><path class="cls-29" d="M158.77,128.22a5.5,5.5,0,0,0-1.5-.12,6.51,6.51,0,0,0-1.45.21,6.58,6.58,0,0,0-1.37.49,7.76,7.76,0,0,0-1.25.74.25.25,0,0,0-.06.35.25.25,0,0,0,.33.06h0a6.87,6.87,0,0,1,1.19-.64,6,6,0,0,1,1.29-.4,6.52,6.52,0,0,1,1.33-.13c.22,0,.44,0,.66,0a3.93,3.93,0,0,1,.63.11h0a.38.38,0,0,0,.45-.26.37.37,0,0,0-.26-.46Z"/><path class="cls-31" d="M153,175s7.47,1.47,13.84,0l-6.92,19Z"/><path class="cls-29" d="M165.37,128a5.07,5.07,0,0,1,1-.45,5.65,5.65,0,0,1,1.08-.25,4.49,4.49,0,0,1,1.1,0,4.38,4.38,0,0,1,1.07.25h0a.24.24,0,0,0,.17-.45,5,5,0,0,0-1.19-.34,5.16,5.16,0,0,0-1.24-.05,7.15,7.15,0,0,0-1.21.22,6,6,0,0,0-1.16.46.36.36,0,0,0-.16.48.37.37,0,0,0,.49.16h0Z"/><path class="cls-29" d="M153.92,133.48s.06,0,.07,0a4.39,4.39,0,0,1,4.22-1.85.12.12,0,0,0,.14-.1.12.12,0,0,0-.11-.13,4.62,4.62,0,0,0-4.45,2,.13.13,0,0,0,0,.17A.14.14,0,0,0,153.92,133.48Z"/><path class="cls-29" d="M164.54,132a.16.16,0,0,0,.08-.05,4.36,4.36,0,0,1,4.22-1.85.12.12,0,0,0,0-.23,4.62,4.62,0,0,0-4.45,1.95.12.12,0,0,0,0,.17A.11.11,0,0,0,164.54,132Z"/><path class="cls-29" d="M162.77,140.86a3.44,3.44,0,0,0,2.55-1.73.14.14,0,0,0,0-.11,12,12,0,0,1-1.89-8.9.12.12,0,0,0-.08-.15.13.13,0,0,0-.15.09,12.29,12.29,0,0,0,1.88,9c-.15.27-.95,1.51-3.32,1.67a.12.12,0,1,0,0,.23A5.72,5.72,0,0,0,162.77,140.86Z"/><path class="cls-31" d="M166.22,142.48,159,144a10.09,10.09,0,0,0,5.58,2.49S167.07,144.79,166.22,142.48Z"/><path class="cls-32" d="M110.64,221a15.34,15.34,0,0,0,1.18,10.28c1.25,2.49,3.24,4.63,6.35,4.26,7.13-.83,7.74-10,7.74-10l4.91-20.45c-.37,12.78-3,30.83-3.14,32l-2,14a115.27,115.27,0,0,0-1.12,17.41l.61,54a2.72,2.72,0,0,0,2.78,3.11,209.08,209.08,0,0,0,35.52,1.87s2.06-22.07,2.06-22.07l8,20.84a253.79,253.79,0,0,0,29-4.41,2.79,2.79,0,0,0,2-1,2.74,2.74,0,0,0,.62-2.14L189.79,250l-3-48.84S198,236.88,207,237.43c1.26.07,35.69,6.22,36.55,5.49,2.4-2,6.3-7.54,6.7-10,.26-1.51-36.68-11.8-36.68-11.8l-15.16-41.59a11.69,11.69,0,0,0-7.85-7.4l-23.4-6.63c-.59,12.79-7.23,26.15-7.23,26.15s-8.16-24.49-11.31-27.06L128.31,171a0,0,0,0,1,0,0l-.36.1a11.64,11.64,0,0,0-7.85,7.39Z"/><path class="cls-33" d="M157.38,205.91a1.11,1.11,0,1,0,1.07-1.14A1.1,1.1,0,0,0,157.38,205.91Z"/><path class="cls-33" d="M157,226.31a1.11,1.11,0,0,0,2.21-.08,1.11,1.11,0,1,0-2.21.08Z"/><path class="cls-33" d="M157.83,250.79a1.11,1.11,0,1,0,1.07-1.14A1.11,1.11,0,0,0,157.83,250.79Z"/><path class="cls-33" d="M158.54,271.39a1.11,1.11,0,1,0,1.07-1.15A1.11,1.11,0,0,0,158.54,271.39Z"/><path class="cls-33" d="M159.28,292.64a1.11,1.11,0,1,0,2.21-.08,1.09,1.09,0,0,0-1.14-1.06A1.11,1.11,0,0,0,159.28,292.64Z"/><path class="cls-33" d="M189.27,254.5l.36,1.61a1,1,0,0,1-.81,1.17l-14.46,1.88a1,1,0,0,1-1.09-.87l-.15-1.7a1,1,0,0,1,.83-1l14.26-1.8A1,1,0,0,1,189.27,254.5Z"/><path class="cls-33" d="M131.31,255.75l-.36,1.62a1,1,0,0,0,.82,1.17l14.46,1.87a1,1,0,0,0,1.08-.86l.16-1.7a1,1,0,0,0-.84-1L132.37,255A1,1,0,0,0,131.31,255.75Z"/><path class="cls-26" d="M394.26,162.47l3,8.16a7.41,7.41,0,0,0,10.3,4.07c10.16-5.15,26.42-15.24,18.17-17.78-8.76-2.71-8.8-11.42-8.8-11.42a86.72,86.72,0,0,1-.27-9.94c.07-3,.27-5.62.44-7.16a5.63,5.63,0,0,0,0-.71,7.31,7.31,0,0,0-14.57-.93c-.11.9-.47,4.41-.57,9.12,0,.88,0,1.8,0,2.75,0,1.41.12,3.79.22,5.61a9,9,0,0,1-.18,2.43,8.72,8.72,0,0,1-.49,1.6,8.32,8.32,0,0,1-.74,1.42c-.19.3-.38.58-.58.85a12.26,12.26,0,0,1-4.63,4.2C392.67,156.29,393.13,159.38,394.26,162.47Z"/><path class="cls-34" d="M408.64,420.53v.05a7.88,7.88,0,0,0,15.65,1.76c.69-4.25.36-7.56.11-12.77H409.84C409.64,413.23,408.89,416.88,408.64,420.53Z"/><path class="cls-35" d="M436.3,279v2.34c0,1.55,0,3.09-.05,4.63,0,3.08-.11,6.14-.19,9.2q-.26,9.18-.69,18.31c-.38,7.76-9.84,88.32-11,96.09H409.84c.45-8.23.76-60.68.76-60.78,0-1.7,0-3.4-.05-5.1q-.21-15.17-.88-30.27-.41-8.9-1-17.75c-.2-2.95-.4-5.9-.63-8.83-.11-1.47-.24-2.93-.36-4.38l-.2-2.17-.1-1.07-.1-1v0a14.52,14.52,0,1,1,28.89-3c.05.45.07.91.08,1.35V279Z"/><path class="cls-35" d="M389.34,174.6a.47.47,0,0,1-.06.09L378.07,189l-2.82,3.6-8.43,10.76a7.2,7.2,0,0,0-1.22,6.53l10.27,33.58a4.76,4.76,0,0,1-9,3L352.2,206.51a5.79,5.79,0,0,1,.8-5.46l.17-.23,12-15.85,3-3.94,10.73-14.16a6.62,6.62,0,0,1,9.3-1.3A6.5,6.5,0,0,1,389.34,174.6Z"/><path class="cls-34" d="M340.77,409.84l-5.69,9.83c-.48,3.94,3.53,8.95,7.49,9.88a7.9,7.9,0,0,0,9.48-5.88s2.39-4.28,2.39-14Z"/><path class="cls-35" d="M409.91,268.56c-.09.19-.21.42-.31.6l-35.7,65.2-2.23,4.07s-.37,2.89-.9,6.65c-.74,5.3-10,37.63-16.33,64.61a103,103,0,0,1-13.67.15l43.07-154a14.51,14.51,0,1,1,26.07,12.74Z"/><path class="cls-36" d="M426,413.73l3.25,17a2.71,2.71,0,0,1-2.7,3.23l-22.47-.32a2.71,2.71,0,0,1-2.46-3.77l7.06-16.82A1.85,1.85,0,0,1,410,412a29.83,29.83,0,0,1,14.71.31A1.85,1.85,0,0,1,426,413.73Z"/><path class="cls-36" d="M355,413.8l3.39,17.45a2.3,2.3,0,0,1-2.27,2.74l-33.43-.34a2.3,2.3,0,0,1-1.65-3.88l16.31-17.2a2.19,2.19,0,0,1,.83-.55,20.58,20.58,0,0,1,4-1.07,22.45,22.45,0,0,1,11.4,1.22A2.2,2.2,0,0,1,355,413.8Z"/><path class="cls-30" d="M415.9,138.43c-1.43,2.24-2.42,6.54-5,8.28s-6.54.81-9.38,1.56a9.24,9.24,0,0,0,.67-4c-.1-1.82-.21-4.2-.22-5.61,0-.95,0-1.87,0-2.74a8.21,8.21,0,0,1,7.28-3.49C413.11,132.59,416,135.23,415.9,138.43Z"/><path class="cls-29" d="M424.86,124.66s8.84-14.75-3.86-21.74-32.11-4.41-28.37,18.76C397,148.64,424.86,124.66,424.86,124.66Z"/><path class="cls-26" d="M400.16,143.62c8,2.69,20.27-5.73,20.56-14.13l1.82-7.32a15.23,15.23,0,0,0-14.7-15.74h0a15.23,15.23,0,0,0-15.74,14.71l-.24,6.93C391.94,135.48,396.23,142.3,400.16,143.62Z"/><path class="cls-29" d="M406.09,123.38a1.18,1.18,0,0,0,1.31,1,1.19,1.19,0,1,0-1.31-1Z"/><path class="cls-29" d="M395,122.78a1.18,1.18,0,0,0,1.31,1,1.19,1.19,0,1,0-1.31-1Z"/><path class="cls-29" d="M404.34,118.79a3.1,3.1,0,0,1,.42-.1l.4-.08a7.18,7.18,0,0,1,.8-.06,7.45,7.45,0,0,1,1.57.1,8,8,0,0,1,1.52.42,7.78,7.78,0,0,1,1.38.7.41.41,0,0,1,.15.57.41.41,0,0,1-.54.16h0a6.69,6.69,0,0,0-1.27-.53,6.23,6.23,0,0,0-1.35-.28,6.77,6.77,0,0,0-1.35,0c-.23,0-.45.06-.67.1l-.32.09a1.54,1.54,0,0,0-.28.09h0a.62.62,0,1,1-.45-1.16Z"/><path class="cls-29" d="M398.18,118.62a3.56,3.56,0,0,0-.5-.18l-.54-.14a5.24,5.24,0,0,0-1.11-.12,4.65,4.65,0,0,0-1.11.11,5.64,5.64,0,0,0-1,.38l0,0a.42.42,0,0,1-.56-.2.43.43,0,0,1,.17-.54,5.79,5.79,0,0,1,1.21-.56,5.49,5.49,0,0,1,1.32-.25,6.56,6.56,0,0,1,1.33,0,6.49,6.49,0,0,1,.66.11,5,5,0,0,1,.68.19.62.62,0,0,1,.38.8.62.62,0,0,1-.8.38l-.05,0Z"/><path class="cls-29" d="M410.49,124a.11.11,0,0,1-.12,0,4.59,4.59,0,0,0-4.57-1.54.14.14,0,0,1-.15-.1.13.13,0,0,1,.1-.15,4.84,4.84,0,0,1,4.82,1.65.12.12,0,0,1,0,.17Z"/><path class="cls-29" d="M399.27,123.35a.11.11,0,0,1-.12,0,4.63,4.63,0,0,0-4.57-1.54.14.14,0,0,1-.15-.1.13.13,0,0,1,.1-.15,4.85,4.85,0,0,1,4.82,1.65.12.12,0,0,1,0,.17Z"/><path class="cls-29" d="M403.07,133.55h0c-3,.06-3.84-1.57-3.87-1.64a.11.11,0,0,1,0-.11,12.58,12.58,0,0,0,1.17-9.46.13.13,0,0,1,.08-.16.13.13,0,0,1,.16.08,12.83,12.83,0,0,1-1.16,9.59c.18.28,1.13,1.5,3.62,1.45a.13.13,0,0,1,0,.25Z"/><path class="cls-33" d="M349.74,332.12s-.21,14.68,24.31,11.06c4.86-8.79,25.46-50.22,27.9-58.85,1,20.23,3.65,37.36,4.64,57.59,0,0,7.54,9.18,26.91,2.61,0,0,8.77-94.28-1.24-108.91a91.74,91.74,0,0,1-27.55,4c-9.12,0-16-3.33-21.86-4.86C368.18,268,360,299.93,349.74,332.12Z"/><path class="cls-31" d="M410.47,416.74a.61.61,0,0,1-.57-.36.62.62,0,0,1,.3-.83c.28-.13,6.85-3.09,13.45,0a.62.62,0,0,1-.53,1.13c-6.08-2.84-12.33,0-12.39,0A.63.63,0,0,1,410.47,416.74Z"/><path class="cls-31" d="M410.09,420.38a.62.62,0,0,1-.57-.36.64.64,0,0,1,.31-.83c.27-.13,6.84-3.09,13.45,0a.63.63,0,0,1-.53,1.14c-6.09-2.85-12.33,0-12.4,0A.58.58,0,0,1,410.09,420.38Z"/><path class="cls-31" d="M422.93,423.88a.66.66,0,0,1-.27-.06c-6.07-2.84-12.33,0-12.39,0a.63.63,0,0,1-.53-1.14c.28-.12,6.85-3.08,13.45,0a.62.62,0,0,1,.3.83A.63.63,0,0,1,422.93,423.88Z"/><path class="cls-31" d="M349.49,417.47a.61.61,0,0,1-.31-.09c-5.82-3.3-12.29-1-12.35-1A.63.63,0,0,1,336,416a.63.63,0,0,1,.37-.8c.29-.11,7.07-2.54,13.41,1.06a.62.62,0,0,1,.24.85A.65.65,0,0,1,349.49,417.47Z"/><path class="cls-31" d="M346.49,420.58a.54.54,0,0,1-.3-.08c-5.85-3.31-12.3-1-12.36-1a.63.63,0,0,1-.81-.37.64.64,0,0,1,.37-.81c.29-.1,7.07-2.53,13.41,1.06a.62.62,0,0,1-.31,1.17Z"/><path class="cls-31" d="M344.25,424.17a.68.68,0,0,1-.31-.08c-5.84-3.32-12.29-1-12.36-1a.62.62,0,0,1-.8-.37.63.63,0,0,1,.37-.8c.28-.11,7.06-2.54,13.41,1.06a.62.62,0,0,1,.23.85A.63.63,0,0,1,344.25,424.17Z"/><path class="cls-29" d="M414.69,110.41s-18.12-6.83-21.71,4.32l2.54-6L405,104.5l10.38,2.15L423,113l.31,10.9-2.64,1S413.75,125.9,414.69,110.41Z"/><path class="cls-26" d="M419.56,126c-1.06,2.18-.66,4.55.9,5.31s3.66-.39,4.72-2.57.66-4.55-.89-5.3S420.62,123.87,419.56,126Z"/><path class="cls-31" d="M407.92,136.06c-1.34,1.92-5.7,7.05-10-.29a.32.32,0,0,1,.35-.47,21.68,21.68,0,0,0,4.55.63,22,22,0,0,0,4.74-.36A.32.32,0,0,1,407.92,136.06Z"/><path class="cls-33" d="M433.5,344.53l-4.21,67.31a36.75,36.75,0,0,1-22.4-.63l-.3-69.29Z"/><path class="cls-33" d="M374.05,343.18,358,413.54s-7.92,2.4-20.72-2.35l12.51-79.07Z"/><path class="cls-37" d="M373.69,195.58s-6.77,7.75-7.53,10.62,8.93,32.13,8.93,32.13l-13.86,4.52s-10-32.81-10.13-38.56,11-20.5,11-20.5Z"/><path class="cls-28" d="M419.41,157.63s-11.89,3.06-21.45-.53L404.78,168l14.29-2.19Z"/><path class="cls-33" d="M358,186.36s0,7.38,5.59,9.94a51.18,51.18,0,0,0,9.63,2.94c1.5-2.11,5.22-7.48,6.38-9.11.28-.39-6.44,63.67-5.88,66.22,16.7,13.78,61.35,7.22,63.76,7,0-.21-1.83-74.11-1.78-73,0-.3,1.62,12.83,1.62,12.83s10.24-1.41,12.57-2.29c5.65-2.13,6.48-5.56,6.48-5.56S445,165.61,440.8,162.29c-6.89-5.49-17.55-6.5-17.55-6.5-2.93,1.51-12.2,5.68-15.27,7.06a1.93,1.93,0,0,1-1.9-.19l-10.65-7.49a1.64,1.64,0,0,0-.5-.09c-6,.55-13.78,1.71-18.37,6.56A131.15,131.15,0,0,0,358,186.36Z"/><path class="cls-35" d="M369.33,264.65a1.36,1.36,0,0,1-1.93.26,1.39,1.39,0,0,1-.37-1.78l3.18-5.89a2.1,2.1,0,0,1,2.71-.76c.89.51.79,1.77.29,2.66C373.17,259.21,369.33,264.65,369.33,264.65Z"/><path class="cls-35" d="M367,262.17a1.39,1.39,0,0,1-1.89.51,1.4,1.4,0,0,1-.6-1.71l2.26-5.75a1.85,1.85,0,0,1,2.39-1,2.33,2.33,0,0,1,1.3,2.69C370.47,257,367,262.17,367,262.17Z"/><path class="cls-35" d="M367.35,255.05l-2.13,3.39a1.39,1.39,0,0,1-2.49-1.19l1.3-3.78a1.85,1.85,0,1,1,3.5,1.2A2.22,2.22,0,0,1,367.35,255.05Z"/><path class="cls-35" d="M364.72,251.93l-.94,3a1.21,1.21,0,0,1-2.34-.6l.61-3a1.38,1.38,0,0,1,2.71.54A.83.83,0,0,1,364.72,251.93Z"/><path class="cls-35" d="M361.91,251.79s1.61-6.79,5.76-10c3-2.31,7.39-2.34,8.69,2.28.88,3.13,0,9.64-3.15,15,0,0-2.72-.84-2.81-1.69,0-.45-.31-.36-.49-.27C367.76,258.27,361.91,251.79,361.91,251.79Z"/><path class="cls-35" d="M377.58,261.66a1.08,1.08,0,0,1-.92.2,3.1,3.1,0,0,1-2.2-2.42c-.47-2.43-.75-5.31-.75-5.31l2.77-5.46a40.58,40.58,0,0,1,.66,5,36.38,36.38,0,0,0-.07,4.86C377.25,259.44,378.39,261,377.58,261.66Z"/><rect class="cls-29" x="410.77" y="185.28" width="18.61" height="20.36" rx="2.69" transform="translate(840.14 390.92) rotate(180)"/><rect class="cls-31" x="387.44" y="176.44" width="11.92" height="4.66" rx="0.75" transform="translate(786.8 357.54) rotate(180)"/><path class="cls-29" d="M179.5,186.3h-.21l-22.11-2.37a1.95,1.95,0,0,1,.42-3.87l22.11,2.37a1.95,1.95,0,0,1-.21,3.88Z"/><path class="cls-29" d="M418.45,220.77l-.34,0-21.9-3.84a1.94,1.94,0,0,1,.67-3.83l21.91,3.83a2,2,0,0,1-.34,3.87Z"/><circle class="cls-29" cx="217.88" cy="205.29" r="48.9" transform="translate(-81.35 214.2) rotate(-45)"/><path class="cls-29" d="M322,205.82a46.57,46.57,0,0,0-31.56-19.09,47.17,47.17,0,0,0-36,9.94l-2.44-3a51,51,0,0,1,39-10.77,50.4,50.4,0,0,1,34.18,20.67Z"/><path class="cls-28" d="M262.26,211.56c-.08.55-.16,1.09-.26,1.63a44.84,44.84,0,0,1-62.6,32.94,43.49,43.49,0,0,1-9.39-5.74,42.91,42.91,0,0,1-5.5-5.19,44.69,44.69,0,0,1-11.44-30.77,47.12,47.12,0,0,1,.43-5.4,44.83,44.83,0,0,1,88-4.28,43.8,43.8,0,0,1,1.07,6.61A44.28,44.28,0,0,1,262.26,211.56Z"/><g class="cls-38"><path class="cls-29" d="M253.16,177.66a44.81,44.81,0,0,0-78.41,22.9,47.13,47.13,0,0,0-.43,5.39,44.68,44.68,0,0,0,9.5,28.46,44.67,44.67,0,0,1-10.75-30,46.77,46.77,0,0,1,.43-5.39,44.79,44.79,0,0,1,79.66-21.38Z"/></g><g class="cls-39"><path class="cls-31" d="M261.46,194.75,184.51,235.2a44.69,44.69,0,0,1-11.44-30.77l68.77-37A45,45,0,0,1,261.46,194.75Z"/></g><g class="cls-39"><path class="cls-31" d="M262.26,211.56c-.08.55-.16,1.09-.26,1.63l-62.6,32.94a43.49,43.49,0,0,1-9.39-5.74l72.52-39A44.28,44.28,0,0,1,262.26,211.56Z"/></g><circle class="cls-29" cx="352.68" cy="224.32" r="48.9" transform="translate(-41.05 364.61) rotate(-52.07)"/><path class="cls-28" d="M397.06,230.58c-.08.55-.17,1.09-.27,1.63a44.85,44.85,0,0,1-62.6,32.94,44.78,44.78,0,0,1-14.89-10.93,44.64,44.64,0,0,1-11.43-30.77,43,43,0,0,1,.43-5.4,44.82,44.82,0,0,1,89,2.33A45.43,45.43,0,0,1,397.06,230.58Z"/><g class="cls-39"><path class="cls-31" d="M396.25,213.77,319.3,254.22a44.64,44.64,0,0,1-11.43-30.77l68.77-37A45,45,0,0,1,396.25,213.77Z"/></g><g class="cls-39"><path class="cls-31" d="M397.06,230.58c-.08.55-.17,1.09-.27,1.63l-62.6,32.94a44,44,0,0,1-9.39-5.74l72.53-39A45.43,45.43,0,0,1,397.06,230.58Z"/></g><g class="cls-38"><path class="cls-29" d="M388,196.68a44.81,44.81,0,0,0-78.41,22.91,45,45,0,0,0,9.07,33.84A44.81,44.81,0,1,1,388,196.68Z"/></g><path class="cls-26" d="M411.93,220.23s.44-.72-15.13,4.63c-2.61.89-.94,2.15.91,1.92,3.33-.41,6.15-.89,6.15-.89s-11.72,10.25-12.1,12.06,10.69-7.52,10.69-7.52-9.91,9.62-9.85,11.29,11.07-8.89,11.07-8.89-8.61,8.91-8.69,10.42,11.57-9.68,11.57-9.68-5.33,7.27-5.13,8.79,15-17.61,15-17.61Z"/><path class="cls-26" d="M451.11,204.6h0c-1,.17-9.25,3.17-17.75,6.4-7.47,2.85-15.15,5.88-18.3,7.33-.3.14-3.48,1.75-3.67,1.92-1.31,1.22,2.76,1.84,1.5,3.77-1.84,2.8,1.85,2.57,7.08,1.28l.83-.21.59-.16h0c2.2-.58,29.62-7.73,30.24-8.24C454.54,214.32,452.06,204.51,451.11,204.6Z"/><path class="cls-28" d="M412.93,218.76l5.17,10.37s32.37-10.41,34-12.31c2.88-3.41,4.48-9.89.59-20.56l-15,3.91s1.43,5.52-1.09,7.4S412.93,218.76,412.93,218.76Z"/><path class="cls-26" d="M300.22,220.35l3.61.68a1.53,1.53,0,0,1,1.22,1.78,1.54,1.54,0,0,1-1.65,1.24l-3.66-.37a1.68,1.68,0,0,1,.34-3.35Z"/><path class="cls-26" d="M303.78,209.47l3.54.21a1.53,1.53,0,0,1-.05,3l-3.55.1a1.68,1.68,0,0,1-.09-3.36Z"/><path class="cls-26" d="M302.53,213.14l4.34.29a1.52,1.52,0,0,1-.09,3l-4.35,0a1.68,1.68,0,0,1,0-3.36Z"/><path class="cls-26" d="M301.31,216.75l4.47.54a1.52,1.52,0,0,1,1.34,1.69,1.55,1.55,0,0,1-1.59,1.35L301,220.1a1.68,1.68,0,0,1,.17-3.36Z"/><path class="cls-26" d="M243.15,251.57l-2.16-3a1.52,1.52,0,0,0-2.13-.33,1.54,1.54,0,0,0-.41,2l1.91,3.13a1.68,1.68,0,0,0,2.87-1.74A.83.83,0,0,0,243.15,251.57Z"/><path class="cls-26" d="M251.44,243.68l-1.71-3.11a1.53,1.53,0,0,0-2.73,1.36l1.44,3.24a1.68,1.68,0,0,0,3.07-1.36A.54.54,0,0,0,251.44,243.68Z"/><path class="cls-26" d="M248.67,246.38l-2.12-3.79a1.53,1.53,0,0,0-2.72,1.39l1.85,3.94a1.68,1.68,0,0,0,3-1.43Z"/><path class="cls-26" d="M245.94,249l-2.41-3.81a1.52,1.52,0,0,0-2.63,1.54l2.14,4a1.68,1.68,0,1,0,3-1.6S246,249.07,245.94,249Z"/><path class="cls-33" d="M437.31,203.2s12.06-.35,17-4.93l-2.23-4.4-14.77,5.23Z"/><path class="cls-36" d="M172.62,323.79a.26.26,0,0,1-.25-.17l-6.61-17a.29.29,0,0,1,0-.09l-5.75-106-13.85-22a.26.26,0,0,1,0-.28l1.9-3.31-2.83-.12a.28.28,0,0,1-.26-.28v-8.89a.28.28,0,1,1,.55,0v8.62l3,.13a.27.27,0,0,1,.23.15.26.26,0,0,1,0,.27l-2.05,3.56,13.81,21.94a.33.33,0,0,1,0,.13l5.75,106.09,6.59,16.95a.27.27,0,0,1-.16.36Z"/><path class="cls-36" d="M161.44,198.62a.37.37,0,0,1-.14,0,.28.28,0,0,1-.1-.38L172.3,179l-2.21-3.82a.26.26,0,0,1,0-.23.3.3,0,0,1,.16-.17l2.71-1-1.22-6.85a.3.3,0,0,1,.23-.33.29.29,0,0,1,.32.23l1.25,7.08a.28.28,0,0,1-.17.31l-2.61,1,2.12,3.67a.28.28,0,0,1,0,.28l-11.18,19.31A.27.27,0,0,1,161.44,198.62Z"/><path class="cls-26" d="M179.42,198.93a1.4,1.4,0,0,1,.43,2.77l-6.63,1.65a2.14,2.14,0,0,1-2.42-1.53c-.23-1,.79-1.81,1.8-2C172.68,199.76,179.42,198.93,179.42,198.93Z"/><path class="cls-26" d="M179.12,202.36a1.41,1.41,0,0,1,.8,2.7L174,207.29a1.87,1.87,0,0,1-2.42-1.09,2.38,2.38,0,0,1,1.14-2.82C172.83,203.35,179.12,202.36,179.12,202.36Z"/><path class="cls-26" d="M173.54,207l4-.72a1.42,1.42,0,0,1,1.64,1.15,1.4,1.4,0,0,1-.83,1.54l-3.75,1.61a1.88,1.88,0,1,1-1.49-3.46A1.55,1.55,0,0,1,173.54,207Z"/><path class="cls-26" d="M173,211.13l2.88-1.33A1.23,1.23,0,0,1,177,212l-2.72,1.63a1.41,1.41,0,1,1-1.45-2.41Z"/><path class="cls-26" d="M174.8,213.34s-6.23,3.44-11.46,2.48c-3.82-.71-6.84-4-4.24-8.12,1.76-2.81,7.3-6.58,13.5-7.92,0,0,1.23,2.63.66,3.28-.31.35-.07.47.13.55C175.68,204.49,174.8,213.34,174.8,213.34Z"/><path class="cls-26" d="M171.51,194.76a1.06,1.06,0,0,1,.78.55,3.14,3.14,0,0,1-.32,3.32c-1.51,2-3.49,4.2-3.49,4.2l-6,1.65a41.82,41.82,0,0,1,3.29-3.89,37.5,37.5,0,0,0,3.71-3.27C170.06,196.53,170.43,194.62,171.51,194.76Z"/><path class="cls-32" d="M118.17,219.34,156.45,205s5,6.36,5.29,13.38L120,235.08Z"/><path class="cls-36" d="M119.1,220.08a.28.28,0,0,1-.26-.17.28.28,0,0,1,.15-.36c.24-.11,24.41-10.79,36-13.91a.28.28,0,0,1,.34.2.28.28,0,0,1-.2.34c-11.51,3.1-35.65,13.77-35.89,13.87A.23.23,0,0,1,119.1,220.08Z"/><path class="cls-36" d="M128,216.19l-.1,0a24.86,24.86,0,0,0-6.21-1.44.28.28,0,0,1-.26-.3.29.29,0,0,1,.3-.26,25.3,25.3,0,0,1,6.36,1.48.29.29,0,0,1,.17.36A.29.29,0,0,1,128,216.19Z"/><path class="cls-36" d="M128.45,232.12a.28.28,0,0,1-.26-.19.27.27,0,0,1,.17-.35c.2-.08,20.75-7.64,30-11.66a.27.27,0,0,1,.37.14.29.29,0,0,1-.14.37c-9.26,4-29.82,11.59-30,11.67Z"/><path class="cls-36" d="M130.82,205.36a.29.29,0,0,1-.28-.28v-6.53a.27.27,0,0,1,.27-.28h0a.27.27,0,0,1,.28.28v6.53a.28.28,0,0,1-.28.28Z"/><path class="cls-36" d="M175.09,259.28a.28.28,0,0,1-.28-.24.29.29,0,0,1,.25-.31l13.43-1.67a.27.27,0,0,1,.31.25.27.27,0,0,1-.24.31l-13.44,1.66Z"/><path class="cls-36" d="M145.31,260.53h0l-13.44-1.66a.28.28,0,0,1,.07-.56L145.34,260a.28.28,0,0,1,0,.55Z"/><path class="cls-36" d="M156.37,328A233.12,233.12,0,0,1,127,325.69a.28.28,0,0,1-.23-.32.27.27,0,0,1,.31-.23c.21,0,21.24,3.13,36.39,2a.28.28,0,1,1,0,.56C161.25,327.89,158.83,328,156.37,328Z"/><path class="cls-36" d="M206.94,416.74a.28.28,0,0,1-.27-.22.27.27,0,0,1,.21-.33L221.16,413a.28.28,0,0,1,.33.21.27.27,0,0,1-.21.33L207,416.73Z"/><path class="cls-36" d="M398.84,264.8c-7,0-13.87-.17-19.41-.62a.28.28,0,0,1,.05-.55c20.1,1.64,57.6-.53,58-.55a.29.29,0,0,1,.3.26.28.28,0,0,1-.26.29C437.21,263.65,417.39,264.8,398.84,264.8Z"/><path class="cls-36" d="M402,284.61a.28.28,0,0,1-.27-.23c0-.09-1.44-8.83-1.71-12a.29.29,0,0,1,.25-.3.28.28,0,0,1,.3.25c.28,3.11,1.69,11.83,1.7,11.92a.27.27,0,0,1-.22.32Z"/><path class="cls-36" d="M355.7,343.57a.29.29,0,0,1-.22-.11.28.28,0,0,1,0-.39c2.83-2.21,3.23-6.34,3.23-6.38a.27.27,0,0,1,.3-.25.27.27,0,0,1,.25.3c0,.18-.41,4.4-3.44,6.77A.27.27,0,0,1,355.7,343.57Z"/><path class="cls-36" d="M424.46,347.13a.28.28,0,0,1-.22-.11.27.27,0,0,1,.06-.39c2.89-2.11,2.53-6.65,2.52-6.7a.28.28,0,0,1,.26-.3.29.29,0,0,1,.3.25c0,.2.39,4.91-2.75,7.2A.34.34,0,0,1,424.46,347.13Z"/><path class="cls-36" d="M416.66,346.24a.27.27,0,0,1-.17-.06c-3.09-2.37-2.59-7.06-2.56-7.26a.27.27,0,0,1,.3-.25.28.28,0,0,1,.25.31s-.49,4.58,2.35,6.76a.28.28,0,0,1,.05.39A.29.29,0,0,1,416.66,346.24Z"/><path class="cls-36" d="M435.69,190.65a.29.29,0,0,1-.27-.21c0-.05-1.52-5.63-2.34-10a.27.27,0,0,1,.22-.32.27.27,0,0,1,.32.22c.83,4.38,2.33,9.94,2.34,10a.28.28,0,0,1-.2.34Z"/><path class="cls-36" d="M397.27,176.67h-7.74a.27.27,0,0,1-.28-.28.28.28,0,0,1,.28-.28h7.74a.29.29,0,0,1,.28.28A.28.28,0,0,1,397.27,176.67Z"/></g></g></g></g></svg>