<svg xmlns="http://www.w3.org/2000/svg" xmlns:xlink="http://www.w3.org/1999/xlink" viewBox="0 0 564.94 462.46"><defs><style>.cls-1{mask:url(#mask);filter:url(#luminosity-noclip-3);}.cls-11,.cls-16,.cls-2,.cls-4{mix-blend-mode:multiply;}.cls-2{fill:url(#radial-gradient);}.cls-3{mask:url(#mask-2);filter:url(#luminosity-noclip-4);}.cls-4{fill:url(#radial-gradient-2);}.cls-14,.cls-20,.cls-22,.cls-23,.cls-5{fill:none;}.cls-6{isolation:isolate;}.cls-7{mask:url(#mask-3);}.cls-75,.cls-8{opacity:0.26;}.cls-8{fill:url(#radial-gradient-3);}.cls-9{fill:#daf3f5;}.cls-10{mask:url(#mask-4);}.cls-11{fill:url(#radial-gradient-4);}.cls-12{opacity:0.29;}.cls-13{clip-path:url(#clip-path);}.cls-14{stroke:#071c1f;}.cls-14,.cls-20,.cls-22,.cls-23{stroke-miterlimit:10;}.cls-14,.cls-20{stroke-width:0.75px;}.cls-15{fill:url(#radial-gradient-5);}.cls-16{fill:#28dbde;}.cls-17{fill:url(#radial-gradient-6);}.cls-18{opacity:0.8;}.cls-19{mix-blend-mode:overlay;}.cls-20{stroke:#6fe8ff;}.cls-21{fill:url(#radial-gradient-7);}.cls-22{stroke:#aecfdb;stroke-width:0.2px;}.cls-23{stroke:#fff;stroke-width:0.5px;}.cls-24{fill:#e3f5fc;}.cls-25{clip-path:url(#clip-path-3);}.cls-26{fill:url(#linear-gradient);}.cls-27{fill:url(#linear-gradient-2);}.cls-28{fill:url(#linear-gradient-3);}.cls-29{fill:url(#linear-gradient-4);}.cls-30{fill:url(#linear-gradient-5);}.cls-31{fill:url(#linear-gradient-6);}.cls-32,.cls-35,.cls-38,.cls-43,.cls-50,.cls-52,.cls-64,.cls-75{fill:#fff;}.cls-33{fill:url(#linear-gradient-7);}.cls-34{fill:#bdd0fb;}.cls-35{opacity:0.78;}.cls-36,.cls-38{opacity:0.6;}.cls-37{fill:url(#linear-gradient-8);}.cls-39{fill:url(#linear-gradient-9);}.cls-40{fill:url(#linear-gradient-10);}.cls-41{fill:url(#linear-gradient-11);}.cls-42{fill:url(#linear-gradient-12);}.cls-43{opacity:0.48;}.cls-44{fill:url(#linear-gradient-13);}.cls-45{fill:url(#linear-gradient-14);}.cls-46{fill:url(#linear-gradient-15);}.cls-47{fill:url(#linear-gradient-16);}.cls-48{fill:url(#linear-gradient-17);}.cls-49{fill:url(#linear-gradient-18);}.cls-50{opacity:0.5;}.cls-51{fill:#91b3fa;}.cls-52{opacity:0.44;}.cls-53{fill:#7d97f4;}.cls-54{fill:url(#linear-gradient-19);}.cls-55{fill:url(#linear-gradient-20);}.cls-56{fill:url(#linear-gradient-21);}.cls-57{fill:url(#linear-gradient-22);}.cls-58{fill:url(#linear-gradient-23);}.cls-59{fill:url(#linear-gradient-24);}.cls-60{fill:url(#linear-gradient-25);}.cls-61{fill:url(#linear-gradient-26);}.cls-62{fill:url(#linear-gradient-27);}.cls-63{fill:url(#linear-gradient-28);}.cls-64{opacity:0.13;}.cls-65{fill:url(#linear-gradient-29);}.cls-66{fill:url(#linear-gradient-30);}.cls-67{fill:url(#linear-gradient-31);}.cls-68{fill:url(#linear-gradient-32);}.cls-69{fill:url(#linear-gradient-33);}.cls-70{fill:url(#linear-gradient-34);}.cls-71{fill:url(#linear-gradient-35);}.cls-72{fill:url(#linear-gradient-36);}.cls-73{fill:url(#linear-gradient-37);}.cls-74{fill:url(#linear-gradient-38);}.cls-76{fill:url(#linear-gradient-39);}.cls-77{fill:url(#linear-gradient-40);}.cls-78{fill:url(#linear-gradient-41);}.cls-79{fill:url(#linear-gradient-42);}.cls-80{fill:url(#linear-gradient-43);}.cls-81{fill:url(#linear-gradient-44);}.cls-82{fill:url(#linear-gradient-45);}.cls-83{fill:url(#linear-gradient-46);}.cls-84{fill:url(#linear-gradient-47);}.cls-85{fill:url(#linear-gradient-48);}.cls-86{fill:url(#linear-gradient-49);}.cls-87{fill:url(#linear-gradient-50);}.cls-88{fill:url(#linear-gradient-51);}.cls-89{fill:url(#linear-gradient-52);}.cls-90{fill:url(#linear-gradient-53);}.cls-91{fill:url(#linear-gradient-54);}.cls-92{fill:url(#linear-gradient-55);}.cls-93{fill:url(#linear-gradient-56);}.cls-94{fill:url(#linear-gradient-57);}.cls-95{fill:url(#linear-gradient-58);}.cls-96{fill:url(#linear-gradient-59);}.cls-97{fill:url(#linear-gradient-60);}.cls-98{fill:url(#linear-gradient-61);}.cls-99{fill:url(#linear-gradient-62);}.cls-100{fill:url(#linear-gradient-63);}.cls-101{fill:url(#linear-gradient-64);}.cls-102{fill:url(#linear-gradient-65);}.cls-103{fill:url(#linear-gradient-66);}.cls-104{fill:url(#linear-gradient-67);}.cls-105{fill:url(#linear-gradient-68);}.cls-106{fill:url(#linear-gradient-70);}.cls-107{fill:url(#linear-gradient-71);}.cls-108{fill:url(#linear-gradient-72);}.cls-109{fill:url(#linear-gradient-73);}.cls-110{fill:url(#linear-gradient-74);}.cls-111{fill:url(#linear-gradient-75);}.cls-112{fill:url(#linear-gradient-76);}.cls-113{fill:url(#linear-gradient-77);}.cls-114{fill:url(#linear-gradient-78);}.cls-115{fill:url(#linear-gradient-79);}.cls-116{fill:url(#linear-gradient-80);}.cls-117{fill:url(#linear-gradient-81);}.cls-118{fill:url(#linear-gradient-82);}.cls-119{fill:url(#linear-gradient-83);}.cls-120{fill:url(#linear-gradient-84);}.cls-121{fill:#c36252;}.cls-122{fill:#23173d;}.cls-123{fill:#fefdfb;}.cls-124{fill:#dd8064;}.cls-125{clip-path:url(#clip-path-4);}.cls-126{fill:url(#Orange_Yellow);}.cls-127{filter:url(#luminosity-noclip-2);}.cls-128{filter:url(#luminosity-noclip);}</style><filter id="luminosity-noclip" x="0" y="-10667.45" width="564.94" height="32766" filterUnits="userSpaceOnUse" color-interpolation-filters="sRGB"><feFlood flood-color="#fff" result="bg"/><feBlend in="SourceGraphic" in2="bg"/></filter><mask id="mask" x="0" y="-10667.45" width="564.94" height="32766" maskUnits="userSpaceOnUse"><g class="cls-128"/></mask><radialGradient id="radial-gradient" cx="-21574.68" cy="-395016.08" r="4277.79" gradientTransform="translate(1704.24 2455.27) scale(0.07 0.01)" gradientUnits="userSpaceOnUse"><stop offset="0" stop-color="#fff"/><stop offset="0.09" stop-color="#e1e1e1"/><stop offset="0.35" stop-color="#929292"/><stop offset="0.58" stop-color="#545454"/><stop offset="0.77" stop-color="#262626"/><stop offset="0.91" stop-color="#0a0a0a"/><stop offset="1"/></radialGradient><filter id="luminosity-noclip-2" x="81.46" y="-10667.45" width="398.94" height="32766" filterUnits="userSpaceOnUse" color-interpolation-filters="sRGB"><feFlood flood-color="#fff" result="bg"/><feBlend in="SourceGraphic" in2="bg"/></filter><mask id="mask-2" x="81.46" y="-10667.45" width="398.94" height="32766" maskUnits="userSpaceOnUse"><g class="cls-127"/></mask><radialGradient id="radial-gradient-2" cx="-43949.34" cy="-65490.75" r="5954.31" gradientTransform="translate(-229.34 2791.89) rotate(45) scale(0.03)" gradientUnits="userSpaceOnUse"><stop offset="0.31" stop-color="#fff"/><stop offset="0.49" stop-color="#bdbdbd"/><stop offset="0.93" stop-color="#191919"/><stop offset="1"/></radialGradient><filter id="luminosity-noclip-3" x="0" y="418.92" width="564.94" height="43.55" filterUnits="userSpaceOnUse" color-interpolation-filters="sRGB"><feFlood flood-color="#fff" result="bg"/><feBlend in="SourceGraphic" in2="bg"/></filter><mask id="mask-3" x="0" y="418.92" width="564.94" height="43.55" maskUnits="userSpaceOnUse"><g class="cls-1"><path class="cls-2" d="M564.94,440.69c0,12-126.47,21.77-282.47,21.77S0,452.71,0,440.69s126.47-21.77,282.47-21.77S564.94,428.66,564.94,440.69Z"/></g></mask><radialGradient id="radial-gradient-3" cx="-21574.68" cy="-395016.08" r="4277.79" gradientTransform="translate(1704.24 2455.27) scale(0.07 0.01)" gradientUnits="userSpaceOnUse"><stop offset="0" stop-color="#008fcc"/><stop offset="0.09" stop-color="#1e9cd2"/><stop offset="0.35" stop-color="#6dbfe2"/><stop offset="0.58" stop-color="#abdaee"/><stop offset="0.77" stop-color="#d9eef7"/><stop offset="0.91" stop-color="#f5fafd"/><stop offset="1" stop-color="#fff"/></radialGradient><filter id="luminosity-noclip-4" x="81.46" y="0" width="398.94" height="398.94" filterUnits="userSpaceOnUse" color-interpolation-filters="sRGB"><feFlood flood-color="#fff" result="bg"/><feBlend in="SourceGraphic" in2="bg"/></filter><mask id="mask-4" x="81.46" y="0" width="398.94" height="398.94" maskUnits="userSpaceOnUse"><g class="cls-3"><circle class="cls-4" cx="280.93" cy="199.47" r="199.47" transform="translate(-58.76 257.07) rotate(-45)"/></g></mask><radialGradient id="radial-gradient-4" cx="-43949.34" cy="-65490.75" r="5954.31" gradientTransform="translate(-229.34 2791.89) rotate(45) scale(0.03)" gradientUnits="userSpaceOnUse"><stop offset="0.31" stop-color="#3f637a"/><stop offset="0.55" stop-color="#8198a8"/><stop offset="1" stop-color="#fff"/></radialGradient><clipPath id="clip-path"><path class="cls-5" d="M113.11,196.84C92,248.78,22.82,145,96.75,108.58c24-11.83,61.49,3.06,67.06,29.27C172.69,179.63,126.4,164.2,113.11,196.84Z"/></clipPath><radialGradient id="radial-gradient-5" cx="-42581.83" cy="-64797.51" r="7669.85" gradientTransform="translate(1754.55 2388.44) scale(0.04)" gradientUnits="userSpaceOnUse"><stop offset="0" stop-color="#28dbde"/><stop offset="1" stop-color="#008ecc"/></radialGradient><radialGradient id="radial-gradient-6" cx="-35156.8" cy="-64662.73" r="3268.72" xlink:href="#radial-gradient-5"/><radialGradient id="radial-gradient-7" cx="-45507.45" cy="-60124.75" r="3199.7" xlink:href="#radial-gradient-5"/><clipPath id="clip-path-3"><path class="cls-5" d="M451.87,200.88C454.45,262,368,395.93,290.71,361.74c-45-19.92-24.13-81.19-83.24-74.33-22.9,2.65-38.76,15.19-59.82-.66-15.18-11.42-23.5-35.83-27-53.38-17.31-85.85,56.67-190.66,148-186.73,41.34,1.78,85.52,21.92,119.47,44.77C432.66,121.42,449.72,150,451.87,200.88Z"/></clipPath><linearGradient id="linear-gradient" x1="378.57" y1="104.32" x2="493.82" y2="-53.68" gradientUnits="userSpaceOnUse"><stop offset="0" stop-color="#4f52ff"/><stop offset="1" stop-color="#4042e2"/></linearGradient><linearGradient id="linear-gradient-2" x1="398.91" y1="119.16" x2="514.17" y2="-38.84" xlink:href="#linear-gradient"/><linearGradient id="linear-gradient-3" x1="420.11" y1="134.63" x2="535.37" y2="-23.38" xlink:href="#linear-gradient"/><linearGradient id="linear-gradient-4" x1="386.61" y1="110.19" x2="501.87" y2="-47.81" xlink:href="#linear-gradient"/><linearGradient id="linear-gradient-5" x1="470.6" y1="171.45" x2="585.85" y2="13.45" xlink:href="#linear-gradient"/><linearGradient id="linear-gradient-6" x1="-2580.37" y1="1061.88" x2="-2779.54" y2="1323.48" gradientTransform="translate(2619.12 -1453.46) rotate(-10.88)" gradientUnits="userSpaceOnUse"><stop offset="0" stop-color="#09005d"/><stop offset="1" stop-color="#1a0f91"/></linearGradient><linearGradient id="linear-gradient-7" x1="-1285.15" y1="-739.54" x2="-1246.6" y2="-325.32" gradientTransform="translate(1192.02 1225.16) rotate(21.15)" xlink:href="#linear-gradient"/><linearGradient id="linear-gradient-8" x1="-2677.82" y1="1115.66" x2="-2723.58" y2="1193.75" gradientTransform="translate(2619.12 -1453.46) rotate(-10.88)" gradientUnits="userSpaceOnUse"><stop offset="0" stop-color="#e1473d"/><stop offset="1" stop-color="#e9605a"/></linearGradient><linearGradient id="linear-gradient-9" x1="191.82" y1="104.25" x2="192" y2="131.49" gradientUnits="userSpaceOnUse"><stop offset="0" stop-color="#ff928e"/><stop offset="1" stop-color="#fe7062"/></linearGradient><linearGradient id="linear-gradient-10" x1="-2098.48" y1="296.39" x2="-2084.21" y2="352.09" gradientTransform="translate(2198.84 -499.47) rotate(-8.81)" xlink:href="#linear-gradient-8"/><linearGradient id="linear-gradient-11" x1="-2076.64" y1="305.07" x2="-2051.34" y2="344.05" gradientTransform="translate(2198.84 -499.47) rotate(-8.81)" xlink:href="#linear-gradient-8"/><linearGradient id="linear-gradient-12" x1="-2072.5" y1="290.26" x2="-2097.1" y2="345.14" gradientTransform="translate(2198.84 -499.47) rotate(-8.81)" xlink:href="#linear-gradient-9"/><linearGradient id="linear-gradient-13" x1="-2072.75" y1="303.06" x2="-2079.04" y2="314.81" gradientTransform="translate(2198.84 -499.47) rotate(-8.81)" xlink:href="#linear-gradient-6"/><linearGradient id="linear-gradient-14" x1="-2071.24" y1="298.71" x2="-2076.03" y2="307.24" gradientTransform="translate(2198.84 -499.47) rotate(-8.81)" xlink:href="#linear-gradient-6"/><linearGradient id="linear-gradient-15" x1="-2079.92" y1="298.6" x2="-2084.71" y2="307.13" gradientTransform="translate(2198.84 -499.47) rotate(-8.81)" xlink:href="#linear-gradient-6"/><linearGradient id="linear-gradient-16" x1="-1521.62" y1="-799.45" x2="-1575.22" y2="-728.94" gradientTransform="translate(1237.6 1451.73) rotate(26.53)" xlink:href="#linear-gradient-6"/><linearGradient id="linear-gradient-17" x1="-2632.24" y1="1019.26" x2="-2690.03" y2="1095.28" xlink:href="#linear-gradient-6"/><linearGradient id="linear-gradient-18" x1="-2615.51" y1="979.82" x2="-2655.41" y2="1053.09" gradientTransform="translate(2619.12 -1453.46) rotate(-10.88)" xlink:href="#linear-gradient"/><linearGradient id="linear-gradient-19" x1="440.54" y1="158.93" x2="402.39" y2="118.59" xlink:href="#linear-gradient-9"/><linearGradient id="linear-gradient-20" x1="568.29" y1="27.55" x2="444.95" y2="72.84" gradientTransform="matrix(1, 0, 0, 1, 0, 0)" xlink:href="#linear-gradient-8"/><linearGradient id="linear-gradient-21" x1="415.1" y1="84.97" x2="390.74" y2="125.71" xlink:href="#linear-gradient-9"/><linearGradient id="linear-gradient-22" x1="423.52" y1="91.66" x2="391.26" y2="135.18" gradientUnits="userSpaceOnUse"><stop offset="0" stop-color="#febbba"/><stop offset="1" stop-color="#ff928e"/></linearGradient><linearGradient id="linear-gradient-23" x1="391.04" y1="132.82" x2="411.95" y2="99.81" xlink:href="#linear-gradient-9"/><linearGradient id="linear-gradient-24" x1="417.19" y1="87.52" x2="382.91" y2="120.85" xlink:href="#linear-gradient-22"/><linearGradient id="linear-gradient-25" x1="386.19" y1="85.16" x2="421.13" y2="30" xlink:href="#linear-gradient-9"/><linearGradient id="linear-gradient-26" x1="388.34" y1="73.16" x2="398.44" y2="55.84" gradientTransform="matrix(1, 0, 0, 1, 0, 0)" xlink:href="#linear-gradient-8"/><linearGradient id="linear-gradient-27" x1="404.37" y1="55.94" x2="394.99" y2="64.96" xlink:href="#linear-gradient-9"/><linearGradient id="linear-gradient-28" x1="398.33" y1="66.31" x2="396.4" y2="69.55" gradientTransform="matrix(1, 0, 0, 1, 0, 0)" xlink:href="#linear-gradient-6"/><linearGradient id="linear-gradient-29" x1="407.3" y1="132.69" x2="373.12" y2="165.35" xlink:href="#linear-gradient"/><linearGradient id="linear-gradient-30" x1="379.92" y1="121.34" x2="407.77" y2="121.34" xlink:href="#linear-gradient"/><linearGradient id="linear-gradient-31" x1="753.1" y1="1315.75" x2="749.19" y2="1322.3" gradientTransform="translate(-1047.1 -372.98) rotate(-41.33)" xlink:href="#linear-gradient-9"/><linearGradient id="linear-gradient-32" x1="754.21" y1="1316.77" x2="750.29" y2="1323.32" gradientTransform="translate(-1047.1 -372.98) rotate(-41.33)" xlink:href="#linear-gradient-9"/><linearGradient id="linear-gradient-33" x1="755.63" y1="1317.81" x2="751.72" y2="1324.36" gradientTransform="translate(-1047.1 -372.98) rotate(-41.33)" xlink:href="#linear-gradient-9"/><linearGradient id="linear-gradient-34" x1="757.87" y1="1320.9" x2="753.95" y2="1327.45" gradientTransform="translate(-1047.1 -372.98) rotate(-41.33)" xlink:href="#linear-gradient-9"/><linearGradient id="linear-gradient-35" x1="758.97" y1="1321.92" x2="755.05" y2="1328.47" gradientTransform="translate(-1047.1 -372.98) rotate(-41.33)" xlink:href="#linear-gradient-9"/><linearGradient id="linear-gradient-36" x1="760.39" y1="1322.96" x2="756.48" y2="1329.51" gradientTransform="translate(-1047.1 -372.98) rotate(-41.33)" xlink:href="#linear-gradient-9"/><linearGradient id="linear-gradient-37" x1="763.03" y1="1323.4" x2="758.71" y2="1324.49" gradientTransform="translate(-1047.1 -372.98) rotate(-41.33)" xlink:href="#linear-gradient-9"/><linearGradient id="linear-gradient-38" x1="757.79" y1="1317.72" x2="753.47" y2="1318.81" gradientTransform="translate(-1047.1 -372.98) rotate(-41.33)" xlink:href="#linear-gradient-9"/><linearGradient id="linear-gradient-39" x1="298.11" y1="238.59" x2="393.34" y2="107.28" gradientTransform="matrix(1, 0, 0, 1, 0, 0)" xlink:href="#linear-gradient-8"/><linearGradient id="linear-gradient-40" x1="256.86" y1="186.6" x2="243.88" y2="277.51" xlink:href="#linear-gradient-9"/><linearGradient id="linear-gradient-41" x1="1526.44" y1="90.12" x2="1513.45" y2="181.03" gradientTransform="matrix(-1, 0, 0, 1, 1800.43, 0)" xlink:href="#linear-gradient-9"/><linearGradient id="linear-gradient-42" x1="237.18" y1="346.91" x2="269.29" y2="136.95" xlink:href="#linear-gradient-9"/><linearGradient id="linear-gradient-43" x1="286.89" y1="354.51" x2="319" y2="144.55" xlink:href="#linear-gradient-9"/><linearGradient id="linear-gradient-44" x1="255.57" y1="349.72" x2="287.68" y2="139.76" xlink:href="#linear-gradient-9"/><linearGradient id="linear-gradient-45" x1="252.61" y1="356.9" x2="275.69" y2="213.32" xlink:href="#linear-gradient-9"/><linearGradient id="linear-gradient-46" x1="1409.28" y1="241.95" x2="1432.37" y2="98.37" gradientTransform="matrix(-1, 0, 0, 1, 1685.63, 0)" xlink:href="#linear-gradient-9"/><linearGradient id="linear-gradient-47" x1="275.73" y1="76.02" x2="239.89" y2="113.86" gradientTransform="matrix(1, 0, 0, 1, 0, 0)" xlink:href="#linear-gradient-8"/><linearGradient id="linear-gradient-48" x1="1492.25" y1="76.02" x2="1456.41" y2="113.86" gradientTransform="matrix(-1, 0, 0, 1, 1765.67, 0)" xlink:href="#linear-gradient-8"/><linearGradient id="linear-gradient-49" x1="244.26" y1="148.93" x2="168.66" y2="270.6" gradientTransform="matrix(1, 0, 0, 1, 0, 0)" xlink:href="#linear-gradient-8"/><linearGradient id="linear-gradient-50" x1="312.19" y1="64.33" x2="408.15" y2="-35.96" xlink:href="#linear-gradient-9"/><linearGradient id="linear-gradient-51" x1="300.39" y1="76.48" x2="282.32" y2="110.24" gradientTransform="matrix(1, 0, 0, 1, 0, 0)" xlink:href="#linear-gradient-6"/><linearGradient id="linear-gradient-52" x1="304.72" y1="64.01" x2="290.96" y2="88.49" gradientTransform="matrix(1, 0, 0, 1, 0, 0)" xlink:href="#linear-gradient-6"/><linearGradient id="linear-gradient-53" x1="279.79" y1="63.69" x2="266.03" y2="88.17" gradientTransform="matrix(1, 0, 0, 1, 0, 0)" xlink:href="#linear-gradient-6"/><linearGradient id="linear-gradient-54" x1="2548.36" y1="238.05" x2="2587.5" y2="238.05" gradientTransform="matrix(-1, 0, 0, 1, 2916.2, 0)" xlink:href="#linear-gradient-6"/><linearGradient id="linear-gradient-55" x1="1009.82" y1="-548.71" x2="952.32" y2="-475.13" gradientTransform="matrix(-0.97, 0.25, 0.25, 0.97, 1374.55, 495.72)" xlink:href="#linear-gradient-22"/><linearGradient id="linear-gradient-56" x1="2579.04" y1="208.09" x2="2579.2" y2="208.09" gradientTransform="matrix(-1, 0, 0, 1, 2916.2, 0)" xlink:href="#linear-gradient-6"/><linearGradient id="linear-gradient-57" x1="2581.31" y1="207.96" x2="2581.3" y2="207.97" gradientTransform="matrix(-1, 0, 0, 1, 2916.2, 0)" gradientUnits="userSpaceOnUse"><stop offset="0" stop-color="#53eac9"/><stop offset="1" stop-color="#45aed8"/></linearGradient><linearGradient id="linear-gradient-58" x1="2581.7" y1="207.98" x2="2581.69" y2="208.01" xlink:href="#linear-gradient-57"/><linearGradient id="linear-gradient-59" x1="2594.3" y1="343.02" x2="2531.18" y2="411.67" gradientTransform="matrix(-1, 0, 0, 1, 2916.2, 0)" xlink:href="#linear-gradient-6"/><linearGradient id="linear-gradient-60" x1="2573.81" y1="348.12" x2="2579.42" y2="348.12" gradientTransform="matrix(-1, 0, 0, 1, 2916.2, 0)" xlink:href="#linear-gradient-22"/><linearGradient id="linear-gradient-61" x1="2599.27" y1="265.38" x2="2545.56" y2="338.17" gradientTransform="matrix(-1, 0, 0, 1, 2916.2, 0)" xlink:href="#linear-gradient-6"/><linearGradient id="linear-gradient-62" x1="2580.14" y1="330" x2="2517.02" y2="398.65" gradientTransform="matrix(-1, 0, 0, 1, 2916.2, 0)" xlink:href="#linear-gradient-6"/><linearGradient id="linear-gradient-63" x1="2553.61" y1="347.83" x2="2558.45" y2="347.83" gradientTransform="matrix(-1, 0, 0, 1, 2916.2, 0)" xlink:href="#linear-gradient-22"/><linearGradient id="linear-gradient-64" x1="2589.7" y1="258.32" x2="2535.99" y2="331.11" gradientTransform="matrix(-1, 0, 0, 1, 2916.2, 0)" xlink:href="#linear-gradient-6"/><linearGradient id="linear-gradient-65" x1="2547.56" y1="214.73" x2="2554.38" y2="211.11" gradientTransform="matrix(-1, 0, 0, 1, 2916.2, 0)" xlink:href="#linear-gradient-22"/><linearGradient id="linear-gradient-66" x1="-1784.52" y1="-257.91" x2="-1804.08" y2="-242.94" gradientTransform="matrix(-0.99, 0.14, 0.14, 0.99, -1392.7, 698.15)" xlink:href="#linear-gradient-22"/><linearGradient id="linear-gradient-67" x1="-3410.39" y1="-278.5" x2="-3374.7" y2="-232.55" gradientTransform="translate(3745.88 -37.73) rotate(-8.15)" xlink:href="#linear-gradient-6"/><linearGradient id="linear-gradient-68" x1="-1786.95" y1="-261.08" x2="-1806.5" y2="-246.11" gradientTransform="matrix(-0.99, 0.14, 0.14, 0.99, -1392.7, 698.15)" xlink:href="#linear-gradient-22"/><linearGradient id="linear-gradient-70" x1="5200.19" y1="856.99" x2="5201.13" y2="864.01" gradientTransform="translate(2037.1 5227.48) rotate(-118.35)" xlink:href="#linear-gradient-6"/><linearGradient id="linear-gradient-71" x1="1538.44" y1="7635.49" x2="1556.19" y2="7635.49" gradientTransform="translate(5319.36 6223.13) rotate(151.65)" xlink:href="#linear-gradient-57"/><linearGradient id="linear-gradient-72" x1="5201.4" y1="859.52" x2="5198.18" y2="874.14" gradientTransform="matrix(0, -1, 1, 0, -536.26, 5441.4)" xlink:href="#linear-gradient"/><linearGradient id="linear-gradient-73" x1="5127.27" y1="559.67" x2="5131.05" y2="575.93" gradientTransform="matrix(1, 0, 0, 1, -4863.5, -638.36)" xlink:href="#linear-gradient"/><linearGradient id="linear-gradient-74" x1="5198.48" y1="866.73" x2="5202.34" y2="866.73" gradientTransform="translate(-4870.05 -627.33)" xlink:href="#linear-gradient-6"/><linearGradient id="linear-gradient-75" x1="5197.37" y1="877.36" x2="5203.43" y2="877.36" gradientTransform="translate(2037.1 5227.48) rotate(-118.35)" xlink:href="#linear-gradient-6"/><linearGradient id="linear-gradient-76" x1="5125.68" y1="560.07" x2="5129.46" y2="576.32" gradientTransform="translate(2037.1 5227.48) rotate(-118.35)" xlink:href="#linear-gradient"/><linearGradient id="linear-gradient-77" x1="2566.79" y1="236.92" x2="2581.78" y2="236.92" gradientTransform="matrix(-1, 0, 0, 1, 2916.2, 0)" xlink:href="#linear-gradient-22"/><linearGradient id="linear-gradient-78" x1="-2773.56" y1="221.61" x2="-2769.93" y2="221.61" gradientTransform="translate(3128.25)" xlink:href="#linear-gradient-6"/><linearGradient id="linear-gradient-79" x1="-2762.91" y1="229.46" x2="-2776.97" y2="242.68" gradientTransform="translate(3128.25)" xlink:href="#linear-gradient"/><linearGradient id="linear-gradient-80" x1="-2794.06" y1="211.72" x2="-2789.08" y2="211.72" gradientTransform="translate(3128.25)" xlink:href="#linear-gradient-6"/><linearGradient id="linear-gradient-81" x1="-2793.49" y1="205.62" x2="-2792.19" y2="231.71" gradientTransform="translate(3128.25)" xlink:href="#linear-gradient"/><linearGradient id="linear-gradient-82" x1="-2103.24" y1="-422.95" x2="-2101.01" y2="-422.95" gradientTransform="matrix(0.98, -0.21, 0.21, 0.98, 2482.54, 194.48)" xlink:href="#linear-gradient"/><linearGradient id="linear-gradient-83" x1="-2106.86" y1="-423.45" x2="-2104.63" y2="-423.45" gradientTransform="matrix(0.98, -0.21, 0.21, 0.98, 2482.54, 194.48)" xlink:href="#linear-gradient"/><linearGradient id="linear-gradient-84" x1="-2797.33" y1="218.98" x2="-2789.37" y2="218.98" gradientTransform="translate(3128.25)" xlink:href="#linear-gradient-6"/><clipPath id="clip-path-4"><polygon class="cls-5" points="143.31 68.86 121.8 121.92 136.59 137.35 163.45 95.8 192.1 73.66 219.69 63.84 285.71 53.29 314.91 73.66 355.68 78.24 388.62 93.99 416.94 117.69 416.94 50.82 231.78 31.86 143.31 68.86"/></clipPath><linearGradient id="Orange_Yellow" x1="273.18" y1="89.36" x2="363.84" y2="89.36" gradientUnits="userSpaceOnUse"><stop offset="0" stop-color="#ffef26"/><stop offset="0.02" stop-color="#ffea21"/><stop offset="0.1" stop-color="#fed70f"/><stop offset="0.19" stop-color="#fdcc04"/><stop offset="0.28" stop-color="#fdc800"/><stop offset="0.67" stop-color="#f18f34"/><stop offset="0.89" stop-color="#e95f32"/><stop offset="1" stop-color="#e3312d"/></linearGradient></defs><g class="cls-6"><g id="Layer_2" data-name="Layer 2"><g id="Layer_1-2" data-name="Layer 1"><g class="cls-7"><path class="cls-8" d="M564.94,440.69c0,12-126.47,21.77-282.47,21.77S0,452.71,0,440.69s126.47-21.77,282.47-21.77S564.94,428.66,564.94,440.69Z"/></g><path class="cls-9" d="M346.35,264.38c-.14,68-59.58,157.6-133.85,106.84-36.63-25-42.32-50.23-89.36-57.58-40.44-6.32-75.45-19.48-73.71-67.13C52.22,170.06,151.63,122.1,218,125.17,299.54,128.94,342.91,187,346.35,264.38Z"/><path class="cls-9" d="M466,235.16c-38.07,36-115.41,33.43-154.18-.13-28.18-24.37-14.29-51.74-26.44-81.13-15.11-36.54-31.84-59.36-9.8-99.64C290.61,26.71,320.1,4.82,351.69,1.43c38-4.08,56.19,17.83,71.2,48.53,8.92,18.25,14.82,34.23,31.26,47.09,15,11.72,36.29,15.59,46.16,33.07C519.31,163.79,487.93,210.8,466,235.16Z"/><g class="cls-10"><circle class="cls-11" cx="280.93" cy="199.47" r="199.47" transform="translate(-58.76 257.07) rotate(-45)"/></g><g class="cls-12"><g class="cls-13"><line class="cls-14" x1="54.14" y1="90.65" x2="183.48" y2="90.65"/><line class="cls-14" x1="54.14" y1="96.79" x2="183.48" y2="96.79"/><line class="cls-14" x1="54.14" y1="102.92" x2="183.48" y2="102.92"/><line class="cls-14" x1="54.14" y1="109.05" x2="183.48" y2="109.05"/><line class="cls-14" x1="54.14" y1="115.19" x2="183.48" y2="115.19"/><line class="cls-14" x1="54.14" y1="121.32" x2="183.48" y2="121.32"/><line class="cls-14" x1="54.14" y1="127.45" x2="183.48" y2="127.45"/><line class="cls-14" x1="54.14" y1="133.59" x2="183.48" y2="133.59"/><line class="cls-14" x1="54.14" y1="139.72" x2="183.48" y2="139.72"/><line class="cls-14" x1="54.14" y1="145.85" x2="183.48" y2="145.85"/><line class="cls-14" x1="54.14" y1="151.99" x2="183.48" y2="151.99"/><line class="cls-14" x1="54.14" y1="158.12" x2="183.48" y2="158.12"/><line class="cls-14" x1="54.14" y1="164.25" x2="183.48" y2="164.25"/><line class="cls-14" x1="54.14" y1="170.39" x2="183.48" y2="170.39"/><line class="cls-14" x1="54.14" y1="176.52" x2="183.48" y2="176.52"/><line class="cls-14" x1="54.14" y1="182.65" x2="183.48" y2="182.65"/><line class="cls-14" x1="54.14" y1="188.79" x2="183.48" y2="188.79"/><line class="cls-14" x1="54.14" y1="194.92" x2="183.48" y2="194.92"/><line class="cls-14" x1="54.14" y1="201.05" x2="183.48" y2="201.05"/><line class="cls-14" x1="54.14" y1="207.19" x2="183.48" y2="207.19"/><line class="cls-14" x1="54.14" y1="213.32" x2="183.48" y2="213.32"/><line class="cls-14" x1="54.14" y1="219.45" x2="183.48" y2="219.45"/></g></g><path class="cls-15" d="M451.87,200.88C454.45,262,368,395.93,290.71,361.74c-45-19.92-24.13-81.19-83.24-74.33-22.9,2.65-38.76,15.19-59.82-.66-15.18-11.42-23.5-35.83-27-53.38-17.31-85.85,56.67-190.66,148-186.73,41.34,1.78,85.52,21.92,119.47,44.77C432.66,121.42,449.72,150,451.87,200.88Z"/><path class="cls-16" d="M185.51,83.64a15.17,15.17,0,1,1-15.17-15.16A15.17,15.17,0,0,1,185.51,83.64Z"/><path class="cls-17" d="M518,143.45c2.47,15.43-8.35,38.51-24.94,42-27.46,5.77-10.49-23.23-11.1-42.16-.41-12.68-12.67-39.61,10.06-34.74C502.82,110.86,516.31,133.66,518,143.45Z"/><g class="cls-18"><g class="cls-13"><g class="cls-19"><line class="cls-20" x1="54.14" y1="90.65" x2="183.48" y2="90.65"/><line class="cls-20" x1="54.14" y1="96.79" x2="183.48" y2="96.79"/><line class="cls-20" x1="54.14" y1="102.92" x2="183.48" y2="102.92"/><line class="cls-20" x1="54.14" y1="109.05" x2="183.48" y2="109.05"/><line class="cls-20" x1="54.14" y1="115.19" x2="183.48" y2="115.19"/><line class="cls-20" x1="54.14" y1="121.32" x2="183.48" y2="121.32"/><line class="cls-20" x1="54.14" y1="127.45" x2="183.48" y2="127.45"/><line class="cls-20" x1="54.14" y1="133.59" x2="183.48" y2="133.59"/><line class="cls-20" x1="54.14" y1="139.72" x2="183.48" y2="139.72"/><line class="cls-20" x1="54.14" y1="145.85" x2="183.48" y2="145.85"/><line class="cls-20" x1="54.14" y1="151.99" x2="183.48" y2="151.99"/><line class="cls-20" x1="54.14" y1="158.12" x2="183.48" y2="158.12"/><line class="cls-20" x1="54.14" y1="164.25" x2="183.48" y2="164.25"/><line class="cls-20" x1="54.14" y1="170.39" x2="183.48" y2="170.39"/><line class="cls-20" x1="54.14" y1="176.52" x2="183.48" y2="176.52"/><line class="cls-20" x1="54.14" y1="182.65" x2="183.48" y2="182.65"/><line class="cls-20" x1="54.14" y1="188.79" x2="183.48" y2="188.79"/><line class="cls-20" x1="54.14" y1="194.92" x2="183.48" y2="194.92"/><line class="cls-20" x1="54.14" y1="201.05" x2="183.48" y2="201.05"/><line class="cls-20" x1="54.14" y1="207.19" x2="183.48" y2="207.19"/><line class="cls-20" x1="54.14" y1="213.32" x2="183.48" y2="213.32"/><line class="cls-20" x1="54.14" y1="219.45" x2="183.48" y2="219.45"/></g></g></g><path class="cls-21" d="M142.69,305.15c19.11,2.17,14.15,32.37-.56,38-20.93,8-43.43-20.68-46.46-38.44-1.7-9.95,1-44.08,18.57-35.1,4.24,2.17,3.94,20.05,7.56,24.64C128.86,303.15,132.69,301.87,142.69,305.15Z"/><path class="cls-22" d="M448.11,275.78a12.35,12.35,0,1,1,12.35,12.34A12.35,12.35,0,0,1,448.11,275.78Z"/><path class="cls-23" d="M311.6,56.13A12.35,12.35,0,1,1,324,68.48,12.35,12.35,0,0,1,311.6,56.13Z"/><rect class="cls-24" x="409.55" y="266.64" width="2.92" height="2.92" transform="translate(142.92 679.11) rotate(-90)"/><rect class="cls-24" x="409.55" y="261.49" width="2.92" height="2.92" transform="translate(148.07 673.96) rotate(-90)"/><rect class="cls-24" x="409.55" y="256.34" width="2.92" height="2.92" transform="translate(153.22 668.81) rotate(-90)"/><rect class="cls-24" x="409.55" y="251.18" width="2.92" height="2.92" transform="translate(158.37 663.66) rotate(-90)"/><g class="cls-25"><rect class="cls-26" x="288.89" y="127.09" width="139.71" height="8.78" rx="4.33"/><rect class="cls-27" x="288.72" y="170.08" width="139.71" height="8.78" rx="4.33"/><path class="cls-28" d="M424.42,222.88H293.36a4.34,4.34,0,0,1-4.33-4.33h0a4.34,4.34,0,0,1,4.33-4.32H424.42a4.34,4.34,0,0,1,4.33,4.32h0A4.34,4.34,0,0,1,424.42,222.88Z"/><rect class="cls-29" x="289.62" y="124.26" width="9.49" height="224.79" rx="4.33"/><rect class="cls-30" x="419.67" y="122.37" width="9.49" height="224.79" rx="4.33"/><path class="cls-31" d="M144.41,99.77l123.4-23.72a13,13,0,0,1,15.1,9.68l43.5,177.16a9.6,9.6,0,0,1-7.34,11.68L178.14,304.33a9.13,9.13,0,0,1-10.84-7.2L132.69,117.07A14.78,14.78,0,0,1,144.41,99.77Z"/><path class="cls-32" d="M180.62,300.32a10,10,0,0,1-9.75-8l-4.59-23.9a.36.36,0,0,1,.28-.42.36.36,0,0,1,.43.29l4.59,23.89a9.24,9.24,0,0,0,10.65,7.32l15.86-2.84a.35.35,0,0,1,.42.29.36.36,0,0,1-.29.42l-15.87,2.84A10.2,10.2,0,0,1,180.62,300.32Z"/><path class="cls-32" d="M165.21,261.27a.37.37,0,0,1-.36-.29l-.74-3.87a.36.36,0,1,1,.71-.13l.74,3.87a.36.36,0,0,1-.28.42Z"/><path class="cls-33" d="M144.51,98.25c17.29-1,76.6-5,123.8-17.91a4,4,0,0,1,4.91,2.87l44.09,177.86A4.56,4.56,0,0,1,314,266.6c-19.92,5.07-102,25.63-132.21,28.22a3.61,3.61,0,0,1-3.85-2.91l-37.4-188.54A4.29,4.29,0,0,1,144.51,98.25Z"/><path class="cls-34" d="M147.22,102.57c16.63-.92,73.71-4.84,119.13-17.24a3.81,3.81,0,0,1,4.72,2.76l42.44,171.17a4.39,4.39,0,0,1-3.19,5.31c-19.17,4.88-98.17,24.67-127.23,27.16a3.48,3.48,0,0,1-3.71-2.8l-36-181.43A4.13,4.13,0,0,1,147.22,102.57Z"/><path class="cls-35" d="M161,117.94l8.85,36.75a2.4,2.4,0,0,0,2.72,1.81c6.9-1.13,28.4-4.72,40.36-7.67a2.69,2.69,0,0,0,2-3c-1.11-7-4.49-27.33-7.7-35.48a3,3,0,0,0-3.29-1.88l-40.86,6.38A2.55,2.55,0,0,0,161,117.94Z"/><g class="cls-36"><path class="cls-32" d="M263.15,101.65a1.33,1.33,0,0,0,1.15-1.51,1.45,1.45,0,0,0-1.7-1l-44.72,7.77a.94.94,0,0,0-.69,1.49l.36.62a2.19,2.19,0,0,0,2.14,1Z"/></g><g class="cls-36"><path class="cls-32" d="M219.21,113.83a.94.94,0,0,0-.69,1.49l.36.62a2.19,2.19,0,0,0,2.14,1l43.46-8.35a1.31,1.31,0,0,0,1.14-1.51,1.44,1.44,0,0,0-1.69-1Z"/></g><g class="cls-36"><path class="cls-32" d="M220.56,120.84a.94.94,0,0,0-.69,1.5l.36.61a2.17,2.17,0,0,0,2.14,1l43.46-8.35a1.32,1.32,0,0,0,1.14-1.51,1.45,1.45,0,0,0-1.69-1Z"/></g><g class="cls-36"><path class="cls-32" d="M276.65,148.56a1.27,1.27,0,0,0,1.1-1.51,1.49,1.49,0,0,0-1.74-1L171.53,165.32c-.78.14-.92.68-.32,1.2l1.1.94a3.37,3.37,0,0,0,2.51.67Z"/></g><g class="cls-36"><path class="cls-32" d="M172.86,172.23c-.78.15-.93.69-.32,1.2l1.1.95a3.41,3.41,0,0,0,2.51.66L278,155.47a1.27,1.27,0,0,0,1.1-1.5,1.5,1.5,0,0,0-1.74-1Z"/></g><path class="cls-32" d="M182.31,198a2.37,2.37,0,0,1-2.32-1.6l-2.19-7.23a1.65,1.65,0,0,1,.15-1.3,2,2,0,0,1,1.23-.93h0c.73-.19,1.75-.48,2.84-.79,2.41-.68,5.14-1.45,6.77-1.78a2.53,2.53,0,0,1,2.81,1.26c.79,1.61,1.36,4.83,1.93,8.26a2.23,2.23,0,0,1-1.9,2.46l-8.82,1.61A2.81,2.81,0,0,1,182.31,198Zm7-13a2,2,0,0,0-.42.05c-1.6.32-4.43,1.12-6.71,1.77l-2.86.79h0a1.23,1.23,0,0,0-.78.58,1,1,0,0,0-.09.74l2.19,7.23a1.71,1.71,0,0,0,2,1.06l8.82-1.61a1.51,1.51,0,0,0,1.32-1.63c-.56-3.38-1.13-6.54-1.87-8.07A1.75,1.75,0,0,0,189.35,185Z"/><g class="cls-36"><path class="cls-32" d="M198.6,187a1.06,1.06,0,0,0-.8,1.57l.76,1.57a1.94,1.94,0,0,0,2,1L280.3,175a1.43,1.43,0,0,0,1.11-1.7l-.09-.45a1.5,1.5,0,0,0-1.73-1.14Z"/></g><path class="cls-37" d="M181.05,189.26h0a1.37,1.37,0,0,1,2,.15l2.33,2.78a.45.45,0,0,0,.77-.19l2.46-10.41a.49.49,0,0,1,1,0,19.27,19.27,0,0,1-3,14.23s-2.77-.51-5.73-4.67A1.45,1.45,0,0,1,181.05,189.26Z"/><path class="cls-32" d="M185.94,216.83a2.36,2.36,0,0,1-2.32-1.6l-2.2-7.23a1.7,1.7,0,0,1,.15-1.3,2,2,0,0,1,1.23-.93h0c.73-.19,1.76-.48,2.84-.79,2.29-.64,5.14-1.45,6.77-1.78a2.52,2.52,0,0,1,2.82,1.26c.78,1.61,1.36,4.83,1.93,8.26a2.23,2.23,0,0,1-1.91,2.46l-8.81,1.61A2.89,2.89,0,0,1,185.94,216.83ZM183,206.47a1.25,1.25,0,0,0-.79.58,1,1,0,0,0-.09.74l2.2,7.23a1.71,1.71,0,0,0,2,1.06l8.81-1.61a1.51,1.51,0,0,0,1.33-1.63c-.57-3.38-1.13-6.54-1.87-8.07a1.82,1.82,0,0,0-2-.86c-1.6.32-4.44,1.12-6.72,1.77l-2.85.79Z"/><path class="cls-38" d="M184.07,207c1.83-.48,5.77-1.66,7.67-2.05a1.75,1.75,0,0,1,1.93.85,30.62,30.62,0,0,1,1.52,6.52A1.49,1.49,0,0,1,193.9,214l-7.05,1.29a1.66,1.66,0,0,1-1.92-1.05l-1.75-5.78A1.16,1.16,0,0,1,184.07,207Z"/><g class="cls-36"><path class="cls-32" d="M202.22,205.89a1.05,1.05,0,0,0-.79,1.57l.75,1.57a2,2,0,0,0,2,1l79.71-16.18a1.44,1.44,0,0,0,1.11-1.7l-.1-.45a1.49,1.49,0,0,0-1.72-1.14Z"/></g><path class="cls-32" d="M189.56,235.69a2.37,2.37,0,0,1-2.32-1.6l-2.19-7.23a1.65,1.65,0,0,1,.15-1.3,2,2,0,0,1,1.23-.93h0c.73-.19,1.75-.48,2.84-.79,2.29-.64,5.14-1.45,6.77-1.78a2.53,2.53,0,0,1,2.81,1.26c.79,1.61,1.36,4.82,1.93,8.26a2.22,2.22,0,0,1-1.9,2.46l-8.82,1.61A2.81,2.81,0,0,1,189.56,235.69Zm7-13a2,2,0,0,0-.42.05c-1.6.32-4.43,1.12-6.71,1.77l-2.86.79h0a1.23,1.23,0,0,0-.78.58,1,1,0,0,0-.09.74l2.19,7.23a1.72,1.72,0,0,0,2,1.06l8.82-1.61a1.51,1.51,0,0,0,1.32-1.63c-.56-3.38-1.12-6.54-1.87-8.07A1.75,1.75,0,0,0,196.6,222.72Z"/><path class="cls-38" d="M187.7,225.89c1.82-.48,5.76-1.66,7.66-2a1.76,1.76,0,0,1,1.94.85,30.7,30.7,0,0,1,1.51,6.52,1.48,1.48,0,0,1-1.29,1.64l-7,1.29a1.67,1.67,0,0,1-1.93-1l-1.75-5.78A1.17,1.17,0,0,1,187.7,225.89Z"/><g class="cls-36"><path class="cls-32" d="M205.85,224.75a1.06,1.06,0,0,0-.8,1.57l.76,1.57a1.94,1.94,0,0,0,2,1l79.7-16.18a1.43,1.43,0,0,0,1.11-1.7l-.09-.45a1.5,1.5,0,0,0-1.73-1.14Z"/></g><path class="cls-32" d="M193.19,254.55a2.36,2.36,0,0,1-2.32-1.6l-2.2-7.23a1.7,1.7,0,0,1,.15-1.3,2,2,0,0,1,1.23-.93c.73-.19,1.76-.48,2.84-.79,2.29-.64,5.15-1.45,6.77-1.78a2.53,2.53,0,0,1,2.82,1.26c.78,1.61,1.36,4.82,1.93,8.26a2.23,2.23,0,0,1-1.91,2.46l-8.81,1.61A2.89,2.89,0,0,1,193.19,254.55Zm7-13a2,2,0,0,0-.42,0c-1.6.32-4.44,1.12-6.72,1.77l-2.85.79h0a1.28,1.28,0,0,0-.79.58,1,1,0,0,0-.09.74l2.2,7.23a1.71,1.71,0,0,0,2,1.06l8.81-1.61a1.51,1.51,0,0,0,1.33-1.63c-.56-3.38-1.13-6.54-1.87-8.07A1.77,1.77,0,0,0,200.23,241.58Z"/><path class="cls-38" d="M191.32,244.75c1.83-.48,5.77-1.66,7.67-2.05a1.74,1.74,0,0,1,1.93.85,30.62,30.62,0,0,1,1.52,6.52,1.49,1.49,0,0,1-1.29,1.64L194.1,253a1.66,1.66,0,0,1-1.92-1.05l-1.75-5.78A1.17,1.17,0,0,1,191.32,244.75Z"/><g class="cls-36"><path class="cls-32" d="M209.47,243.61a1.05,1.05,0,0,0-.79,1.57l.75,1.57a2,2,0,0,0,2,1l79.71-16.18a1.44,1.44,0,0,0,1.11-1.7l-.1-.45a1.49,1.49,0,0,0-1.72-1.14Z"/></g><path class="cls-39" d="M184.38,150.38l16-2.48a1.86,1.86,0,0,0,1.31-2.78,67.56,67.56,0,0,1-4-7.87,1.86,1.86,0,0,0-2-1.09L183.9,138a1.85,1.85,0,0,0-1.56,2,35.28,35.28,0,0,1-.09,8.29A1.85,1.85,0,0,0,184.38,150.38Z"/><path class="cls-40" d="M178.92,119.66a40.26,40.26,0,0,0-6.42,6.69,4.31,4.31,0,0,0-.25,5.69l3,3.73a6,6,0,0,1,1.32,3.3l.47,5.67a1.35,1.35,0,0,0,2.35.8,10.87,10.87,0,0,0,4.62-5.06Z"/><path class="cls-41" d="M197.06,116.85a40.29,40.29,0,0,1,8.15,4.43,4.31,4.31,0,0,1,2,5.34l-1.72,4.47a6.11,6.11,0,0,0-.25,3.54l1.26,5.54a1.35,1.35,0,0,1-2,1.48,10.86,10.86,0,0,1-5.93-3.42Z"/><path class="cls-42" d="M199.17,121c-.78-5-6.27-8.4-12.25-7.47s-10.2,5.77-9.41,10.83A8.26,8.26,0,0,0,180,129a5.72,5.72,0,0,1,1.74,4.7,6.85,6.85,0,0,0,0,1.69c.67,4.29,4.8,7.36,10.41,6.35,5.78-1,8.67-4.91,8-9.2a6.69,6.69,0,0,0-1.29-3.06,3.61,3.61,0,0,1-.4-3.75A8.11,8.11,0,0,0,199.17,121Z"/><path class="cls-43" d="M182.64,115.1c3.19,4.31,7.33,10.85,6.58,15.72-.13.8-.16,1.61-.88,2.11a12.27,12.27,0,0,0-3.92,4.08c-.45,1-.9,2.22-.1,3a7.81,7.81,0,0,0,6.06,1.85,1.71,1.71,0,0,0,1.28-.65,2.51,2.51,0,0,0,.45-1.66s.06,0,.07,0a2.75,2.75,0,0,0,.26.64,2.27,2.27,0,0,0,2.65.66,7.36,7.36,0,0,0,4.17-3.38c.53-.73-.08-2.28-.63-3-1-1.18-2.14-1.75-5.24-2.48a2.16,2.16,0,0,1-1.5-1.42c-1.41-3.65-1-11-.2-16.81A12.33,12.33,0,0,0,182.64,115.1Z"/><path class="cls-44" d="M193.44,133.9c.08.54-1.55,1.63-2.1,1.77s-2.44-.51-2.53-1,.88-1.15,2.16-1.35S193.35,133.35,193.44,133.9Z"/><circle class="cls-45" cx="193.72" cy="123.94" r="0.91"/><path class="cls-46" d="M186,125a.92.92,0,1,1-1.81.28A.92.92,0,0,1,186,125Z"/><path class="cls-47" d="M209.08,62.05c-5.06-2.24-8.92-1.44-11.49-.11a5.55,5.55,0,0,0-2.77,6.47L198.47,81l14.24-1.45S219,66.45,209.08,62.05Zm-4.17,11.54a3.55,3.55,0,1,1,2.82-4.16A3.55,3.55,0,0,1,204.91,73.59Z"/><path class="cls-34" d="M198.76,75.37a.36.36,0,0,1-.35-.26l-.58-2a.36.36,0,0,1,.7-.2l.58,2a.37.37,0,0,1-.25.45Zm-1.14-3.93a.36.36,0,0,1-.34-.26l-.44-1.53a5.31,5.31,0,0,1,2.64-6.18,10.62,10.62,0,0,1,5.08-1.19.36.36,0,1,1,0,.72h0a10,10,0,0,0-4.75,1.11,4.58,4.58,0,0,0-2.28,5.34L198,71a.34.34,0,0,1-.25.44Z"/><path class="cls-48" d="M181,93l-1.24-6.46A4,4,0,0,1,183,81.82l44.81-7a3.89,3.89,0,0,1,4.39,2.89l1.56,6.13Z"/><path class="cls-34" d="M194,82.23a.35.35,0,0,1-.35-.29.36.36,0,0,1,.28-.42l1.92-.37a.36.36,0,0,1,.13.71l-1.91.37Z"/><path class="cls-34" d="M182.91,90.53a.37.37,0,0,1-.36-.3l-.5-2.61a3.75,3.75,0,0,1,3-4.38l7-1.35a.36.36,0,0,1,.42.28.36.36,0,0,1-.29.43l-7,1.35a3,3,0,0,0-2.4,3.54l.5,2.61a.36.36,0,0,1-.29.42Z"/><path class="cls-49" d="M166.55,93.31l77.85-15A5.85,5.85,0,0,1,251,82l.14.37a5,5,0,0,1-3.76,6.72L167.5,104.47a3.28,3.28,0,0,1-3.86-2.75l-.51-3.61A4.27,4.27,0,0,1,166.55,93.31Z"/><path class="cls-34" d="M131.54,306a.4.4,0,0,1-.09-.78,77.07,77.07,0,0,1,57.09,3.48C212.82,320.19,228,332.25,233.43,337a1.86,1.86,0,0,1-.59,3.16c-8,2.87-30.63,9.73-45.63,1C169.28,330.8,151.86,308.16,131.54,306Z"/><path class="cls-50" d="M154.63,308s23.56-2,77.29,29.9C231.92,337.92,176.22,308.73,154.63,308Z"/><path class="cls-51" d="M251.5,333.26S205,259.68,149.62,230.13a5.62,5.62,0,0,0-8.19,5.13C142.7,263.43,154.61,346,251.5,333.26Z"/><path class="cls-50" d="M241.48,331a.24.24,0,0,1-.18.44c-10.41-3.1-52.76-21.38-84.42-76.37a.17.17,0,0,1,.28-.18C165.8,267.16,199.28,311.9,241.48,331Z"/><path class="cls-34" d="M347.12,127.77a32,32,0,0,1-10.13,0,3.09,3.09,0,0,1-3.08-3.08V96.14c0-3.64,16.28-3.49,16.28,0v28.55A3.08,3.08,0,0,1,347.12,127.77Z"/><path class="cls-51" d="M347.12,126.52a30.82,30.82,0,0,1-10,0,3.25,3.25,0,0,1-3.25-3.25V96.81a33.11,33.11,0,0,0,16.28,0v26.63A3.07,3.07,0,0,1,347.12,126.52Z"/><path class="cls-52" d="M348.05,119.81a48.16,48.16,0,0,1-12.35,0,1.19,1.19,0,0,1-1.19-1.2V103.18a1.19,1.19,0,0,1,1.19-1.2,47.66,47.66,0,0,0,12.35,0,1.19,1.19,0,0,1,1.19,1.2v15.43A1.19,1.19,0,0,1,348.05,119.81Z"/><path class="cls-51" d="M341.7,94.49s-2.38.18-2.38-1.19v-5a2.52,2.52,0,0,1,2.5-2.51h0a2.52,2.52,0,0,1,2.51,2.51v5C344.33,94.67,343.08,94.49,341.7,94.49Z"/><path class="cls-53" d="M344.15,88.55a13.66,13.66,0,0,1-4.6,0,.78.78,0,0,1-.77-.77v-3.6a1,1,0,0,1,1-1h3.88A1.37,1.37,0,0,1,345,84.58v3.09A.87.87,0,0,1,344.15,88.55Z"/><path class="cls-34" d="M364.68,128.29a31.73,31.73,0,0,1-10.13,0,3.08,3.08,0,0,1-3.07-3.07V96.66c0-3.63,16.28-3.49,16.28,0v28.56A3.09,3.09,0,0,1,364.68,128.29Z"/><path class="cls-51" d="M364.68,127a30.82,30.82,0,0,1-10,0,3.24,3.24,0,0,1-3.24-3.25V97.33a33.11,33.11,0,0,0,16.28,0V124A3.07,3.07,0,0,1,364.68,127Z"/><path class="cls-52" d="M365.61,120.33a47.2,47.2,0,0,1-12.34,0,1.2,1.2,0,0,1-1.2-1.2V103.7a1.2,1.2,0,0,1,1.2-1.2,47.15,47.15,0,0,0,12.34,0,1.2,1.2,0,0,1,1.2,1.2v15.43A1.2,1.2,0,0,1,365.61,120.33Z"/><path class="cls-51" d="M359.26,95s-2.38.18-2.38-1.19V88.87a2.51,2.51,0,0,1,2.51-2.5h0a2.51,2.51,0,0,1,2.5,2.5v4.95C361.89,95.19,360.64,95,359.26,95Z"/><path class="cls-53" d="M361.71,89.07a13.6,13.6,0,0,1-4.59,0,.76.76,0,0,1-.77-.77V84.7a1,1,0,0,1,1-1h3.88a1.38,1.38,0,0,1,1.38,1.38v3.09A.87.87,0,0,1,361.71,89.07Z"/><path class="cls-54" d="M399.5,112.05A152.6,152.6,0,0,0,410,141.66c2.33,5,10.18,2.4,6.68-3,2.87,5.2,10.4,2.65,7.11-3.08,3.61,5.41,9.45,1.06,5.63-3.82a107.41,107.41,0,0,1-24.31-22.5Z"/><path class="cls-55" d="M391,66.79l-3.77,42.26a8.37,8.37,0,0,0,5.68,8.47,18.22,18.22,0,0,0,11.72.15,8,8,0,0,0,5.62-8.14l-3.86-42.6a6,6,0,0,0-.48-1.86C403.15,58.78,394.36,57.7,391,66.79Z"/><path class="cls-56" d="M407.3,79.59a142.38,142.38,0,0,1,9.58,31,3.27,3.27,0,0,1-4.47,3.66c-9.62-4.11-15.11-15.15-12.64-33.36a3.18,3.18,0,0,1,.41-1.19c1.1-1.91,2.74-2.66,5.21-1.83A3.25,3.25,0,0,1,407.3,79.59Z"/><path class="cls-57" d="M408.28,109.38a17.33,17.33,0,0,1-4.68-2.61,19.54,19.54,0,0,0,8.81,7.46,3.27,3.27,0,0,0,4.47-3.66c-.09-.41-.17-.82-.25-1.22A10.62,10.62,0,0,1,408.28,109.38Z"/><path class="cls-58" d="M415.5,104.82a16.6,16.6,0,0,1-9-.48,15.65,15.65,0,0,1-5.78-3.78,24.63,24.63,0,0,0,2.85,6.21,17.33,17.33,0,0,0,4.68,2.61,10.62,10.62,0,0,0,8.35,0c-.32-1.54-.66-3.06-1-4.56Z"/><path class="cls-59" d="M406.53,104.34a16.6,16.6,0,0,0,9,.48l.12,0c-.33-1.44-.68-2.86-1.05-4.27a9.33,9.33,0,0,1-1.36.37,11,11,0,0,1-5.41-.21A12.85,12.85,0,0,1,402.18,97c-2-2.09-2.51-4.93-3-7.74a38.21,38.21,0,0,0,1.57,11.28A15.65,15.65,0,0,0,406.53,104.34Z"/><path class="cls-60" d="M391.35,66.41c5.84-4.33,8.92-2.9,10.23,2.21A4.89,4.89,0,0,1,398,74.55l-6,1.54Z"/><path class="cls-61" d="M380.7,76.32a33,33,0,0,0,11,.15,1.15,1.15,0,0,0,1-1.2l-.4-6.06C386.75,70.78,383.09,73.25,380.7,76.32Z"/><path class="cls-62" d="M390.7,66.4c-8.4.29-10.33,3.21-10.33,10.45,5.17-5.13,8.33-5.71,12.31-1.58.32-2.52.59-5.43-.08-7.54A1.92,1.92,0,0,0,390.7,66.4Z"/><circle class="cls-63" cx="396.81" cy="68.86" r="1.11"/><path class="cls-53" d="M404.87,124.66v-1.72h-22v1.72c0,1.09-.94,2-2.24,2.74-1.82,1-2.92,2.27-2.74,3.44v34.65c0,2.36,3,4.28,6.78,4.28h18.43c3.74,0,6.77-1.92,6.77-4.28V130.84c0-1.41-1.07-2.66-2.73-3.44C405.72,126.75,404.87,125.75,404.87,124.66Z"/><path class="cls-51" d="M403.12,124.66v-1.72H382.51v1.72a3.29,3.29,0,0,1-2.1,2.74,4.05,4.05,0,0,0-2.56,3.44v34.65c0,2.36,2.84,4.28,6.34,4.28h17.24c3.5,0,6.34-1.92,6.34-4.28V130.84a4.05,4.05,0,0,0-2.56-3.44A3.28,3.28,0,0,1,403.12,124.66Z"/><path class="cls-64" d="M377.68,132.62v32.1c0,2,2.86,3.65,6.39,3.65h17.38c3.54,0,6.4-1.64,6.4-3.65v-32.1c0-.11-2.86-2.07-2.88-2.19H380.16C380.14,130.55,377.68,132.51,377.68,132.62Z"/><path class="cls-65" d="M409.84,154.66q-15.91.65-32,0V136.44q15.84.54,32,0Z"/><rect class="cls-66" x="379.92" y="118.13" width="27.86" height="6.42" rx="3.21"/><rect class="cls-53" x="383.45" y="119.2" width="22.15" height="1.36" rx="0.55"/><path class="cls-53" d="M406.49,154q-12.69.45-25.47,0c-1,0-1.87-.65-1.87-1.38v-13.9c0-.78.94-1.41,2.07-1.37q12.43.36,25.09,0c1.12,0,2.06.59,2.06,1.37v13.9C408.37,153.37,407.54,154,406.49,154Z"/><path class="cls-67" d="M386.9,125.44a.35.35,0,0,1-.19.1.42.42,0,0,1-.49-.33c-.85-4.35.15-6.93,3.06-7.9a.42.42,0,0,1,.53.26.43.43,0,0,1-.26.53c-2.48.82-3.28,3-2.51,7A.4.4,0,0,1,386.9,125.44Z"/><path class="cls-68" d="M388.41,125.48a.47.47,0,0,1-.2.1.43.43,0,0,1-.49-.33c-.85-4.35.15-6.94,3.06-7.9a.41.41,0,0,1,.53.26.41.41,0,0,1-.26.52c-2.48.83-3.28,3-2.51,7A.42.42,0,0,1,388.41,125.48Z"/><path class="cls-69" d="M390.17,125.33a.46.46,0,0,1-.2.09.42.42,0,0,1-.49-.33c-.85-4.35.15-6.93,3.06-7.9a.43.43,0,0,1,.53.26.42.42,0,0,1-.26.53c-2.48.82-3.28,3-2.51,7A.45.45,0,0,1,390.17,125.33Z"/><path class="cls-70" d="M393.88,126.17a.42.42,0,0,1-.19.09.41.41,0,0,1-.49-.32c-.85-4.35.15-6.94,3.06-7.91a.43.43,0,0,1,.53.27.42.42,0,0,1-.27.52c-2.48.83-3.27,3-2.5,7A.44.44,0,0,1,393.88,126.17Z"/><path class="cls-71" d="M395.38,126.2a.35.35,0,0,1-.19.1.42.42,0,0,1-.49-.33c-.85-4.35.15-6.93,3.06-7.9a.42.42,0,0,1,.53.26.42.42,0,0,1-.27.53c-2.47.82-3.27,3-2.5,7A.4.4,0,0,1,395.38,126.2Z"/><path class="cls-72" d="M397.14,126.05a.44.44,0,0,1-.19.1.43.43,0,0,1-.49-.33c-.85-4.35.15-6.94,3.06-7.91a.42.42,0,0,1,.53.27.41.41,0,0,1-.26.52c-2.48.83-3.28,3-2.51,7A.4.4,0,0,1,397.14,126.05Z"/><path class="cls-73" d="M394.59,118.66l5.92.62,2-.55C399.19,117.22,396.7,117.54,394.59,118.66Z"/><path class="cls-74" d="M386.91,117.85l5.92.62,2-.55C391.51,116.41,389,116.73,386.91,117.85Z"/><path class="cls-53" d="M411.89,216.08a26.29,26.29,0,0,1-8.23,0,2.51,2.51,0,0,1-2.5-2.5v-23.2c0-2.95,13.23-2.84,13.23,0v23.2A2.51,2.51,0,0,1,411.89,216.08Z"/><path class="cls-75" d="M411.89,215.06a25.24,25.24,0,0,1-8.09,0,2.64,2.64,0,0,1-2.64-2.64V190.93a27.05,27.05,0,0,0,13.23,0v21.63A2.5,2.5,0,0,1,411.89,215.06Z"/><path class="cls-53" d="M412.64,209.61a39.07,39.07,0,0,1-10,0,1,1,0,0,1-1-1V196.1a1,1,0,0,1,1-1,39,39,0,0,0,10,0,1,1,0,0,1,1,1v12.53A1,1,0,0,1,412.64,209.61Z"/><path class="cls-51" d="M407.49,189s-1.94.15-1.94-1v-4a2,2,0,0,1,2-2h0a2,2,0,0,1,2,2v4C409.62,189.19,408.6,189,407.49,189Z"/><path class="cls-53" d="M409.48,184.22a11.44,11.44,0,0,1-3.74,0,.63.63,0,0,1-.62-.63v-2.92a.8.8,0,0,1,.8-.8h3.15a1.12,1.12,0,0,1,1.12,1.12v2.51A.71.71,0,0,1,409.48,184.22Z"/><path class="cls-34" d="M283.1,341.62s59.58-102.9,133.72-146.16A7.68,7.68,0,0,1,428.27,202C428,240.57,416.07,354,283.1,341.62Z"/><path class="cls-50" d="M296.65,338a.32.32,0,0,0,.28.58c14.05-4.76,70.92-31.95,111.28-108.7a.23.23,0,0,0-.39-.23C396.67,246.87,353.28,309.72,296.65,338Z"/><path class="cls-76" d="M236.4,343.27c-6.69-7.39-28.94-54.44-34.26-90.49-2.3-15.53,8.25-29.1,20.18-26,35.65,9.4,68.5,6.26,108.75-3.47,10.55-2.55,24,16.85,21.67,30.47-5.24,31.19-21,58.53-35.12,89.45Z"/><path class="cls-77" d="M220.2,342.69c6.42-12.67,18.1-14.32,27.71-1a4.84,4.84,0,0,1-2.22,7.39c-8.38,3.08-19.2,2.21-24.05-1A4.24,4.24,0,0,1,220.2,342.69Z"/><path class="cls-78" d="M324.85,345.57c-6.42-12.67-18.1-14.32-27.72-1a4.86,4.86,0,0,0,2.23,7.4c8.38,3.08,19.2,2.2,24.05-1A4.24,4.24,0,0,0,324.85,345.57Z"/><path class="cls-79" d="M266.35,347.71h-19.7c6.27-21.43-22.38-81.5-20-123.83l32.45-7.52C262.74,269.26,267.73,332.8,266.35,347.71Z"/><path class="cls-80" d="M284.74,349.6H299a2.5,2.5,0,0,0,2.47-2.88C298.07,323,321.72,274.34,322,232.93l-29.72-14.26a2.5,2.5,0,0,0-2.88,2.3c-3.41,49.85-7.93,108.16-7.18,126.24A2.51,2.51,0,0,0,284.74,349.6Z"/><path class="cls-81" d="M321.94,231.74c.52,4.24-2.12,9-5.91,10.6-27.48,11.51-53.33,9.88-81.81-.55-5-1.84-7.41-7-7.55-12.59-1-36.44,23.17-63.63,22.33-100.5h43.75C302.18,168.32,314.73,172.3,321.94,231.74Z"/><path class="cls-82" d="M239.42,349.34c6.42-12.67,18.1-14.32,27.71-1a4.85,4.85,0,0,1-2.22,7.4c-8.38,3.08-19.2,2.2-24.05-.95A4.26,4.26,0,0,1,239.42,349.34Z"/><path class="cls-83" d="M308.44,352c-6.41-12.67-18.1-14.33-27.71-1A4.84,4.84,0,0,0,283,358.4c8.37,3.08,19.2,2.2,24.05-.95A4.23,4.23,0,0,0,308.44,352Z"/><path class="cls-84" d="M248.22,74.51C239.57,80,232,85.46,227.06,90.68a12.38,12.38,0,0,0-3.22,16l6.83,11.91a17.44,17.44,0,0,1,2.28,9.94l-1.15,16.29a3.89,3.89,0,0,0,6.32,3.31c6.48-2.25,11.36-6.66,15.32-12.32Z"/><path class="cls-85" d="M300.93,74.51c8.65,5.51,16.25,10.95,21.16,16.17a12.38,12.38,0,0,1,3.22,16l-6.83,11.91a17.52,17.52,0,0,0-2.28,9.94l1.16,16.29a3.9,3.9,0,0,1-6.33,3.31c-6.48-2.25-11.36-6.66-15.32-12.32Z"/><path class="cls-86" d="M305.12,87.07c0-14.68-14.09-26.58-31.48-26.58s-31.48,11.9-31.48,26.58a23.55,23.55,0,0,0,4.92,14.27,16.45,16.45,0,0,1,2.87,14.1,19.38,19.38,0,0,0-.62,4.83c0,12.48,10.37,23,26.75,22.59,16.84-.41,26.75-10.11,26.75-22.59a19.59,19.59,0,0,0-2.34-9.24,10.39,10.39,0,0,1,.51-10.8A23.38,23.38,0,0,0,305.12,87.07Z"/><path class="cls-87" d="M260.78,63.21c7.15,13.63,16,34,11.75,47.48-.7,2.22-1.16,4.5-3.41,5.63-5.84,2.94-10.77,6.55-12.93,9.84-1.71,2.6-3.53,5.91-1.59,8.37,3.73,4.74,9.3,7.27,16.37,7.94a4.93,4.93,0,0,0,3.93-1.3,7.28,7.28,0,0,0,2-4.5.1.1,0,0,1,.19,0,7.66,7.66,0,0,0,.47,1.94,6.51,6.51,0,0,0,7.21,3c7.64-1.71,9.47-3.82,13.34-7.77,1.8-1.84.76-6.5-.51-8.67-2.19-3.76-5.3-5.9-13.76-9.33a6.22,6.22,0,0,1-3.64-4.71c-2.39-11,2.09-31.75,6.83-47.77C277.37,59,267,60.94,260.78,63.21Z"/><path class="cls-88" d="M283.15,121.3c0,1.58-5.09,3.94-6.72,4.1-1.35.13-6.72-2.52-6.72-4.1s3-2.87,6.72-2.87S283.15,119.72,283.15,121.3Z"/><circle class="cls-89" cx="288.33" cy="93.17" r="2.62"/><circle class="cls-90" cx="263.4" cy="92.85" r="2.62"/><path class="cls-91" d="M331.19,224.42l0,.05h0a.25.25,0,0,1,.05.13h0v.06a.94.94,0,0,0,0,.22v0c.21,1.24,1.36,4.62,2.6,9a.53.53,0,0,1,0,.12c2.79,9.82,6.81,24.37,8,31.22a33.63,33.63,0,0,0,5.49,1.35h0c4.83,1.33,12.11,2.27,18.89.49,0,0,3.76-28.86-.65-54.62a120.65,120.65,0,0,0-24.19-4.35l-.19,0c-1-.06-2-.1-3-.1h-.8c-.11,0-6.55,2.93-7.18,3.46C330.3,211.49,326.17,223.8,331.19,224.42Z"/><path class="cls-34" d="M325.13,214.93c-4.68,6.16-10.59,15.87-23.18,17.2a36.31,36.31,0,0,1-14.33-1.69L283,229.33s-1,4.52,9.57,7.58a38.17,38.17,0,0,0,9.66,3.14c9,1.7,22.35,1,31.69-13.89l4.17-18S331.31,206.78,325.13,214.93Z"/><path class="cls-92" d="M272.67,238.07a3,3,0,0,1,1.24-2.35l7.3-5.4s-.15-1.08-2.18-1.31a2.53,2.53,0,0,1-2.13-2.41s2.82.5,7,1.36a8.92,8.92,0,0,1,5,3.25l-1.38,3.31a38.43,38.43,0,0,1-14.93,5.16Z"/><path class="cls-93" d="M337,208.09h0Z"/><path class="cls-94" d="M334.88,207.94h0Z"/><path class="cls-95" d="M334.47,208h0Z"/><path class="cls-96" d="M341.85,348.13s.66,3.7,1,7.37a2.53,2.53,0,0,1-2.42,2.73c-4.87.2-15.31.6-19.05.43a.81.81,0,0,1-.72-1.12h0a1.79,1.79,0,0,1,.94-1l17.23-7.93Z"/><path class="cls-97" d="M342.39,346l-.53,4.42s-3,1.41-5.08-.17l1.25-4.94Z"/><path class="cls-98" d="M342,262.74c.22,1.16,1.21,57.68-4.83,83a.86.86,0,0,0,.51,1,15.32,15.32,0,0,0,4.92,1,1.48,1.48,0,0,0,1.46-1.07c1.73-5.87,10-35.32,11.09-63.45,1.2-31.43,0-1.07,0-1.07l-.71-19.43Z"/><path class="cls-99" d="M361.68,350.06a26.73,26.73,0,0,1,2.05,6.83,1.55,1.55,0,0,1-1.36,1.85c-1.61.16-4.09.36-6.07.35a1.54,1.54,0,0,1-1.52-1.72,12.93,12.93,0,0,1,3-7.1Z"/><path class="cls-100" d="M362.59,344.37l-1.22,6.69a4.32,4.32,0,0,1-3.62.25l.59-7.2Z"/><path class="cls-101" d="M365.91,264.48c4.94,29.82-1.07,73.71-3.1,82.3a1.35,1.35,0,0,1-1.08,1,9,9,0,0,1-3.87-.16,1.23,1.23,0,0,1-.88-1.13c-.27-6.94.22-49.58-4.39-66.43a3.84,3.84,0,0,0-1.47-2.11l-8.94-6.35-.68-10.27Z"/><path class="cls-32" d="M359.89,226.2l5.68-14.34s13.83,9.4,16.11,21.31a33,33,0,0,0-12,3.23C368.63,230.77,359.89,226.2,359.89,226.2Z"/><path class="cls-102" d="M349.42,196l4.71,13.62a.5.5,0,0,1-.22.6c-1.28.71-5.91,2.76-11.49-.78a2.32,2.32,0,0,1-1.06-1.65L339.83,196Z"/><path class="cls-32" d="M358.37,210.32l-5.63-4.77-8.41,20.54,6.13,81.6,19.16.57a.54.54,0,0,0,.36-.14.5.5,0,0,0,.14-.37l-2.67-78.5s-.08-17-1.88-17.39S358.37,210.32,358.37,210.32Z"/><path class="cls-34" d="M331.27,224.48l0,.13h0v.06l0,.22.15,0,1.72,16.21h0l6.54,67.61c0,.13,0,.25.09.34a.4.4,0,0,0,.33.09l10.35-1.49-3-40.58v-.06l-3.13-42-2.83-16.87h0l-.43-2.6L338.28,208h0l-.8.05h-.33c-.51.14-2.62.93-2.62.93s-.74.33-1.09.5l0,0-.31.16s.22,0,.21,0a.42.42,0,0,0-.27.39h0l-1.42,14.31-.16.05Z"/><polygon class="cls-51" points="340.74 225.92 340.74 227.92 333.37 227.47 333.37 225.25 340.74 225.92"/><path class="cls-34" d="M344.78,230.79a.16.16,0,0,1-.15-.09.18.18,0,0,1,.07-.25l6.38-3.43.9-6a.17.17,0,0,1,.14-.15l2.39-.43,2.46-8a.18.18,0,0,1,.35.11l-2.49,8.1a.19.19,0,0,1-.14.12l-2.38.42-.88,6a.21.21,0,0,1-.1.13l-6.46,3.47Z"/><path class="cls-32" d="M343.25,228.8a.13.13,0,0,1-.12-.07l-3.42-6a.14.14,0,0,1,0-.09l.55-3.32-2.73-1.45a.13.13,0,0,1-.07-.13l.7-9.76a.13.13,0,0,1,.14-.12.13.13,0,0,1,.13.14l-.69,9.67,2.73,1.46a.14.14,0,0,1,.07.14l-.56,3.37,3.4,5.95a.14.14,0,0,1-.05.18Z"/><path class="cls-32" d="M347.79,239.27s15.53,8.78,20.77,1.28a5.94,5.94,0,0,0,1.08-4.57,32.91,32.91,0,0,1,12-3.23A16.44,16.44,0,0,1,379.87,244c-9.18,16.79-34.14-.93-34.14-.93Z"/><path class="cls-34" d="M362.4,243.61c-4.7,0-10.68-2.28-11-2.4a5.67,5.67,0,0,1-2.92-2.27.18.18,0,0,1,.08-.24.18.18,0,0,1,.24.08,5.44,5.44,0,0,0,2.73,2.09c.11,0,10.33,3.93,14.48,1.66a.17.17,0,0,1,.24.07.17.17,0,0,1-.07.24A7.84,7.84,0,0,1,362.4,243.61Z"/><path class="cls-34" d="M368,251.43h0c-11.92-.41-18.74-5.89-18.8-6a.18.18,0,0,1,0-.25.19.19,0,0,1,.26,0c.06.06,6.79,5.46,18.58,5.87a.19.19,0,0,1,.18.19A.19.19,0,0,1,368,251.43Z"/><path class="cls-103" d="M337,183s-2.27,8.27-1.92,12.38-.14,6.89,4.7,7,8.48-2.77,10.05-7.15c0,0,2.48-6.75,1.36-9.21S337,183,337,183Z"/><path class="cls-104" d="M356.27,183.49c-1-.64-1.71-.42-2.1-.1a.31.31,0,0,1-.35,0c0-.12-.8-8.57-12.31-7.08a3,3,0,0,1-3-1.48c-1.36-2.4-3.94-5.92-5.89-2.48-2.78,4.9-3.6,11.33,4.26,12.66.46.08.93.15,1.4.2,3.25.8,6.94,1.05,8.31,1.39,2.29.58.54,5.9.54,5.9l.6-.08,1.27-.18c.19,0,.37.18.38.36l.3,3.64a.34.34,0,0,0,.29.32c.58.06,2.09,0,4.41-1.7s1.18-2.51.48-2.83a.32.32,0,0,1-.08-.51C357.9,188.19,358.06,184.61,356.27,183.49Z"/><path class="cls-105" d="M347.74,193.37s.58-5.15,3-4.08-.36,5.74-2.12,6.18Z"/><path class="cls-34" d="M334.87,183.5a.21.21,0,0,0,.1-.06.17.17,0,0,0,0-.23,6.42,6.42,0,0,1-2.71-4.5,8.11,8.11,0,0,1,2-5.39.16.16,0,0,0,0-.23.17.17,0,0,0-.23,0,8.33,8.33,0,0,0-2.06,5.63,6.76,6.76,0,0,0,2.83,4.73A.17.17,0,0,0,334.87,183.5Z"/><path class="cls-94" d="M334.88,207.94h0Z"/><polygon class="cls-34" points="322.77 243.42 322.84 243.54 314.38 248.1 313.72 248.31 322.77 243.42"/><path class="cls-106" d="M323.32,242.43l.65,1.2-2,1a.39.39,0,0,1-.49-.16l-.21-.4a.37.37,0,0,1,.14-.49Z"/><path class="cls-53" d="M331.42,229.86h0a2.27,2.27,0,0,1,2.27,2.27v15.69a0,0,0,0,1,0,0h-4.53a0,0,0,0,1,0,0V232.12A2.27,2.27,0,0,1,331.42,229.86Z" transform="translate(278.65 643.92) rotate(-118.35)"/><path class="cls-107" d="M340.36,236.2l-14,7.56a1.83,1.83,0,0,1-2.48-.74l-.09-.18a1.82,1.82,0,0,1,.74-2.47l14-7.56Z"/><path class="cls-34" d="M340.36,236.2l-14,7.56a1.83,1.83,0,0,1-2.48-.74l-.09-.18a1.82,1.82,0,0,1,.74-2.47l14-7.56Z"/><path class="cls-108" d="M325.31,239.28h5.35a0,0,0,0,1,0,0v3.85a0,0,0,0,1,0,0h-5.35a1.92,1.92,0,0,1-1.92-1.92v0A1.92,1.92,0,0,1,325.31,239.28Z" transform="translate(-75.32 184.26) rotate(-28.36)"/><rect class="cls-109" x="336.43" y="228.77" width="0.51" height="14.44" transform="translate(288.92 644.36) rotate(-118.36)"/><rect class="cls-110" x="328.22" y="239.24" width="3.86" height="0.55" transform="translate(276.17 643.8) rotate(-118.36)"/><path class="cls-111" d="M338.43,231.91l2.62,4.86a.27.27,0,0,1-.11.37h0a.28.28,0,0,1-.37-.11L338,232.17a.28.28,0,0,1,.11-.37h0A.27.27,0,0,1,338.43,231.91Z"/><path class="cls-112" d="M342,230l2.63,4.85a.28.28,0,0,1-.11.37h0a.28.28,0,0,1-.37-.11l-2.62-4.86a.27.27,0,0,1,.11-.36h0A.26.26,0,0,1,342,230Z"/><path class="cls-113" d="M346.72,243.26c.64.37,1.23.81,1.91,1.18l.07,0s.07-.05.09-.09a3.75,3.75,0,0,0,.54-1.41,10.44,10.44,0,0,0,.06-1.85,3.81,3.81,0,0,0-.77-2.11,2.21,2.21,0,0,1-.26-1.64,4.59,4.59,0,0,0-.44-1.81,13.61,13.61,0,0,0-2.68-3.91l-1.41-1.57c-.35-.38-.81-.81-1.31-.67-.21.11-.1,1.62,0,1.89a12.75,12.75,0,0,0,.91,2.2,1.25,1.25,0,0,1,.14.59c-1.66-.29-3.34-.51-5-.66-.81-.07-3.68-.72-4.05.27s2.46,1.25,3,1.48c1,.42,1.85,1.22,1.26,2.26a2.34,2.34,0,0,0-.4,1.13c0,1.94,3.15,2.67,4.55,3.16,1,.36,2.08.72,3.1,1.15A5.45,5.45,0,0,1,346.72,243.26Z"/><path class="cls-114" d="M357.56,236l-.83,0c.07-1.38.15-2.78.23-4.17.61-10.82,1-23.14-1.53-24l-.74-.64c2.6-.07,3.34,3.06,3.57,8.39.2,4.51-.14,10.48-.47,16.25C357.71,233.24,357.64,234.64,357.56,236Z"/><ellipse class="cls-115" cx="356.7" cy="237.59" rx="2.54" ry="3.12"/><path class="cls-53" d="M358.26,237.66c0,1.32-.7,2.39-1.55,2.39s-1.54-1.07-1.54-2.39.69-2.4,1.54-2.4S358.26,236.34,358.26,237.66Z"/><path class="cls-116" d="M335,216.25l-.83,0c.26-5.67,1.69-8.82,5-9l-.89.83C336.58,208.5,335.26,211,335,216.25Z"/><path class="cls-117" d="M334.41,231.55a5.65,5.65,0,0,1-.59,0c-.32,0-1.41-.23-1.75-.84s-1-8.13-.93-9.47c0-2.18.34-4.77,2.42-5.47.83-.28,2,.49,2.51,1a8.66,8.66,0,0,1,1.88,2.84,25.72,25.72,0,0,1,1.43,4.22c.38,1.41,1.28,6.33.95,6.77a2.36,2.36,0,0,1-1.77.67l0-.42a2,2,0,0,0,1.46-.49,35.53,35.53,0,0,0-1-6.43,25.5,25.5,0,0,0-1.41-4.15,8.31,8.31,0,0,0-1.78-2.7c-.52-.48-1.5-1.11-2.09-.9-1.84.61-2.11,3-2.15,5.08,0,1.6.56,8.67.89,9.26a2.06,2.06,0,0,0,1.44.62,2.17,2.17,0,0,0,1.57-.22l.3.29A2,2,0,0,1,334.41,231.55Z"/><path class="cls-118" d="M339.6,230.7c.06.27-.39.59-1,.72s-1.14,0-1.2-.24.39-.58,1-.72S339.54,230.44,339.6,230.7Z"/><path class="cls-119" d="M336,231c.06.27-.38.59-1,.72s-1.14,0-1.2-.24.38-.59,1-.72S335.9,230.73,336,231Z"/><path class="cls-120" d="M331.35,222.5a.41.41,0,0,1-.42-.4c0-.31,0-.61,0-.91,0-2.24.36-4.91,2.57-5.66,1.13-.38,2.55.89,2.71,1a8.84,8.84,0,0,1,1.93,2.9,17.77,17.77,0,0,1,.71,1.8.41.41,0,0,1-.78.28,17.81,17.81,0,0,0-.69-1.73,8.16,8.16,0,0,0-1.74-2.64c-.58-.54-1.44-1-1.88-.86-1.71.58-2,2.92-2,4.89v.87a.41.41,0,0,1-.41.42Z"/><path class="cls-121" d="M338.77,190.11c.1,0,.17.07.16.16a17.7,17.7,0,0,1-.24,1.76c-.05.28-.11.52-.15.72-.13.58-.2.87-.05,1.06s.67.29,1.38.16a.16.16,0,0,1,.18.11h0a.15.15,0,0,1-.13.18l-.39.06c-.65.06-1.09,0-1.31-.34s-.15-.64,0-1.28c0-.21.1-.44.15-.71a14.81,14.81,0,0,0,.23-1.74A.17.17,0,0,1,338.77,190.11Z"/><path class="cls-122" d="M341.84,189.92c.26,0,.46.32.46.72s-.21.72-.46.72-.46-.32-.46-.72S341.59,189.92,341.84,189.92Z"/><path class="cls-122" d="M337.24,189.67c.26,0,.46.33.46.72s-.21.73-.46.73-.46-.33-.46-.73S337,189.67,337.24,189.67Z"/><path class="cls-123" d="M338.05,195.32l.47,0a10.7,10.7,0,0,0,2,0l.88-.09c.2,0,.35.13.26.26a3,3,0,0,1-2.16.88,2.07,2.07,0,0,1-1.75-.84C337.7,195.45,337.85,195.3,338.05,195.32Z"/><path class="cls-124" d="M343.42,191.77c.67-.08,1.25.19,1.31.61s-.45.82-1.12.9-1.25-.18-1.3-.6S342.76,191.86,343.42,191.77Z"/></g><g class="cls-125"><rect class="cls-26" x="288.89" y="127.09" width="139.71" height="8.78" rx="4.33"/><rect class="cls-27" x="288.72" y="170.08" width="139.71" height="8.78" rx="4.33"/><path class="cls-28" d="M424.42,222.88H293.36a4.34,4.34,0,0,1-4.33-4.33h0a4.34,4.34,0,0,1,4.33-4.32H424.42a4.34,4.34,0,0,1,4.33,4.32h0A4.34,4.34,0,0,1,424.42,222.88Z"/><rect class="cls-29" x="289.62" y="124.26" width="9.49" height="224.79" rx="4.33"/><rect class="cls-30" x="419.67" y="122.37" width="9.49" height="224.79" rx="4.33"/><path class="cls-31" d="M144.41,99.77l123.4-23.72a13,13,0,0,1,15.1,9.68l43.5,177.16a9.6,9.6,0,0,1-7.34,11.68L178.14,304.33a9.13,9.13,0,0,1-10.84-7.2L132.69,117.07A14.78,14.78,0,0,1,144.41,99.77Z"/><path class="cls-32" d="M180.62,300.32a10,10,0,0,1-9.75-8l-4.59-23.9a.36.36,0,0,1,.28-.42.36.36,0,0,1,.43.29l4.59,23.89a9.24,9.24,0,0,0,10.65,7.32l15.86-2.84a.35.35,0,0,1,.42.29.36.36,0,0,1-.29.42l-15.87,2.84A10.2,10.2,0,0,1,180.62,300.32Z"/><path class="cls-32" d="M165.21,261.27a.37.37,0,0,1-.36-.29l-.74-3.87a.36.36,0,1,1,.71-.13l.74,3.87a.36.36,0,0,1-.28.42Z"/><path class="cls-33" d="M144.51,98.25c17.29-1,76.6-5,123.8-17.91a4,4,0,0,1,4.91,2.87l44.09,177.86A4.56,4.56,0,0,1,314,266.6c-19.92,5.07-102,25.63-132.21,28.22a3.61,3.61,0,0,1-3.85-2.91l-37.4-188.54A4.29,4.29,0,0,1,144.51,98.25Z"/><path class="cls-34" d="M147.22,102.57c16.63-.92,73.71-4.84,119.13-17.24a3.81,3.81,0,0,1,4.72,2.76l42.44,171.17a4.39,4.39,0,0,1-3.19,5.31c-19.17,4.88-98.17,24.67-127.23,27.16a3.48,3.48,0,0,1-3.71-2.8l-36-181.43A4.13,4.13,0,0,1,147.22,102.57Z"/><path class="cls-35" d="M161,117.94l8.85,36.75a2.4,2.4,0,0,0,2.72,1.81c6.9-1.13,28.4-4.72,40.36-7.67a2.69,2.69,0,0,0,2-3c-1.11-7-4.49-27.33-7.7-35.48a3,3,0,0,0-3.29-1.88l-40.86,6.38A2.55,2.55,0,0,0,161,117.94Z"/><g class="cls-36"><path class="cls-32" d="M263.15,101.65a1.33,1.33,0,0,0,1.15-1.51,1.45,1.45,0,0,0-1.7-1l-44.72,7.77a.94.94,0,0,0-.69,1.49l.36.62a2.19,2.19,0,0,0,2.14,1Z"/></g><g class="cls-36"><path class="cls-32" d="M219.21,113.83a.94.94,0,0,0-.69,1.49l.36.62a2.19,2.19,0,0,0,2.14,1l43.46-8.35a1.31,1.31,0,0,0,1.14-1.51,1.44,1.44,0,0,0-1.69-1Z"/></g><g class="cls-36"><path class="cls-32" d="M220.56,120.84a.94.94,0,0,0-.69,1.5l.36.61a2.17,2.17,0,0,0,2.14,1l43.46-8.35a1.32,1.32,0,0,0,1.14-1.51,1.45,1.45,0,0,0-1.69-1Z"/></g><g class="cls-36"><path class="cls-32" d="M276.65,148.56a1.27,1.27,0,0,0,1.1-1.51,1.49,1.49,0,0,0-1.74-1L171.53,165.32c-.78.14-.92.68-.32,1.2l1.1.94a3.37,3.37,0,0,0,2.51.67Z"/></g><g class="cls-36"><path class="cls-32" d="M172.86,172.23c-.78.15-.93.69-.32,1.2l1.1.95a3.41,3.41,0,0,0,2.51.66L278,155.47a1.27,1.27,0,0,0,1.1-1.5,1.5,1.5,0,0,0-1.74-1Z"/></g><path class="cls-32" d="M182.31,198a2.37,2.37,0,0,1-2.32-1.6l-2.19-7.23a1.65,1.65,0,0,1,.15-1.3,2,2,0,0,1,1.23-.93h0c.73-.19,1.75-.48,2.84-.79,2.41-.68,5.14-1.45,6.77-1.78a2.53,2.53,0,0,1,2.81,1.26c.79,1.61,1.36,4.83,1.93,8.26a2.23,2.23,0,0,1-1.9,2.46l-8.82,1.61A2.81,2.81,0,0,1,182.31,198Zm7-13a2,2,0,0,0-.42.05c-1.6.32-4.43,1.12-6.71,1.77l-2.86.79h0a1.23,1.23,0,0,0-.78.58,1,1,0,0,0-.09.74l2.19,7.23a1.71,1.71,0,0,0,2,1.06l8.82-1.61a1.51,1.51,0,0,0,1.32-1.63c-.56-3.38-1.13-6.54-1.87-8.07A1.75,1.75,0,0,0,189.35,185Z"/><g class="cls-36"><path class="cls-32" d="M198.6,187a1.06,1.06,0,0,0-.8,1.57l.76,1.57a1.94,1.94,0,0,0,2,1L280.3,175a1.43,1.43,0,0,0,1.11-1.7l-.09-.45a1.5,1.5,0,0,0-1.73-1.14Z"/></g><path class="cls-37" d="M181.05,189.26h0a1.37,1.37,0,0,1,2,.15l2.33,2.78a.45.45,0,0,0,.77-.19l2.46-10.41a.49.49,0,0,1,1,0,19.27,19.27,0,0,1-3,14.23s-2.77-.51-5.73-4.67A1.45,1.45,0,0,1,181.05,189.26Z"/><path class="cls-32" d="M185.94,216.83a2.36,2.36,0,0,1-2.32-1.6l-2.2-7.23a1.7,1.7,0,0,1,.15-1.3,2,2,0,0,1,1.23-.93h0c.73-.19,1.76-.48,2.84-.79,2.29-.64,5.14-1.45,6.77-1.78a2.52,2.52,0,0,1,2.82,1.26c.78,1.61,1.36,4.83,1.93,8.26a2.23,2.23,0,0,1-1.91,2.46l-8.81,1.61A2.89,2.89,0,0,1,185.94,216.83ZM183,206.47a1.25,1.25,0,0,0-.79.58,1,1,0,0,0-.09.74l2.2,7.23a1.71,1.71,0,0,0,2,1.06l8.81-1.61a1.51,1.51,0,0,0,1.33-1.63c-.57-3.38-1.13-6.54-1.87-8.07a1.82,1.82,0,0,0-2-.86c-1.6.32-4.44,1.12-6.72,1.77l-2.85.79Z"/><path class="cls-38" d="M184.07,207c1.83-.48,5.77-1.66,7.67-2.05a1.75,1.75,0,0,1,1.93.85,30.62,30.62,0,0,1,1.52,6.52A1.49,1.49,0,0,1,193.9,214l-7.05,1.29a1.66,1.66,0,0,1-1.92-1.05l-1.75-5.78A1.16,1.16,0,0,1,184.07,207Z"/><g class="cls-36"><path class="cls-32" d="M202.22,205.89a1.05,1.05,0,0,0-.79,1.57l.75,1.57a2,2,0,0,0,2,1l79.71-16.18a1.44,1.44,0,0,0,1.11-1.7l-.1-.45a1.49,1.49,0,0,0-1.72-1.14Z"/></g><path class="cls-32" d="M189.56,235.69a2.37,2.37,0,0,1-2.32-1.6l-2.19-7.23a1.65,1.65,0,0,1,.15-1.3,2,2,0,0,1,1.23-.93h0c.73-.19,1.75-.48,2.84-.79,2.29-.64,5.14-1.45,6.77-1.78a2.53,2.53,0,0,1,2.81,1.26c.79,1.61,1.36,4.82,1.93,8.26a2.22,2.22,0,0,1-1.9,2.46l-8.82,1.61A2.81,2.81,0,0,1,189.56,235.69Zm7-13a2,2,0,0,0-.42.05c-1.6.32-4.43,1.12-6.71,1.77l-2.86.79h0a1.23,1.23,0,0,0-.78.58,1,1,0,0,0-.09.74l2.19,7.23a1.72,1.72,0,0,0,2,1.06l8.82-1.61a1.51,1.51,0,0,0,1.32-1.63c-.56-3.38-1.12-6.54-1.87-8.07A1.75,1.75,0,0,0,196.6,222.72Z"/><path class="cls-38" d="M187.7,225.89c1.82-.48,5.76-1.66,7.66-2a1.76,1.76,0,0,1,1.94.85,30.7,30.7,0,0,1,1.51,6.52,1.48,1.48,0,0,1-1.29,1.64l-7,1.29a1.67,1.67,0,0,1-1.93-1l-1.75-5.78A1.17,1.17,0,0,1,187.7,225.89Z"/><g class="cls-36"><path class="cls-32" d="M205.85,224.75a1.06,1.06,0,0,0-.8,1.57l.76,1.57a1.94,1.94,0,0,0,2,1l79.7-16.18a1.43,1.43,0,0,0,1.11-1.7l-.09-.45a1.5,1.5,0,0,0-1.73-1.14Z"/></g><path class="cls-32" d="M193.19,254.55a2.36,2.36,0,0,1-2.32-1.6l-2.2-7.23a1.7,1.7,0,0,1,.15-1.3,2,2,0,0,1,1.23-.93c.73-.19,1.76-.48,2.84-.79,2.29-.64,5.15-1.45,6.77-1.78a2.53,2.53,0,0,1,2.82,1.26c.78,1.61,1.36,4.82,1.93,8.26a2.23,2.23,0,0,1-1.91,2.46l-8.81,1.61A2.89,2.89,0,0,1,193.19,254.55Zm7-13a2,2,0,0,0-.42,0c-1.6.32-4.44,1.12-6.72,1.77l-2.85.79h0a1.28,1.28,0,0,0-.79.58,1,1,0,0,0-.09.74l2.2,7.23a1.71,1.71,0,0,0,2,1.06l8.81-1.61a1.51,1.51,0,0,0,1.33-1.63c-.56-3.38-1.13-6.54-1.87-8.07A1.77,1.77,0,0,0,200.23,241.58Z"/><path class="cls-38" d="M191.32,244.75c1.83-.48,5.77-1.66,7.67-2.05a1.74,1.74,0,0,1,1.93.85,30.62,30.62,0,0,1,1.52,6.52,1.49,1.49,0,0,1-1.29,1.64L194.1,253a1.66,1.66,0,0,1-1.92-1.05l-1.75-5.78A1.17,1.17,0,0,1,191.32,244.75Z"/><g class="cls-36"><path class="cls-32" d="M209.47,243.61a1.05,1.05,0,0,0-.79,1.57l.75,1.57a2,2,0,0,0,2,1l79.71-16.18a1.44,1.44,0,0,0,1.11-1.7l-.1-.45a1.49,1.49,0,0,0-1.72-1.14Z"/></g><path class="cls-39" d="M184.38,150.38l16-2.48a1.86,1.86,0,0,0,1.31-2.78,67.56,67.56,0,0,1-4-7.87,1.86,1.86,0,0,0-2-1.09L183.9,138a1.85,1.85,0,0,0-1.56,2,35.28,35.28,0,0,1-.09,8.29A1.85,1.85,0,0,0,184.38,150.38Z"/><path class="cls-40" d="M178.92,119.66a40.26,40.26,0,0,0-6.42,6.69,4.31,4.31,0,0,0-.25,5.69l3,3.73a6,6,0,0,1,1.32,3.3l.47,5.67a1.35,1.35,0,0,0,2.35.8,10.87,10.87,0,0,0,4.62-5.06Z"/><path class="cls-41" d="M197.06,116.85a40.29,40.29,0,0,1,8.15,4.43,4.31,4.31,0,0,1,2,5.34l-1.72,4.47a6.11,6.11,0,0,0-.25,3.54l1.26,5.54a1.35,1.35,0,0,1-2,1.48,10.86,10.86,0,0,1-5.93-3.42Z"/><path class="cls-42" d="M199.17,121c-.78-5-6.27-8.4-12.25-7.47s-10.2,5.77-9.41,10.83A8.26,8.26,0,0,0,180,129a5.72,5.72,0,0,1,1.74,4.7,6.85,6.85,0,0,0,0,1.69c.67,4.29,4.8,7.36,10.41,6.35,5.78-1,8.67-4.91,8-9.2a6.69,6.69,0,0,0-1.29-3.06,3.61,3.61,0,0,1-.4-3.75A8.11,8.11,0,0,0,199.17,121Z"/><path class="cls-43" d="M182.64,115.1c3.19,4.31,7.33,10.85,6.58,15.72-.13.8-.16,1.61-.88,2.11a12.27,12.27,0,0,0-3.92,4.08c-.45,1-.9,2.22-.1,3a7.81,7.81,0,0,0,6.06,1.85,1.71,1.71,0,0,0,1.28-.65,2.51,2.51,0,0,0,.45-1.66s.06,0,.07,0a2.75,2.75,0,0,0,.26.64,2.27,2.27,0,0,0,2.65.66,7.36,7.36,0,0,0,4.17-3.38c.53-.73-.08-2.28-.63-3-1-1.18-2.14-1.75-5.24-2.48a2.16,2.16,0,0,1-1.5-1.42c-1.41-3.65-1-11-.2-16.81A12.33,12.33,0,0,0,182.64,115.1Z"/><path class="cls-44" d="M193.44,133.9c.08.54-1.55,1.63-2.1,1.77s-2.44-.51-2.53-1,.88-1.15,2.16-1.35S193.35,133.35,193.44,133.9Z"/><circle class="cls-45" cx="193.72" cy="123.94" r="0.91"/><path class="cls-46" d="M186,125a.92.92,0,1,1-1.81.28A.92.92,0,0,1,186,125Z"/><path class="cls-47" d="M209.08,62.05c-5.06-2.24-8.92-1.44-11.49-.11a5.55,5.55,0,0,0-2.77,6.47L198.47,81l14.24-1.45S219,66.45,209.08,62.05Zm-4.17,11.54a3.55,3.55,0,1,1,2.82-4.16A3.55,3.55,0,0,1,204.91,73.59Z"/><path class="cls-34" d="M198.76,75.37a.36.36,0,0,1-.35-.26l-.58-2a.36.36,0,0,1,.7-.2l.58,2a.37.37,0,0,1-.25.45Zm-1.14-3.93a.36.36,0,0,1-.34-.26l-.44-1.53a5.31,5.31,0,0,1,2.64-6.18,10.62,10.62,0,0,1,5.08-1.19.36.36,0,1,1,0,.72h0a10,10,0,0,0-4.75,1.11,4.58,4.58,0,0,0-2.28,5.34L198,71a.34.34,0,0,1-.25.44Z"/><path class="cls-48" d="M181,93l-1.24-6.46A4,4,0,0,1,183,81.82l44.81-7a3.89,3.89,0,0,1,4.39,2.89l1.56,6.13Z"/><path class="cls-34" d="M194,82.23a.35.35,0,0,1-.35-.29.36.36,0,0,1,.28-.42l1.92-.37a.36.36,0,0,1,.13.71l-1.91.37Z"/><path class="cls-34" d="M182.91,90.53a.37.37,0,0,1-.36-.3l-.5-2.61a3.75,3.75,0,0,1,3-4.38l7-1.35a.36.36,0,0,1,.42.28.36.36,0,0,1-.29.43l-7,1.35a3,3,0,0,0-2.4,3.54l.5,2.61a.36.36,0,0,1-.29.42Z"/><path class="cls-49" d="M166.55,93.31l77.85-15A5.85,5.85,0,0,1,251,82l.14.37a5,5,0,0,1-3.76,6.72L167.5,104.47a3.28,3.28,0,0,1-3.86-2.75l-.51-3.61A4.27,4.27,0,0,1,166.55,93.31Z"/><path class="cls-34" d="M131.54,306a.4.4,0,0,1-.09-.78,77.07,77.07,0,0,1,57.09,3.48C212.82,320.19,228,332.25,233.43,337a1.86,1.86,0,0,1-.59,3.16c-8,2.87-30.63,9.73-45.63,1C169.28,330.8,151.86,308.16,131.54,306Z"/><path class="cls-50" d="M154.63,308s23.56-2,77.29,29.9C231.92,337.92,176.22,308.73,154.63,308Z"/><path class="cls-51" d="M251.5,333.26S205,259.68,149.62,230.13a5.62,5.62,0,0,0-8.19,5.13C142.7,263.43,154.61,346,251.5,333.26Z"/><path class="cls-50" d="M241.48,331a.24.24,0,0,1-.18.44c-10.41-3.1-52.76-21.38-84.42-76.37a.17.17,0,0,1,.28-.18C165.8,267.16,199.28,311.9,241.48,331Z"/><path class="cls-34" d="M347.12,127.77a32,32,0,0,1-10.13,0,3.09,3.09,0,0,1-3.08-3.08V96.14c0-3.64,16.28-3.49,16.28,0v28.55A3.08,3.08,0,0,1,347.12,127.77Z"/><path class="cls-51" d="M347.12,126.52a30.82,30.82,0,0,1-10,0,3.25,3.25,0,0,1-3.25-3.25V96.81a33.11,33.11,0,0,0,16.28,0v26.63A3.07,3.07,0,0,1,347.12,126.52Z"/><path class="cls-52" d="M348.05,119.81a48.16,48.16,0,0,1-12.35,0,1.19,1.19,0,0,1-1.19-1.2V103.18a1.19,1.19,0,0,1,1.19-1.2,47.66,47.66,0,0,0,12.35,0,1.19,1.19,0,0,1,1.19,1.2v15.43A1.19,1.19,0,0,1,348.05,119.81Z"/><path class="cls-51" d="M341.7,94.49s-2.38.18-2.38-1.19v-5a2.52,2.52,0,0,1,2.5-2.51h0a2.52,2.52,0,0,1,2.51,2.51v5C344.33,94.67,343.08,94.49,341.7,94.49Z"/><path class="cls-53" d="M344.15,88.55a13.66,13.66,0,0,1-4.6,0,.78.78,0,0,1-.77-.77v-3.6a1,1,0,0,1,1-1h3.88A1.37,1.37,0,0,1,345,84.58v3.09A.87.87,0,0,1,344.15,88.55Z"/><path class="cls-34" d="M364.68,128.29a31.73,31.73,0,0,1-10.13,0,3.08,3.08,0,0,1-3.07-3.07V96.66c0-3.63,16.28-3.49,16.28,0v28.56A3.09,3.09,0,0,1,364.68,128.29Z"/><path class="cls-51" d="M364.68,127a30.82,30.82,0,0,1-10,0,3.24,3.24,0,0,1-3.24-3.25V97.33a33.11,33.11,0,0,0,16.28,0V124A3.07,3.07,0,0,1,364.68,127Z"/><path class="cls-52" d="M365.61,120.33a47.2,47.2,0,0,1-12.34,0,1.2,1.2,0,0,1-1.2-1.2V103.7a1.2,1.2,0,0,1,1.2-1.2,47.15,47.15,0,0,0,12.34,0,1.2,1.2,0,0,1,1.2,1.2v15.43A1.2,1.2,0,0,1,365.61,120.33Z"/><path class="cls-51" d="M359.26,95s-2.38.18-2.38-1.19V88.87a2.51,2.51,0,0,1,2.51-2.5h0a2.51,2.51,0,0,1,2.5,2.5v4.95C361.89,95.19,360.64,95,359.26,95Z"/><path class="cls-53" d="M361.71,89.07a13.6,13.6,0,0,1-4.59,0,.76.76,0,0,1-.77-.77V84.7a1,1,0,0,1,1-1h3.88a1.38,1.38,0,0,1,1.38,1.38v3.09A.87.87,0,0,1,361.71,89.07Z"/><path class="cls-54" d="M399.5,112.05A152.6,152.6,0,0,0,410,141.66c2.33,5,10.18,2.4,6.68-3,2.87,5.2,10.4,2.65,7.11-3.08,3.61,5.41,9.45,1.06,5.63-3.82a107.41,107.41,0,0,1-24.31-22.5Z"/><path class="cls-126" d="M391,66.79l-3.77,42.26a8.37,8.37,0,0,0,5.68,8.47,18.22,18.22,0,0,0,11.72.15,8,8,0,0,0,5.62-8.14l-3.86-42.6a6,6,0,0,0-.48-1.86C403.15,58.78,394.36,57.7,391,66.79Z"/><path class="cls-56" d="M407.3,79.59a142.38,142.38,0,0,1,9.58,31,3.27,3.27,0,0,1-4.47,3.66c-9.62-4.11-15.11-15.15-12.64-33.36a3.18,3.18,0,0,1,.41-1.19c1.1-1.91,2.74-2.66,5.21-1.83A3.25,3.25,0,0,1,407.3,79.59Z"/><path class="cls-57" d="M408.28,109.38a17.33,17.33,0,0,1-4.68-2.61,19.54,19.54,0,0,0,8.81,7.46,3.27,3.27,0,0,0,4.47-3.66c-.09-.41-.17-.82-.25-1.22A10.62,10.62,0,0,1,408.28,109.38Z"/><path class="cls-58" d="M415.5,104.82a16.6,16.6,0,0,1-9-.48,15.65,15.65,0,0,1-5.78-3.78,24.63,24.63,0,0,0,2.85,6.21,17.33,17.33,0,0,0,4.68,2.61,10.62,10.62,0,0,0,8.35,0c-.32-1.54-.66-3.06-1-4.56Z"/><path class="cls-59" d="M406.53,104.34a16.6,16.6,0,0,0,9,.48l.12,0c-.33-1.44-.68-2.86-1.05-4.27a9.33,9.33,0,0,1-1.36.37,11,11,0,0,1-5.41-.21A12.85,12.85,0,0,1,402.18,97c-2-2.09-2.51-4.93-3-7.74a38.21,38.21,0,0,0,1.57,11.28A15.65,15.65,0,0,0,406.53,104.34Z"/><path class="cls-60" d="M391.35,66.41c5.84-4.33,8.92-2.9,10.23,2.21A4.89,4.89,0,0,1,398,74.55l-6,1.54Z"/><path class="cls-61" d="M380.7,76.32a33,33,0,0,0,11,.15,1.15,1.15,0,0,0,1-1.2l-.4-6.06C386.75,70.78,383.09,73.25,380.7,76.32Z"/><path class="cls-62" d="M390.7,66.4c-8.4.29-10.33,3.21-10.33,10.45,5.17-5.13,8.33-5.71,12.31-1.58.32-2.52.59-5.43-.08-7.54A1.92,1.92,0,0,0,390.7,66.4Z"/><circle class="cls-63" cx="396.81" cy="68.86" r="1.11"/><path class="cls-53" d="M404.87,124.66v-1.72h-22v1.72c0,1.09-.94,2-2.24,2.74-1.82,1-2.92,2.27-2.74,3.44v34.65c0,2.36,3,4.28,6.78,4.28h18.43c3.74,0,6.77-1.92,6.77-4.28V130.84c0-1.41-1.07-2.66-2.73-3.44C405.72,126.75,404.87,125.75,404.87,124.66Z"/><path class="cls-51" d="M403.12,124.66v-1.72H382.51v1.72a3.29,3.29,0,0,1-2.1,2.74,4.05,4.05,0,0,0-2.56,3.44v34.65c0,2.36,2.84,4.28,6.34,4.28h17.24c3.5,0,6.34-1.92,6.34-4.28V130.84a4.05,4.05,0,0,0-2.56-3.44A3.28,3.28,0,0,1,403.12,124.66Z"/><path class="cls-64" d="M377.68,132.62v32.1c0,2,2.86,3.65,6.39,3.65h17.38c3.54,0,6.4-1.64,6.4-3.65v-32.1c0-.11-2.86-2.07-2.88-2.19H380.16C380.14,130.55,377.68,132.51,377.68,132.62Z"/><path class="cls-65" d="M409.84,154.66q-15.91.65-32,0V136.44q15.84.54,32,0Z"/><rect class="cls-66" x="379.92" y="118.13" width="27.86" height="6.42" rx="3.21"/><rect class="cls-53" x="383.45" y="119.2" width="22.15" height="1.36" rx="0.55"/><path class="cls-53" d="M406.49,154q-12.69.45-25.47,0c-1,0-1.87-.65-1.87-1.38v-13.9c0-.78.94-1.41,2.07-1.37q12.43.36,25.09,0c1.12,0,2.06.59,2.06,1.37v13.9C408.37,153.37,407.54,154,406.49,154Z"/><path class="cls-67" d="M386.9,125.44a.35.35,0,0,1-.19.1.42.42,0,0,1-.49-.33c-.85-4.35.15-6.93,3.06-7.9a.42.42,0,0,1,.53.26.43.43,0,0,1-.26.53c-2.48.82-3.28,3-2.51,7A.4.4,0,0,1,386.9,125.44Z"/><path class="cls-68" d="M388.41,125.48a.47.47,0,0,1-.2.1.43.43,0,0,1-.49-.33c-.85-4.35.15-6.94,3.06-7.9a.41.41,0,0,1,.53.26.41.41,0,0,1-.26.52c-2.48.83-3.28,3-2.51,7A.42.42,0,0,1,388.41,125.48Z"/><path class="cls-69" d="M390.17,125.33a.46.46,0,0,1-.2.09.42.42,0,0,1-.49-.33c-.85-4.35.15-6.93,3.06-7.9a.43.43,0,0,1,.53.26.42.42,0,0,1-.26.53c-2.48.82-3.28,3-2.51,7A.45.45,0,0,1,390.17,125.33Z"/><path class="cls-70" d="M393.88,126.17a.42.42,0,0,1-.19.09.41.41,0,0,1-.49-.32c-.85-4.35.15-6.94,3.06-7.91a.43.43,0,0,1,.53.27.42.42,0,0,1-.27.52c-2.48.83-3.27,3-2.5,7A.44.44,0,0,1,393.88,126.17Z"/><path class="cls-71" d="M395.38,126.2a.35.35,0,0,1-.19.1.42.42,0,0,1-.49-.33c-.85-4.35.15-6.93,3.06-7.9a.42.42,0,0,1,.53.26.42.42,0,0,1-.27.53c-2.47.82-3.27,3-2.5,7A.4.4,0,0,1,395.38,126.2Z"/><path class="cls-72" d="M397.14,126.05a.44.44,0,0,1-.19.1.43.43,0,0,1-.49-.33c-.85-4.35.15-6.94,3.06-7.91a.42.42,0,0,1,.53.27.41.41,0,0,1-.26.52c-2.48.83-3.28,3-2.51,7A.4.4,0,0,1,397.14,126.05Z"/><path class="cls-73" d="M394.59,118.66l5.92.62,2-.55C399.19,117.22,396.7,117.54,394.59,118.66Z"/><path class="cls-74" d="M386.91,117.85l5.92.62,2-.55C391.51,116.41,389,116.73,386.91,117.85Z"/><path class="cls-53" d="M411.89,216.08a26.29,26.29,0,0,1-8.23,0,2.51,2.51,0,0,1-2.5-2.5v-23.2c0-2.95,13.23-2.84,13.23,0v23.2A2.51,2.51,0,0,1,411.89,216.08Z"/><path class="cls-75" d="M411.89,215.06a25.24,25.24,0,0,1-8.09,0,2.64,2.64,0,0,1-2.64-2.64V190.93a27.05,27.05,0,0,0,13.23,0v21.63A2.5,2.5,0,0,1,411.89,215.06Z"/><path class="cls-53" d="M412.64,209.61a39.07,39.07,0,0,1-10,0,1,1,0,0,1-1-1V196.1a1,1,0,0,1,1-1,39,39,0,0,0,10,0,1,1,0,0,1,1,1v12.53A1,1,0,0,1,412.64,209.61Z"/><path class="cls-51" d="M407.49,189s-1.94.15-1.94-1v-4a2,2,0,0,1,2-2h0a2,2,0,0,1,2,2v4C409.62,189.19,408.6,189,407.49,189Z"/><path class="cls-53" d="M409.48,184.22a11.44,11.44,0,0,1-3.74,0,.63.63,0,0,1-.62-.63v-2.92a.8.8,0,0,1,.8-.8h3.15a1.12,1.12,0,0,1,1.12,1.12v2.51A.71.71,0,0,1,409.48,184.22Z"/><path class="cls-34" d="M283.1,341.62s59.58-102.9,133.72-146.16A7.68,7.68,0,0,1,428.27,202C428,240.57,416.07,354,283.1,341.62Z"/><path class="cls-50" d="M296.65,338a.32.32,0,0,0,.28.58c14.05-4.76,70.92-31.95,111.28-108.7a.23.23,0,0,0-.39-.23C396.67,246.87,353.28,309.72,296.65,338Z"/><path class="cls-76" d="M236.4,343.27c-6.69-7.39-28.94-54.44-34.26-90.49-2.3-15.53,8.25-29.1,20.18-26,35.65,9.4,68.5,6.26,108.75-3.47,10.55-2.55,24,16.85,21.67,30.47-5.24,31.19-21,58.53-35.12,89.45Z"/><path class="cls-77" d="M220.2,342.69c6.42-12.67,18.1-14.32,27.71-1a4.84,4.84,0,0,1-2.22,7.39c-8.38,3.08-19.2,2.21-24.05-1A4.24,4.24,0,0,1,220.2,342.69Z"/><path class="cls-78" d="M324.85,345.57c-6.42-12.67-18.1-14.32-27.72-1a4.86,4.86,0,0,0,2.23,7.4c8.38,3.08,19.2,2.2,24.05-1A4.24,4.24,0,0,0,324.85,345.57Z"/><path class="cls-79" d="M266.35,347.71h-19.7c6.27-21.43-22.38-81.5-20-123.83l32.45-7.52C262.74,269.26,267.73,332.8,266.35,347.71Z"/><path class="cls-80" d="M284.74,349.6H299a2.5,2.5,0,0,0,2.47-2.88C298.07,323,321.72,274.34,322,232.93l-29.72-14.26a2.5,2.5,0,0,0-2.88,2.3c-3.41,49.85-7.93,108.16-7.18,126.24A2.51,2.51,0,0,0,284.74,349.6Z"/><path class="cls-81" d="M321.94,231.74c.52,4.24-2.12,9-5.91,10.6-27.48,11.51-53.33,9.88-81.81-.55-5-1.84-7.41-7-7.55-12.59-1-36.44,23.17-63.63,22.33-100.5h43.75C302.18,168.32,314.73,172.3,321.94,231.74Z"/><path class="cls-82" d="M239.42,349.34c6.42-12.67,18.1-14.32,27.71-1a4.85,4.85,0,0,1-2.22,7.4c-8.38,3.08-19.2,2.2-24.05-.95A4.26,4.26,0,0,1,239.42,349.34Z"/><path class="cls-83" d="M308.44,352c-6.41-12.67-18.1-14.33-27.71-1A4.84,4.84,0,0,0,283,358.4c8.37,3.08,19.2,2.2,24.05-.95A4.23,4.23,0,0,0,308.44,352Z"/><path class="cls-84" d="M248.22,74.51C239.57,80,232,85.46,227.06,90.68a12.38,12.38,0,0,0-3.22,16l6.83,11.91a17.44,17.44,0,0,1,2.28,9.94l-1.15,16.29a3.89,3.89,0,0,0,6.32,3.31c6.48-2.25,11.36-6.66,15.32-12.32Z"/><path class="cls-85" d="M300.93,74.51c8.65,5.51,16.25,10.95,21.16,16.17a12.38,12.38,0,0,1,3.22,16l-6.83,11.91a17.52,17.52,0,0,0-2.28,9.94l1.16,16.29a3.9,3.9,0,0,1-6.33,3.31c-6.48-2.25-11.36-6.66-15.32-12.32Z"/><path class="cls-86" d="M305.12,87.07c0-14.68-14.09-26.58-31.48-26.58s-31.48,11.9-31.48,26.58a23.55,23.55,0,0,0,4.92,14.27,16.45,16.45,0,0,1,2.87,14.1,19.38,19.38,0,0,0-.62,4.83c0,12.48,10.37,23,26.75,22.59,16.84-.41,26.75-10.11,26.75-22.59a19.59,19.59,0,0,0-2.34-9.24,10.39,10.39,0,0,1,.51-10.8A23.38,23.38,0,0,0,305.12,87.07Z"/><path class="cls-87" d="M260.78,63.21c7.15,13.63,16,34,11.75,47.48-.7,2.22-1.16,4.5-3.41,5.63-5.84,2.94-10.77,6.55-12.93,9.84-1.71,2.6-3.53,5.91-1.59,8.37,3.73,4.74,9.3,7.27,16.37,7.94a4.93,4.93,0,0,0,3.93-1.3,7.28,7.28,0,0,0,2-4.5.1.1,0,0,1,.19,0,7.66,7.66,0,0,0,.47,1.94,6.51,6.51,0,0,0,7.21,3c7.64-1.71,9.47-3.82,13.34-7.77,1.8-1.84.76-6.5-.51-8.67-2.19-3.76-5.3-5.9-13.76-9.33a6.22,6.22,0,0,1-3.64-4.71c-2.39-11,2.09-31.75,6.83-47.77C277.37,59,267,60.94,260.78,63.21Z"/><path class="cls-88" d="M283.15,121.3c0,1.58-5.09,3.94-6.72,4.1-1.35.13-6.72-2.52-6.72-4.1s3-2.87,6.72-2.87S283.15,119.72,283.15,121.3Z"/><circle class="cls-89" cx="288.33" cy="93.17" r="2.62"/><circle class="cls-90" cx="263.4" cy="92.85" r="2.62"/><path class="cls-91" d="M331.19,224.42l0,.05h0a.25.25,0,0,1,.05.13h0v.06a.94.94,0,0,0,0,.22v0c.21,1.24,1.36,4.62,2.6,9a.53.53,0,0,1,0,.12c2.79,9.82,6.81,24.37,8,31.22a33.63,33.63,0,0,0,5.49,1.35h0c4.83,1.33,12.11,2.27,18.89.49,0,0,3.76-28.86-.65-54.62a120.65,120.65,0,0,0-24.19-4.35l-.19,0c-1-.06-2-.1-3-.1h-.8c-.11,0-6.55,2.93-7.18,3.46C330.3,211.49,326.17,223.8,331.19,224.42Z"/><path class="cls-34" d="M325.13,214.93c-4.68,6.16-10.59,15.87-23.18,17.2a36.31,36.31,0,0,1-14.33-1.69L283,229.33s-1,4.52,9.57,7.58a38.17,38.17,0,0,0,9.66,3.14c9,1.7,22.35,1,31.69-13.89l4.17-18S331.31,206.78,325.13,214.93Z"/><path class="cls-92" d="M272.67,238.07a3,3,0,0,1,1.24-2.35l7.3-5.4s-.15-1.08-2.18-1.31a2.53,2.53,0,0,1-2.13-2.41s2.82.5,7,1.36a8.92,8.92,0,0,1,5,3.25l-1.38,3.31a38.43,38.43,0,0,1-14.93,5.16Z"/><path class="cls-93" d="M337,208.09h0Z"/><path class="cls-94" d="M334.88,207.94h0Z"/><path class="cls-95" d="M334.47,208h0Z"/><path class="cls-96" d="M341.85,348.13s.66,3.7,1,7.37a2.53,2.53,0,0,1-2.42,2.73c-4.87.2-15.31.6-19.05.43a.81.81,0,0,1-.72-1.12h0a1.79,1.79,0,0,1,.94-1l17.23-7.93Z"/><path class="cls-97" d="M342.39,346l-.53,4.42s-3,1.41-5.08-.17l1.25-4.94Z"/><path class="cls-98" d="M342,262.74c.22,1.16,1.21,57.68-4.83,83a.86.86,0,0,0,.51,1,15.32,15.32,0,0,0,4.92,1,1.48,1.48,0,0,0,1.46-1.07c1.73-5.87,10-35.32,11.09-63.45,1.2-31.43,0-1.07,0-1.07l-.71-19.43Z"/><path class="cls-99" d="M361.68,350.06a26.73,26.73,0,0,1,2.05,6.83,1.55,1.55,0,0,1-1.36,1.85c-1.61.16-4.09.36-6.07.35a1.54,1.54,0,0,1-1.52-1.72,12.93,12.93,0,0,1,3-7.1Z"/><path class="cls-100" d="M362.59,344.37l-1.22,6.69a4.32,4.32,0,0,1-3.62.25l.59-7.2Z"/><path class="cls-101" d="M365.91,264.48c4.94,29.82-1.07,73.71-3.1,82.3a1.35,1.35,0,0,1-1.08,1,9,9,0,0,1-3.87-.16,1.23,1.23,0,0,1-.88-1.13c-.27-6.94.22-49.58-4.39-66.43a3.84,3.84,0,0,0-1.47-2.11l-8.94-6.35-.68-10.27Z"/><path class="cls-32" d="M359.89,226.2l5.68-14.34s13.83,9.4,16.11,21.31a33,33,0,0,0-12,3.23C368.63,230.77,359.89,226.2,359.89,226.2Z"/><path class="cls-102" d="M349.42,196l4.71,13.62a.5.5,0,0,1-.22.6c-1.28.71-5.91,2.76-11.49-.78a2.32,2.32,0,0,1-1.06-1.65L339.83,196Z"/><path class="cls-32" d="M358.37,210.32l-5.63-4.77-8.41,20.54,6.13,81.6,19.16.57a.54.54,0,0,0,.36-.14.5.5,0,0,0,.14-.37l-2.67-78.5s-.08-17-1.88-17.39S358.37,210.32,358.37,210.32Z"/><path class="cls-34" d="M331.27,224.48l0,.13h0v.06l0,.22.15,0,1.72,16.21h0l6.54,67.61c0,.13,0,.25.09.34a.4.4,0,0,0,.33.09l10.35-1.49-3-40.58v-.06l-3.13-42-2.83-16.87h0l-.43-2.6L338.28,208h0l-.8.05h-.33c-.51.14-2.62.93-2.62.93s-.74.33-1.09.5l0,0-.31.16s.22,0,.21,0a.42.42,0,0,0-.27.39h0l-1.42,14.31-.16.05Z"/><polygon class="cls-51" points="340.74 225.92 340.74 227.92 333.37 227.47 333.37 225.25 340.74 225.92"/><path class="cls-34" d="M344.78,230.79a.16.16,0,0,1-.15-.09.18.18,0,0,1,.07-.25l6.38-3.43.9-6a.17.17,0,0,1,.14-.15l2.39-.43,2.46-8a.18.18,0,0,1,.35.11l-2.49,8.1a.19.19,0,0,1-.14.12l-2.38.42-.88,6a.21.21,0,0,1-.1.13l-6.46,3.47Z"/><path class="cls-32" d="M343.25,228.8a.13.13,0,0,1-.12-.07l-3.42-6a.14.14,0,0,1,0-.09l.55-3.32-2.73-1.45a.13.13,0,0,1-.07-.13l.7-9.76a.13.13,0,0,1,.14-.12.13.13,0,0,1,.13.14l-.69,9.67,2.73,1.46a.14.14,0,0,1,.07.14l-.56,3.37,3.4,5.95a.14.14,0,0,1-.05.18Z"/><path class="cls-32" d="M347.79,239.27s15.53,8.78,20.77,1.28a5.94,5.94,0,0,0,1.08-4.57,32.91,32.91,0,0,1,12-3.23A16.44,16.44,0,0,1,379.87,244c-9.18,16.79-34.14-.93-34.14-.93Z"/><path class="cls-34" d="M362.4,243.61c-4.7,0-10.68-2.28-11-2.4a5.67,5.67,0,0,1-2.92-2.27.18.18,0,0,1,.08-.24.18.18,0,0,1,.24.08,5.44,5.44,0,0,0,2.73,2.09c.11,0,10.33,3.93,14.48,1.66a.17.17,0,0,1,.24.07.17.17,0,0,1-.07.24A7.84,7.84,0,0,1,362.4,243.61Z"/><path class="cls-34" d="M368,251.43h0c-11.92-.41-18.74-5.89-18.8-6a.18.18,0,0,1,0-.25.19.19,0,0,1,.26,0c.06.06,6.79,5.46,18.58,5.87a.19.19,0,0,1,.18.19A.19.19,0,0,1,368,251.43Z"/><path class="cls-103" d="M337,183s-2.27,8.27-1.92,12.38-.14,6.89,4.7,7,8.48-2.77,10.05-7.15c0,0,2.48-6.75,1.36-9.21S337,183,337,183Z"/><path class="cls-104" d="M356.27,183.49c-1-.64-1.71-.42-2.1-.1a.31.31,0,0,1-.35,0c0-.12-.8-8.57-12.31-7.08a3,3,0,0,1-3-1.48c-1.36-2.4-3.94-5.92-5.89-2.48-2.78,4.9-3.6,11.33,4.26,12.66.46.08.93.15,1.4.2,3.25.8,6.94,1.05,8.31,1.39,2.29.58.54,5.9.54,5.9l.6-.08,1.27-.18c.19,0,.37.18.38.36l.3,3.64a.34.34,0,0,0,.29.32c.58.06,2.09,0,4.41-1.7s1.18-2.51.48-2.83a.32.32,0,0,1-.08-.51C357.9,188.19,358.06,184.61,356.27,183.49Z"/><path class="cls-105" d="M347.74,193.37s.58-5.15,3-4.08-.36,5.74-2.12,6.18Z"/><path class="cls-34" d="M334.87,183.5a.21.21,0,0,0,.1-.06.17.17,0,0,0,0-.23,6.42,6.42,0,0,1-2.71-4.5,8.11,8.11,0,0,1,2-5.39.16.16,0,0,0,0-.23.17.17,0,0,0-.23,0,8.33,8.33,0,0,0-2.06,5.63,6.76,6.76,0,0,0,2.83,4.73A.17.17,0,0,0,334.87,183.5Z"/><path class="cls-94" d="M334.88,207.94h0Z"/><polygon class="cls-34" points="322.77 243.42 322.84 243.54 314.38 248.1 313.72 248.31 322.77 243.42"/><path class="cls-106" d="M323.32,242.43l.65,1.2-2,1a.39.39,0,0,1-.49-.16l-.21-.4a.37.37,0,0,1,.14-.49Z"/><path class="cls-53" d="M331.42,229.86h0a2.27,2.27,0,0,1,2.27,2.27v15.69a0,0,0,0,1,0,0h-4.53a0,0,0,0,1,0,0V232.12A2.27,2.27,0,0,1,331.42,229.86Z" transform="translate(278.65 643.92) rotate(-118.35)"/><path class="cls-107" d="M340.36,236.2l-14,7.56a1.83,1.83,0,0,1-2.48-.74l-.09-.18a1.82,1.82,0,0,1,.74-2.47l14-7.56Z"/><path class="cls-34" d="M340.36,236.2l-14,7.56a1.83,1.83,0,0,1-2.48-.74l-.09-.18a1.82,1.82,0,0,1,.74-2.47l14-7.56Z"/><path class="cls-108" d="M325.31,239.28h5.35a0,0,0,0,1,0,0v3.85a0,0,0,0,1,0,0h-5.35a1.92,1.92,0,0,1-1.92-1.92v0A1.92,1.92,0,0,1,325.31,239.28Z" transform="translate(-75.32 184.26) rotate(-28.36)"/><rect class="cls-109" x="336.43" y="228.77" width="0.51" height="14.44" transform="translate(288.92 644.36) rotate(-118.36)"/><rect class="cls-110" x="328.22" y="239.24" width="3.86" height="0.55" transform="translate(276.17 643.8) rotate(-118.36)"/><path class="cls-111" d="M338.43,231.91l2.62,4.86a.27.27,0,0,1-.11.37h0a.28.28,0,0,1-.37-.11L338,232.17a.28.28,0,0,1,.11-.37h0A.27.27,0,0,1,338.43,231.91Z"/><path class="cls-112" d="M342,230l2.63,4.85a.28.28,0,0,1-.11.37h0a.28.28,0,0,1-.37-.11l-2.62-4.86a.27.27,0,0,1,.11-.36h0A.26.26,0,0,1,342,230Z"/><path class="cls-113" d="M346.72,243.26c.64.37,1.23.81,1.91,1.18l.07,0s.07-.05.09-.09a3.75,3.75,0,0,0,.54-1.41,10.44,10.44,0,0,0,.06-1.85,3.81,3.81,0,0,0-.77-2.11,2.21,2.21,0,0,1-.26-1.64,4.59,4.59,0,0,0-.44-1.81,13.61,13.61,0,0,0-2.68-3.91l-1.41-1.57c-.35-.38-.81-.81-1.31-.67-.21.11-.1,1.62,0,1.89a12.75,12.75,0,0,0,.91,2.2,1.25,1.25,0,0,1,.14.59c-1.66-.29-3.34-.51-5-.66-.81-.07-3.68-.72-4.05.27s2.46,1.25,3,1.48c1,.42,1.85,1.22,1.26,2.26a2.34,2.34,0,0,0-.4,1.13c0,1.94,3.15,2.67,4.55,3.16,1,.36,2.08.72,3.1,1.15A5.45,5.45,0,0,1,346.72,243.26Z"/><path class="cls-114" d="M357.56,236l-.83,0c.07-1.38.15-2.78.23-4.17.61-10.82,1-23.14-1.53-24l-.74-.64c2.6-.07,3.34,3.06,3.57,8.39.2,4.51-.14,10.48-.47,16.25C357.71,233.24,357.64,234.64,357.56,236Z"/><ellipse class="cls-115" cx="356.7" cy="237.59" rx="2.54" ry="3.12"/><path class="cls-53" d="M358.26,237.66c0,1.32-.7,2.39-1.55,2.39s-1.54-1.07-1.54-2.39.69-2.4,1.54-2.4S358.26,236.34,358.26,237.66Z"/><path class="cls-116" d="M335,216.25l-.83,0c.26-5.67,1.69-8.82,5-9l-.89.83C336.58,208.5,335.26,211,335,216.25Z"/><path class="cls-117" d="M334.41,231.55a5.65,5.65,0,0,1-.59,0c-.32,0-1.41-.23-1.75-.84s-1-8.13-.93-9.47c0-2.18.34-4.77,2.42-5.47.83-.28,2,.49,2.51,1a8.66,8.66,0,0,1,1.88,2.84,25.72,25.72,0,0,1,1.43,4.22c.38,1.41,1.28,6.33.95,6.77a2.36,2.36,0,0,1-1.77.67l0-.42a2,2,0,0,0,1.46-.49,35.53,35.53,0,0,0-1-6.43,25.5,25.5,0,0,0-1.41-4.15,8.31,8.31,0,0,0-1.78-2.7c-.52-.48-1.5-1.11-2.09-.9-1.84.61-2.11,3-2.15,5.08,0,1.6.56,8.67.89,9.26a2.06,2.06,0,0,0,1.44.62,2.17,2.17,0,0,0,1.57-.22l.3.29A2,2,0,0,1,334.41,231.55Z"/><path class="cls-118" d="M339.6,230.7c.06.27-.39.59-1,.72s-1.14,0-1.2-.24.39-.58,1-.72S339.54,230.44,339.6,230.7Z"/><path class="cls-119" d="M336,231c.06.27-.38.59-1,.72s-1.14,0-1.2-.24.38-.59,1-.72S335.9,230.73,336,231Z"/><path class="cls-120" d="M331.35,222.5a.41.41,0,0,1-.42-.4c0-.31,0-.61,0-.91,0-2.24.36-4.91,2.57-5.66,1.13-.38,2.55.89,2.71,1a8.84,8.84,0,0,1,1.93,2.9,17.77,17.77,0,0,1,.71,1.8.41.41,0,0,1-.78.28,17.81,17.81,0,0,0-.69-1.73,8.16,8.16,0,0,0-1.74-2.64c-.58-.54-1.44-1-1.88-.86-1.71.58-2,2.92-2,4.89v.87a.41.41,0,0,1-.41.42Z"/></g></g></g></g></svg>