<svg xmlns="http://www.w3.org/2000/svg" width="20.101" height="20.1" viewBox="0 0 20.101 20.1">
  <path id="Icon_awesome-check-circle" data-name="Icon awesome-check-circle" d="M163.325,2090.1a10.051,10.051,0,1,1-10.051-10.05,10.051,10.051,0,0,1,10.051,10.05Zm-11.217,5.322,7.459-7.457a.649.649,0,0,0,0-.917h0l-.917-.917a.648.648,0,0,0-.916,0h0l-6.081,6.083-2.844-2.839a.647.647,0,0,0-.916,0h0l-.916.917a.646.646,0,0,0,0,.916h0l4.214,4.216a.649.649,0,0,0,.917,0Z" transform="translate(-143.224 -2080.055)" fill="#2193d1"/>
</svg>
