<svg xmlns="http://www.w3.org/2000/svg" xmlns:xlink="http://www.w3.org/1999/xlink" width="277.453" height="547.12" viewBox="0 0 277.453 547.12">
  <defs>
    <radialGradient id="radial-gradient" cx="0.5" cy="0.5" r="0.5" gradientTransform="translate(0)" gradientUnits="objectBoundingBox">
      <stop offset="0"/>
      <stop offset="0.11" stop-color="#333"/>
      <stop offset="0.239" stop-color="#696969"/>
      <stop offset="0.37" stop-color="#969696"/>
      <stop offset="0.499" stop-color="#bcbcbc"/>
      <stop offset="0.628" stop-color="#d9d9d9"/>
      <stop offset="0.755" stop-color="#eee"/>
      <stop offset="0.88" stop-color="#fafafa"/>
      <stop offset="1" stop-color="#fff"/>
    </radialGradient>
  </defs>
  <g id="Group_642" data-name="Group 642" transform="translate(-48.764 -2475.189)">
    <g id="Group_134" data-name="Group 134" transform="translate(326.217 2708.803) rotate(90)">
      <g id="Group_133" data-name="Group 133" transform="translate(0)">
        <g id="Group_132" data-name="Group 132">
          <path id="Path_3171" data-name="Path 3171" d="M222.591,5.667l.251.035a2.636,2.636,0,0,0,.746-5.22l-.3-.042a2.636,2.636,0,0,0-.7,5.227Zm-23.664-.394h.28a2.636,2.636,0,0,0,0-5.273h-.28a2.636,2.636,0,1,0,0,5.273ZM243.3,14.241l.206.157a2.636,2.636,0,1,0,3.22-4.174l-.238-.182a2.636,2.636,0,1,0-3.188,4.2ZM174.893,5.273h.28a2.636,2.636,0,0,0,0-5.273h-.28a2.636,2.636,0,0,0,0,5.273ZM257.25,32.124a2.636,2.636,0,1,0,4.85-2.067l-.116-.273a2.636,2.636,0,1,0-4.836,2.1Zm3.5,22.213v.28a2.637,2.637,0,0,0,5.273,0v-.28a2.637,2.637,0,0,0-5.273,0ZM38.6,118.694a3.662,3.662,0,1,0-3.662-3.662A3.667,3.667,0,0,0,38.6,118.694ZM2.2,117.229H28.585a10.282,10.282,0,0,0,7.816,7.816v55.677A48.989,48.989,0,0,0,70.2,227.24l.026.007A48.714,48.714,0,0,0,85.3,229.624h131.38A48.731,48.731,0,0,0,231.6,227.3h0A49.427,49.427,0,0,0,255.978,209.8a48.469,48.469,0,0,0,9.608-29.082V78.547a2.2,2.2,0,1,0-4.393,0V180.721a44.4,44.4,0,0,1-30.931,42.392h0a44.332,44.332,0,0,1-13.577,2.117H85.3a44.335,44.335,0,0,1-13.74-2.17l-.012,0A44.424,44.424,0,0,1,40.8,180.721V125.045a10.251,10.251,0,0,0,0-20.026V49.342A44.558,44.558,0,0,1,85.3,4.833h65.69a2.2,2.2,0,0,0,0-4.394H85.3a48.958,48.958,0,0,0-48.9,48.9v55.677a10.282,10.282,0,0,0-7.816,7.816H2.2a2.2,2.2,0,0,0,0,4.394Zm36.4-8.055a5.859,5.859,0,1,1-5.86,5.858A5.865,5.865,0,0,1,38.6,109.173Z" fill="#2d4f76"/>
        </g>
      </g>
      <rect id="Rectangle_294" data-name="Rectangle 294" width="222.767" height="222.767" rx="41.236" transform="translate(90.738 54.686)" opacity="0.9" fill="url(#radial-gradient)" style="mix-blend-mode: multiply;isolation: isolate"/>
      <rect id="Rectangle_295" data-name="Rectangle 295" width="195.498" height="195.498" rx="36.188" transform="translate(52.917 17.063)" fill="#f7f6f6"/>
    </g>
    <g id="Group_137" data-name="Group 137" transform="translate(325.997 2475.189) rotate(90)">
      <g id="Group_136" data-name="Group 136" transform="translate(0 0)">
        <g id="Group_135" data-name="Group 135">
          <path id="Path_3172" data-name="Path 3172" d="M3.262.062,3.01.027a2.636,2.636,0,1,0-.746,5.22l.3.042a2.754,2.754,0,0,0,.351.023A2.636,2.636,0,0,0,3.262.062Z" transform="translate(40.174 223.895)" fill="#2193d1"/>
          <path id="Path_3173" data-name="Path 3173" d="M2.914,0H2.636a2.636,2.636,0,0,0,0,5.273h.278A2.636,2.636,0,1,0,2.914,0Z" transform="translate(64.183 224.352)" fill="#2193d1"/>
          <path id="Path_3174" data-name="Path 3174" d="M4.452.707,4.246.549a2.636,2.636,0,0,0-3.22,4.175l.239.182A2.636,2.636,0,1,0,4.452.707Z" transform="translate(18.272 214.677)" fill="#2193d1"/>
          <path id="Path_3175" data-name="Path 3175" d="M2.916,0h-.28a2.636,2.636,0,0,0,0,5.273h.28A2.636,2.636,0,0,0,2.916,0Z" transform="translate(88.215 224.352)" fill="#2193d1"/>
          <path id="Path_3176" data-name="Path 3176" d="M5.062,1.6A2.636,2.636,0,0,0,.211,3.67l.116.272a2.636,2.636,0,0,0,4.837-2.1Z" transform="translate(3.712 195.896)" fill="#2193d1"/>
          <path id="Path_3177" data-name="Path 3177" d="M5.273,2.915V2.636A2.637,2.637,0,0,0,0,2.636v.279a2.637,2.637,0,0,0,5.273,0Z" transform="translate(0 172.371)" fill="#2193d1"/>
          <circle id="Ellipse_44" data-name="Ellipse 44" cx="3.662" cy="3.662" r="3.662" transform="translate(223.766 110.931)" fill="#2193d1"/>
          <path id="Path_3178" data-name="Path 3178" d="M263.389,112.4H237a10.281,10.281,0,0,0-7.817-7.816V48.9a48.986,48.986,0,0,0-33.8-46.518l-.026-.006A48.719,48.719,0,0,0,180.281,0H48.9a48.739,48.739,0,0,0-14.92,2.327h0A49.437,49.437,0,0,0,9.608,19.821,48.465,48.465,0,0,0,0,48.9V151.078a2.2,2.2,0,1,0,4.393,0V48.9A44.4,44.4,0,0,1,35.325,6.511h0A44.36,44.36,0,0,1,48.9,4.394h131.38a44.339,44.339,0,0,1,13.74,2.17l.012,0A44.426,44.426,0,0,1,224.79,48.9V104.58a10.251,10.251,0,0,0,0,20.026v55.677a44.56,44.56,0,0,1-44.509,44.509h-65.69a2.2,2.2,0,1,0,0,4.394h65.69a48.96,48.96,0,0,0,48.9-48.9v-29.2l0-.012V124.605A10.28,10.28,0,0,0,237,116.789h26.389a2.2,2.2,0,0,0,0-4.394Zm-36.4,8.056a5.859,5.859,0,1,1,5.857-5.859A5.866,5.866,0,0,1,226.988,120.451Z" transform="translate(0.439)" fill="#2193d1"/>
        </g>
      </g>
      <rect id="Rectangle_296" data-name="Rectangle 296" width="222.767" height="222.767" rx="41.236" transform="translate(55.104 54.466)" opacity="0.9" fill="url(#radial-gradient)" style="mix-blend-mode: multiply;isolation: isolate"/>
      <rect id="Rectangle_297" data-name="Rectangle 297" width="195.498" height="195.498" rx="36.188" transform="translate(17.283 16.844)" fill="#f7f6f6"/>
    </g>
    <g id="Group_138" data-name="Group 138" transform="translate(194 2780.56)">
      <path id="Path_3179" data-name="Path 3179" d="M5092.425,295.259a1.227,1.227,0,0,0,.814-1.145v-.055a1.242,1.242,0,0,0-1.659-1.174,7.418,7.418,0,1,0,9.509,9.541,1.242,1.242,0,0,0-1.173-1.662h-.054a1.231,1.231,0,0,0-1.146.811,4.9,4.9,0,1,1-6.292-6.315Z" transform="translate(-5074.426 -279.116)" fill="#676767"/>
      <path id="Path_3180" data-name="Path 3180" d="M5095.686,288.857a1.264,1.264,0,0,0,1.288-.624h0a1.261,1.261,0,0,0-.91-1.867,13.551,13.551,0,1,0,11.42,11.434,1.26,1.26,0,1,0-2.492.379,11.029,11.029,0,1,1-9.306-9.322Z" transform="translate(-5074.36 -279.047)" fill="#676767"/>
      <path id="Path_3181" data-name="Path 3181" d="M5111.151,293.665h0a1.264,1.264,0,0,0-.593,1.443,17.181,17.181,0,1,1-11.934-11.946,1.265,1.265,0,0,0,1.444-.592h0a1.259,1.259,0,0,0-.749-1.831,19.7,19.7,0,1,0,13.662,13.675A1.258,1.258,0,0,0,5111.151,293.665Z" transform="translate(-5074.295 -278.981)" fill="#676767"/>
      <path id="Path_3182" data-name="Path 3182" d="M5100.13,292l-6.823,6.823a1.26,1.26,0,0,0,1.782,1.783l6.823-6.824,1.477-1.477a2.135,2.135,0,0,0,.376.034h4.851a2.173,2.173,0,0,0,1.549-.643l3-3a2.189,2.189,0,0,0-1.874-3.713l-.68.1-2.1.318.316-2.1.1-.68a2.19,2.19,0,0,0-3.714-1.876l-3,3a2.174,2.174,0,0,0-.643,1.548v4.85a2.173,2.173,0,0,0,.034.377Zm3.964-6.567,2.2-2.2-.335,2.228a2.187,2.187,0,0,0,1.791,2.484,2.184,2.184,0,0,0,.7.008l2.229-.335-2.195,2.2h-4.386v-4.385Z" transform="translate(-5074.491 -278.982)" fill="#676767"/>
      <path id="Path_3183" data-name="Path 3183" d="M5114.75,279.34a1.257,1.257,0,0,0-1.78,0l-2.037,2.035a4.075,4.075,0,0,1,.056,1.518l-.035.244.244-.036a4.1,4.1,0,0,1,.612-.046,4.026,4.026,0,0,1,.905.1l2.036-2.036A1.254,1.254,0,0,0,5114.75,279.34Z" transform="translate(-5074.679 -278.971)" fill="#676767"/>
    </g>
    <g id="Group_139" data-name="Group 139" transform="translate(182.835 2502.715)">
      <path id="Path_3184" data-name="Path 3184" d="M4804.983,293.688l2.226-2.28-10.917-20.428-2.641,1.22-4.329-1.443a4.628,4.628,0,0,0-4.744,1.149l-2.6,2.654,0-.006h-8.715a2.156,2.156,0,0,0-1.293.435l-5.56,4.229-1.351,1.027h-1.773a2.14,2.14,0,0,0-2.139,2.147l-5.105,3.08,15.793,29.157,16.152-9.188a10.741,10.741,0,0,0,16.994-11.753Zm-41.7-11.321h1.773a2.207,2.207,0,0,0,.268-.017l1.607-.86,1.7-1.3,4.625-3.517h7.47l.781,1.4,6.172,11.045c-.106.094-.212.19-.316.291a10.723,10.723,0,0,0-1.1,1.24,10.49,10.49,0,0,0-1.262,2.134,10.687,10.687,0,0,0-.788,2.658c-.019.113-.033.225-.047.338a10.736,10.736,0,0,0,.7,5.416h0l-4.509-.828a2.149,2.149,0,0,0-1.989.688l-3.448,3.908L4763.747,283.3l-.476-.922A.022.022,0,0,1,4763.288,282.367Zm9.382,29.347-13.8-25.47,3.053-1.841,12.532,24.295,5.5-6.236a.012.012,0,0,1,.012,0l6.259,1.148c.069.091.138.184.21.273Zm30.3-11.77a8.418,8.418,0,0,1-1.066,2.115A8.61,8.61,0,0,1,4790,304.3l0,0a8.672,8.672,0,0,1-2.615-2.78l0,0a8.633,8.633,0,0,1,.986-10.088c.122-.137.25-.27.382-.4l0,0a8.588,8.588,0,0,1,1.7-1.308v0a8.659,8.659,0,0,1,8.1-.333,1.072,1.072,0,0,0,1.223-.2,1.049,1.049,0,0,0,.311-.748,1.062,1.062,0,0,0-.606-.963,10.79,10.79,0,0,0-10.065.39l-6.354-11.374,3.03-3.1a2.492,2.492,0,0,1,2.555-.619l5.127,1.709,1.585-.732,9.242,17.29-.578.592-.265.271a1.068,1.068,0,0,0-1.293,1.041.99.99,0,0,0,.031.25l-.02.02c.043.084.087.169.127.255.024.049.047.1.068.148.034.074.068.149.1.226s.061.149.091.224c.01.03.021.06.034.09A8.665,8.665,0,0,1,4802.967,299.943Z" transform="translate(-4756.043 -270.524)" fill="#676767"/>
      <path id="Path_3185" data-name="Path 3185" d="M4806.831,291.255a1.062,1.062,0,0,0-1.5,0l-6.448,6.553-2.554-2.554a1.061,1.061,0,0,0-1.5,1.5l4.055,4.056,7.949-8.054A1.062,1.062,0,0,0,4806.831,291.255Z" transform="translate(-4760.107 -272.681)" fill="#676767"/>
      <path id="Path_3186" data-name="Path 3186" d="M4769.5,286.465a1.055,1.055,0,0,0,.631-.209l5.853-4.341a1.061,1.061,0,1,0-1.265-1.7l-5.852,4.341a1.061,1.061,0,0,0,.633,1.914Z" transform="translate(-4757.353 -271.525)" fill="#676767"/>
      <path id="Path_3187" data-name="Path 3187" d="M4770.728,289.661a1.06,1.06,0,0,0,1.483.221l5.853-4.341a1.061,1.061,0,0,0-1.264-1.706l-5.852,4.341A1.059,1.059,0,0,0,4770.728,289.661Z" transform="translate(-4757.572 -271.908)" fill="#676767"/>
      <path id="Path_3188" data-name="Path 3188" d="M4772.691,293.168a1.061,1.061,0,0,0,1.485.22l5.853-4.341a1.061,1.061,0,0,0-1.265-1.7l-5.853,4.341A1.061,1.061,0,0,0,4772.691,293.168Z" transform="translate(-4757.78 -272.279)" fill="#676767"/>
      <path id="Path_3189" data-name="Path 3189" d="M4774.77,296.912a1.061,1.061,0,0,0,1.485.22l5.853-4.341a1.061,1.061,0,1,0-1.264-1.7l-5.854,4.341A1.063,1.063,0,0,0,4774.77,296.912Z" transform="translate(-4757.999 -272.674)" fill="#676767"/>
      <path id="Path_3190" data-name="Path 3190" d="M4776.852,300.537a1.063,1.063,0,0,0,1.486.221l5.853-4.341a1.061,1.061,0,1,0-1.265-1.7l-5.853,4.34A1.062,1.062,0,0,0,4776.852,300.537Z" transform="translate(-4758.219 -273.057)" fill="#676767"/>
    </g>
    <text id="Our_Remote_Manager_tools_give_you_even_more_visibility_into_your_remote_developer_s_work_with_automatic_time_tracking_and_virtual_daily_stand-ups." data-name="Our Remote Manager tools
give you even more visibility 
into your remote developer’s
work with automatic time 
tracking and virtual daily 
stand-ups." transform="translate(214 2589.334)" fill="#616160" font-size="11" font-family="Montserrat-Regular, Montserrat"><tspan x="-74.861" y="0">Our Remote Manager tools</tspan><tspan x="-78.645" y="16">give you even more visibility </tspan><tspan x="-78.903" y="32">into your remote developer’s</tspan><tspan x="-72.996" y="48">work with automatic time </tspan><tspan x="-69.74" y="64">tracking and virtual daily </tspan><tspan x="-29.018" y="80">stand-ups.</tspan></text>
    <text id="DAILY_UPDATES" data-name="DAILY UPDATES" transform="translate(163.5 2566.821)" fill="#2193d1" font-size="12" font-family="Montserrat-Bold, Montserrat" font-weight="700"><tspan x="0" y="0">DAILY UPDATES</tspan></text>
    <text id="High_visibility_makes_developers_easy_to_manage_and_ensures_that_they_constantly_work_on_what_s_most_valuable_to_you." data-name="High visibility makes 
developers easy to manage 
and ensures that they 
constantly work on what’s 
most valuable to you." transform="translate(214 2869.822)" fill="#616160" font-size="11" font-family="Montserrat-Regular, Montserrat"><tspan x="-58.008" y="0">High visibility makes </tspan><tspan x="-76.665" y="16">developers easy to manage </tspan><tspan x="-61.705" y="32">and ensures that they </tspan><tspan x="-73.211" y="48">constantly work on what’s </tspan><tspan x="-58.427" y="64">most valuable to you.</tspan></text>
    <text id="EASY_TO_MANAGE" data-name="EASY TO MANAGE" transform="translate(157 2848.309)" fill="#2193d1" font-size="12" font-family="Montserrat-Bold, Montserrat" font-weight="700"><tspan x="0" y="0">EASY TO MANAGE</tspan></text>
  </g>
</svg>
