<svg xmlns="http://www.w3.org/2000/svg" width="33" height="33" viewBox="0 0 33 33">
  <path id="Exclusion_18" data-name="Exclusion 18" d="M16.5,33A16.5,16.5,0,0,1,10.078,1.3,16.5,16.5,0,0,1,22.923,31.7,16.4,16.4,0,0,1,16.5,33ZM7.688,13.869a.214.214,0,0,0-.215.216v7.372A1.733,1.733,0,0,0,9.2,23.188h15a1.733,1.733,0,0,0,1.731-1.731V14.082a.218.218,0,0,0-.219-.216.208.208,0,0,0-.131.046c-.851.661-1.988,1.51-5.554,4.1-.11.08-.235.177-.368.279l-.007.005a5.477,5.477,0,0,1-2.937,1.432h-.03A5.39,5.39,0,0,1,13.76,18.3c-.138-.106-.266-.205-.381-.289-3.721-2.7-4.757-3.475-5.558-4.1A.219.219,0,0,0,7.688,13.869Zm9.017,4.7h.017a4.912,4.912,0,0,0,2.271-1.22l.01-.008c.127-.1.248-.192.349-.265,4.529-3.286,5.113-3.745,6.081-4.506l.173-.136a.869.869,0,0,0,.332-.681v-.685A1.733,1.733,0,0,0,24.206,9.34H9.2a1.733,1.733,0,0,0-1.731,1.731v.685a.867.867,0,0,0,.332.681l.232.182c.956.748,1.587,1.242,6.022,4.46.1.074.222.167.35.266l.009.007a4.911,4.911,0,0,0,2.27,1.22Z" fill="#fff"/>
</svg>
