<svg xmlns="http://www.w3.org/2000/svg" width="642.229" height="526.311" viewBox="0 0 642.229 526.311">
  <g id="Layer_2" data-name="Layer 2" transform="translate(-0.019 0.026)">
    <g id="_Layer_" data-name="&lt;Layer&gt;" transform="translate(0.019 -0.026)">
      <path id="Path_40" data-name="Path 40" d="M986.555,708.82a7.126,7.126,0,0,0,.966,9.978l163.448,135.523v-1.529l-162.721-134.9a5.949,5.949,0,0,1-.781-8.343l34.825-42.6a7.112,7.112,0,0,0-5.481-11.623l-64.576-.229-146.162-.567a7.115,7.115,0,0,0-6.967,8.677l25.106,111.638,6.5,28.894h0l14.009,62.277a7.115,7.115,0,0,0,12.448,2.942l33.274-40.7,9.72-11.892a5.931,5.931,0,0,1,8.38-.817l153.8,127.544h1.842l-154.9-128.43a7.112,7.112,0,0,0-10.047.973l-9.716,11.884L856.236,868.21a5.935,5.935,0,0,1-10.384-2.452l-14.205-63.174-6.24-27.735-25.167-111.9a5.938,5.938,0,0,1,5.79-7.239h.025l145.2.563,65.542.254a5.935,5.935,0,0,1,4.577,9.691Z" transform="translate(-508.754 -416.784)" fill="#66192d"/>
      <path id="Path_41" data-name="Path 41" d="M1045.117,844.367v61.075H923.048L784.56,790.625l-.912-.756L742.071,755.4a6.538,6.538,0,0,0-9.215.894l-7.075,8.637-.948,1.155h0l-3.585,4.384-31.389,38.392a6.538,6.538,0,0,1-11.412-2.695L632.838,603.354a6.538,6.538,0,0,1,6.385-7.954l19.185.076h0l17.986.069,21.448.084h0l7.962.029h0l12.277.047h5.031l29.555.116h0l19.229.076h0l78.059.3A6.538,6.538,0,0,1,855,606.878l-8.63,10.566-.963,1.173-25.214,30.848a6.516,6.516,0,0,0,.886,9.146Z" transform="translate(-402.889 -379.131)" fill="#553e93"/>
      <path id="Path_42" data-name="Path 42" d="M1440.492,285.149v81.608l-136.134-114.54a3.411,3.411,0,0,0-4.82.469l-19.1,23.384a3.414,3.414,0,0,1-5.975-1.413l-20.8-92.468A3.414,3.414,0,0,1,1257,178l96.085.363a3.414,3.414,0,0,1,2.633,5.575l-15.309,18.76a3.414,3.414,0,0,0,.465,4.791Z" transform="translate(-798.263 -113.338)" fill="#786ab5"/>
      <path id="Path_43" data-name="Path 43" d="M1125.6,1154.074H1013.06l-92.45-76.639a3.105,3.105,0,0,0-4.391.425l-25.966,31.76a3.113,3.113,0,0,1-5.448-1.286l-20.057-89.2-6.632-29.493a3.105,3.105,0,0,1,3.04-3.792h1.885l121.456.468a3.109,3.109,0,0,1,2.4,5.085l-21.281,26.032a3.106,3.106,0,0,0,.425,4.359Z" transform="translate(-546.392 -627.763)" fill="#ff8548"/>
      <path id="Path_44" data-name="Path 44" d="M121.327,1052.369a8.477,8.477,0,0,0,1.17,12.095l140.656,112.6h1.881l-141.8-113.516a7.293,7.293,0,0,1-1.01-10.413l14.165-16.741a8.474,8.474,0,0,0-6.44-13.947l-92.842-.363L8.526,1022H8.493a8.478,8.478,0,0,0-8.256,10.388l26.29,112.844a8.477,8.477,0,0,0,14.725,3.56l20.373-24.067a7.264,7.264,0,0,1,10.13-.98l66.6,53.349h1.885l-67.758-54.268a8.43,8.43,0,0,0-11.768,1.137l-20.369,24.074a7.3,7.3,0,0,1-12.68-3.059L1.385,1032.123a7.3,7.3,0,0,1,7.108-8.953h.025l28.858.105h0l92.573.363a7.3,7.3,0,0,1,5.543,11.993Z" transform="translate(-0.019 -650.783)" fill="#66192d"/>
      <path id="Path_45" data-name="Path 45" d="M1067.593,397.66s-4-8.939-14.129-7.82-8.921,10.079-13.744,9.24-11.572,0-13.021,5.6-7.955,2.521-8.2,7.264,7.475,8.122,16.4,3.923,13.261,3.269,25.788,1.91,14.093-3.033,21.514-2.179,7.246-5.06,3.872-8.979S1069.038,403.072,1067.593,397.66Z" transform="translate(-648.567 -248.173)" fill="rgba(36,146,209,0.27)"/>
      <path id="Path_46" data-name="Path 46" d="M1120.5,10.27S1115.3-1.353,1102.14.1s-11.6,13.1-17.863,12.008-15.044,0-16.926,7.264-10.341,3.269-10.653,9.462,9.712,10.555,21.31,5.085,17.238,4.239,33.536,2.484,18.313-3.941,27.968-2.848,9.418-6.578,5.03-11.674S1122.385,17.305,1120.5,10.27Z" transform="translate(-672.89 0.026)" fill="rgba(36,146,209,0.27)"/>
      <path id="Path_47" data-name="Path 47" d="M68.6,575.271s8.812-17.892,31.106-15.651,19.639,20.177,30.256,18.5,25.48,0,28.665,11.212,17.514,5.042,18.048,14.569-16.457,16.254-36.1,7.849-29.2,6.538-56.8,3.825-31.008-6.066-47.353-4.388S20.471,601.041,27.9,593.206,65.415,586.105,68.6,575.271Z" transform="translate(-14.641 -356.223)" fill="rgba(36,146,209,0.27)"/>
      <path id="Path_48" data-name="Path 48" d="M364.725,452.625a15.284,15.284,0,0,1,15.255-7.591c10.929,1.09,9.64,9.789,14.852,8.971s12.506,0,14.067,5.448,8.6,2.444,8.859,7.068-8.074,7.885-17.718,3.807-14.329,3.171-27.877,1.856-15.23-2.942-23.246-2.128-7.827-4.914-4.181-8.717S363.145,457.885,364.725,452.625Z" transform="translate(-217.992 -283.321)" fill="rgba(36,146,209,0.27)"/>
      <path id="Path_49" data-name="Path 49" d="M155.254,273.677a18.235,18.235,0,0,1,18.208-9.055c13.05,1.3,11.5,11.688,17.721,10.7s14.917,0,16.781,6.487,10.254,2.906,10.566,8.43-9.633,9.4-21.132,4.54-17.111,3.781-33.256,2.234-18.161-3.512-27.728-2.543-9.338-5.862-4.987-10.4S153.387,279.942,155.254,273.677Z" transform="translate(-81.862 -168.426)" fill="rgba(36,146,209,0.27)"/>
      <path id="Path_50" data-name="Path 50" d="M617.1,68.7c-8.412,2.7-24.88,7.341-24.88,7.341-.727-.647.814-28.157.814-28.157l-9.153.425s-8.815,33.536.276,40.317c9.331,6.941,31.426-2.426,31.426-2.426S622.525,66.96,617.1,68.7Z" transform="translate(-369.37 -30.48)" fill="#ffb27d"/>
      <path id="Path_51" data-name="Path 51" d="M610.2,131.535a.189.189,0,0,0,.167-.087c1.34-2.016,1.144-6.226,1.133-6.4a.2.2,0,0,0-.207-.185.192.192,0,0,0-.185.207c0,.044.2,4.257-1.068,6.175a.193.193,0,0,0,.054.272A.2.2,0,0,0,610.2,131.535Z" transform="translate(-388.448 -79.499)" fill="#ef8062"/>
      <path id="Path_52" data-name="Path 52" d="M716.142,265.9c-.784,3.2-13.987,6.4-29.9,2.771S660.4,263.5,658.91,259.089c0,0,14.26-5.652,30.172-2.027S716.927,262.7,716.142,265.9Z" transform="translate(-419.59 -162.911)" fill="#66192d"/>
      <path id="Path_53" data-name="Path 53" d="M644.675,122.8c-8.082-5.085-6.407-16.853-6.407-16.853a191.629,191.629,0,0,1,23.122-5.928,43.973,43.973,0,0,1,8.5-1.09c28.923,0,32.94,65.27,33.053,66.512a237.886,237.886,0,0,0-57.272-6.265C642.874,135.865,644.41,123.959,644.675,122.8Z" transform="translate(-406.354 -62.988)" fill="#ff8548"/>
      <path id="Path_54" data-name="Path 54" d="M649.74,122.178s-8.637-10.206-11.26-15.753a97.025,97.025,0,0,1,20.449-6.745Z" transform="translate(-406.58 -63.465)" fill="#ff8548"/>
      <path id="Path_55" data-name="Path 55" d="M702.83,99.469s24.248-2.819,36.783,5.633L723.958,117.3Z" transform="translate(-447.558 -63.043)" fill="#ff8548"/>
      <path id="Path_56" data-name="Path 56" d="M760.545,126.639c1.526,2.07,6.375,1.213,10.824-1.914s6.818-7.344,5.288-9.415-6.374-1.213-10.824,1.914S759.016,124.565,760.545,126.639Z" transform="translate(-484.014 -72.699)" fill="#66192d"/>
      <path id="Path_57" data-name="Path 57" d="M803.6,179.3a168.655,168.655,0,0,0-27.241-44.545,48.938,48.938,0,0,0-5.862-6.109c-1.547-1.333-.785-5.546,1.638-8.187,2.274-2.481,6.669-3.541,7.6-2.949,1.576,1.013,3.632,3.269,6.81,6.828,11.111,12.418,18.963,26.428,27.935,50.04Z" transform="translate(-490.138 -74.716)" fill="#ffb27d"/>
      <path id="Path_58" data-name="Path 58" d="M874.131,274.273a28.517,28.517,0,0,0-4.068-5.5s-8.826,2.237-9.08,3.091c-.578,1.965-.814,6.066-1.351,8.042-.233.857-.81,3.785.033,4.093.726.272,2.335-1.874,2.971-2.982,2.059,5.39,7.595,12.295,4.141.672h.018c.461,1.144,3.222,8.39,4.577,7.152,1.195-1.09-.636-6.618-1.377-8.5l.054-.029c.926,1.849,3.661,7.184,4.46,5.811,1-1.74-1.511-7.413-1.511-7.413s2.052,5.169,3.458,3.294c.959-1.279-1.057-5.292-1.914-7.061A3.431,3.431,0,0,0,874.131,274.273Z" transform="translate(-547.145 -171.139)" fill="#ffb27d"/>
      <path id="Path_59" data-name="Path 59" d="M692.768,71.911c3.327,1.522,9.182-2.266,11.667-5.085,0,0-3.189-.574-3.716-1.656a59.96,59.96,0,0,1-2.059-6.135V58l-2.713-9.48-.636,9.349-.167,2.285v.113l-.2,2.383v.044l-.055.792-.116,1.605c-.094,1.308-.5,1.693-2.07,2.012C692.7,67.1,689.942,70.614,692.768,71.911Z" transform="translate(-440.34 -30.887)" fill="#ffb27d"/>
      <path id="Path_60" data-name="Path 60" d="M712.56,568.5s-.1,3.941-2.906,5.052-10.918,2.118-7.885,4.649c1.743,1.453,9.945.516,12.259.516s4.489.959,6.211-.516c1.892-1.624,0-9.7,0-9.7a9.608,9.608,0,0,1-3.8.948A7.65,7.65,0,0,1,712.56,568.5Z" transform="translate(-446.456 -362.002)" fill="#66192d"/>
      <path id="Path_61" data-name="Path 61" d="M842.02,568.5s-.105,3.941-2.906,5.052-10.918,2.114-7.885,4.649c1.74,1.453,9.941.516,12.259.516s4.489.959,6.211-.516c1.892-1.624,0-9.7,0-9.7a9.568,9.568,0,0,1-3.8.944A7.63,7.63,0,0,1,842.02,568.5Z" transform="translate(-528.894 -362.002)" fill="#66192d"/>
      <path id="Path_62" data-name="Path 62" d="M677.605,270.851a2.336,2.336,0,0,0-2.3,2.368c.065,5.557.69,21.048,5.02,45.827,4,22.85,8.717,45.871,11.02,56.909a8.917,8.917,0,0,0,8.448,6.992l2.223.084a7.392,7.392,0,0,0,7.769-7.827l-5.612-74.674s9.309-25.926,3.066-27.517C698.414,270.756,683.326,270.76,677.605,270.851Z" transform="translate(-430.033 -172.446)" fill="#ff443c"/>
      <path id="Path_63" data-name="Path 63" d="M703.09,270.82l50.705,106.6c1.954,4.359,21.651,6.789,16.94-4.776l-28.128-95.708c-.421-1.159-11.231-2.989-12.349-3.309C724.142,271.877,703.09,270.82,703.09,270.82Z" transform="translate(-447.723 -172.444)" fill="#ff443c"/>
      <path id="Path_64" data-name="Path 64" d="M722.292,328.8a.274.274,0,0,0,.094,0,.258.258,0,0,0,.145-.334l-6.785-17.416a27.7,27.7,0,0,0-8.285-11.721,15.573,15.573,0,0,0-4.747-2.728.256.256,0,0,0-.145.49c.08.026,8.078,2.51,12.713,14.144l6.785,17.434A.254.254,0,0,0,722.292,328.8Z" transform="translate(-447.275 -188.855)" fill="#020202"/>
      <path id="Path_65" data-name="Path 65" d="M619.461,47.112l-22.545-3.807a2.11,2.11,0,0,1-1.729-2.434l.411-2.441a2.106,2.106,0,0,1,2.43-1.733L620.576,40.5a2.11,2.11,0,0,1,1.729,2.434l-.41,2.441a2.11,2.11,0,0,1-2.434,1.733Z" transform="translate(-378.993 -23.341)" fill="#553e93"/>
      <path id="Path_66" data-name="Path 66" d="M580.291,39.668l-21.76-3.676a2.764,2.764,0,0,1-2.259-3.185l.915-5.448a2.753,2.753,0,0,1,3.178-2.266l21.76,3.672a2.764,2.764,0,0,1,2.259,3.171l-.915,5.448a2.757,2.757,0,0,1-3.178,2.285Z" transform="translate(-354.206 -15.944)" fill="#ff443c"/>
      <path id="Path_67" data-name="Path 67" d="M509.166,26.509,474.661,20.7a2.263,2.263,0,0,1-1.871-2.626l1.591-9.476a2.266,2.266,0,0,1,2.608-1.86l34.506,5.811a2.274,2.274,0,0,1,1.856,2.615l-1.594,9.473A2.263,2.263,0,0,1,509.166,26.509Z" transform="translate(-301.05 -4.26)" fill="#786ab5"/>
      <path id="Path_68" data-name="Path 68" d="M466.641,18.1l-1.714-.291a1.733,1.733,0,0,1-1.42-2l2.179-12.887a1.736,1.736,0,0,1,1.979-1.424l1.714.287a1.736,1.736,0,0,1,1.42,2L468.62,16.672A1.736,1.736,0,0,1,466.641,18.1Z" transform="translate(-295.144 -0.928)" fill="#553e93"/>
      <path id="Path_69" data-name="Path 69" d="M597.026,24.88s-2.328-.988-3.218,1.148c-1.13,2.724.069,7.2.81,5.488a16.2,16.2,0,0,0,.941-3.247s-.843,5.416.487,5.187,2.052-4.638,2.052-4.638-.363,5.179.835,4.555,1.747-3.712,1.747-3.712-.534,4.188.824,3.429,1.09-3.854,1.3-5.19c.182-1.264-.57-1.791-1.816-1.878a3.552,3.552,0,0,0-1.99-.654c-.312.054-.57-.272-.784-.331A7.837,7.837,0,0,0,597.026,24.88Z" transform="translate(-377.839 -15.688)" fill="#ffb27d"/>
      <path id="Path_70" data-name="Path 70" d="M701,82.1a9.3,9.3,0,0,0,3.723-3.033h-.294l-3.269.65Z" transform="translate(-446.392 -50.341)" fill="#66192d"/>
      <path id="Path_71" data-name="Path 71" d="M723.407,48.34s-.6,1.453-.149,4.722c.665,4.722-5.085,5.91-6.3,4.424-.149-.185,1.235-7.911,1.235-7.911l1.9-.755Z" transform="translate(-456.548 -30.773)" fill="#1d1d1b"/>
      <path id="Path_72" data-name="Path 72" d="M676.584,32.239c.883-5.931,5.692-10.188,10.74-9.52s8.427,6.029,7.544,11.964-5.692,10.192-10.74,9.524S675.7,38.174,676.584,32.239Z" transform="translate(-430.755 -14.414)" fill="#ffb27d"/>
      <path id="Path_73" data-name="Path 73" d="M683.141,21.822c.2.363-2.059,5.7,8.5,8.452s5.946-10.533-1.947-11.87c-11.39-1.932-14.165,5.176-13.439,7.962S683.141,21.822,683.141,21.822Z" transform="translate(-430.564 -11.501)" fill="#1d1d1b"/>
      <path id="Path_74" data-name="Path 74" d="M716.26,46.38s3.738,4.994,1.544,9.3c0,0,2.942-2.31,3.146-3.291a36.741,36.741,0,0,0,.058-4.646Z" transform="translate(-456.109 -29.525)" fill="#1d1d1b"/>
      <path id="Path_75" data-name="Path 75" d="M716.905,52.965a2.351,2.351,0,0,1-3.269-.218,2.657,2.657,0,0,1,4.261-2.909A2.351,2.351,0,0,1,716.905,52.965Z" transform="translate(-454.256 -31.239)" fill="#ffb27d"/>
      <path id="Path_76" data-name="Path 76" d="M699.3,51.541a.2.2,0,0,1,.033-.381,2.343,2.343,0,0,1,2.608.933.2.2,0,0,1-.051.28.24.24,0,0,1-.291-.047,3.719,3.719,0,0,0-2.179-.777A.239.239,0,0,1,699.3,51.541Z" transform="translate(-445.228 -32.506)" fill="#080435"/>
      <path id="Path_77" data-name="Path 77" d="M680.816,49.793a.222.222,0,0,1-.167-.084.192.192,0,0,1,.047-.28,2.361,2.361,0,0,1,2.782-.084.2.2,0,0,1,.069.276.243.243,0,0,1-.291.062,3.748,3.748,0,0,0-2.314.069A.24.24,0,0,1,680.816,49.793Z" transform="translate(-433.407 -31.15)" fill="#080435"/>
      <path id="Path_78" data-name="Path 78" d="M684.266,56.088a.766.766,0,0,1-.363,1.006.814.814,0,0,1-.886-.657.76.76,0,0,1,.381-1,.81.81,0,0,1,.868.654Z" transform="translate(-434.91 -35.288)" fill="#080435"/>
      <path id="Path_79" data-name="Path 79" d="M686.46,65.77s.363,2.877,2.6,3.026a2.955,2.955,0,0,0,2.967-2.343A9.5,9.5,0,0,1,686.46,65.77Z" transform="translate(-437.133 -41.872)" fill="#fff"/>
      <path id="Path_80" data-name="Path 80" d="M701.694,58.9a.1.1,0,0,0,.091-.054.1.1,0,0,0-.04-.142,3.807,3.807,0,0,0-2.688-.418.109.109,0,0,0-.073.131.105.105,0,0,0,.127.076,3.632,3.632,0,0,1,2.542.392A.1.1,0,0,0,701.694,58.9Z" transform="translate(-445.106 -37.049)" fill="#020202"/>
      <path id="Path_81" data-name="Path 81" d="M724.918,68.047a9.936,9.936,0,0,0-3.5,3.153c-2.96,3.759-7.791.418-7.555-1.482.044-.236,6.582-4.587,6.582-4.587l1.856.846Z" transform="translate(-454.579 -41.464)" fill="#1d1d1b"/>
      <path id="Path_82" data-name="Path 82" d="M717.086,23.563c-.12.4-5.535,2.459-.214,11.986s11.71-3,7.214-9.622c-6.491-9.56-13.533-6.629-15.052-4.188S717.086,23.563,717.086,23.563Z" transform="translate(-451.404 -12.293)" fill="#1d1d1b"/>
      <path id="Path_83" data-name="Path 83" d="M382.954,1096.343H270.408L138.288,986.775a3.109,3.109,0,0,0-4.391.425l-25.977,31.778a3.109,3.109,0,0,1-5.448-1.282l-16.9-75.153h0l-.262-1.177-9.524-42.38a3.109,3.109,0,0,1,3.044-3.8l123.338.479a3.109,3.109,0,0,1,2.4,5.085l-21.277,26.028a3.1,3.1,0,0,0,.421,4.359Z" transform="translate(-48.217 -570.033)" fill="#ffba41"/>
    </g>
  </g>
</svg>
