<svg xmlns="http://www.w3.org/2000/svg" width="27" height="27" viewBox="0 0 27 27">
  <path id="Exclusion_3" data-name="Exclusion 3" d="M13.5,27A13.5,13.5,0,0,1,3.954,3.954,13.5,13.5,0,1,1,23.046,23.046,13.412,13.412,0,0,1,13.5,27ZM10.154,5.786a4.373,4.373,0,0,0-4.368,4.368v6.24a4.373,4.373,0,0,0,4.368,4.369h6.24a4.374,4.374,0,0,0,4.369-4.369v-6.24a4.373,4.373,0,0,0-4.369-4.368Zm6.24,13.728h-6.24a3.128,3.128,0,0,1-3.119-3.12v-6.24a3.128,3.128,0,0,1,3.119-3.119h6.24a3.128,3.128,0,0,1,3.12,3.119v6.24a3.128,3.128,0,0,1-3.12,3.12ZM13.274,9.53a3.744,3.744,0,1,0,3.744,3.744A3.748,3.748,0,0,0,13.274,9.53ZM17.33,8.282a.936.936,0,1,0,.936.936A.937.937,0,0,0,17.33,8.282ZM13.274,15.77a2.5,2.5,0,1,1,2.5-2.5A2.5,2.5,0,0,1,13.274,15.77Z" fill="#fff"/>
</svg>
