<svg xmlns="http://www.w3.org/2000/svg" width="27" height="27" viewBox="0 0 27 27">
  <path id="Exclusion_4" data-name="Exclusion 4" d="M13.5,27A13.5,13.5,0,0,1,8.245,1.061,13.5,13.5,0,0,1,18.755,25.939,13.416,13.416,0,0,1,13.5,27Zm2.665-14.718a1.417,1.417,0,0,1,1.211.544,2.744,2.744,0,0,1,.4,1.634v5.149h3.2V14.084a4.664,4.664,0,0,0-1.01-3.238,3.459,3.459,0,0,0-2.668-1.1,3.382,3.382,0,0,0-1.655.4,3.535,3.535,0,0,0-1.244,1.2V9.973H11.2c.019.308.029,1.274.029,2.87s-.01,3.874-.029,6.765h3.2v-5.38a1.878,1.878,0,0,1,.728-1.608A1.574,1.574,0,0,1,16.165,12.281ZM6.227,9.973v9.635h3.2V9.973Zm1.63-4.644A1.859,1.859,0,0,0,6.544,5.8a1.559,1.559,0,0,0-.5,1.19,1.605,1.605,0,0,0,.49,1.2,1.773,1.773,0,0,0,1.284.476h.014a1.864,1.864,0,0,0,1.327-.476,1.526,1.526,0,0,0,.49-1.154,1.634,1.634,0,0,0-.5-1.241A1.806,1.806,0,0,0,7.857,5.329Z" fill="#fff"/>
</svg>
