<svg xmlns="http://www.w3.org/2000/svg" width="33" height="33" viewBox="0 0 33 33">
  <path id="Exclusion_19" data-name="Exclusion 19" d="M16.5,33A16.5,16.5,0,0,1,10.078,1.3,16.5,16.5,0,0,1,22.923,31.7,16.4,16.4,0,0,1,16.5,33ZM16.415,6.111a6.644,6.644,0,0,0-6.637,6.637,14.851,14.851,0,0,0,1.037,5.081A29.843,29.843,0,0,0,13.1,22.537a40.575,40.575,0,0,0,3.318,4.812,40.412,40.412,0,0,0,3.318-4.812,29.843,29.843,0,0,0,2.281-4.708,14.854,14.854,0,0,0,1.037-5.081A6.644,6.644,0,0,0,16.415,6.111Zm0,10.7a4.065,4.065,0,1,1,4.065-4.065A4.07,4.07,0,0,1,16.415,16.813Zm0-6.637a2.572,2.572,0,1,0,2.572,2.572A2.575,2.575,0,0,0,16.415,10.176Z" fill="#fff"/>
</svg>
