<svg xmlns="http://www.w3.org/2000/svg" width="145.593" height="83.349" viewBox="0 0 145.593 83.349">
  <g id="Layer_2" data-name="Layer 2" transform="translate(0 0.067)">
    <g id="Layer_1" data-name="Layer 1" transform="translate(0 -0.067)">
      <path id="Path_1" data-name="Path 1" d="M124.687,26.347h-3.194a36.543,36.543,0,0,0-70.222,0H48.1A4.468,4.468,0,0,0,43.65,30.8V42.216A4.468,4.468,0,0,0,48.1,46.67h4.737v.041H56.8V46.67a31.262,31.262,0,1,1,59.138,0h8.723a4.468,4.468,0,0,0,4.454-4.454V30.8a4.468,4.468,0,0,0-4.427-4.454Z" transform="translate(-13.599 0.067)" fill="#2492d1"/>
      <path id="Path_2" data-name="Path 2" d="M94.925,64.349h0q4.819-.819,4.819-5.8V53.038q-2.313,2.182-8.02,2.2a12.4,12.4,0,0,1-9.156-3.4q-3.442-3.442-3.442-10.148L79,22.23a26.037,26.037,0,0,0,9.865,46.815,12.651,12.651,0,0,1,.688-1.15A8.261,8.261,0,0,1,94.925,64.349Z" transform="translate(-21.172 -6.88)" fill="#304973"/>
      <path id="Path_3" data-name="Path 3" d="M134.453,43.622a26,26,0,0,0-10.4-20.722c-2.313.723-3.442,2.437-3.442,5.15l.11,30.87a11.843,11.843,0,0,1-2,7.277,8.909,8.909,0,0,1-4.392,2.9,26.03,26.03,0,0,0,20.123-25.473Z" transform="translate(-35.62 -7.089)" fill="#2492d1"/>
      <path id="Path_4" data-name="Path 4" d="M95.212,44.8c1.115,1.246,2.836,1.866,5.177,1.859a7.358,7.358,0,0,0,5.384-1.866c1.253-1.239,1.866-3.387,1.852-6.478L107.6,25.959a12.289,12.289,0,0,1,1.962-6.988,8.062,8.062,0,0,1,1.714-1.893,26.051,26.051,0,0,0-9.439-1.728,25.714,25.714,0,0,0-8.372,1.418l.076,21.6Q93.535,42.926,95.212,44.8Z" transform="translate(-29.121 -4.736)" fill="#1d1d1b"/>
      <path id="Path_5" data-name="Path 5" d="M4.041,103.81v-4.3L0,93.16H3.1l2.313,3.931L7.7,93.16h3.112L6.788,99.514v4.3Z" transform="translate(0 -28.978)" fill="#304973"/>
      <path id="Path_6" data-name="Path 6" d="M15.12,98.418a5.419,5.419,0,0,1,5.7-5.508,5.51,5.51,0,1,1,0,11.015A5.415,5.415,0,0,1,15.12,98.418Zm8.592,0a2.905,2.905,0,1,0-2.891,3.077,2.871,2.871,0,0,0,2.891-3.077Z" transform="translate(-4.711 -28.9)" fill="#304973"/>
      <path id="Path_7" data-name="Path 7" d="M33.68,99.5V93.16h2.8V99.4a2.241,2.241,0,1,0,4.482,0V93.16h2.754v6.327c0,2.651-1.611,4.516-5.012,4.516S33.68,102.117,33.68,99.5Z" transform="translate(-10.493 -28.978)" fill="#304973"/>
      <path id="Path_8" data-name="Path 8" d="M51.08,103.807V93.157h5.335a3.546,3.546,0,1,1,0,7.077H53.827v3.573Zm6.244-7.1a1.143,1.143,0,0,0-1.281-1.15H53.827v2.313h2.217A1.143,1.143,0,0,0,57.324,96.7Z" transform="translate(-15.914 -28.975)" fill="#304973"/>
      <path id="Path_9" data-name="Path 9" d="M71.934,103.806l-1.8-3.573H68.754v3.573H66V93.155h5.335a3.442,3.442,0,0,1,3.7,3.546,3.222,3.222,0,0,1-2.155,3.229l2.169,3.91Zm.3-7.119a1.184,1.184,0,0,0-1.322-1.136H68.754v2.313h2.175a1.184,1.184,0,0,0,1.308-1.177Z" transform="translate(-20.562 -28.974)" fill="#304973"/>
      <path id="Path_10" data-name="Path 10" d="M80.54,98.418a5.7,5.7,0,1,1,5.7,5.508A5.419,5.419,0,0,1,80.54,98.418Zm8.592,0a2.905,2.905,0,1,0-2.891,3.077,2.871,2.871,0,0,0,2.878-3.077Z" transform="translate(-25.092 -28.9)" fill="#2492d1"/>
      <path id="Path_11" data-name="Path 11" d="M104.25,98.416a5.432,5.432,0,0,1,5.762-5.508,4.916,4.916,0,0,1,4.647,2.857L112.3,96.881a2.568,2.568,0,0,0-2.286-1.549,3.084,3.084,0,0,0,0,6.162,2.568,2.568,0,0,0,2.286-1.549l2.361,1.122a4.957,4.957,0,0,1-4.647,2.857A5.444,5.444,0,0,1,104.25,98.416Z" transform="translate(-32.479 -28.899)" fill="#304973"/>
      <path id="Path_12" data-name="Path 12" d="M120.3,98.418a5.7,5.7,0,1,1,5.7,5.508A5.419,5.419,0,0,1,120.3,98.418Zm8.592,0A2.905,2.905,0,1,0,126,101.495a2.871,2.871,0,0,0,2.891-3.077Z" transform="translate(-37.48 -28.9)" fill="#304973"/>
      <path id="Path_13" data-name="Path 13" d="M146.1,103.81l-4.5-6.162v6.162H138.84V93.16H141.7l4.31,5.859V93.16h2.754v10.65Z" transform="translate(-43.256 -28.978)" fill="#304973"/>
      <path id="Path_14" data-name="Path 14" d="M158.128,103.81V95.549H155.14V93.16h8.7v2.4h-2.967v8.261Z" transform="translate(-48.334 -28.978)" fill="#304973"/>
      <path id="Path_15" data-name="Path 15" d="M174.965,103.81l-.516-1.535h-4.2l-.53,1.535H166.6l4.007-10.65h3.442l4.021,10.65Zm-2.637-7.938-1.377,4.007H173.7Z" transform="translate(-51.904 -28.978)" fill="#304973"/>
      <path id="Path_16" data-name="Path 16" d="M182.88,98.416a5.436,5.436,0,0,1,5.762-5.508,4.909,4.909,0,0,1,4.647,2.857l-2.361,1.115a2.554,2.554,0,0,0-2.286-1.549,3.084,3.084,0,0,0,0,6.162,2.554,2.554,0,0,0,2.286-1.549l2.361,1.122a4.943,4.943,0,0,1-4.647,2.857A5.447,5.447,0,0,1,182.88,98.416Z" transform="translate(-56.976 -28.899)" fill="#304973"/>
      <path id="Path_17" data-name="Path 17" d="M201.828,103.81V95.549H198.84V93.16h8.7v2.4h-2.967v8.261Z" transform="translate(-61.949 -28.978)" fill="#304973"/>
      <circle id="Ellipse_1" data-name="Ellipse 1" cx="4.062" cy="4.062" r="4.062" transform="translate(57.217 65.311)" fill="#2492d1"/>
      <path id="Path_18" data-name="Path 18" d="M5.789,117.173a1.935,1.935,0,0,1,1.99-2,1.728,1.728,0,0,1,1.466.771l-.4.22a1.294,1.294,0,0,0-1.067-.558,1.57,1.57,0,0,0,0,3.139,1.322,1.322,0,0,0,1.067-.565l.406.22a1.742,1.742,0,0,1-1.473.785,1.935,1.935,0,0,1-1.99-2.01Z" transform="translate(-1.803 -35.835)" fill="#1d1d1b"/>
      <path id="Path_19" data-name="Path 19" d="M17.807,119.131,16.83,117.6h-.778v1.535H15.57v-3.862h1.556a1.129,1.129,0,0,1,1.212,1.191,1.067,1.067,0,0,1-1.005,1.122l1.04,1.577Zm.034-2.7a.688.688,0,0,0-.778-.737H16.052v1.453h1.012a.73.73,0,0,0,.778-.688Z" transform="translate(-4.851 -35.865)" fill="#1d1d1b"/>
      <path id="Path_20" data-name="Path 20" d="M24.56,119.132V115.27h2.533v.427H25.028v1.246h2.01v.427h-2v1.336h2.065v.427Z" transform="translate(-7.652 -35.867)" fill="#1d1d1b"/>
      <path id="Path_21" data-name="Path 21" d="M35.79,119.132l-.344-.861H33.525l-.344.861H32.63l1.556-3.862h.6l1.542,3.862Zm-1.308-3.373-.812,2.065h1.639Z" transform="translate(-10.166 -35.867)" fill="#1d1d1b"/>
      <path id="Path_22" data-name="Path 22" d="M42.885,119.129v-3.442H41.66v-.427h2.933v.427H43.36v3.442Z" transform="translate(-12.979 -35.864)" fill="#1d1d1b"/>
      <path id="Path_23" data-name="Path 23" d="M50.71,119.132V115.27h.482v3.862Z" transform="translate(-15.799 -35.867)" fill="#1d1d1b"/>
      <path id="Path_24" data-name="Path 24" d="M57.563,119.132,56,115.27h.551l1.308,3.332,1.3-3.332h.551l-1.556,3.862Z" transform="translate(-17.447 -35.867)" fill="#1d1d1b"/>
      <path id="Path_25" data-name="Path 25" d="M66,119.132V115.27h2.533v.427H66.468v1.246h2.01v.427h-2.01v1.336h2.065v.427Z" transform="translate(-20.562 -35.867)" fill="#1d1d1b"/>
      <path id="Path_26" data-name="Path 26" d="M80.59,119.132V115.27h.482v3.442h1.79v.427Z" transform="translate(-25.108 -35.867)" fill="#1d1d1b"/>
      <path id="Path_27" data-name="Path 27" d="M88.69,119.132V115.27h2.533v.427H89.158v1.246h2.01v.427h-2v1.336h2.065v.427Z" transform="translate(-27.631 -35.867)" fill="#1d1d1b"/>
      <path id="Path_28" data-name="Path 28" d="M99.92,119.132l-.344-.861H97.655l-.344.861H96.76L98.3,115.27h.592l1.556,3.862Zm-1.3-3.36-.819,2.065h1.639Z" transform="translate(-30.146 -35.867)" fill="#1d1d1b"/>
      <path id="Path_29" data-name="Path 29" d="M106.74,119.131v-3.862h1.322a1.935,1.935,0,1,1,0,3.862Zm2.809-1.928a1.418,1.418,0,0,0-1.487-1.508h-.84V118.7h.84a1.425,1.425,0,0,0,1.487-1.5Z" transform="translate(-33.255 -35.865)" fill="#1d1d1b"/>
      <path id="Path_30" data-name="Path 30" d="M116.16,118.55l.289-.372a1.6,1.6,0,0,0,1.212.558c.688,0,.909-.372.909-.688,0-1-2.286-.441-2.286-1.818,0-.64.565-1.081,1.329-1.081a1.818,1.818,0,0,1,1.377.551l-.289.351a1.46,1.46,0,0,0-1.122-.461c-.454,0-.792.248-.792.613,0,.867,2.286.372,2.286,1.811,0,.558-.379,1.136-1.425,1.136A1.928,1.928,0,0,1,116.16,118.55Z" transform="translate(-36.19 -35.829)" fill="#1d1d1b"/>
      <path id="Path_31" data-name="Path 31" d="M134.628,119.132v-3.249l-1.308,3.249h-.2l-1.336-3.249v3.249h-.475V115.27H132l1.2,2.974,1.2-2.974h.688v3.862Z" transform="translate(-40.91 -35.867)" fill="#1d1d1b"/>
      <path id="Path_32" data-name="Path 32" d="M144.57,119.132l-.344-.861H142.3l-.344.861h-.551l1.563-3.862h.592l1.556,3.862Zm-1.3-3.373-.819,2.065h1.639Z" transform="translate(-44.056 -35.867)" fill="#1d1d1b"/>
      <path id="Path_33" data-name="Path 33" d="M153.637,119.131l-.978-1.535h-.778v1.535H151.4v-3.862h1.556a1.129,1.129,0,0,1,1.219,1.163,1.074,1.074,0,0,1-1.012,1.122l1.046,1.577Zm0-2.7a.688.688,0,0,0-.771-.737h-.984v1.453H152.9a.73.73,0,0,0,.771-.688Z" transform="translate(-47.169 -35.865)" fill="#1d1d1b"/>
      <path id="Path_34" data-name="Path 34" d="M162.724,119.132l-1.466-1.735-.386.434v1.3h-.482V115.27h.482v1.99l1.707-1.99h.606l-1.611,1.831,1.756,2.031Z" transform="translate(-49.97 -35.867)" fill="#1d1d1b"/>
      <path id="Path_35" data-name="Path 35" d="M169.31,119.132V115.27h2.54v.427h-2.065v1.246h2.01v.427h-2.01v1.336h2.065v.427Z" transform="translate(-52.749 -35.867)" fill="#1d1d1b"/>
      <path id="Path_36" data-name="Path 36" d="M178.8,119.129v-3.442H177.58v-.427h2.926v.427H179.28v3.442Z" transform="translate(-55.325 -35.864)" fill="#1d1d1b"/>
      <path id="Path_37" data-name="Path 37" d="M186.62,119.132V115.27h.482v3.862Z" transform="translate(-58.142 -35.867)" fill="#1d1d1b"/>
      <path id="Path_38" data-name="Path 38" d="M195.233,119.132l-2.251-3.084v3.084H192.5V115.27h.5l2.224,3.015V115.27h.482v3.862Z" transform="translate(-59.974 -35.867)" fill="#1d1d1b"/>
      <path id="Path_39" data-name="Path 39" d="M202.089,117.173a1.935,1.935,0,0,1,1.99-2,1.838,1.838,0,0,1,1.5.688l-.386.241a1.425,1.425,0,0,0-1.115-.53,1.57,1.57,0,1,0,0,3.139,1.5,1.5,0,0,0,1.04-.42v-.778H203.79v-.392h1.8v1.377a1.983,1.983,0,0,1-1.515.688,1.941,1.941,0,0,1-1.99-2.01Z" transform="translate(-62.961 -35.835)" fill="#1d1d1b"/>
      <circle id="Ellipse_2" data-name="Ellipse 2" cx="0.861" cy="0.861" r="0.861" transform="translate(50.663 80.546)" fill="#2492d1"/>
      <circle id="Ellipse_3" data-name="Ellipse 3" cx="0.861" cy="0.861" r="0.861" transform="translate(85.912 80.546)" fill="#2492d1"/>
    </g>
  </g>
</svg>
