<svg xmlns="http://www.w3.org/2000/svg" width="33" height="33" viewBox="0 0 33 33">
  <path id="Exclusion_17" data-name="Exclusion 17" d="M16.5,33A16.5,16.5,0,0,1,10.078,1.3,16.5,16.5,0,0,1,22.923,31.7,16.4,16.4,0,0,1,16.5,33ZM11.073,7.471c-1.186,0-3.577,3.566-3.6,3.6A12.293,12.293,0,0,0,9,15.9a19.28,19.28,0,0,0,3.277,4.777,19.276,19.276,0,0,0,4.777,3.277,12.293,12.293,0,0,0,4.827,1.525c.036-.024,3.6-2.424,3.6-3.6a4.624,4.624,0,0,0-1.522-2.309A4.62,4.62,0,0,0,21.3,18.035a.852.852,0,0,0-.627.242,6.681,6.681,0,0,0-.984,1.308c-.392.634-.675,1.092-1.417,1.092-1.2,0-2.421-1.22-3.6-2.4s-2.4-2.4-2.4-3.6c0-.742.458-1.025,1.092-1.417a6.677,6.677,0,0,0,1.309-.984c.3-.3.322-.756.071-1.362a7.2,7.2,0,0,0-1.74-2.285A3.836,3.836,0,0,0,11.073,7.471Z" fill="#fff"/>
</svg>
