<svg xmlns="http://www.w3.org/2000/svg" width="198.731" height="170.683" viewBox="0 0 198.731 170.683">
  <g id="Group_671" data-name="Group 671" transform="translate(3395.725 -2044.698)">
    <g id="Group_670" data-name="Group 670" transform="translate(-3962 2033.361)">
      <g id="Group_667" data-name="Group 667">
        <g id="Group_94" data-name="Group 94" transform="translate(594.324 11.337)" opacity="0.36" style="mix-blend-mode: multiply;isolation: isolate">
          <path id="Path_2812" data-name="Path 2812" d="M3988.371,341.071a67.639,67.639,0,1,1-41.9-62.613A67.7,67.7,0,0,1,3988.371,341.071Z" transform="translate(-3817.688 -238.088)" fill="#fff" opacity="0"/>
          <path id="Path_2813" data-name="Path 2813" d="M3988.138,340.838a67.639,67.639,0,1,1-41.9-62.613A67.7,67.7,0,0,1,3988.138,340.838Z" transform="translate(-3817.804 -238.205)" fill="#fdfdfd" opacity="0.01"/>
          <path id="Path_2814" data-name="Path 2814" d="M3987.9,340.6a67.644,67.644,0,1,1-41.9-62.611A67.7,67.7,0,0,1,3987.9,340.6Z" transform="translate(-3817.921 -238.321)" fill="#fcfbfb" opacity="0.02"/>
          <path id="Path_2815" data-name="Path 2815" d="M3987.671,340.371a67.637,67.637,0,1,1-41.9-62.611A67.7,67.7,0,0,1,3987.671,340.371Z" transform="translate(-3818.038 -238.437)" fill="#faf9fa" opacity="0.03"/>
          <path id="Path_2816" data-name="Path 2816" d="M3987.44,340.14a67.639,67.639,0,1,1-41.9-62.613A67.7,67.7,0,0,1,3987.44,340.14Z" transform="translate(-3818.154 -238.554)" fill="#f8f8f8" opacity="0.04"/>
          <path id="Path_2817" data-name="Path 2817" d="M3987.207,339.907a67.639,67.639,0,1,1-41.9-62.613A67.7,67.7,0,0,1,3987.207,339.907Z" transform="translate(-3818.271 -238.671)" fill="#f6f6f6" opacity="0.05"/>
          <path id="Path_2818" data-name="Path 2818" d="M3986.974,339.674a67.639,67.639,0,1,1-41.9-62.613A67.7,67.7,0,0,1,3986.974,339.674Z" transform="translate(-3818.387 -238.787)" fill="#f5f5f5" opacity="0.059"/>
          <path id="Path_2819" data-name="Path 2819" d="M3986.741,339.441a67.643,67.643,0,1,1-41.9-62.611A67.7,67.7,0,0,1,3986.741,339.441Z" transform="translate(-3818.503 -238.904)" fill="#f3f2f3" opacity="0.069"/>
          <path id="Path_2820" data-name="Path 2820" d="M3986.508,339.207a67.637,67.637,0,1,1-41.9-62.611A67.7,67.7,0,0,1,3986.508,339.207Z" transform="translate(-3818.621 -239.02)" fill="#f1f0f1" opacity="0.079"/>
          <path id="Path_2821" data-name="Path 2821" d="M3986.276,338.976a67.639,67.639,0,1,1-41.9-62.613A67.7,67.7,0,0,1,3986.276,338.976Z" transform="translate(-3818.737 -239.137)" fill="#efeeef" opacity="0.089"/>
          <path id="Path_2822" data-name="Path 2822" d="M3986.043,338.743a67.64,67.64,0,1,1-41.9-62.613A67.7,67.7,0,0,1,3986.043,338.743Z" transform="translate(-3818.854 -239.253)" fill="#edeced" opacity="0.099"/>
          <path id="Path_2823" data-name="Path 2823" d="M3985.809,338.51a67.643,67.643,0,1,1-41.9-62.611A67.7,67.7,0,0,1,3985.809,338.51Z" transform="translate(-3818.969 -239.37)" fill="#ecebeb" opacity="0.109"/>
          <path id="Path_2824" data-name="Path 2824" d="M3985.577,338.276a67.638,67.638,0,1,1-41.9-62.611A67.7,67.7,0,0,1,3985.577,338.276Z" transform="translate(-3819.087 -239.486)" fill="#ebeaea" opacity="0.119"/>
          <path id="Path_2825" data-name="Path 2825" d="M3985.345,338.045a67.639,67.639,0,1,1-41.9-62.613A67.7,67.7,0,0,1,3985.345,338.045Z" transform="translate(-3819.203 -239.603)" fill="#e8e8e8" opacity="0.129"/>
          <path id="Path_2826" data-name="Path 2826" d="M3985.112,337.812a67.639,67.639,0,1,1-41.9-62.613A67.7,67.7,0,0,1,3985.112,337.812Z" transform="translate(-3819.32 -239.72)" fill="#e7e5e6" opacity="0.139"/>
          <path id="Path_2827" data-name="Path 2827" d="M3984.879,337.579a67.638,67.638,0,1,1-41.9-62.613A67.7,67.7,0,0,1,3984.879,337.579Z" transform="translate(-3819.437 -239.836)" fill="#e4e3e4" opacity="0.149"/>
          <path id="Path_2828" data-name="Path 2828" d="M3984.646,337.346a67.644,67.644,0,1,1-41.9-62.611A67.7,67.7,0,0,1,3984.646,337.346Z" transform="translate(-3819.552 -239.953)" fill="#e3e1e2" opacity="0.158"/>
          <path id="Path_2829" data-name="Path 2829" d="M3984.412,337.112a67.637,67.637,0,1,1-41.9-62.611A67.7,67.7,0,0,1,3984.412,337.112Z" transform="translate(-3819.669 -240.069)" fill="#e1e0e1" opacity="0.168"/>
          <path id="Path_2830" data-name="Path 2830" d="M3984.18,336.881a67.638,67.638,0,1,1-41.9-62.613A67.7,67.7,0,0,1,3984.18,336.881Z" transform="translate(-3819.785 -240.186)" fill="#e0dedf" opacity="0.178"/>
          <path id="Path_2831" data-name="Path 2831" d="M3983.948,336.648a67.639,67.639,0,1,1-41.9-62.613A67.7,67.7,0,0,1,3983.948,336.648Z" transform="translate(-3819.903 -240.302)" fill="#dedddd" opacity="0.188"/>
          <path id="Path_2832" data-name="Path 2832" d="M3983.715,336.415a67.64,67.64,0,1,1-41.9-62.613A67.7,67.7,0,0,1,3983.715,336.415Z" transform="translate(-3820.019 -240.419)" fill="#dcdbdc" opacity="0.198"/>
          <path id="Path_2833" data-name="Path 2833" d="M3983.482,336.182a67.644,67.644,0,1,1-41.9-62.611A67.7,67.7,0,0,1,3983.482,336.182Z" transform="translate(-3820.135 -240.536)" fill="#dbd9da" opacity="0.208"/>
          <path id="Path_2834" data-name="Path 2834" d="M3983.249,335.948a67.638,67.638,0,1,1-41.9-62.611A67.7,67.7,0,0,1,3983.249,335.948Z" transform="translate(-3820.252 -240.652)" fill="#d8d7d8" opacity="0.218"/>
          <path id="Path_2835" data-name="Path 2835" d="M3983.017,335.717a67.64,67.64,0,1,1-41.9-62.613A67.7,67.7,0,0,1,3983.017,335.717Z" transform="translate(-3820.369 -240.768)" fill="#d8d6d7" opacity="0.228"/>
          <path id="Path_2836" data-name="Path 2836" d="M3982.784,335.484a67.64,67.64,0,1,1-41.9-62.613A67.7,67.7,0,0,1,3982.784,335.484Z" transform="translate(-3820.485 -240.885)" fill="#d6d4d4" opacity="0.238"/>
          <path id="Path_2837" data-name="Path 2837" d="M3982.55,335.251a67.639,67.639,0,1,1-41.9-62.613A67.7,67.7,0,0,1,3982.55,335.251Z" transform="translate(-3820.601 -241.002)" fill="#d4d2d3" opacity="0.248"/>
          <path id="Path_2838" data-name="Path 2838" d="M3982.317,335.018a67.642,67.642,0,1,1-41.9-62.611A67.7,67.7,0,0,1,3982.317,335.018Z" transform="translate(-3820.718 -241.118)" fill="#d2d1d1" opacity="0.257"/>
          <path id="Path_2839" data-name="Path 2839" d="M3982.085,334.784a67.638,67.638,0,1,1-41.9-62.611A67.7,67.7,0,0,1,3982.085,334.784Z" transform="translate(-3820.835 -241.234)" fill="#d0cecf" opacity="0.267"/>
          <path id="Path_2840" data-name="Path 2840" d="M3981.853,334.553a67.639,67.639,0,1,1-41.9-62.613A67.7,67.7,0,0,1,3981.853,334.553Z" transform="translate(-3820.951 -241.351)" fill="#cfcdcd" opacity="0.277"/>
          <path id="Path_2841" data-name="Path 2841" d="M3981.62,334.32a67.639,67.639,0,1,1-41.9-62.613A67.7,67.7,0,0,1,3981.62,334.32Z" transform="translate(-3821.068 -241.468)" fill="#cdcbcc" opacity="0.287"/>
          <path id="Path_2842" data-name="Path 2842" d="M3981.387,334.087a67.645,67.645,0,1,1-41.9-62.611A67.7,67.7,0,0,1,3981.387,334.087Z" transform="translate(-3821.184 -241.584)" fill="#cccacb" opacity="0.297"/>
          <path id="Path_2843" data-name="Path 2843" d="M3981.154,333.853a67.637,67.637,0,1,1-41.9-62.611A67.7,67.7,0,0,1,3981.154,333.853Z" transform="translate(-3821.301 -241.701)" fill="#cac8c9" opacity="0.307"/>
          <path id="Path_2844" data-name="Path 2844" d="M3980.922,333.622a67.64,67.64,0,1,1-41.9-62.613A67.7,67.7,0,0,1,3980.922,333.622Z" transform="translate(-3821.417 -241.817)" fill="#c8c6c7" opacity="0.317"/>
          <path id="Path_2845" data-name="Path 2845" d="M3980.689,333.389a67.64,67.64,0,1,1-41.9-62.613A67.7,67.7,0,0,1,3980.689,333.389Z" transform="translate(-3821.534 -241.934)" fill="#c7c5c5" opacity="0.327"/>
          <path id="Path_2846" data-name="Path 2846" d="M3980.456,333.156a67.639,67.639,0,1,1-41.9-62.613A67.7,67.7,0,0,1,3980.456,333.156Z" transform="translate(-3821.651 -242.051)" fill="#c5c3c4" opacity="0.337"/>
          <path id="Path_2847" data-name="Path 2847" d="M3980.223,332.923a67.644,67.644,0,1,1-41.9-62.611A67.7,67.7,0,0,1,3980.223,332.923Z" transform="translate(-3821.767 -242.167)" fill="#c4c2c2" opacity="0.347"/>
          <path id="Path_2848" data-name="Path 2848" d="M3979.99,332.689a67.638,67.638,0,1,1-41.9-62.611A67.7,67.7,0,0,1,3979.99,332.689Z" transform="translate(-3821.884 -242.283)" fill="#c2c0c1" opacity="0.356"/>
          <path id="Path_2849" data-name="Path 2849" d="M3979.758,332.458a67.639,67.639,0,1,1-41.9-62.613A67.7,67.7,0,0,1,3979.758,332.458Z" transform="translate(-3822 -242.4)" fill="#c0bebf" opacity="0.366"/>
          <path id="Path_2850" data-name="Path 2850" d="M3979.525,332.225a67.639,67.639,0,1,1-41.9-62.613A67.7,67.7,0,0,1,3979.525,332.225Z" transform="translate(-3822.117 -242.517)" fill="#bfbdbe" opacity="0.376"/>
          <path id="Path_2851" data-name="Path 2851" d="M3979.292,331.992a67.64,67.64,0,1,1-41.9-62.613A67.7,67.7,0,0,1,3979.292,331.992Z" transform="translate(-3822.234 -242.633)" fill="#bdbbbb" opacity="0.386"/>
          <path id="Path_2852" data-name="Path 2852" d="M3979.058,331.759a67.644,67.644,0,1,1-41.9-62.611A67.7,67.7,0,0,1,3979.058,331.759Z" transform="translate(-3822.35 -242.75)" fill="#bcbaba" opacity="0.396"/>
          <path id="Path_2853" data-name="Path 2853" d="M3978.825,331.525a67.638,67.638,0,1,1-41.9-62.611A67.7,67.7,0,0,1,3978.825,331.525Z" transform="translate(-3822.466 -242.866)" fill="#bab8b9" opacity="0.406"/>
          <path id="Path_2854" data-name="Path 2854" d="M3978.594,331.294a67.64,67.64,0,1,1-41.9-62.613A67.7,67.7,0,0,1,3978.594,331.294Z" transform="translate(-3822.583 -242.983)" fill="#b9b6b7" opacity="0.416"/>
          <path id="Path_2855" data-name="Path 2855" d="M3978.361,331.061a67.639,67.639,0,1,1-41.9-62.613A67.7,67.7,0,0,1,3978.361,331.061Z" transform="translate(-3822.7 -243.099)" fill="#b8b5b6" opacity="0.426"/>
          <path id="Path_2856" data-name="Path 2856" d="M3978.127,330.828a67.639,67.639,0,1,1-41.9-62.613A67.7,67.7,0,0,1,3978.127,330.828Z" transform="translate(-3822.815 -243.216)" fill="#b6b3b4" opacity="0.436"/>
          <path id="Path_2857" data-name="Path 2857" d="M3977.894,330.595a67.642,67.642,0,1,1-41.9-62.611A67.7,67.7,0,0,1,3977.894,330.595Z" transform="translate(-3822.932 -243.333)" fill="#b5b2b3" opacity="0.446"/>
          <path id="Path_2858" data-name="Path 2858" d="M3977.662,330.361a67.638,67.638,0,1,1-41.9-62.611A67.7,67.7,0,0,1,3977.662,330.361Z" transform="translate(-3823.049 -243.449)" fill="#b3b1b1" opacity="0.455"/>
          <path id="Path_2859" data-name="Path 2859" d="M3977.43,330.13a67.64,67.64,0,1,1-41.9-62.613A67.7,67.7,0,0,1,3977.43,330.13Z" transform="translate(-3823.165 -243.565)" fill="#b2afaf" opacity="0.465"/>
          <path id="Path_2860" data-name="Path 2860" d="M3977.2,329.9a67.638,67.638,0,1,1-41.9-62.613A67.7,67.7,0,0,1,3977.2,329.9Z" transform="translate(-3823.282 -243.682)" fill="#b0adae" opacity="0.475"/>
          <path id="Path_2861" data-name="Path 2861" d="M3976.963,329.664a67.639,67.639,0,1,1-41.9-62.613A67.7,67.7,0,0,1,3976.963,329.664Z" transform="translate(-3823.399 -243.799)" fill="#aeacac" opacity="0.485"/>
          <path id="Path_2862" data-name="Path 2862" d="M3976.731,329.43a67.638,67.638,0,1,1-41.9-62.611A67.7,67.7,0,0,1,3976.731,329.43Z" transform="translate(-3823.515 -243.915)" fill="#adaaab" opacity="0.495"/>
          <path id="Path_2863" data-name="Path 2863" d="M3976.5,329.2a67.639,67.639,0,1,1-41.9-62.613A67.7,67.7,0,0,1,3976.5,329.2Z" transform="translate(-3823.632 -244.032)" fill="#aba9aa" opacity="0.505"/>
          <path id="Path_2864" data-name="Path 2864" d="M3976.265,328.966a67.639,67.639,0,1,1-41.9-62.613A67.7,67.7,0,0,1,3976.265,328.966Z" transform="translate(-3823.748 -244.148)" fill="#aaa8a8" opacity="0.515"/>
          <path id="Path_2865" data-name="Path 2865" d="M3976.033,328.733a67.639,67.639,0,1,1-41.9-62.613A67.7,67.7,0,0,1,3976.033,328.733Z" transform="translate(-3823.865 -244.265)" fill="#a8a6a7" opacity="0.525"/>
          <path id="Path_2866" data-name="Path 2866" d="M3975.8,328.5a67.644,67.644,0,1,1-41.9-62.611A67.7,67.7,0,0,1,3975.8,328.5Z" transform="translate(-3823.981 -244.382)" fill="#a7a4a5" opacity="0.535"/>
          <path id="Path_2867" data-name="Path 2867" d="M3975.567,328.266a67.638,67.638,0,1,1-41.9-62.611A67.7,67.7,0,0,1,3975.567,328.266Z" transform="translate(-3824.098 -244.498)" fill="#a5a3a3" opacity="0.545"/>
          <path id="Path_2868" data-name="Path 2868" d="M3975.335,328.035a67.64,67.64,0,1,1-41.9-62.613A67.7,67.7,0,0,1,3975.335,328.035Z" transform="translate(-3824.215 -244.614)" fill="#a3a1a1" opacity="0.554"/>
          <path id="Path_2869" data-name="Path 2869" d="M3975.1,327.8a67.639,67.639,0,1,1-41.9-62.613A67.7,67.7,0,0,1,3975.1,327.8Z" transform="translate(-3824.331 -244.731)" fill="#a3a0a0" opacity="0.564"/>
          <path id="Path_2870" data-name="Path 2870" d="M3974.869,327.569a67.64,67.64,0,1,1-41.9-62.613A67.7,67.7,0,0,1,3974.869,327.569Z" transform="translate(-3824.448 -244.848)" fill="#a19f9f" opacity="0.574"/>
          <path id="Path_2871" data-name="Path 2871" d="M3974.635,327.336a67.644,67.644,0,1,1-41.9-62.611A67.7,67.7,0,0,1,3974.635,327.336Z" transform="translate(-3824.564 -244.964)" fill="#9f9d9d" opacity="0.584"/>
          <path id="Path_2872" data-name="Path 2872" d="M3974.4,327.1a67.637,67.637,0,1,1-41.9-62.611A67.7,67.7,0,0,1,3974.4,327.1Z" transform="translate(-3824.681 -245.08)" fill="#9e9c9c" opacity="0.594"/>
          <path id="Path_2873" data-name="Path 2873" d="M3974.171,326.871a67.64,67.64,0,1,1-41.9-62.613A67.7,67.7,0,0,1,3974.171,326.871Z" transform="translate(-3824.797 -245.197)" fill="#9c9a9a" opacity="0.604"/>
          <path id="Path_2874" data-name="Path 2874" d="M3973.938,326.638a67.64,67.64,0,1,1-41.9-62.613A67.7,67.7,0,0,1,3973.938,326.638Z" transform="translate(-3824.914 -245.314)" fill="#9b9999" opacity="0.614"/>
          <path id="Path_2875" data-name="Path 2875" d="M3973.7,326.4a67.639,67.639,0,1,1-41.9-62.613A67.7,67.7,0,0,1,3973.7,326.4Z" transform="translate(-3825.03 -245.43)" fill="#999797" opacity="0.624"/>
          <path id="Path_2876" data-name="Path 2876" d="M3973.472,326.172a67.644,67.644,0,1,1-41.9-62.611A67.7,67.7,0,0,1,3973.472,326.172Z" transform="translate(-3825.146 -245.547)" fill="#989696" opacity="0.634"/>
          <path id="Path_2877" data-name="Path 2877" d="M3973.238,325.938a67.637,67.637,0,1,1-41.9-62.611A67.7,67.7,0,0,1,3973.238,325.938Z" transform="translate(-3825.263 -245.663)" fill="#969495" opacity="0.644"/>
          <path id="Path_2878" data-name="Path 2878" d="M3973.007,325.707a67.639,67.639,0,1,1-41.9-62.613A67.7,67.7,0,0,1,3973.007,325.707Z" transform="translate(-3825.38 -245.78)" fill="#959393" opacity="0.653"/>
          <path id="Path_2879" data-name="Path 2879" d="M3972.774,325.474a67.639,67.639,0,1,1-41.9-62.613A67.7,67.7,0,0,1,3972.774,325.474Z" transform="translate(-3825.497 -245.896)" fill="#949292" opacity="0.663"/>
          <path id="Path_2880" data-name="Path 2880" d="M3972.54,325.241a67.639,67.639,0,1,1-41.9-62.613A67.7,67.7,0,0,1,3972.54,325.241Z" transform="translate(-3825.613 -246.013)" fill="#929091" opacity="0.673"/>
          <path id="Path_2881" data-name="Path 2881" d="M3972.308,325.008a67.642,67.642,0,1,1-41.9-62.611A67.7,67.7,0,0,1,3972.308,325.008Z" transform="translate(-3825.729 -246.13)" fill="#918f8f" opacity="0.683"/>
          <path id="Path_2882" data-name="Path 2882" d="M3972.074,324.774a67.637,67.637,0,1,1-41.9-62.611A67.7,67.7,0,0,1,3972.074,324.774Z" transform="translate(-3825.846 -246.246)" fill="#8f8d8d" opacity="0.693"/>
          <path id="Path_2883" data-name="Path 2883" d="M3971.843,324.543a67.639,67.639,0,1,1-41.9-62.613A67.7,67.7,0,0,1,3971.843,324.543Z" transform="translate(-3825.963 -246.363)" fill="#8e8c8c" opacity="0.703"/>
          <path id="Path_2884" data-name="Path 2884" d="M3971.61,324.31a67.64,67.64,0,1,1-41.9-62.613A67.7,67.7,0,0,1,3971.61,324.31Z" transform="translate(-3826.079 -246.479)" fill="#8d8b8b" opacity="0.713"/>
          <path id="Path_2885" data-name="Path 2885" d="M3971.376,324.077a67.644,67.644,0,1,1-41.9-62.611A67.7,67.7,0,0,1,3971.376,324.077Z" transform="translate(-3826.195 -246.596)" fill="#8b8a8a" opacity="0.723"/>
          <path id="Path_2886" data-name="Path 2886" d="M3971.143,323.843a67.637,67.637,0,1,1-41.9-62.611A67.7,67.7,0,0,1,3971.143,323.843Z" transform="translate(-3826.312 -246.712)" fill="#8a8888" opacity="0.733"/>
          <path id="Path_2887" data-name="Path 2887" d="M3970.912,323.612a67.639,67.639,0,1,1-41.9-62.613A67.7,67.7,0,0,1,3970.912,323.612Z" transform="translate(-3826.429 -246.829)" fill="#888687" opacity="0.743"/>
          <path id="Path_2888" data-name="Path 2888" d="M3970.679,323.379a67.639,67.639,0,1,1-41.9-62.613A67.7,67.7,0,0,1,3970.679,323.379Z" transform="translate(-3826.546 -246.945)" fill="#878585" opacity="0.752"/>
          <path id="Path_2889" data-name="Path 2889" d="M3970.446,323.146a67.639,67.639,0,1,1-41.9-62.613A67.7,67.7,0,0,1,3970.446,323.146Z" transform="translate(-3826.662 -247.062)" fill="#858484" opacity="0.762"/>
          <path id="Path_2890" data-name="Path 2890" d="M3970.212,322.913a67.644,67.644,0,1,1-41.9-62.611A67.7,67.7,0,0,1,3970.212,322.913Z" transform="translate(-3826.778 -247.179)" fill="#848282" opacity="0.772"/>
          <path id="Path_2891" data-name="Path 2891" d="M3969.979,322.679a67.638,67.638,0,1,1-41.9-62.611A67.7,67.7,0,0,1,3969.979,322.679Z" transform="translate(-3826.895 -247.295)" fill="#838281" opacity="0.782"/>
          <path id="Path_2892" data-name="Path 2892" d="M3969.748,322.448a67.639,67.639,0,1,1-41.9-62.613A67.7,67.7,0,0,1,3969.748,322.448Z" transform="translate(-3827.011 -247.411)" fill="#818080" opacity="0.792"/>
          <path id="Path_2893" data-name="Path 2893" d="M3969.515,322.215a67.64,67.64,0,1,1-41.9-62.613A67.7,67.7,0,0,1,3969.515,322.215Z" transform="translate(-3827.128 -247.528)" fill="gray" opacity="0.802"/>
          <path id="Path_2894" data-name="Path 2894" d="M3969.281,321.982a67.639,67.639,0,1,1-41.9-62.613A67.7,67.7,0,0,1,3969.281,321.982Z" transform="translate(-3827.244 -247.645)" fill="#7f7e7e" opacity="0.812"/>
          <path id="Path_2895" data-name="Path 2895" d="M3969.048,321.749a67.644,67.644,0,1,1-41.9-62.611A67.7,67.7,0,0,1,3969.048,321.749Z" transform="translate(-3827.361 -247.761)" fill="#7e7d7d" opacity="0.822"/>
          <path id="Path_2896" data-name="Path 2896" d="M3968.815,321.515a67.638,67.638,0,1,1-41.9-62.611A67.7,67.7,0,0,1,3968.815,321.515Z" transform="translate(-3827.478 -247.877)" fill="#7d7c7c" opacity="0.832"/>
          <path id="Path_2897" data-name="Path 2897" d="M3968.584,321.284a67.639,67.639,0,1,1-41.9-62.613A67.7,67.7,0,0,1,3968.584,321.284Z" transform="translate(-3827.594 -247.994)" fill="#7c7b7b" opacity="0.842"/>
          <path id="Path_2898" data-name="Path 2898" d="M3968.35,321.051a67.639,67.639,0,1,1-41.9-62.613A67.7,67.7,0,0,1,3968.35,321.051Z" transform="translate(-3827.711 -248.111)" fill="#7b7a79" opacity="0.851"/>
          <path id="Path_2899" data-name="Path 2899" d="M3968.117,320.818a67.64,67.64,0,1,1-41.9-62.613A67.7,67.7,0,0,1,3968.117,320.818Z" transform="translate(-3827.826 -248.227)" fill="#797878" opacity="0.861"/>
          <path id="Path_2900" data-name="Path 2900" d="M3967.884,320.585a67.641,67.641,0,1,1-41.9-62.611A67.7,67.7,0,0,1,3967.884,320.585Z" transform="translate(-3827.944 -248.344)" fill="#787676" opacity="0.871"/>
          <path id="Path_2901" data-name="Path 2901" d="M3967.652,320.351a67.638,67.638,0,1,1-41.9-62.611A67.7,67.7,0,0,1,3967.652,320.351Z" transform="translate(-3828.061 -248.46)" fill="#767575" opacity="0.881"/>
          <path id="Path_2902" data-name="Path 2902" d="M3967.42,320.12a67.64,67.64,0,1,1-41.9-62.613A67.7,67.7,0,0,1,3967.42,320.12Z" transform="translate(-3828.177 -248.577)" fill="#767475" opacity="0.891"/>
          <path id="Path_2903" data-name="Path 2903" d="M3967.187,319.887a67.639,67.639,0,1,1-41.9-62.613A67.7,67.7,0,0,1,3967.187,319.887Z" transform="translate(-3828.293 -248.694)" fill="#747373" opacity="0.901"/>
          <path id="Path_2904" data-name="Path 2904" d="M3966.954,319.654a67.644,67.644,0,1,1-41.9-62.611A67.7,67.7,0,0,1,3966.954,319.654Z" transform="translate(-3828.409 -248.81)" fill="#737272" opacity="0.911"/>
          <path id="Path_2905" data-name="Path 2905" d="M3966.72,319.42a67.638,67.638,0,1,1-41.9-62.611A67.7,67.7,0,0,1,3966.72,319.42Z" transform="translate(-3828.527 -248.926)" fill="#727171" opacity="0.921"/>
          <path id="Path_2906" data-name="Path 2906" d="M3966.489,319.189a67.639,67.639,0,1,1-41.9-62.613A67.7,67.7,0,0,1,3966.489,319.189Z" transform="translate(-3828.643 -249.043)" fill="#706f6f" opacity="0.931"/>
          <path id="Path_2907" data-name="Path 2907" d="M3966.256,318.956a67.639,67.639,0,1,1-41.9-62.613A67.7,67.7,0,0,1,3966.256,318.956Z" transform="translate(-3828.76 -249.16)" fill="#6f6e6e" opacity="0.941"/>
          <path id="Path_2908" data-name="Path 2908" d="M3966.023,318.723a67.639,67.639,0,1,1-41.9-62.613A67.7,67.7,0,0,1,3966.023,318.723Z" transform="translate(-3828.876 -249.276)" fill="#6e6d6d" opacity="0.95"/>
          <path id="Path_2909" data-name="Path 2909" d="M3965.789,318.49a67.643,67.643,0,1,1-41.9-62.611A67.7,67.7,0,0,1,3965.789,318.49Z" transform="translate(-3828.992 -249.393)" fill="#6c6c6c" opacity="0.96"/>
          <path id="Path_2910" data-name="Path 2910" d="M3965.556,318.256a67.638,67.638,0,1,1-41.9-62.611A67.7,67.7,0,0,1,3965.556,318.256Z" transform="translate(-3829.109 -249.509)" fill="#6b6b6b" opacity="0.97"/>
          <path id="Path_2911" data-name="Path 2911" d="M3965.325,318.025a67.64,67.64,0,1,1-41.9-62.613A67.7,67.7,0,0,1,3965.325,318.025Z" transform="translate(-3829.226 -249.626)" fill="#696a6a" opacity="0.98"/>
          <path id="Path_2912" data-name="Path 2912" d="M3965.092,317.792a67.639,67.639,0,1,1-41.9-62.613A67.7,67.7,0,0,1,3965.092,317.792Z" transform="translate(-3829.343 -249.742)" fill="#686869" opacity="0.99"/>
          <path id="Path_2913" data-name="Path 2913" d="M3964.859,317.559a67.64,67.64,0,1,1-41.9-62.613A67.7,67.7,0,0,1,3964.859,317.559Z" transform="translate(-3829.459 -249.859)" fill="#676767"/>
        </g>
        <path id="Path_2925" data-name="Path 2925" d="M3964.859,317.559a67.64,67.64,0,1,1-41.9-62.613A67.7,67.7,0,0,1,3964.859,317.559Z" transform="translate(-3235.136 -238.522)" fill="#f9f9f9"/>
      </g>
      <g id="Group_669" data-name="Group 669">
        <g id="Group_668" data-name="Group 668">
          <g id="Group_100" data-name="Group 100" transform="translate(737.847 78.72)">
            <path id="Path_2920" data-name="Path 2920" d="M3943.59,295.4h-18.172a.317.317,0,1,1,0-.633h18.172a.317.317,0,1,1,0,.633Z" transform="translate(-3925.1 -294.762)" fill="gray"/>
          </g>
          <g id="Group_101" data-name="Group 101" transform="translate(750.442 72.75)">
            <path id="Path_2921" data-name="Path 2921" d="M3933.821,303.357a.316.316,0,0,1-.225-.54l5.74-5.741-5.751-5.75a.317.317,0,0,1,.449-.449l5.976,5.975a.318.318,0,0,1,0,.449l-5.965,5.965A.314.314,0,0,1,3933.821,303.357Z" transform="translate(-3933.494 -290.784)" fill="gray"/>
          </g>
          <g id="Group_105" data-name="Group 105" transform="translate(585.566 78.72)">
            <path id="Path_2926" data-name="Path 2926" d="M3900.081,371.536a76.544,76.544,0,0,1-76.458-76.458.317.317,0,0,1,.634,0,75.823,75.823,0,0,0,151.646,0,.317.317,0,0,1,.635,0A76.544,76.544,0,0,1,3900.081,371.536Z" transform="translate(-3823.623 -294.762)" fill="gray"/>
          </g>
        </g>
        <g id="Group_106" data-name="Group 106" transform="translate(572.251 78.72)">
          <path id="Path_2927" data-name="Path 2927" d="M3828.383,295.4h-13.316a.317.317,0,1,1,0-.633h13.316a.317.317,0,1,1,0,.633Z" transform="translate(-3814.75 -294.762)" fill="gray"/>
        </g>
        <g id="Group_107" data-name="Group 107" transform="translate(566.275 72.75)">
          <path id="Path_2928" data-name="Path 2928" d="M3811.1,303.357a.316.316,0,0,1-.224-.54l5.74-5.741-5.75-5.75a.317.317,0,0,1,.449-.449l5.976,5.975a.319.319,0,0,1,0,.449l-5.965,5.965A.315.315,0,0,1,3811.1,303.357Z" transform="translate(-3810.768 -290.784)" fill="gray"/>
        </g>
      </g>
    </g>
    <g id="Group_127" data-name="Group 127" transform="translate(-3320.101 2065.83)">
      <path id="Path_3165" data-name="Path 3165" d="M3881.287,263.941a20.126,20.126,0,1,0,20.127,20.127A20.149,20.149,0,0,0,3881.287,263.941Zm0,37.376a17.251,17.251,0,1,1,17.251-17.25A17.268,17.268,0,0,1,3881.287,301.317Z" transform="translate(-3861.162 -263.941)" fill="gray"/>
      <path id="Path_3166" data-name="Path 3166" d="M3877.45,266.815a1.438,1.438,0,0,0-1.438,1.438v13.855l-6.854,8.225a1.438,1.438,0,0,0,2.21,1.841l7.187-8.626a1.432,1.432,0,0,0,.333-.92V268.253A1.437,1.437,0,0,0,3877.45,266.815Z" transform="translate(-3857.326 -262.502)" fill="gray"/>
    </g>
    <text id="STEP_04" data-name="STEP 04" transform="translate(-3340.826 2138.589)" fill="#2193d1" font-size="16" font-family="Montserrat-ExtraBold, Montserrat" font-weight="800"><tspan x="0" y="0">STEP 04</tspan></text>
  </g>
</svg>
