<svg xmlns="http://www.w3.org/2000/svg" width="198.732" height="170.683" viewBox="0 0 198.732 170.683">
  <g id="Group_667" data-name="Group 667" transform="translate(3772.686 -2044.698)">
    <g id="Group_89" data-name="Group 89" transform="translate(-3744.635 2044.698)" opacity="0.36" style="mix-blend-mode: multiply;isolation: isolate">
      <path id="Path_2605" data-name="Path 2605" d="M3737.171,341.071a67.64,67.64,0,1,1-41.9-62.613A67.7,67.7,0,0,1,3737.171,341.071Z" transform="translate(-3566.489 -238.088)" fill="#fff" opacity="0"/>
      <path id="Path_2606" data-name="Path 2606" d="M3736.938,340.838a67.639,67.639,0,1,1-41.9-62.613A67.7,67.7,0,0,1,3736.938,340.838Z" transform="translate(-3566.606 -238.205)" fill="#fdfdfd" opacity="0.01"/>
      <path id="Path_2607" data-name="Path 2607" d="M3736.7,340.6a67.642,67.642,0,1,1-41.9-62.611A67.7,67.7,0,0,1,3736.7,340.6Z" transform="translate(-3566.722 -238.321)" fill="#fcfbfb" opacity="0.02"/>
      <path id="Path_2608" data-name="Path 2608" d="M3736.473,340.371a67.639,67.639,0,1,1-41.9-62.611A67.7,67.7,0,0,1,3736.473,340.371Z" transform="translate(-3566.839 -238.437)" fill="#faf9fa" opacity="0.03"/>
      <path id="Path_2609" data-name="Path 2609" d="M3736.24,340.14a67.638,67.638,0,1,1-41.9-62.613A67.7,67.7,0,0,1,3736.24,340.14Z" transform="translate(-3566.956 -238.554)" fill="#f8f8f8" opacity="0.04"/>
      <path id="Path_2610" data-name="Path 2610" d="M3736.006,339.907a67.64,67.64,0,1,1-41.9-62.613A67.7,67.7,0,0,1,3736.006,339.907Z" transform="translate(-3567.072 -238.671)" fill="#f6f6f6" opacity="0.05"/>
      <path id="Path_2611" data-name="Path 2611" d="M3735.773,339.674a67.637,67.637,0,1,1-41.9-62.613A67.7,67.7,0,0,1,3735.773,339.674Z" transform="translate(-3567.188 -238.787)" fill="#f5f5f5" opacity="0.059"/>
      <path id="Path_2612" data-name="Path 2612" d="M3735.54,339.441a67.642,67.642,0,1,1-41.9-62.611A67.7,67.7,0,0,1,3735.54,339.441Z" transform="translate(-3567.305 -238.904)" fill="#f3f2f3" opacity="0.069"/>
      <path id="Path_2613" data-name="Path 2613" d="M3735.309,339.207a67.639,67.639,0,1,1-41.9-62.611A67.7,67.7,0,0,1,3735.309,339.207Z" transform="translate(-3567.422 -239.02)" fill="#f1f0f1" opacity="0.079"/>
      <path id="Path_2614" data-name="Path 2614" d="M3735.076,338.976a67.639,67.639,0,1,1-41.9-62.613A67.7,67.7,0,0,1,3735.076,338.976Z" transform="translate(-3567.538 -239.137)" fill="#efeeef" opacity="0.089"/>
      <path id="Path_2615" data-name="Path 2615" d="M3734.842,338.743a67.639,67.639,0,1,1-41.9-62.613A67.7,67.7,0,0,1,3734.842,338.743Z" transform="translate(-3567.655 -239.253)" fill="#edeced" opacity="0.099"/>
      <path id="Path_2616" data-name="Path 2616" d="M3734.61,338.51a67.642,67.642,0,1,1-41.9-62.611A67.7,67.7,0,0,1,3734.61,338.51Z" transform="translate(-3567.771 -239.37)" fill="#ecebeb" opacity="0.109"/>
      <path id="Path_2617" data-name="Path 2617" d="M3734.378,338.276a67.639,67.639,0,1,1-41.9-62.611A67.7,67.7,0,0,1,3734.378,338.276Z" transform="translate(-3567.888 -239.486)" fill="#ebeaea" opacity="0.119"/>
      <path id="Path_2618" data-name="Path 2618" d="M3734.145,338.045a67.639,67.639,0,1,1-41.9-62.613A67.7,67.7,0,0,1,3734.145,338.045Z" transform="translate(-3568.004 -239.603)" fill="#e8e8e8" opacity="0.129"/>
      <path id="Path_2619" data-name="Path 2619" d="M3733.912,337.812a67.64,67.64,0,1,1-41.9-62.613A67.7,67.7,0,0,1,3733.912,337.812Z" transform="translate(-3568.122 -239.72)" fill="#e7e5e6" opacity="0.139"/>
      <path id="Path_2620" data-name="Path 2620" d="M3733.679,337.579a67.639,67.639,0,1,1-41.9-62.613A67.7,67.7,0,0,1,3733.679,337.579Z" transform="translate(-3568.238 -239.836)" fill="#e4e3e4" opacity="0.149"/>
      <path id="Path_2621" data-name="Path 2621" d="M3733.446,337.346a67.642,67.642,0,1,1-41.9-62.611A67.7,67.7,0,0,1,3733.446,337.346Z" transform="translate(-3568.354 -239.953)" fill="#e3e1e2" opacity="0.158"/>
      <path id="Path_2622" data-name="Path 2622" d="M3733.214,337.112a67.639,67.639,0,1,1-41.9-62.611A67.7,67.7,0,0,1,3733.214,337.112Z" transform="translate(-3568.471 -240.069)" fill="#e1e0e1" opacity="0.168"/>
      <path id="Path_2623" data-name="Path 2623" d="M3732.981,336.881a67.639,67.639,0,1,1-41.9-62.613A67.7,67.7,0,0,1,3732.981,336.881Z" transform="translate(-3568.587 -240.186)" fill="#e0dedf" opacity="0.178"/>
      <path id="Path_2624" data-name="Path 2624" d="M3732.747,336.648a67.639,67.639,0,1,1-41.9-62.613A67.7,67.7,0,0,1,3732.747,336.648Z" transform="translate(-3568.703 -240.302)" fill="#dedddd" opacity="0.188"/>
      <path id="Path_2625" data-name="Path 2625" d="M3732.515,336.415a67.64,67.64,0,1,1-41.9-62.613A67.7,67.7,0,0,1,3732.515,336.415Z" transform="translate(-3568.82 -240.419)" fill="#dcdbdc" opacity="0.198"/>
      <path id="Path_2626" data-name="Path 2626" d="M3732.282,336.182a67.642,67.642,0,1,1-41.9-62.611A67.7,67.7,0,0,1,3732.282,336.182Z" transform="translate(-3568.937 -240.536)" fill="#dbd9da" opacity="0.208"/>
      <path id="Path_2627" data-name="Path 2627" d="M3732.05,335.948a67.639,67.639,0,1,1-41.9-62.611A67.7,67.7,0,0,1,3732.05,335.948Z" transform="translate(-3569.053 -240.652)" fill="#d8d7d8" opacity="0.218"/>
      <path id="Path_2628" data-name="Path 2628" d="M3731.817,335.717a67.639,67.639,0,1,1-41.9-62.613A67.7,67.7,0,0,1,3731.817,335.717Z" transform="translate(-3569.17 -240.768)" fill="#d8d6d7" opacity="0.228"/>
      <path id="Path_2629" data-name="Path 2629" d="M3731.583,335.484a67.64,67.64,0,1,1-41.9-62.613A67.7,67.7,0,0,1,3731.583,335.484Z" transform="translate(-3569.286 -240.885)" fill="#d6d4d4" opacity="0.238"/>
      <path id="Path_2630" data-name="Path 2630" d="M3731.351,335.251a67.637,67.637,0,1,1-41.9-62.613A67.7,67.7,0,0,1,3731.351,335.251Z" transform="translate(-3569.403 -241.002)" fill="#d4d2d3" opacity="0.248"/>
      <path id="Path_2631" data-name="Path 2631" d="M3731.117,335.018a67.642,67.642,0,1,1-41.9-62.611A67.7,67.7,0,0,1,3731.117,335.018Z" transform="translate(-3569.52 -241.118)" fill="#d2d1d1" opacity="0.257"/>
      <path id="Path_2632" data-name="Path 2632" d="M3730.885,334.784a67.639,67.639,0,1,1-41.9-62.611A67.7,67.7,0,0,1,3730.885,334.784Z" transform="translate(-3569.635 -241.234)" fill="#d0cecf" opacity="0.267"/>
      <path id="Path_2633" data-name="Path 2633" d="M3730.653,334.553a67.64,67.64,0,1,1-41.9-62.613A67.7,67.7,0,0,1,3730.653,334.553Z" transform="translate(-3569.753 -241.351)" fill="#cfcdcd" opacity="0.277"/>
      <path id="Path_2634" data-name="Path 2634" d="M3730.419,334.32a67.639,67.639,0,1,1-41.9-62.613A67.7,67.7,0,0,1,3730.419,334.32Z" transform="translate(-3569.869 -241.468)" fill="#cdcbcc" opacity="0.287"/>
      <path id="Path_2635" data-name="Path 2635" d="M3730.186,334.087a67.642,67.642,0,1,1-41.9-62.611A67.7,67.7,0,0,1,3730.186,334.087Z" transform="translate(-3569.986 -241.584)" fill="#cccacb" opacity="0.297"/>
      <path id="Path_2636" data-name="Path 2636" d="M3729.955,333.853a67.639,67.639,0,1,1-41.9-62.611A67.7,67.7,0,0,1,3729.955,333.853Z" transform="translate(-3570.102 -241.701)" fill="#cac8c9" opacity="0.307"/>
      <path id="Path_2637" data-name="Path 2637" d="M3729.722,333.622a67.64,67.64,0,1,1-41.9-62.613A67.7,67.7,0,0,1,3729.722,333.622Z" transform="translate(-3570.219 -241.817)" fill="#c8c6c7" opacity="0.317"/>
      <path id="Path_2638" data-name="Path 2638" d="M3729.489,333.389a67.638,67.638,0,1,1-41.9-62.613A67.7,67.7,0,0,1,3729.489,333.389Z" transform="translate(-3570.336 -241.934)" fill="#c7c5c5" opacity="0.327"/>
      <path id="Path_2639" data-name="Path 2639" d="M3729.256,333.156a67.639,67.639,0,1,1-41.9-62.613A67.7,67.7,0,0,1,3729.256,333.156Z" transform="translate(-3570.452 -242.051)" fill="#c5c3c4" opacity="0.337"/>
      <path id="Path_2640" data-name="Path 2640" d="M3729.022,332.923a67.642,67.642,0,1,1-41.9-62.611A67.7,67.7,0,0,1,3729.022,332.923Z" transform="translate(-3570.568 -242.167)" fill="#c4c2c2" opacity="0.347"/>
      <path id="Path_2641" data-name="Path 2641" d="M3728.79,332.689a67.638,67.638,0,1,1-41.9-62.611A67.7,67.7,0,0,1,3728.79,332.689Z" transform="translate(-3570.685 -242.283)" fill="#c2c0c1" opacity="0.356"/>
      <path id="Path_2642" data-name="Path 2642" d="M3728.558,332.458a67.639,67.639,0,1,1-41.9-62.613A67.7,67.7,0,0,1,3728.558,332.458Z" transform="translate(-3570.802 -242.4)" fill="#c0bebf" opacity="0.366"/>
      <path id="Path_2643" data-name="Path 2643" d="M3728.325,332.225a67.639,67.639,0,1,1-41.9-62.613A67.7,67.7,0,0,1,3728.325,332.225Z" transform="translate(-3570.918 -242.517)" fill="#bfbdbe" opacity="0.376"/>
      <path id="Path_2644" data-name="Path 2644" d="M3728.091,331.992a67.639,67.639,0,1,1-41.9-62.613A67.7,67.7,0,0,1,3728.091,331.992Z" transform="translate(-3571.035 -242.633)" fill="#bdbbbb" opacity="0.386"/>
      <path id="Path_2645" data-name="Path 2645" d="M3727.859,331.759a67.643,67.643,0,1,1-41.9-62.611A67.7,67.7,0,0,1,3727.859,331.759Z" transform="translate(-3571.151 -242.75)" fill="#bcbaba" opacity="0.396"/>
      <path id="Path_2646" data-name="Path 2646" d="M3727.627,331.525a67.639,67.639,0,1,1-41.9-62.611A67.7,67.7,0,0,1,3727.627,331.525Z" transform="translate(-3571.268 -242.866)" fill="#bab8b9" opacity="0.406"/>
      <path id="Path_2647" data-name="Path 2647" d="M3727.394,331.294a67.639,67.639,0,1,1-41.9-62.613A67.7,67.7,0,0,1,3727.394,331.294Z" transform="translate(-3571.385 -242.983)" fill="#b9b6b7" opacity="0.416"/>
      <path id="Path_2648" data-name="Path 2648" d="M3727.16,331.061a67.639,67.639,0,1,1-41.9-62.613A67.7,67.7,0,0,1,3727.16,331.061Z" transform="translate(-3571.5 -243.099)" fill="#b8b5b6" opacity="0.426"/>
      <path id="Path_2649" data-name="Path 2649" d="M3726.928,330.828a67.639,67.639,0,1,1-41.9-62.613A67.7,67.7,0,0,1,3726.928,330.828Z" transform="translate(-3571.617 -243.216)" fill="#b6b3b4" opacity="0.436"/>
      <path id="Path_2650" data-name="Path 2650" d="M3726.695,330.595a67.642,67.642,0,1,1-41.9-62.611A67.7,67.7,0,0,1,3726.695,330.595Z" transform="translate(-3571.734 -243.333)" fill="#b5b2b3" opacity="0.446"/>
      <path id="Path_2651" data-name="Path 2651" d="M3726.463,330.361a67.64,67.64,0,1,1-41.9-62.611A67.7,67.7,0,0,1,3726.463,330.361Z" transform="translate(-3571.851 -243.449)" fill="#b3b1b1" opacity="0.455"/>
      <path id="Path_2652" data-name="Path 2652" d="M3726.23,330.13a67.64,67.64,0,1,1-41.9-62.613A67.7,67.7,0,0,1,3726.23,330.13Z" transform="translate(-3571.968 -243.565)" fill="#b2afaf" opacity="0.465"/>
      <path id="Path_2653" data-name="Path 2653" d="M3726,329.9a67.64,67.64,0,1,1-41.9-62.613A67.7,67.7,0,0,1,3726,329.9Z" transform="translate(-3572.083 -243.682)" fill="#b0adae" opacity="0.475"/>
      <path id="Path_2654" data-name="Path 2654" d="M3725.764,329.664a67.638,67.638,0,1,1-41.9-62.613A67.7,67.7,0,0,1,3725.764,329.664Z" transform="translate(-3572.2 -243.799)" fill="#aeacac" opacity="0.485"/>
      <path id="Path_2655" data-name="Path 2655" d="M3725.53,329.43a67.637,67.637,0,1,1-41.9-62.611A67.7,67.7,0,0,1,3725.53,329.43Z" transform="translate(-3572.316 -243.915)" fill="#adaaab" opacity="0.495"/>
      <path id="Path_2656" data-name="Path 2656" d="M3725.3,329.2a67.64,67.64,0,1,1-41.9-62.613A67.7,67.7,0,0,1,3725.3,329.2Z" transform="translate(-3572.434 -244.032)" fill="#aba9aa" opacity="0.505"/>
      <path id="Path_2657" data-name="Path 2657" d="M3725.066,328.966a67.639,67.639,0,1,1-41.9-62.613A67.7,67.7,0,0,1,3725.066,328.966Z" transform="translate(-3572.55 -244.148)" fill="#aaa8a8" opacity="0.515"/>
      <path id="Path_2658" data-name="Path 2658" d="M3724.833,328.733a67.639,67.639,0,1,1-41.9-62.613A67.7,67.7,0,0,1,3724.833,328.733Z" transform="translate(-3572.666 -244.265)" fill="#a8a6a7" opacity="0.525"/>
      <path id="Path_2659" data-name="Path 2659" d="M3724.6,328.5a67.643,67.643,0,1,1-41.9-62.611A67.7,67.7,0,0,1,3724.6,328.5Z" transform="translate(-3572.782 -244.382)" fill="#a7a4a5" opacity="0.535"/>
      <path id="Path_2660" data-name="Path 2660" d="M3724.367,328.266a67.639,67.639,0,1,1-41.9-62.611A67.7,67.7,0,0,1,3724.367,328.266Z" transform="translate(-3572.899 -244.498)" fill="#a5a3a3" opacity="0.545"/>
      <path id="Path_2661" data-name="Path 2661" d="M3724.135,328.035a67.639,67.639,0,1,1-41.9-62.613A67.7,67.7,0,0,1,3724.135,328.035Z" transform="translate(-3573.016 -244.614)" fill="#a3a1a1" opacity="0.554"/>
      <path id="Path_2662" data-name="Path 2662" d="M3723.9,327.8a67.639,67.639,0,1,1-41.9-62.613A67.7,67.7,0,0,1,3723.9,327.8Z" transform="translate(-3573.132 -244.731)" fill="#a3a0a0" opacity="0.564"/>
      <path id="Path_2663" data-name="Path 2663" d="M3723.668,327.569a67.64,67.64,0,1,1-41.9-62.613A67.7,67.7,0,0,1,3723.668,327.569Z" transform="translate(-3573.249 -244.848)" fill="#a19f9f" opacity="0.574"/>
      <path id="Path_2664" data-name="Path 2664" d="M3723.435,327.336a67.642,67.642,0,1,1-41.9-62.611A67.7,67.7,0,0,1,3723.435,327.336Z" transform="translate(-3573.365 -244.964)" fill="#9f9d9d" opacity="0.584"/>
      <path id="Path_2665" data-name="Path 2665" d="M3723.2,327.1a67.64,67.64,0,1,1-41.9-62.611A67.7,67.7,0,0,1,3723.2,327.1Z" transform="translate(-3573.482 -245.08)" fill="#9e9c9c" opacity="0.594"/>
      <path id="Path_2666" data-name="Path 2666" d="M3722.971,326.871a67.64,67.64,0,1,1-41.9-62.613A67.7,67.7,0,0,1,3722.971,326.871Z" transform="translate(-3573.599 -245.197)" fill="#9c9a9a" opacity="0.604"/>
      <path id="Path_2667" data-name="Path 2667" d="M3722.737,326.638a67.639,67.639,0,1,1-41.9-62.613A67.7,67.7,0,0,1,3722.737,326.638Z" transform="translate(-3573.715 -245.314)" fill="#9b9999" opacity="0.614"/>
      <path id="Path_2668" data-name="Path 2668" d="M3722.5,326.4a67.639,67.639,0,1,1-41.9-62.613A67.7,67.7,0,0,1,3722.5,326.4Z" transform="translate(-3573.831 -245.43)" fill="#999797" opacity="0.624"/>
      <path id="Path_2669" data-name="Path 2669" d="M3722.272,326.172a67.642,67.642,0,1,1-41.9-62.611A67.7,67.7,0,0,1,3722.272,326.172Z" transform="translate(-3573.948 -245.547)" fill="#989696" opacity="0.634"/>
      <path id="Path_2670" data-name="Path 2670" d="M3722.04,325.938a67.639,67.639,0,1,1-41.9-62.611A67.7,67.7,0,0,1,3722.04,325.938Z" transform="translate(-3574.065 -245.663)" fill="#969495" opacity="0.644"/>
      <path id="Path_2671" data-name="Path 2671" d="M3721.806,325.707a67.639,67.639,0,1,1-41.9-62.613A67.7,67.7,0,0,1,3721.806,325.707Z" transform="translate(-3574.181 -245.78)" fill="#959393" opacity="0.653"/>
      <path id="Path_2672" data-name="Path 2672" d="M3721.573,325.474a67.64,67.64,0,1,1-41.9-62.613A67.7,67.7,0,0,1,3721.573,325.474Z" transform="translate(-3574.298 -245.896)" fill="#949292" opacity="0.663"/>
      <path id="Path_2673" data-name="Path 2673" d="M3721.34,325.241a67.637,67.637,0,1,1-41.9-62.613A67.7,67.7,0,0,1,3721.34,325.241Z" transform="translate(-3574.414 -246.013)" fill="#929091" opacity="0.673"/>
      <path id="Path_2674" data-name="Path 2674" d="M3721.108,325.008a67.642,67.642,0,1,1-41.9-62.611A67.7,67.7,0,0,1,3721.108,325.008Z" transform="translate(-3574.531 -246.13)" fill="#918f8f" opacity="0.683"/>
      <path id="Path_2675" data-name="Path 2675" d="M3720.876,324.774a67.64,67.64,0,1,1-41.9-62.611A67.7,67.7,0,0,1,3720.876,324.774Z" transform="translate(-3574.648 -246.246)" fill="#8f8d8d" opacity="0.693"/>
      <path id="Path_2676" data-name="Path 2676" d="M3720.643,324.543a67.639,67.639,0,1,1-41.9-62.613A67.7,67.7,0,0,1,3720.643,324.543Z" transform="translate(-3574.764 -246.363)" fill="#8e8c8c" opacity="0.703"/>
      <path id="Path_2677" data-name="Path 2677" d="M3720.409,324.31a67.64,67.64,0,1,1-41.9-62.613A67.7,67.7,0,0,1,3720.409,324.31Z" transform="translate(-3574.88 -246.479)" fill="#8d8b8b" opacity="0.713"/>
      <path id="Path_2678" data-name="Path 2678" d="M3720.176,324.077a67.642,67.642,0,1,1-41.9-62.611A67.7,67.7,0,0,1,3720.176,324.077Z" transform="translate(-3574.997 -246.596)" fill="#8b8a8a" opacity="0.723"/>
      <path id="Path_2679" data-name="Path 2679" d="M3719.945,323.843a67.639,67.639,0,1,1-41.9-62.611A67.7,67.7,0,0,1,3719.945,323.843Z" transform="translate(-3575.114 -246.712)" fill="#8a8888" opacity="0.733"/>
      <path id="Path_2680" data-name="Path 2680" d="M3719.712,323.612a67.639,67.639,0,1,1-41.9-62.613A67.7,67.7,0,0,1,3719.712,323.612Z" transform="translate(-3575.23 -246.829)" fill="#888687" opacity="0.743"/>
      <path id="Path_2681" data-name="Path 2681" d="M3719.479,323.379a67.639,67.639,0,1,1-41.9-62.613A67.7,67.7,0,0,1,3719.479,323.379Z" transform="translate(-3575.347 -246.945)" fill="#878585" opacity="0.752"/>
      <path id="Path_2682" data-name="Path 2682" d="M3719.245,323.146a67.639,67.639,0,1,1-41.9-62.613A67.7,67.7,0,0,1,3719.245,323.146Z" transform="translate(-3575.463 -247.062)" fill="#858484" opacity="0.762"/>
      <path id="Path_2683" data-name="Path 2683" d="M3719.012,322.913a67.642,67.642,0,1,1-41.9-62.611A67.7,67.7,0,0,1,3719.012,322.913Z" transform="translate(-3575.58 -247.179)" fill="#848282" opacity="0.772"/>
      <path id="Path_2684" data-name="Path 2684" d="M3718.781,322.679a67.638,67.638,0,1,1-41.9-62.611A67.7,67.7,0,0,1,3718.781,322.679Z" transform="translate(-3575.697 -247.295)" fill="#838281" opacity="0.782"/>
      <path id="Path_2685" data-name="Path 2685" d="M3718.547,322.448a67.639,67.639,0,1,1-41.9-62.613A67.7,67.7,0,0,1,3718.547,322.448Z" transform="translate(-3575.813 -247.411)" fill="#818080" opacity="0.792"/>
      <path id="Path_2686" data-name="Path 2686" d="M3718.314,322.215a67.639,67.639,0,1,1-41.9-62.613A67.7,67.7,0,0,1,3718.314,322.215Z" transform="translate(-3575.928 -247.528)" fill="gray" opacity="0.802"/>
      <path id="Path_2687" data-name="Path 2687" d="M3718.081,321.982a67.639,67.639,0,1,1-41.9-62.613A67.7,67.7,0,0,1,3718.081,321.982Z" transform="translate(-3576.046 -247.645)" fill="#7f7e7e" opacity="0.812"/>
      <path id="Path_2688" data-name="Path 2688" d="M3717.849,321.749a67.643,67.643,0,1,1-41.9-62.611A67.7,67.7,0,0,1,3717.849,321.749Z" transform="translate(-3576.163 -247.761)" fill="#7e7d7d" opacity="0.822"/>
      <path id="Path_2689" data-name="Path 2689" d="M3717.617,321.515a67.639,67.639,0,1,1-41.9-62.611A67.7,67.7,0,0,1,3717.617,321.515Z" transform="translate(-3576.279 -247.877)" fill="#7d7c7c" opacity="0.832"/>
      <path id="Path_2690" data-name="Path 2690" d="M3717.384,321.284a67.639,67.639,0,1,1-41.9-62.613A67.7,67.7,0,0,1,3717.384,321.284Z" transform="translate(-3576.396 -247.994)" fill="#7c7b7b" opacity="0.842"/>
      <path id="Path_2691" data-name="Path 2691" d="M3717.15,321.051a67.639,67.639,0,1,1-41.9-62.613A67.7,67.7,0,0,1,3717.15,321.051Z" transform="translate(-3576.512 -248.111)" fill="#7b7a79" opacity="0.851"/>
      <path id="Path_2692" data-name="Path 2692" d="M3716.917,320.818a67.637,67.637,0,1,1-41.9-62.613A67.7,67.7,0,0,1,3716.917,320.818Z" transform="translate(-3576.628 -248.227)" fill="#797878" opacity="0.861"/>
      <path id="Path_2693" data-name="Path 2693" d="M3716.684,320.585a67.642,67.642,0,1,1-41.9-62.611A67.7,67.7,0,0,1,3716.684,320.585Z" transform="translate(-3576.745 -248.344)" fill="#787676" opacity="0.871"/>
      <path id="Path_2694" data-name="Path 2694" d="M3716.452,320.351a67.639,67.639,0,1,1-41.9-62.611A67.7,67.7,0,0,1,3716.452,320.351Z" transform="translate(-3576.862 -248.46)" fill="#767575" opacity="0.881"/>
      <path id="Path_2695" data-name="Path 2695" d="M3716.22,320.12a67.639,67.639,0,1,1-41.9-62.613A67.7,67.7,0,0,1,3716.22,320.12Z" transform="translate(-3576.979 -248.577)" fill="#767475" opacity="0.891"/>
      <path id="Path_2696" data-name="Path 2696" d="M3715.986,319.887a67.638,67.638,0,1,1-41.9-62.613A67.7,67.7,0,0,1,3715.986,319.887Z" transform="translate(-3577.095 -248.694)" fill="#747373" opacity="0.901"/>
      <path id="Path_2697" data-name="Path 2697" d="M3715.753,319.654a67.642,67.642,0,1,1-41.9-62.611A67.7,67.7,0,0,1,3715.753,319.654Z" transform="translate(-3577.211 -248.81)" fill="#737272" opacity="0.911"/>
      <path id="Path_2698" data-name="Path 2698" d="M3715.522,319.42a67.64,67.64,0,1,1-41.9-62.611A67.7,67.7,0,0,1,3715.522,319.42Z" transform="translate(-3577.328 -248.926)" fill="#727171" opacity="0.921"/>
      <path id="Path_2699" data-name="Path 2699" d="M3715.289,319.189a67.639,67.639,0,1,1-41.9-62.613A67.7,67.7,0,0,1,3715.289,319.189Z" transform="translate(-3577.444 -249.043)" fill="#706f6f" opacity="0.931"/>
      <path id="Path_2700" data-name="Path 2700" d="M3715.056,318.956a67.639,67.639,0,1,1-41.9-62.613A67.7,67.7,0,0,1,3715.056,318.956Z" transform="translate(-3577.561 -249.16)" fill="#6f6e6e" opacity="0.941"/>
      <path id="Path_2701" data-name="Path 2701" d="M3714.822,318.723a67.639,67.639,0,1,1-41.9-62.613A67.7,67.7,0,0,1,3714.822,318.723Z" transform="translate(-3577.677 -249.276)" fill="#6e6d6d" opacity="0.95"/>
      <path id="Path_2702" data-name="Path 2702" d="M3714.589,318.49a67.642,67.642,0,1,1-41.9-62.611A67.7,67.7,0,0,1,3714.589,318.49Z" transform="translate(-3577.794 -249.393)" fill="#6c6c6c" opacity="0.96"/>
      <path id="Path_2703" data-name="Path 2703" d="M3714.358,318.256a67.64,67.64,0,1,1-41.9-62.611A67.7,67.7,0,0,1,3714.358,318.256Z" transform="translate(-3577.911 -249.509)" fill="#6b6b6b" opacity="0.97"/>
      <path id="Path_2704" data-name="Path 2704" d="M3714.125,318.025a67.639,67.639,0,1,1-41.9-62.613A67.7,67.7,0,0,1,3714.125,318.025Z" transform="translate(-3578.027 -249.626)" fill="#696a6a" opacity="0.98"/>
      <path id="Path_2705" data-name="Path 2705" d="M3713.892,317.792a67.639,67.639,0,1,1-41.9-62.613A67.7,67.7,0,0,1,3713.892,317.792Z" transform="translate(-3578.144 -249.742)" fill="#686869" opacity="0.99"/>
      <path id="Path_2706" data-name="Path 2706" d="M3713.659,317.559a67.64,67.64,0,1,1-41.9-62.613A67.7,67.7,0,0,1,3713.659,317.559Z" transform="translate(-3578.26 -249.859)" fill="#676767"/>
    </g>
    <g id="Group_665" data-name="Group 665">
      <g id="Group_108" data-name="Group 108" transform="translate(-3713.673 2177.294)">
        <path id="Path_2929" data-name="Path 2929" d="M3635.631,352.318a79.172,79.172,0,0,1-36.737-9.044l2.66-5.054a73.423,73.423,0,0,0,68.152,0l2.661,5.054A79.173,79.173,0,0,1,3635.631,352.318Z" transform="translate(-3598.894 -338.219)" fill="#2d4f76"/>
      </g>
      <g id="Group_664" data-name="Group 664">
        <g id="Group_663" data-name="Group 663">
          <g id="Group_662" data-name="Group 662" transform="translate(-3962 2033.361)">
            <g id="Group_90" data-name="Group 90" transform="translate(208.607 78.72)">
              <path id="Path_2708" data-name="Path 2708" d="M3648.882,371.536a76.544,76.544,0,0,1-76.458-76.458.316.316,0,1,1,.633,0,75.824,75.824,0,0,0,151.647,0,.317.317,0,1,1,.633,0A76.544,76.544,0,0,1,3648.882,371.536Z" transform="translate(-3572.425 -294.762)" fill="gray"/>
            </g>
            <g id="Group_96" data-name="Group 96" transform="translate(360.887 78.72)">
              <path id="Path_2916" data-name="Path 2916" d="M3692.39,295.4h-18.172a.317.317,0,1,1,0-.633h18.172a.317.317,0,1,1,0,.633Z" transform="translate(-3673.901 -294.762)" fill="gray"/>
            </g>
            <g id="Group_97" data-name="Group 97" transform="translate(373.482 72.75)">
              <path id="Path_2917" data-name="Path 2917" d="M3682.621,303.357a.316.316,0,0,1-.223-.54l5.74-5.741-5.751-5.75a.316.316,0,0,1,0-.449.319.319,0,0,1,.449,0l5.974,5.975a.315.315,0,0,1,0,.449l-5.963,5.965A.322.322,0,0,1,3682.621,303.357Z" transform="translate(-3682.294 -290.784)" fill="gray"/>
            </g>
            <g id="Group_103" data-name="Group 103" transform="translate(195.289 78.72)">
              <path id="Path_2923" data-name="Path 2923" d="M3577.184,295.4h-13.316a.317.317,0,1,1,0-.633h13.316a.317.317,0,1,1,0,.633Z" transform="translate(-3563.549 -294.762)" fill="gray"/>
            </g>
            <g id="Group_104" data-name="Group 104" transform="translate(189.314 72.75)">
              <path id="Path_2924" data-name="Path 2924" d="M3559.9,303.357a.316.316,0,0,1-.223-.54l5.74-5.741-5.75-5.75a.317.317,0,0,1,.449-.449l5.974,5.975a.316.316,0,0,1,0,.449l-5.963,5.965A.32.32,0,0,1,3559.9,303.357Z" transform="translate(-3559.568 -290.784)" fill="gray"/>
            </g>
          </g>
          <g id="Group_661" data-name="Group 661">
            <path id="Path_2707" data-name="Path 2707" d="M3713.659,317.559a67.64,67.64,0,1,1-41.9-62.613A67.7,67.7,0,0,1,3713.659,317.559Z" transform="translate(-7322.895 1794.839)" fill="#f9f9f9"/>
            <g id="Group_126" data-name="Group 126" transform="translate(-3694.179 2068.222)">
              <path id="Path_3161" data-name="Path 3161" d="M3626.149,270.206a1.3,1.3,0,0,0-1.642,2.021c.189.153.374.32.551.5a1.3,1.3,0,0,0,1.84-1.84A9.833,9.833,0,0,0,3626.149,270.206Z" transform="translate(-3605.803 -263.342)" fill="gray"/>
              <path id="Path_3162" data-name="Path 3162" d="M3626.125,268.807a9.585,9.585,0,0,0-8.282,16.243,1.3,1.3,0,1,0,1.839-1.84,6.982,6.982,0,0,1,6.036-11.833,1.3,1.3,0,0,0,.407-2.571Z" transform="translate(-3610.303 -263.956)" fill="gray"/>
              <path id="Path_3163" data-name="Path 3163" d="M3647.889,299.7,3636.6,289.667a14.392,14.392,0,1,0-1.968,1.733l11.531,10.249a1.3,1.3,0,1,0,1.729-1.945Zm-33.4-19.852a11.714,11.714,0,1,1,11.714,11.714A11.727,11.727,0,0,1,3614.487,279.853Z" transform="translate(-3611.884 -265.535)" fill="gray"/>
            </g>
            <text id="STEP_02" data-name="STEP 02" transform="translate(-3717.429 2138.589)" fill="#2193d1" font-size="16" font-family="Montserrat-ExtraBold, Montserrat" font-weight="800"><tspan x="0" y="0">STEP 02</tspan></text>
          </g>
        </g>
      </g>
    </g>
  </g>
</svg>
