<svg xmlns="http://www.w3.org/2000/svg" width="198.01" height="182.02" viewBox="0 0 198.01 182.02">
  <g id="Group_672" data-name="Group 672" transform="translate(3583.844 -2033.361)">
    <g id="Group_671" data-name="Group 671" transform="translate(-3962 2033.361)">
      <g id="Group_92" data-name="Group 92" transform="translate(396.726 2.58)">
        <g id="Group_91" data-name="Group 91">
          <path id="Path_2709" data-name="Path 2709" d="M3850.38,320.8a.316.316,0,0,1-.317-.317,75.823,75.823,0,1,0-151.646,0,.317.317,0,0,1-.635,0,76.458,76.458,0,1,1,152.915,0A.317.317,0,0,1,3850.38,320.8Z" transform="translate(-3697.783 -244.023)" fill="gray"/>
        </g>
      </g>
      <g id="Group_95" data-name="Group 95" transform="translate(384.131 78.72)">
        <path id="Path_2915" data-name="Path 2915" d="M3702.3,295.4h-12.594a.317.317,0,1,1,0-.633H3702.3a.317.317,0,1,1,0,.633Z" transform="translate(-3689.39 -294.762)" fill="gray"/>
      </g>
      <g id="Group_670" data-name="Group 670">
        <g id="Group_98" data-name="Group 98" transform="translate(549.006 78.72)">
          <path id="Path_2918" data-name="Path 2918" d="M3817.749,295.4h-18.172a.317.317,0,1,1,0-.633h18.172a.317.317,0,1,1,0,.633Z" transform="translate(-3799.26 -294.762)" fill="gray"/>
        </g>
        <g id="Group_99" data-name="Group 99" transform="translate(561.601 72.75)">
          <path id="Path_2919" data-name="Path 2919" d="M3807.98,303.357a.316.316,0,0,1-.223-.54l5.74-5.741-5.75-5.75a.317.317,0,0,1,.449-.449l5.975,5.975a.317.317,0,0,1,0,.449l-5.964,5.965A.318.318,0,0,1,3807.98,303.357Z" transform="translate(-3807.653 -290.784)" fill="gray"/>
        </g>
      </g>
      <g id="Group_102" data-name="Group 102" transform="translate(378.156 72.75)">
        <path id="Path_2922" data-name="Path 2922" d="M3685.736,303.357a.316.316,0,0,1-.225-.54l5.74-5.741-5.75-5.75a.317.317,0,0,1,.449-.449l5.976,5.975a.319.319,0,0,1,0,.449l-5.965,5.965A.314.314,0,0,1,3685.736,303.357Z" transform="translate(-3685.409 -290.784)" fill="gray"/>
      </g>
      <g id="Group_110" data-name="Group 110" transform="translate(436.445)">
        <path id="Path_2931" data-name="Path 2931" d="M3726.917,256.414l-2.666-5.066a79.14,79.14,0,0,1,73.478,0l-2.665,5.066a73.408,73.408,0,0,0-68.147,0Z" transform="translate(-3724.251 -242.304)" fill="#2193d1"/>
      </g>
    </g>
    <g id="Group_669" data-name="Group 669">
      <g id="Group_668" data-name="Group 668" transform="translate(-3962 2033.361)">
        <g id="Group_93" data-name="Group 93" transform="translate(405.483 11.337)" opacity="0.36" style="mix-blend-mode: multiply;isolation: isolate">
          <path id="Path_2710" data-name="Path 2710" d="M3862.531,341.071a67.639,67.639,0,1,1-41.9-62.613A67.7,67.7,0,0,1,3862.531,341.071Z" transform="translate(-3691.847 -238.088)" fill="#fff" opacity="0"/>
          <path id="Path_2711" data-name="Path 2711" d="M3862.3,340.838a67.64,67.64,0,1,1-41.9-62.613A67.7,67.7,0,0,1,3862.3,340.838Z" transform="translate(-3691.965 -238.205)" fill="#fdfdfd" opacity="0.01"/>
          <path id="Path_2712" data-name="Path 2712" d="M3862.065,340.6a67.644,67.644,0,1,1-41.9-62.611A67.7,67.7,0,0,1,3862.065,340.6Z" transform="translate(-3692.081 -238.321)" fill="#fcfbfb" opacity="0.02"/>
          <path id="Path_2713" data-name="Path 2713" d="M3861.831,340.371a67.639,67.639,0,1,1-41.9-62.611A67.7,67.7,0,0,1,3861.831,340.371Z" transform="translate(-3692.197 -238.437)" fill="#faf9fa" opacity="0.03"/>
          <path id="Path_2714" data-name="Path 2714" d="M3861.6,340.14a67.637,67.637,0,1,1-41.9-62.613A67.7,67.7,0,0,1,3861.6,340.14Z" transform="translate(-3692.314 -238.554)" fill="#f8f8f8" opacity="0.04"/>
          <path id="Path_2715" data-name="Path 2715" d="M3861.367,339.907a67.639,67.639,0,1,1-41.9-62.613A67.7,67.7,0,0,1,3861.367,339.907Z" transform="translate(-3692.43 -238.671)" fill="#f6f6f6" opacity="0.05"/>
          <path id="Path_2716" data-name="Path 2716" d="M3861.134,339.674a67.639,67.639,0,1,1-41.9-62.613A67.7,67.7,0,0,1,3861.134,339.674Z" transform="translate(-3692.547 -238.787)" fill="#f5f5f5" opacity="0.059"/>
          <path id="Path_2717" data-name="Path 2717" d="M3860.9,339.441A67.643,67.643,0,1,1,3819,276.83,67.7,67.7,0,0,1,3860.9,339.441Z" transform="translate(-3692.664 -238.904)" fill="#f3f2f3" opacity="0.069"/>
          <path id="Path_2718" data-name="Path 2718" d="M3860.667,339.207a67.639,67.639,0,1,1-41.9-62.611A67.7,67.7,0,0,1,3860.667,339.207Z" transform="translate(-3692.78 -239.02)" fill="#f1f0f1" opacity="0.079"/>
          <path id="Path_2719" data-name="Path 2719" d="M3860.434,338.976a67.637,67.637,0,1,1-41.9-62.613A67.7,67.7,0,0,1,3860.434,338.976Z" transform="translate(-3692.896 -239.137)" fill="#efeeef" opacity="0.089"/>
          <path id="Path_2720" data-name="Path 2720" d="M3860.2,338.743a67.64,67.64,0,1,1-41.9-62.613A67.7,67.7,0,0,1,3860.2,338.743Z" transform="translate(-3693.013 -239.253)" fill="#edeced" opacity="0.099"/>
          <path id="Path_2721" data-name="Path 2721" d="M3859.969,338.51a67.644,67.644,0,1,1-41.9-62.611A67.7,67.7,0,0,1,3859.969,338.51Z" transform="translate(-3693.13 -239.37)" fill="#ecebeb" opacity="0.109"/>
          <path id="Path_2722" data-name="Path 2722" d="M3859.737,338.276a67.639,67.639,0,1,1-41.9-62.611A67.7,67.7,0,0,1,3859.737,338.276Z" transform="translate(-3693.246 -239.486)" fill="#ebeaea" opacity="0.119"/>
          <path id="Path_2723" data-name="Path 2723" d="M3859.5,338.045a67.64,67.64,0,1,1-41.9-62.613A67.7,67.7,0,0,1,3859.5,338.045Z" transform="translate(-3693.363 -239.603)" fill="#e8e8e8" opacity="0.129"/>
          <path id="Path_2724" data-name="Path 2724" d="M3859.271,337.812a67.638,67.638,0,1,1-41.9-62.613A67.7,67.7,0,0,1,3859.271,337.812Z" transform="translate(-3693.479 -239.72)" fill="#e7e5e6" opacity="0.139"/>
          <path id="Path_2725" data-name="Path 2725" d="M3859.039,337.579a67.639,67.639,0,1,1-41.9-62.613A67.7,67.7,0,0,1,3859.039,337.579Z" transform="translate(-3693.597 -239.836)" fill="#e4e3e4" opacity="0.149"/>
          <path id="Path_2726" data-name="Path 2726" d="M3858.806,337.346a67.644,67.644,0,1,1-41.9-62.611A67.7,67.7,0,0,1,3858.806,337.346Z" transform="translate(-3693.713 -239.953)" fill="#e3e1e2" opacity="0.158"/>
          <path id="Path_2727" data-name="Path 2727" d="M3858.572,337.112a67.638,67.638,0,1,1-41.9-62.611A67.7,67.7,0,0,1,3858.572,337.112Z" transform="translate(-3693.829 -240.069)" fill="#e1e0e1" opacity="0.168"/>
          <path id="Path_2728" data-name="Path 2728" d="M3858.339,336.881a67.637,67.637,0,1,1-41.9-62.613A67.7,67.7,0,0,1,3858.339,336.881Z" transform="translate(-3693.946 -240.186)" fill="#e0dedf" opacity="0.178"/>
          <path id="Path_2729" data-name="Path 2729" d="M3858.106,336.648a67.638,67.638,0,1,1-41.9-62.613A67.7,67.7,0,0,1,3858.106,336.648Z" transform="translate(-3694.062 -240.302)" fill="#dedddd" opacity="0.188"/>
          <path id="Path_2730" data-name="Path 2730" d="M3857.875,336.415a67.64,67.64,0,1,1-41.9-62.613A67.7,67.7,0,0,1,3857.875,336.415Z" transform="translate(-3694.179 -240.419)" fill="#dcdbdc" opacity="0.198"/>
          <path id="Path_2731" data-name="Path 2731" d="M3857.643,336.182a67.644,67.644,0,1,1-41.9-62.611A67.7,67.7,0,0,1,3857.643,336.182Z" transform="translate(-3694.295 -240.536)" fill="#dbd9da" opacity="0.208"/>
          <path id="Path_2732" data-name="Path 2732" d="M3857.409,335.948a67.64,67.64,0,1,1-41.9-62.611A67.7,67.7,0,0,1,3857.409,335.948Z" transform="translate(-3694.412 -240.652)" fill="#d8d7d8" opacity="0.218"/>
          <path id="Path_2733" data-name="Path 2733" d="M3857.175,335.717a67.637,67.637,0,1,1-41.9-62.613A67.7,67.7,0,0,1,3857.175,335.717Z" transform="translate(-3694.528 -240.768)" fill="#d8d6d7" opacity="0.228"/>
          <path id="Path_2734" data-name="Path 2734" d="M3856.944,335.484a67.64,67.64,0,1,1-41.9-62.613A67.7,67.7,0,0,1,3856.944,335.484Z" transform="translate(-3694.645 -240.885)" fill="#d6d4d4" opacity="0.238"/>
          <path id="Path_2735" data-name="Path 2735" d="M3856.711,335.251a67.64,67.64,0,1,1-41.9-62.613A67.7,67.7,0,0,1,3856.711,335.251Z" transform="translate(-3694.761 -241.002)" fill="#d4d2d3" opacity="0.248"/>
          <path id="Path_2736" data-name="Path 2736" d="M3856.478,335.018a67.644,67.644,0,1,1-41.9-62.611A67.7,67.7,0,0,1,3856.478,335.018Z" transform="translate(-3694.878 -241.118)" fill="#d2d1d1" opacity="0.257"/>
          <path id="Path_2737" data-name="Path 2737" d="M3856.244,334.784a67.639,67.639,0,1,1-41.9-62.611A67.7,67.7,0,0,1,3856.244,334.784Z" transform="translate(-3694.994 -241.234)" fill="#d0cecf" opacity="0.267"/>
          <path id="Path_2738" data-name="Path 2738" d="M3856.011,334.553a67.637,67.637,0,1,1-41.9-62.613A67.7,67.7,0,0,1,3856.011,334.553Z" transform="translate(-3695.111 -241.351)" fill="#cfcdcd" opacity="0.277"/>
          <path id="Path_2739" data-name="Path 2739" d="M3855.78,334.32a67.639,67.639,0,1,1-41.9-62.613A67.7,67.7,0,0,1,3855.78,334.32Z" transform="translate(-3695.228 -241.468)" fill="#cdcbcc" opacity="0.287"/>
          <path id="Path_2740" data-name="Path 2740" d="M3855.547,334.087a67.644,67.644,0,1,1-41.9-62.611A67.7,67.7,0,0,1,3855.547,334.087Z" transform="translate(-3695.345 -241.584)" fill="#cccacb" opacity="0.297"/>
          <path id="Path_2741" data-name="Path 2741" d="M3855.314,333.853a67.64,67.64,0,1,1-41.9-62.611A67.7,67.7,0,0,1,3855.314,333.853Z" transform="translate(-3695.46 -241.701)" fill="#cac8c9" opacity="0.307"/>
          <path id="Path_2742" data-name="Path 2742" d="M3855.081,333.622a67.639,67.639,0,1,1-41.9-62.613A67.7,67.7,0,0,1,3855.081,333.622Z" transform="translate(-3695.577 -241.817)" fill="#c8c6c7" opacity="0.317"/>
          <path id="Path_2743" data-name="Path 2743" d="M3854.847,333.389a67.637,67.637,0,1,1-41.9-62.613A67.7,67.7,0,0,1,3854.847,333.389Z" transform="translate(-3695.694 -241.934)" fill="#c7c5c5" opacity="0.327"/>
          <path id="Path_2744" data-name="Path 2744" d="M3854.616,333.156a67.64,67.64,0,1,1-41.9-62.613A67.7,67.7,0,0,1,3854.616,333.156Z" transform="translate(-3695.811 -242.051)" fill="#c5c3c4" opacity="0.337"/>
          <path id="Path_2745" data-name="Path 2745" d="M3854.383,332.923a67.643,67.643,0,1,1-41.9-62.611A67.7,67.7,0,0,1,3854.383,332.923Z" transform="translate(-3695.927 -242.167)" fill="#c4c2c2" opacity="0.347"/>
          <path id="Path_2746" data-name="Path 2746" d="M3854.149,332.689a67.64,67.64,0,1,1-41.9-62.611A67.7,67.7,0,0,1,3854.149,332.689Z" transform="translate(-3696.043 -242.283)" fill="#c2c0c1" opacity="0.356"/>
          <path id="Path_2747" data-name="Path 2747" d="M3853.916,332.458a67.638,67.638,0,1,1-41.9-62.613A67.7,67.7,0,0,1,3853.916,332.458Z" transform="translate(-3696.16 -242.4)" fill="#c0bebf" opacity="0.366"/>
          <path id="Path_2748" data-name="Path 2748" d="M3853.683,332.225a67.637,67.637,0,1,1-41.9-62.613A67.7,67.7,0,0,1,3853.683,332.225Z" transform="translate(-3696.277 -242.517)" fill="#bfbdbe" opacity="0.376"/>
          <path id="Path_2749" data-name="Path 2749" d="M3853.452,331.992a67.639,67.639,0,1,1-41.9-62.613A67.7,67.7,0,0,1,3853.452,331.992Z" transform="translate(-3696.393 -242.633)" fill="#bdbbbb" opacity="0.386"/>
          <path id="Path_2750" data-name="Path 2750" d="M3853.219,331.759a67.644,67.644,0,1,1-41.9-62.611A67.7,67.7,0,0,1,3853.219,331.759Z" transform="translate(-3696.51 -242.75)" fill="#bcbaba" opacity="0.396"/>
          <path id="Path_2751" data-name="Path 2751" d="M3852.985,331.525a67.639,67.639,0,1,1-41.9-62.611A67.7,67.7,0,0,1,3852.985,331.525Z" transform="translate(-3696.626 -242.866)" fill="#bab8b9" opacity="0.406"/>
          <path id="Path_2752" data-name="Path 2752" d="M3852.752,331.294a67.637,67.637,0,1,1-41.9-62.613A67.7,67.7,0,0,1,3852.752,331.294Z" transform="translate(-3696.743 -242.983)" fill="#b9b6b7" opacity="0.416"/>
          <path id="Path_2753" data-name="Path 2753" d="M3852.521,331.061a67.64,67.64,0,1,1-41.9-62.613A67.7,67.7,0,0,1,3852.521,331.061Z" transform="translate(-3696.859 -243.099)" fill="#b8b5b6" opacity="0.426"/>
          <path id="Path_2754" data-name="Path 2754" d="M3852.287,330.828a67.639,67.639,0,1,1-41.9-62.613A67.7,67.7,0,0,1,3852.287,330.828Z" transform="translate(-3696.976 -243.216)" fill="#b6b3b4" opacity="0.436"/>
          <path id="Path_2755" data-name="Path 2755" d="M3852.055,330.595a67.644,67.644,0,1,1-41.9-62.611A67.7,67.7,0,0,1,3852.055,330.595Z" transform="translate(-3697.093 -243.333)" fill="#b5b2b3" opacity="0.446"/>
          <path id="Path_2756" data-name="Path 2756" d="M3851.821,330.361a67.639,67.639,0,1,1-41.9-62.611A67.7,67.7,0,0,1,3851.821,330.361Z" transform="translate(-3697.208 -243.449)" fill="#b3b1b1" opacity="0.455"/>
          <path id="Path_2757" data-name="Path 2757" d="M3851.589,330.13a67.638,67.638,0,1,1-41.9-62.613A67.7,67.7,0,0,1,3851.589,330.13Z" transform="translate(-3697.326 -243.565)" fill="#b2afaf" opacity="0.465"/>
          <path id="Path_2758" data-name="Path 2758" d="M3851.357,329.9a67.64,67.64,0,1,1-41.9-62.613A67.7,67.7,0,0,1,3851.357,329.9Z" transform="translate(-3697.442 -243.682)" fill="#b0adae" opacity="0.475"/>
          <path id="Path_2759" data-name="Path 2759" d="M3851.124,329.664a67.639,67.639,0,1,1-41.9-62.613A67.7,67.7,0,0,1,3851.124,329.664Z" transform="translate(-3697.558 -243.799)" fill="#aeacac" opacity="0.485"/>
          <path id="Path_2760" data-name="Path 2760" d="M3850.891,329.43a67.64,67.64,0,1,1-41.9-62.611A67.7,67.7,0,0,1,3850.891,329.43Z" transform="translate(-3697.675 -243.915)" fill="#adaaab" opacity="0.495"/>
          <path id="Path_2761" data-name="Path 2761" d="M3850.657,329.2a67.64,67.64,0,1,1-41.9-62.613A67.7,67.7,0,0,1,3850.657,329.2Z" transform="translate(-3697.791 -244.032)" fill="#aba9aa" opacity="0.505"/>
          <path id="Path_2762" data-name="Path 2762" d="M3850.424,328.966a67.637,67.637,0,1,1-41.9-62.613A67.7,67.7,0,0,1,3850.424,328.966Z" transform="translate(-3697.908 -244.148)" fill="#aaa8a8" opacity="0.515"/>
          <path id="Path_2763" data-name="Path 2763" d="M3850.193,328.733a67.639,67.639,0,1,1-41.9-62.613A67.7,67.7,0,0,1,3850.193,328.733Z" transform="translate(-3698.025 -244.265)" fill="#a8a6a7" opacity="0.525"/>
          <path id="Path_2764" data-name="Path 2764" d="M3849.96,328.5a67.644,67.644,0,1,1-41.9-62.611A67.7,67.7,0,0,1,3849.96,328.5Z" transform="translate(-3698.141 -244.382)" fill="#a7a4a5" opacity="0.535"/>
          <path id="Path_2765" data-name="Path 2765" d="M3849.726,328.266a67.639,67.639,0,1,1-41.9-62.611A67.7,67.7,0,0,1,3849.726,328.266Z" transform="translate(-3698.257 -244.498)" fill="#a5a3a3" opacity="0.545"/>
          <path id="Path_2766" data-name="Path 2766" d="M3849.494,328.035a67.64,67.64,0,1,1-41.9-62.613A67.7,67.7,0,0,1,3849.494,328.035Z" transform="translate(-3698.374 -244.614)" fill="#a3a1a1" opacity="0.554"/>
          <path id="Path_2767" data-name="Path 2767" d="M3849.26,327.8a67.638,67.638,0,1,1-41.9-62.613A67.7,67.7,0,0,1,3849.26,327.8Z" transform="translate(-3698.491 -244.731)" fill="#a3a0a0" opacity="0.564"/>
          <path id="Path_2768" data-name="Path 2768" d="M3849.029,327.569a67.639,67.639,0,1,1-41.9-62.613A67.7,67.7,0,0,1,3849.029,327.569Z" transform="translate(-3698.607 -244.848)" fill="#a19f9f" opacity="0.574"/>
          <path id="Path_2769" data-name="Path 2769" d="M3848.8,327.336a67.644,67.644,0,1,1-41.9-62.611A67.7,67.7,0,0,1,3848.8,327.336Z" transform="translate(-3698.724 -244.964)" fill="#9f9d9d" opacity="0.584"/>
          <path id="Path_2770" data-name="Path 2770" d="M3848.562,327.1a67.639,67.639,0,1,1-41.9-62.611A67.7,67.7,0,0,1,3848.562,327.1Z" transform="translate(-3698.84 -245.08)" fill="#9e9c9c" opacity="0.594"/>
          <path id="Path_2771" data-name="Path 2771" d="M3848.33,326.871a67.637,67.637,0,1,1-41.9-62.613A67.7,67.7,0,0,1,3848.33,326.871Z" transform="translate(-3698.958 -245.197)" fill="#9c9a9a" opacity="0.604"/>
          <path id="Path_2772" data-name="Path 2772" d="M3848.1,326.638a67.64,67.64,0,1,1-41.9-62.613A67.7,67.7,0,0,1,3848.1,326.638Z" transform="translate(-3699.074 -245.314)" fill="#9b9999" opacity="0.614"/>
          <path id="Path_2773" data-name="Path 2773" d="M3847.865,326.4a67.64,67.64,0,1,1-41.9-62.613A67.7,67.7,0,0,1,3847.865,326.4Z" transform="translate(-3699.19 -245.43)" fill="#999797" opacity="0.624"/>
          <path id="Path_2774" data-name="Path 2774" d="M3847.632,326.172a67.643,67.643,0,1,1-41.9-62.611A67.7,67.7,0,0,1,3847.632,326.172Z" transform="translate(-3699.307 -245.547)" fill="#989696" opacity="0.634"/>
          <path id="Path_2775" data-name="Path 2775" d="M3847.4,325.938a67.64,67.64,0,1,1-41.9-62.611A67.7,67.7,0,0,1,3847.4,325.938Z" transform="translate(-3699.423 -245.663)" fill="#969495" opacity="0.644"/>
          <path id="Path_2776" data-name="Path 2776" d="M3847.165,325.707a67.637,67.637,0,1,1-41.9-62.613A67.7,67.7,0,0,1,3847.165,325.707Z" transform="translate(-3699.54 -245.78)" fill="#959393" opacity="0.653"/>
          <path id="Path_2777" data-name="Path 2777" d="M3846.934,325.474a67.639,67.639,0,1,1-41.9-62.613A67.7,67.7,0,0,1,3846.934,325.474Z" transform="translate(-3699.656 -245.896)" fill="#949292" opacity="0.663"/>
          <path id="Path_2778" data-name="Path 2778" d="M3846.7,325.241a67.64,67.64,0,1,1-41.9-62.613A67.7,67.7,0,0,1,3846.7,325.241Z" transform="translate(-3699.773 -246.013)" fill="#929091" opacity="0.673"/>
          <path id="Path_2779" data-name="Path 2779" d="M3846.468,325.008a67.644,67.644,0,1,1-41.9-62.611A67.7,67.7,0,0,1,3846.468,325.008Z" transform="translate(-3699.889 -246.13)" fill="#918f8f" opacity="0.683"/>
          <path id="Path_2780" data-name="Path 2780" d="M3846.235,324.774a67.64,67.64,0,1,1-41.9-62.611A67.7,67.7,0,0,1,3846.235,324.774Z" transform="translate(-3700.005 -246.246)" fill="#8f8d8d" opacity="0.693"/>
          <path id="Path_2781" data-name="Path 2781" d="M3846,324.543a67.638,67.638,0,1,1-41.9-62.613A67.7,67.7,0,0,1,3846,324.543Z" transform="translate(-3700.123 -246.363)" fill="#8e8c8c" opacity="0.703"/>
          <path id="Path_2782" data-name="Path 2782" d="M3845.77,324.31a67.639,67.639,0,1,1-41.9-62.613A67.7,67.7,0,0,1,3845.77,324.31Z" transform="translate(-3700.239 -246.479)" fill="#8d8b8b" opacity="0.713"/>
          <path id="Path_2783" data-name="Path 2783" d="M3845.537,324.077a67.644,67.644,0,1,1-41.9-62.611A67.7,67.7,0,0,1,3845.537,324.077Z" transform="translate(-3700.356 -246.596)" fill="#8b8a8a" opacity="0.723"/>
          <path id="Path_2784" data-name="Path 2784" d="M3845.3,323.843a67.639,67.639,0,1,1-41.9-62.611A67.7,67.7,0,0,1,3845.3,323.843Z" transform="translate(-3700.472 -246.712)" fill="#8a8888" opacity="0.733"/>
          <path id="Path_2785" data-name="Path 2785" d="M3845.07,323.612a67.639,67.639,0,1,1-41.9-62.613A67.7,67.7,0,0,1,3845.07,323.612Z" transform="translate(-3700.588 -246.829)" fill="#888687" opacity="0.743"/>
          <path id="Path_2786" data-name="Path 2786" d="M3844.838,323.379a67.637,67.637,0,1,1-41.9-62.613A67.7,67.7,0,0,1,3844.838,323.379Z" transform="translate(-3700.706 -246.945)" fill="#878585" opacity="0.752"/>
          <path id="Path_2787" data-name="Path 2787" d="M3844.606,323.146a67.64,67.64,0,1,1-41.9-62.613A67.7,67.7,0,0,1,3844.606,323.146Z" transform="translate(-3700.822 -247.062)" fill="#858484" opacity="0.762"/>
          <path id="Path_2788" data-name="Path 2788" d="M3844.373,322.913a67.644,67.644,0,1,1-41.9-62.611A67.7,67.7,0,0,1,3844.373,322.913Z" transform="translate(-3700.938 -247.179)" fill="#848282" opacity="0.772"/>
          <path id="Path_2789" data-name="Path 2789" d="M3844.14,322.679a67.64,67.64,0,1,1-41.9-62.611A67.7,67.7,0,0,1,3844.14,322.679Z" transform="translate(-3701.055 -247.295)" fill="#838281" opacity="0.782"/>
          <path id="Path_2790" data-name="Path 2790" d="M3843.907,322.448a67.638,67.638,0,1,1-41.9-62.613A67.7,67.7,0,0,1,3843.907,322.448Z" transform="translate(-3701.172 -247.411)" fill="#818080" opacity="0.792"/>
          <path id="Path_2791" data-name="Path 2791" d="M3843.674,322.215a67.637,67.637,0,1,1-41.9-62.613A67.7,67.7,0,0,1,3843.674,322.215Z" transform="translate(-3701.288 -247.528)" fill="gray" opacity="0.802"/>
          <path id="Path_2792" data-name="Path 2792" d="M3843.441,321.982a67.639,67.639,0,1,1-41.9-62.613A67.7,67.7,0,0,1,3843.441,321.982Z" transform="translate(-3701.404 -247.645)" fill="#7f7e7e" opacity="0.812"/>
          <path id="Path_2793" data-name="Path 2793" d="M3843.209,321.749a67.644,67.644,0,1,1-41.9-62.611A67.7,67.7,0,0,1,3843.209,321.749Z" transform="translate(-3701.521 -247.761)" fill="#7e7d7d" opacity="0.822"/>
          <path id="Path_2794" data-name="Path 2794" d="M3842.975,321.515a67.64,67.64,0,1,1-41.9-62.611A67.7,67.7,0,0,1,3842.975,321.515Z" transform="translate(-3701.638 -247.877)" fill="#7d7c7c" opacity="0.832"/>
          <path id="Path_2795" data-name="Path 2795" d="M3842.742,321.284a67.637,67.637,0,1,1-41.9-62.613A67.7,67.7,0,0,1,3842.742,321.284Z" transform="translate(-3701.754 -247.994)" fill="#7c7b7b" opacity="0.842"/>
          <path id="Path_2796" data-name="Path 2796" d="M3842.511,321.051a67.639,67.639,0,1,1-41.9-62.613A67.7,67.7,0,0,1,3842.511,321.051Z" transform="translate(-3701.87 -248.111)" fill="#7b7a79" opacity="0.851"/>
          <path id="Path_2797" data-name="Path 2797" d="M3842.278,320.818a67.639,67.639,0,1,1-41.9-62.613A67.7,67.7,0,0,1,3842.278,320.818Z" transform="translate(-3701.988 -248.227)" fill="#797878" opacity="0.861"/>
          <path id="Path_2798" data-name="Path 2798" d="M3842.045,320.585a67.645,67.645,0,1,1-41.9-62.611A67.7,67.7,0,0,1,3842.045,320.585Z" transform="translate(-3702.104 -248.344)" fill="#787676" opacity="0.871"/>
          <path id="Path_2799" data-name="Path 2799" d="M3841.811,320.351a67.639,67.639,0,1,1-41.9-62.611A67.7,67.7,0,0,1,3841.811,320.351Z" transform="translate(-3702.22 -248.46)" fill="#767575" opacity="0.881"/>
          <path id="Path_2800" data-name="Path 2800" d="M3841.578,320.12a67.637,67.637,0,1,1-41.9-62.613A67.7,67.7,0,0,1,3841.578,320.12Z" transform="translate(-3702.337 -248.577)" fill="#767475" opacity="0.891"/>
          <path id="Path_2801" data-name="Path 2801" d="M3841.348,319.887a67.64,67.64,0,1,1-41.9-62.613A67.7,67.7,0,0,1,3841.348,319.887Z" transform="translate(-3702.454 -248.694)" fill="#747373" opacity="0.901"/>
          <path id="Path_2802" data-name="Path 2802" d="M3841.113,319.654a67.643,67.643,0,1,1-41.9-62.611A67.7,67.7,0,0,1,3841.113,319.654Z" transform="translate(-3702.57 -248.81)" fill="#737272" opacity="0.911"/>
          <path id="Path_2803" data-name="Path 2803" d="M3840.88,319.42a67.64,67.64,0,1,1-41.9-62.611A67.7,67.7,0,0,1,3840.88,319.42Z" transform="translate(-3702.686 -248.926)" fill="#727171" opacity="0.921"/>
          <path id="Path_2804" data-name="Path 2804" d="M3840.647,319.189a67.639,67.639,0,1,1-41.9-62.613A67.7,67.7,0,0,1,3840.647,319.189Z" transform="translate(-3702.803 -249.043)" fill="#706f6f" opacity="0.931"/>
          <path id="Path_2805" data-name="Path 2805" d="M3840.415,318.956a67.637,67.637,0,1,1-41.9-62.613A67.7,67.7,0,0,1,3840.415,318.956Z" transform="translate(-3702.919 -249.16)" fill="#6f6e6e" opacity="0.941"/>
          <path id="Path_2806" data-name="Path 2806" d="M3840.182,318.723a67.639,67.639,0,1,1-41.9-62.613A67.7,67.7,0,0,1,3840.182,318.723Z" transform="translate(-3703.036 -249.276)" fill="#6e6d6d" opacity="0.95"/>
          <path id="Path_2807" data-name="Path 2807" d="M3839.949,318.49a67.643,67.643,0,1,1-41.9-62.611A67.7,67.7,0,0,1,3839.949,318.49Z" transform="translate(-3703.153 -249.393)" fill="#6c6c6c" opacity="0.96"/>
          <path id="Path_2808" data-name="Path 2808" d="M3839.716,318.256a67.639,67.639,0,1,1-41.9-62.611A67.7,67.7,0,0,1,3839.716,318.256Z" transform="translate(-3703.269 -249.509)" fill="#6b6b6b" opacity="0.97"/>
          <path id="Path_2809" data-name="Path 2809" d="M3839.483,318.025a67.637,67.637,0,1,1-41.9-62.613A67.7,67.7,0,0,1,3839.483,318.025Z" transform="translate(-3703.386 -249.626)" fill="#696a6a" opacity="0.98"/>
          <path id="Path_2810" data-name="Path 2810" d="M3839.251,317.792a67.638,67.638,0,1,1-41.9-62.613A67.7,67.7,0,0,1,3839.251,317.792Z" transform="translate(-3703.502 -249.742)" fill="#686869" opacity="0.99"/>
          <path id="Path_2811" data-name="Path 2811" d="M3839.019,317.559a67.639,67.639,0,1,1-41.9-62.613A67.7,67.7,0,0,1,3839.019,317.559Z" transform="translate(-3703.619 -249.859)" fill="#676767"/>
        </g>
        <path id="Path_2914" data-name="Path 2914" d="M3839.019,317.559a67.639,67.639,0,1,1-41.9-62.613A67.7,67.7,0,0,1,3839.019,317.559Z" transform="translate(-3298.136 -238.522)" fill="#f9f9f9"/>
      </g>
      <path id="Path_3164" data-name="Path 3164" d="M3767.636,281.9a5.857,5.857,0,1,0-7.84,0,7.828,7.828,0,0,0-2.224,1.94,9.818,9.818,0,0,0-4.951-4.805,7.159,7.159,0,1,0-7.745,0,9.772,9.772,0,0,0-5.888,8.956v11.063a1.3,1.3,0,0,0,1.3,1.3h29.935a1.3,1.3,0,0,0,1.3-1.3V288.638A7.8,7.8,0,0,0,3767.636,281.9Zm-7.174-4.32a3.254,3.254,0,1,1,3.254,3.253A3.258,3.258,0,0,1,3760.461,277.575Zm-11.713-9.112a4.556,4.556,0,1,1-4.556,4.556A4.561,4.561,0,0,1,3748.749,268.463Zm-7.159,19.523a7.159,7.159,0,0,1,14.317,0v9.762h-14.317Zm27.333,9.762h-10.413v-9.11a5.206,5.206,0,0,1,10.413,0Z" transform="translate(-7242.429 1802.85)" fill="gray"/>
      <text id="STEP_03" data-name="STEP 03" transform="translate(-3529.933 2138.589)" fill="#2193d1" font-size="16" font-family="Montserrat-ExtraBold, Montserrat" font-weight="800"><tspan x="0" y="0">STEP 03</tspan></text>
    </g>
  </g>
</svg>
