<svg xmlns="http://www.w3.org/2000/svg" width="199.262" height="182.014" viewBox="0 0 199.262 182.014">
  <g id="Group_666" data-name="Group 666" transform="translate(3962 -2033.367)">
    <g id="Group_85" data-name="Group 85" transform="translate(-3933.42 2044.698)" opacity="0.36" style="mix-blend-mode: multiply;isolation: isolate">
      <path id="Path_2499" data-name="Path 2499" d="M3611.369,341.071a67.64,67.64,0,1,1-41.9-62.613A67.7,67.7,0,0,1,3611.369,341.071Z" transform="translate(-3440.686 -238.088)" fill="#fff" opacity="0"/>
      <path id="Path_2500" data-name="Path 2500" d="M3611.136,340.838a67.639,67.639,0,1,1-41.9-62.613A67.7,67.7,0,0,1,3611.136,340.838Z" transform="translate(-3440.802 -238.205)" fill="#fdfdfd" opacity="0.01"/>
      <path id="Path_2501" data-name="Path 2501" d="M3610.9,340.6a67.644,67.644,0,1,1-41.9-62.611A67.7,67.7,0,0,1,3610.9,340.6Z" transform="translate(-3440.919 -238.321)" fill="#fcfbfb" opacity="0.02"/>
      <path id="Path_2502" data-name="Path 2502" d="M3610.669,340.371a67.637,67.637,0,1,1-41.9-62.611A67.7,67.7,0,0,1,3610.669,340.371Z" transform="translate(-3441.036 -238.437)" fill="#faf9fa" opacity="0.03"/>
      <path id="Path_2503" data-name="Path 2503" d="M3610.438,340.14a67.639,67.639,0,1,1-41.9-62.613A67.7,67.7,0,0,1,3610.438,340.14Z" transform="translate(-3441.152 -238.554)" fill="#f8f8f8" opacity="0.04"/>
      <path id="Path_2504" data-name="Path 2504" d="M3610.2,339.907a67.64,67.64,0,1,1-41.9-62.613A67.7,67.7,0,0,1,3610.2,339.907Z" transform="translate(-3441.269 -238.671)" fill="#f6f6f6" opacity="0.05"/>
      <path id="Path_2505" data-name="Path 2505" d="M3609.972,339.674a67.64,67.64,0,1,1-41.9-62.613A67.7,67.7,0,0,1,3609.972,339.674Z" transform="translate(-3441.385 -238.787)" fill="#f5f5f5" opacity="0.059"/>
      <path id="Path_2506" data-name="Path 2506" d="M3609.738,339.441a67.643,67.643,0,1,1-41.9-62.611A67.7,67.7,0,0,1,3609.738,339.441Z" transform="translate(-3441.501 -238.904)" fill="#f3f2f3" opacity="0.069"/>
      <path id="Path_2507" data-name="Path 2507" d="M3609.505,339.207a67.637,67.637,0,1,1-41.9-62.611A67.7,67.7,0,0,1,3609.505,339.207Z" transform="translate(-3441.618 -239.02)" fill="#f1f0f1" opacity="0.079"/>
      <path id="Path_2508" data-name="Path 2508" d="M3609.274,338.976a67.64,67.64,0,1,1-41.9-62.613A67.7,67.7,0,0,1,3609.274,338.976Z" transform="translate(-3441.734 -239.137)" fill="#efeeef" opacity="0.089"/>
      <path id="Path_2509" data-name="Path 2509" d="M3609.041,338.743a67.639,67.639,0,1,1-41.9-62.613A67.7,67.7,0,0,1,3609.041,338.743Z" transform="translate(-3441.851 -239.253)" fill="#edeced" opacity="0.099"/>
      <path id="Path_2510" data-name="Path 2510" d="M3608.807,338.51a67.644,67.644,0,1,1-41.9-62.611A67.7,67.7,0,0,1,3608.807,338.51Z" transform="translate(-3441.967 -239.37)" fill="#ecebeb" opacity="0.109"/>
      <path id="Path_2511" data-name="Path 2511" d="M3608.575,338.276a67.639,67.639,0,1,1-41.9-62.611A67.7,67.7,0,0,1,3608.575,338.276Z" transform="translate(-3442.085 -239.486)" fill="#ebeaea" opacity="0.119"/>
      <path id="Path_2512" data-name="Path 2512" d="M3608.341,338.045a67.637,67.637,0,1,1-41.9-62.613A67.7,67.7,0,0,1,3608.341,338.045Z" transform="translate(-3442.201 -239.603)" fill="#e8e8e8" opacity="0.129"/>
      <path id="Path_2513" data-name="Path 2513" d="M3608.11,337.812a67.639,67.639,0,1,1-41.9-62.613A67.7,67.7,0,0,1,3608.11,337.812Z" transform="translate(-3442.318 -239.72)" fill="#e7e5e6" opacity="0.139"/>
      <path id="Path_2514" data-name="Path 2514" d="M3607.877,337.579a67.639,67.639,0,1,1-41.9-62.613A67.7,67.7,0,0,1,3607.877,337.579Z" transform="translate(-3442.434 -239.836)" fill="#e4e3e4" opacity="0.149"/>
      <path id="Path_2515" data-name="Path 2515" d="M3607.644,337.346a67.644,67.644,0,1,1-41.9-62.611A67.7,67.7,0,0,1,3607.644,337.346Z" transform="translate(-3442.551 -239.953)" fill="#e3e1e2" opacity="0.158"/>
      <path id="Path_2516" data-name="Path 2516" d="M3607.41,337.112a67.638,67.638,0,1,1-41.9-62.611A67.7,67.7,0,0,1,3607.41,337.112Z" transform="translate(-3442.667 -240.069)" fill="#e1e0e1" opacity="0.168"/>
      <path id="Path_2517" data-name="Path 2517" d="M3607.177,336.881a67.638,67.638,0,1,1-41.9-62.613A67.7,67.7,0,0,1,3607.177,336.881Z" transform="translate(-3442.783 -240.186)" fill="#e0dedf" opacity="0.178"/>
      <path id="Path_2518" data-name="Path 2518" d="M3606.946,336.648a67.639,67.639,0,1,1-41.9-62.613A67.7,67.7,0,0,1,3606.946,336.648Z" transform="translate(-3442.9 -240.302)" fill="#dedddd" opacity="0.188"/>
      <path id="Path_2519" data-name="Path 2519" d="M3606.713,336.415a67.64,67.64,0,1,1-41.9-62.613A67.7,67.7,0,0,1,3606.713,336.415Z" transform="translate(-3443.018 -240.419)" fill="#dcdbdc" opacity="0.198"/>
      <path id="Path_2520" data-name="Path 2520" d="M3606.48,336.182a67.644,67.644,0,1,1-41.9-62.611A67.7,67.7,0,0,1,3606.48,336.182Z" transform="translate(-3443.133 -240.536)" fill="#dbd9da" opacity="0.208"/>
      <path id="Path_2521" data-name="Path 2521" d="M3606.247,335.948a67.638,67.638,0,1,1-41.9-62.611A67.7,67.7,0,0,1,3606.247,335.948Z" transform="translate(-3443.25 -240.652)" fill="#d8d7d8" opacity="0.218"/>
      <path id="Path_2522" data-name="Path 2522" d="M3606.015,335.717a67.64,67.64,0,1,1-41.9-62.613A67.7,67.7,0,0,1,3606.015,335.717Z" transform="translate(-3443.367 -240.768)" fill="#d8d6d7" opacity="0.228"/>
      <path id="Path_2523" data-name="Path 2523" d="M3605.782,335.484a67.639,67.639,0,1,1-41.9-62.613A67.7,67.7,0,0,1,3605.782,335.484Z" transform="translate(-3443.483 -240.885)" fill="#d6d4d4" opacity="0.238"/>
      <path id="Path_2524" data-name="Path 2524" d="M3605.549,335.251a67.64,67.64,0,1,1-41.9-62.613A67.7,67.7,0,0,1,3605.549,335.251Z" transform="translate(-3443.6 -241.002)" fill="#d4d2d3" opacity="0.248"/>
      <path id="Path_2525" data-name="Path 2525" d="M3605.315,335.018a67.643,67.643,0,1,1-41.9-62.611A67.7,67.7,0,0,1,3605.315,335.018Z" transform="translate(-3443.716 -241.118)" fill="#d2d1d1" opacity="0.257"/>
      <path id="Path_2526" data-name="Path 2526" d="M3605.083,334.784a67.637,67.637,0,1,1-41.9-62.611A67.7,67.7,0,0,1,3605.083,334.784Z" transform="translate(-3443.833 -241.234)" fill="#d0cecf" opacity="0.267"/>
      <path id="Path_2527" data-name="Path 2527" d="M3604.851,334.553a67.64,67.64,0,1,1-41.9-62.613A67.7,67.7,0,0,1,3604.851,334.553Z" transform="translate(-3443.949 -241.351)" fill="#cfcdcd" opacity="0.277"/>
      <path id="Path_2528" data-name="Path 2528" d="M3604.618,334.32a67.639,67.639,0,1,1-41.9-62.613A67.7,67.7,0,0,1,3604.618,334.32Z" transform="translate(-3444.066 -241.468)" fill="#cdcbcc" opacity="0.287"/>
      <path id="Path_2529" data-name="Path 2529" d="M3604.385,334.087a67.644,67.644,0,1,1-41.9-62.611A67.7,67.7,0,0,1,3604.385,334.087Z" transform="translate(-3444.182 -241.584)" fill="#cccacb" opacity="0.297"/>
      <path id="Path_2530" data-name="Path 2530" d="M3604.152,333.853a67.64,67.64,0,1,1-41.9-62.611A67.7,67.7,0,0,1,3604.152,333.853Z" transform="translate(-3444.299 -241.701)" fill="#cac8c9" opacity="0.307"/>
      <path id="Path_2531" data-name="Path 2531" d="M3603.919,333.622a67.638,67.638,0,1,1-41.9-62.613A67.7,67.7,0,0,1,3603.919,333.622Z" transform="translate(-3444.416 -241.817)" fill="#c8c6c7" opacity="0.317"/>
      <path id="Path_2532" data-name="Path 2532" d="M3603.687,333.389a67.639,67.639,0,1,1-41.9-62.613A67.7,67.7,0,0,1,3603.687,333.389Z" transform="translate(-3444.532 -241.934)" fill="#c7c5c5" opacity="0.327"/>
      <path id="Path_2533" data-name="Path 2533" d="M3603.454,333.156a67.64,67.64,0,1,1-41.9-62.613A67.7,67.7,0,0,1,3603.454,333.156Z" transform="translate(-3444.649 -242.051)" fill="#c5c3c4" opacity="0.337"/>
      <path id="Path_2534" data-name="Path 2534" d="M3603.221,332.923a67.645,67.645,0,1,1-41.9-62.611A67.7,67.7,0,0,1,3603.221,332.923Z" transform="translate(-3444.765 -242.167)" fill="#c4c2c2" opacity="0.347"/>
      <path id="Path_2535" data-name="Path 2535" d="M3602.988,332.689a67.637,67.637,0,1,1-41.9-62.611A67.7,67.7,0,0,1,3602.988,332.689Z" transform="translate(-3444.882 -242.283)" fill="#c2c0c1" opacity="0.356"/>
      <path id="Path_2536" data-name="Path 2536" d="M3602.754,332.458a67.638,67.638,0,1,1-41.9-62.613A67.7,67.7,0,0,1,3602.754,332.458Z" transform="translate(-3444.998 -242.4)" fill="#c0bebf" opacity="0.366"/>
      <path id="Path_2537" data-name="Path 2537" d="M3602.523,332.225a67.639,67.639,0,1,1-41.9-62.613A67.7,67.7,0,0,1,3602.523,332.225Z" transform="translate(-3445.115 -242.517)" fill="#bfbdbe" opacity="0.376"/>
      <path id="Path_2538" data-name="Path 2538" d="M3602.29,331.992a67.639,67.639,0,1,1-41.9-62.613A67.7,67.7,0,0,1,3602.29,331.992Z" transform="translate(-3445.232 -242.633)" fill="#bdbbbb" opacity="0.386"/>
      <path id="Path_2539" data-name="Path 2539" d="M3602.056,331.759a67.644,67.644,0,1,1-41.9-62.611A67.7,67.7,0,0,1,3602.056,331.759Z" transform="translate(-3445.348 -242.75)" fill="#bcbaba" opacity="0.396"/>
      <path id="Path_2540" data-name="Path 2540" d="M3601.823,331.525a67.637,67.637,0,1,1-41.9-62.611A67.7,67.7,0,0,1,3601.823,331.525Z" transform="translate(-3445.464 -242.866)" fill="#bab8b9" opacity="0.406"/>
      <path id="Path_2541" data-name="Path 2541" d="M3601.592,331.294a67.639,67.639,0,1,1-41.9-62.613A67.7,67.7,0,0,1,3601.592,331.294Z" transform="translate(-3445.581 -242.983)" fill="#b9b6b7" opacity="0.416"/>
      <path id="Path_2542" data-name="Path 2542" d="M3601.359,331.061a67.64,67.64,0,1,1-41.9-62.613A67.7,67.7,0,0,1,3601.359,331.061Z" transform="translate(-3445.698 -243.099)" fill="#b8b5b6" opacity="0.426"/>
      <path id="Path_2543" data-name="Path 2543" d="M3601.126,330.828a67.64,67.64,0,1,1-41.9-62.613A67.7,67.7,0,0,1,3601.126,330.828Z" transform="translate(-3445.815 -243.216)" fill="#b6b3b4" opacity="0.436"/>
      <path id="Path_2544" data-name="Path 2544" d="M3600.893,330.595a67.643,67.643,0,1,1-41.9-62.611A67.7,67.7,0,0,1,3600.893,330.595Z" transform="translate(-3445.93 -243.333)" fill="#b5b2b3" opacity="0.446"/>
      <path id="Path_2545" data-name="Path 2545" d="M3600.66,330.361a67.638,67.638,0,1,1-41.9-62.611A67.7,67.7,0,0,1,3600.66,330.361Z" transform="translate(-3446.047 -243.449)" fill="#b3b1b1" opacity="0.455"/>
      <path id="Path_2546" data-name="Path 2546" d="M3600.428,330.13a67.64,67.64,0,1,1-41.9-62.613A67.7,67.7,0,0,1,3600.428,330.13Z" transform="translate(-3446.163 -243.565)" fill="#b2afaf" opacity="0.465"/>
      <path id="Path_2547" data-name="Path 2547" d="M3600.195,329.9a67.639,67.639,0,1,1-41.9-62.613A67.7,67.7,0,0,1,3600.195,329.9Z" transform="translate(-3446.28 -243.682)" fill="#b0adae" opacity="0.475"/>
      <path id="Path_2548" data-name="Path 2548" d="M3599.962,329.664a67.639,67.639,0,1,1-41.9-62.613A67.7,67.7,0,0,1,3599.962,329.664Z" transform="translate(-3446.396 -243.799)" fill="#aeacac" opacity="0.485"/>
      <path id="Path_2549" data-name="Path 2549" d="M3599.728,329.43a67.639,67.639,0,1,1-41.9-62.611A67.7,67.7,0,0,1,3599.728,329.43Z" transform="translate(-3446.513 -243.915)" fill="#adaaab" opacity="0.495"/>
      <path id="Path_2550" data-name="Path 2550" d="M3599.5,329.2a67.638,67.638,0,1,1-41.9-62.613A67.7,67.7,0,0,1,3599.5,329.2Z" transform="translate(-3446.63 -244.032)" fill="#aba9aa" opacity="0.505"/>
      <path id="Path_2551" data-name="Path 2551" d="M3599.264,328.966a67.639,67.639,0,1,1-41.9-62.613A67.7,67.7,0,0,1,3599.264,328.966Z" transform="translate(-3446.746 -244.148)" fill="#aaa8a8" opacity="0.515"/>
      <path id="Path_2552" data-name="Path 2552" d="M3599.031,328.733a67.639,67.639,0,1,1-41.9-62.613A67.7,67.7,0,0,1,3599.031,328.733Z" transform="translate(-3446.864 -244.265)" fill="#a8a6a7" opacity="0.525"/>
      <path id="Path_2553" data-name="Path 2553" d="M3598.8,328.5a67.644,67.644,0,1,1-41.9-62.611A67.7,67.7,0,0,1,3598.8,328.5Z" transform="translate(-3446.979 -244.382)" fill="#a7a4a5" opacity="0.535"/>
      <path id="Path_2554" data-name="Path 2554" d="M3598.565,328.266a67.64,67.64,0,1,1-41.9-62.611A67.7,67.7,0,0,1,3598.565,328.266Z" transform="translate(-3447.096 -244.498)" fill="#a5a3a3" opacity="0.545"/>
      <path id="Path_2555" data-name="Path 2555" d="M3598.331,328.035a67.638,67.638,0,1,1-41.9-62.613A67.7,67.7,0,0,1,3598.331,328.035Z" transform="translate(-3447.213 -244.614)" fill="#a3a1a1" opacity="0.554"/>
      <path id="Path_2556" data-name="Path 2556" d="M3598.1,327.8a67.64,67.64,0,1,1-41.9-62.613A67.7,67.7,0,0,1,3598.1,327.8Z" transform="translate(-3447.33 -244.731)" fill="#a3a0a0" opacity="0.564"/>
      <path id="Path_2557" data-name="Path 2557" d="M3597.867,327.569a67.64,67.64,0,1,1-41.9-62.613A67.7,67.7,0,0,1,3597.867,327.569Z" transform="translate(-3447.446 -244.848)" fill="#a19f9f" opacity="0.574"/>
      <path id="Path_2558" data-name="Path 2558" d="M3597.634,327.336a67.644,67.644,0,1,1-41.9-62.611A67.7,67.7,0,0,1,3597.634,327.336Z" transform="translate(-3447.562 -244.964)" fill="#9f9d9d" opacity="0.584"/>
      <path id="Path_2559" data-name="Path 2559" d="M3597.4,327.1a67.637,67.637,0,1,1-41.9-62.611A67.7,67.7,0,0,1,3597.4,327.1Z" transform="translate(-3447.679 -245.08)" fill="#9e9c9c" opacity="0.594"/>
      <path id="Path_2560" data-name="Path 2560" d="M3597.168,326.871a67.638,67.638,0,1,1-41.9-62.613A67.7,67.7,0,0,1,3597.168,326.871Z" transform="translate(-3447.795 -245.197)" fill="#9c9a9a" opacity="0.604"/>
      <path id="Path_2561" data-name="Path 2561" d="M3596.936,326.638a67.639,67.639,0,1,1-41.9-62.613A67.7,67.7,0,0,1,3596.936,326.638Z" transform="translate(-3447.913 -245.314)" fill="#9b9999" opacity="0.614"/>
      <path id="Path_2562" data-name="Path 2562" d="M3596.7,326.4a67.639,67.639,0,1,1-41.9-62.613A67.7,67.7,0,0,1,3596.7,326.4Z" transform="translate(-3448.028 -245.43)" fill="#999797" opacity="0.624"/>
      <path id="Path_2563" data-name="Path 2563" d="M3596.47,326.172a67.644,67.644,0,1,1-41.9-62.611A67.7,67.7,0,0,1,3596.47,326.172Z" transform="translate(-3448.145 -245.547)" fill="#989696" opacity="0.634"/>
      <path id="Path_2564" data-name="Path 2564" d="M3596.236,325.938a67.637,67.637,0,1,1-41.9-62.611A67.7,67.7,0,0,1,3596.236,325.938Z" transform="translate(-3448.261 -245.663)" fill="#969495" opacity="0.644"/>
      <path id="Path_2565" data-name="Path 2565" d="M3596,325.707a67.639,67.639,0,1,1-41.9-62.613A67.7,67.7,0,0,1,3596,325.707Z" transform="translate(-3448.378 -245.78)" fill="#959393" opacity="0.653"/>
      <path id="Path_2566" data-name="Path 2566" d="M3595.772,325.474a67.64,67.64,0,1,1-41.9-62.613A67.7,67.7,0,0,1,3595.772,325.474Z" transform="translate(-3448.495 -245.896)" fill="#949292" opacity="0.663"/>
      <path id="Path_2567" data-name="Path 2567" d="M3595.539,325.241a67.639,67.639,0,1,1-41.9-62.613A67.7,67.7,0,0,1,3595.539,325.241Z" transform="translate(-3448.611 -246.013)" fill="#929091" opacity="0.673"/>
      <path id="Path_2568" data-name="Path 2568" d="M3595.305,325.008a67.644,67.644,0,1,1-41.9-62.611A67.7,67.7,0,0,1,3595.305,325.008Z" transform="translate(-3448.728 -246.13)" fill="#918f8f" opacity="0.683"/>
      <path id="Path_2569" data-name="Path 2569" d="M3595.072,324.774a67.637,67.637,0,1,1-41.9-62.611A67.7,67.7,0,0,1,3595.072,324.774Z" transform="translate(-3448.844 -246.246)" fill="#8f8d8d" opacity="0.693"/>
      <path id="Path_2570" data-name="Path 2570" d="M3594.841,324.543a67.639,67.639,0,1,1-41.9-62.613A67.7,67.7,0,0,1,3594.841,324.543Z" transform="translate(-3448.961 -246.363)" fill="#8e8c8c" opacity="0.703"/>
      <path id="Path_2571" data-name="Path 2571" d="M3594.608,324.31a67.64,67.64,0,1,1-41.9-62.613A67.7,67.7,0,0,1,3594.608,324.31Z" transform="translate(-3449.077 -246.479)" fill="#8d8b8b" opacity="0.713"/>
      <path id="Path_2572" data-name="Path 2572" d="M3594.375,324.077a67.644,67.644,0,1,1-41.9-62.611A67.7,67.7,0,0,1,3594.375,324.077Z" transform="translate(-3449.194 -246.596)" fill="#8b8a8a" opacity="0.723"/>
      <path id="Path_2573" data-name="Path 2573" d="M3594.142,323.843a67.639,67.639,0,1,1-41.9-62.611A67.7,67.7,0,0,1,3594.142,323.843Z" transform="translate(-3449.311 -246.712)" fill="#8a8888" opacity="0.733"/>
      <path id="Path_2574" data-name="Path 2574" d="M3593.909,323.612a67.637,67.637,0,1,1-41.9-62.613A67.7,67.7,0,0,1,3593.909,323.612Z" transform="translate(-3449.427 -246.829)" fill="#888687" opacity="0.743"/>
      <path id="Path_2575" data-name="Path 2575" d="M3593.677,323.379a67.639,67.639,0,1,1-41.9-62.613A67.7,67.7,0,0,1,3593.677,323.379Z" transform="translate(-3449.544 -246.945)" fill="#878585" opacity="0.752"/>
      <path id="Path_2576" data-name="Path 2576" d="M3593.444,323.146a67.639,67.639,0,1,1-41.9-62.613A67.7,67.7,0,0,1,3593.444,323.146Z" transform="translate(-3449.66 -247.062)" fill="#858484" opacity="0.762"/>
      <path id="Path_2577" data-name="Path 2577" d="M3593.211,322.913a67.644,67.644,0,1,1-41.9-62.611A67.7,67.7,0,0,1,3593.211,322.913Z" transform="translate(-3449.776 -247.179)" fill="#848282" opacity="0.772"/>
      <path id="Path_2578" data-name="Path 2578" d="M3592.977,322.679a67.638,67.638,0,1,1-41.9-62.611A67.7,67.7,0,0,1,3592.977,322.679Z" transform="translate(-3449.893 -247.295)" fill="#838281" opacity="0.782"/>
      <path id="Path_2579" data-name="Path 2579" d="M3592.745,322.448a67.638,67.638,0,1,1-41.9-62.613A67.7,67.7,0,0,1,3592.745,322.448Z" transform="translate(-3450.01 -247.411)" fill="#818080" opacity="0.792"/>
      <path id="Path_2580" data-name="Path 2580" d="M3592.513,322.215a67.639,67.639,0,1,1-41.9-62.613A67.7,67.7,0,0,1,3592.513,322.215Z" transform="translate(-3450.126 -247.528)" fill="gray" opacity="0.802"/>
      <path id="Path_2581" data-name="Path 2581" d="M3592.28,321.982a67.639,67.639,0,1,1-41.9-62.613A67.7,67.7,0,0,1,3592.28,321.982Z" transform="translate(-3450.243 -247.645)" fill="#7f7e7e" opacity="0.812"/>
      <path id="Path_2582" data-name="Path 2582" d="M3592.046,321.749a67.644,67.644,0,1,1-41.9-62.611A67.7,67.7,0,0,1,3592.046,321.749Z" transform="translate(-3450.359 -247.761)" fill="#7e7d7d" opacity="0.822"/>
      <path id="Path_2583" data-name="Path 2583" d="M3591.813,321.515a67.637,67.637,0,1,1-41.9-62.611A67.7,67.7,0,0,1,3591.813,321.515Z" transform="translate(-3450.476 -247.877)" fill="#7d7c7c" opacity="0.832"/>
      <path id="Path_2584" data-name="Path 2584" d="M3591.582,321.284a67.639,67.639,0,1,1-41.9-62.613A67.7,67.7,0,0,1,3591.582,321.284Z" transform="translate(-3450.593 -247.994)" fill="#7c7b7b" opacity="0.842"/>
      <path id="Path_2585" data-name="Path 2585" d="M3591.349,321.051a67.639,67.639,0,1,1-41.9-62.613A67.7,67.7,0,0,1,3591.349,321.051Z" transform="translate(-3450.708 -248.111)" fill="#7b7a79" opacity="0.851"/>
      <path id="Path_2586" data-name="Path 2586" d="M3591.116,320.818a67.639,67.639,0,1,1-41.9-62.613A67.7,67.7,0,0,1,3591.116,320.818Z" transform="translate(-3450.826 -248.227)" fill="#797878" opacity="0.861"/>
      <path id="Path_2587" data-name="Path 2587" d="M3590.882,320.585a67.644,67.644,0,1,1-41.9-62.611A67.7,67.7,0,0,1,3590.882,320.585Z" transform="translate(-3450.942 -248.344)" fill="#787676" opacity="0.871"/>
      <path id="Path_2588" data-name="Path 2588" d="M3590.65,320.351a67.638,67.638,0,1,1-41.9-62.611A67.7,67.7,0,0,1,3590.65,320.351Z" transform="translate(-3451.059 -248.46)" fill="#767575" opacity="0.881"/>
      <path id="Path_2589" data-name="Path 2589" d="M3590.418,320.12a67.639,67.639,0,1,1-41.9-62.613A67.7,67.7,0,0,1,3590.418,320.12Z" transform="translate(-3451.176 -248.577)" fill="#767475" opacity="0.891"/>
      <path id="Path_2590" data-name="Path 2590" d="M3590.185,319.887a67.639,67.639,0,1,1-41.9-62.613A67.7,67.7,0,0,1,3590.185,319.887Z" transform="translate(-3451.291 -248.694)" fill="#747373" opacity="0.901"/>
      <path id="Path_2591" data-name="Path 2591" d="M3589.952,319.654a67.644,67.644,0,1,1-41.9-62.611A67.7,67.7,0,0,1,3589.952,319.654Z" transform="translate(-3451.407 -248.81)" fill="#737272" opacity="0.911"/>
      <path id="Path_2592" data-name="Path 2592" d="M3589.719,319.42a67.639,67.639,0,1,1-41.9-62.611A67.7,67.7,0,0,1,3589.719,319.42Z" transform="translate(-3451.524 -248.926)" fill="#727171" opacity="0.921"/>
      <path id="Path_2593" data-name="Path 2593" d="M3589.485,319.189a67.637,67.637,0,1,1-41.9-62.613A67.7,67.7,0,0,1,3589.485,319.189Z" transform="translate(-3451.642 -249.043)" fill="#706f6f" opacity="0.931"/>
      <path id="Path_2594" data-name="Path 2594" d="M3589.254,318.956a67.639,67.639,0,1,1-41.9-62.613A67.7,67.7,0,0,1,3589.254,318.956Z" transform="translate(-3451.758 -249.16)" fill="#6f6e6e" opacity="0.941"/>
      <path id="Path_2595" data-name="Path 2595" d="M3589.021,318.723a67.639,67.639,0,1,1-41.9-62.613A67.7,67.7,0,0,1,3589.021,318.723Z" transform="translate(-3451.874 -249.276)" fill="#6e6d6d" opacity="0.95"/>
      <path id="Path_2596" data-name="Path 2596" d="M3588.788,318.49a67.644,67.644,0,1,1-41.9-62.611A67.7,67.7,0,0,1,3588.788,318.49Z" transform="translate(-3451.991 -249.393)" fill="#6c6c6c" opacity="0.96"/>
      <path id="Path_2597" data-name="Path 2597" d="M3588.555,318.256a67.638,67.638,0,1,1-41.9-62.611A67.7,67.7,0,0,1,3588.555,318.256Z" transform="translate(-3452.107 -249.509)" fill="#6b6b6b" opacity="0.97"/>
      <path id="Path_2598" data-name="Path 2598" d="M3588.321,318.025a67.637,67.637,0,1,1-41.9-62.613A67.7,67.7,0,0,1,3588.321,318.025Z" transform="translate(-3452.224 -249.626)" fill="#696a6a" opacity="0.98"/>
      <path id="Path_2599" data-name="Path 2599" d="M3588.09,317.792a67.638,67.638,0,1,1-41.9-62.613A67.7,67.7,0,0,1,3588.09,317.792Z" transform="translate(-3452.341 -249.742)" fill="#686869" opacity="0.99"/>
      <path id="Path_2600" data-name="Path 2600" d="M3587.857,317.559a67.64,67.64,0,1,1-41.9-62.613A67.7,67.7,0,0,1,3587.857,317.559Z" transform="translate(-3452.457 -249.859)" fill="#676767"/>
    </g>
    <g id="Group_660" data-name="Group 660" transform="translate(-4092 -558)">
      <g id="Group_655" data-name="Group 655" transform="translate(130 2591.361)">
        <g id="Group_83" data-name="Group 83" transform="translate(0 75.181)">
          <path id="Path_2497" data-name="Path 2497" d="M3437.269,300.116a3.857,3.857,0,1,1,3.857-3.857A3.861,3.861,0,0,1,3437.269,300.116Zm0-7.079a3.222,3.222,0,1,0,3.222,3.222A3.225,3.225,0,0,0,3437.269,293.038Z" transform="translate(-3433.413 -292.403)" fill="gray"/>
        </g>
        <g id="Group_86" data-name="Group 86" transform="translate(7.227 78.72)">
          <path id="Path_2602" data-name="Path 2602" d="M3451.141,295.4h-12.595a.317.317,0,1,1,0-.633h12.595a.317.317,0,1,1,0,.633Z" transform="translate(-3438.228 -294.762)" fill="gray"/>
        </g>
        <g id="Group_654" data-name="Group 654">
          <g id="Group_84" data-name="Group 84" transform="translate(19.822 2.58)">
            <path id="Path_2498" data-name="Path 2498" d="M3599.22,320.8a.317.317,0,0,1-.318-.317,75.823,75.823,0,1,0-151.646,0,.317.317,0,0,1-.635,0,76.458,76.458,0,1,1,152.915,0A.317.317,0,0,1,3599.22,320.8Z" transform="translate(-3446.621 -244.023)" fill="gray"/>
          </g>
          <path id="Path_2601" data-name="Path 2601" d="M3587.857,317.559a67.64,67.64,0,1,1-41.9-62.613A67.7,67.7,0,0,1,3587.857,317.559Z" transform="translate(-3423.878 -238.522)" fill="#f9f9f9"/>
          <g id="Group_87" data-name="Group 87" transform="translate(172.102 78.72)">
            <path id="Path_2603" data-name="Path 2603" d="M3566.587,295.4h-18.171a.317.317,0,1,1,0-.633h18.171a.317.317,0,1,1,0,.633Z" transform="translate(-3548.098 -294.762)" fill="gray"/>
          </g>
          <g id="Group_88" data-name="Group 88" transform="translate(184.697 72.75)">
            <path id="Path_2604" data-name="Path 2604" d="M3556.82,303.357a.316.316,0,0,1-.225-.54l5.74-5.741-5.75-5.75a.315.315,0,0,1,0-.449.319.319,0,0,1,.449,0l5.975,5.975a.318.318,0,0,1,0,.449l-5.965,5.965A.315.315,0,0,1,3556.82,303.357Z" transform="translate(-3556.491 -290.784)" fill="gray"/>
          </g>
          <g id="Group_109" data-name="Group 109" transform="translate(59.544 0.006)">
            <path id="Path_2930" data-name="Path 2930" d="M3475.75,256.406l-2.659-5.054a79.128,79.128,0,0,1,73.472,0l-2.66,5.054a73.42,73.42,0,0,0-68.153,0Z" transform="translate(-3473.092 -242.308)" fill="#2193d1"/>
          </g>
        </g>
      </g>
      <g id="Group_657" data-name="Group 657">
        <g id="Group_656" data-name="Group 656">
          <g id="Group_125" data-name="Group 125" transform="translate(211.005 2626.223)">
            <path id="Path_3153" data-name="Path 3153" d="M3502.14,269.872a10.425,10.425,0,0,0-10.413,10.413c0,2.485,1.71,5.338,3.146,7.295a3.862,3.862,0,0,1,.758,2.3V293.3a6.5,6.5,0,0,0,6.521,6.507,6.117,6.117,0,0,0,.62-.03,6.675,6.675,0,0,0,5.875-6.7v-3.195a3.871,3.871,0,0,1,.759-2.3c1.435-1.955,3.145-4.808,3.145-7.295A10.425,10.425,0,0,0,3502.14,269.872Zm.385,27.315a3.9,3.9,0,0,1-4.29-3.887v-2.6h7.809v2.383A4.056,4.056,0,0,1,3502.526,297.187Zm4.783-11.148a6.511,6.511,0,0,0-1,2.056h-8.34a6.492,6.492,0,0,0-1-2.056c-1.679-2.287-2.643-4.385-2.643-5.753a7.81,7.81,0,0,1,15.62,0C3509.95,281.655,3508.988,283.751,3507.308,286.038Z" transform="translate(-3485.222 -263.365)" fill="gray"/>
            <path id="Path_3154" data-name="Path 3154" d="M3499.1,270.742a1.3,1.3,0,0,0,1.3-1.3v-2.6a1.3,1.3,0,1,0-2.6,0v2.6A1.3,1.3,0,0,0,3499.1,270.742Z" transform="translate(-3482.182 -265.536)" fill="gray"/>
            <path id="Path_3155" data-name="Path 3155" d="M3494.071,271.136a1.3,1.3,0,0,0,2.256-1.3l-1.3-2.254a1.3,1.3,0,0,0-2.254,1.3Z" transform="translate(-3484.788 -264.838)" fill="gray"/>
            <path id="Path_3156" data-name="Path 3156" d="M3493.536,273.88a1.3,1.3,0,0,0-.441-1.787l-2.226-1.346a1.3,1.3,0,0,0-1.348,2.227l2.226,1.346a1.3,1.3,0,0,0,1.788-.44Z" transform="translate(-3486.64 -263.022)" fill="gray"/>
            <path id="Path_3157" data-name="Path 3157" d="M3491.31,275.86l-2.6-.029h-.013a1.3,1.3,0,0,0-.013,2.6l2.6.027h.015a1.3,1.3,0,0,0,.014-2.6Z" transform="translate(-3487.392 -260.382)" fill="gray"/>
            <path id="Path_3158" data-name="Path 3158" d="M3510.379,275.965l-2.6,0h0a1.3,1.3,0,0,0,0,2.6l2.6.006h0a1.3,1.3,0,0,0,0-2.6Z" transform="translate(-3477.84 -260.317)" fill="gray"/>
            <path id="Path_3159" data-name="Path 3159" d="M3509.584,270.776a1.3,1.3,0,0,0-1.8-.365l-2.168,1.439a1.3,1.3,0,1,0,1.438,2.168l2.17-1.439A1.3,1.3,0,0,0,3509.584,270.776Z" transform="translate(-3478.563 -263.205)" fill="gray"/>
            <path id="Path_3160" data-name="Path 3160" d="M3502.786,271.613a1.3,1.3,0,0,0,1.778-.477l1.3-2.253a1.3,1.3,0,0,0-2.254-1.3l-1.3,2.254A1.3,1.3,0,0,0,3502.786,271.613Z" transform="translate(-3480.011 -264.838)" fill="gray"/>
          </g>
          <text id="STEP_01" data-name="STEP 01" transform="translate(189.544 2696.589)" fill="#2193d1" font-size="16" font-family="Montserrat-ExtraBold, Montserrat" font-weight="800"><tspan x="0" y="0">STEP 01</tspan></text>
        </g>
      </g>
    </g>
  </g>
</svg>
