<svg xmlns="http://www.w3.org/2000/svg" width="198.009" height="182.014" viewBox="0 0 198.009 182.014">
  <g id="Group_698" data-name="Group 698" transform="translate(3860.76 -1855.367)">
    <g id="Group_697" data-name="Group 697" transform="translate(-4616 1855.361)">
      <g id="Group_113" data-name="Group 113" transform="translate(782.569 11.337)" opacity="0.36" style="mix-blend-mode: multiply;isolation: isolate">
        <path id="Path_2934" data-name="Path 2934" d="M4113.813,341.071a67.639,67.639,0,1,1-41.9-62.613A67.7,67.7,0,0,1,4113.813,341.071Z" transform="translate(-3943.132 -238.088)" fill="#fff" opacity="0"/>
        <path id="Path_2935" data-name="Path 2935" d="M4113.579,340.838a67.639,67.639,0,1,1-41.9-62.613A67.7,67.7,0,0,1,4113.579,340.838Z" transform="translate(-3943.248 -238.205)" fill="#fdfdfd" opacity="0.01"/>
        <path id="Path_2936" data-name="Path 2936" d="M4113.346,340.6a67.642,67.642,0,1,1-41.9-62.611A67.7,67.7,0,0,1,4113.346,340.6Z" transform="translate(-3943.365 -238.321)" fill="#fcfbfb" opacity="0.02"/>
        <path id="Path_2937" data-name="Path 2937" d="M4113.113,340.371a67.637,67.637,0,1,1-41.9-62.611A67.7,67.7,0,0,1,4113.113,340.371Z" transform="translate(-3943.481 -238.437)" fill="#faf9fa" opacity="0.03"/>
        <path id="Path_2938" data-name="Path 2938" d="M4112.881,340.14a67.639,67.639,0,1,1-41.9-62.613A67.7,67.7,0,0,1,4112.881,340.14Z" transform="translate(-3943.598 -238.554)" fill="#f8f8f8" opacity="0.04"/>
        <path id="Path_2939" data-name="Path 2939" d="M4112.648,339.907a67.638,67.638,0,1,1-41.9-62.613A67.7,67.7,0,0,1,4112.648,339.907Z" transform="translate(-3943.715 -238.671)" fill="#f6f6f6" opacity="0.05"/>
        <path id="Path_2940" data-name="Path 2940" d="M4112.416,339.674a67.639,67.639,0,1,1-41.9-62.613A67.7,67.7,0,0,1,4112.416,339.674Z" transform="translate(-3943.831 -238.787)" fill="#f5f5f5" opacity="0.059"/>
        <path id="Path_2941" data-name="Path 2941" d="M4112.183,339.441a67.643,67.643,0,1,1-41.9-62.611A67.7,67.7,0,0,1,4112.183,339.441Z" transform="translate(-3943.948 -238.904)" fill="#f3f2f3" opacity="0.069"/>
        <path id="Path_2942" data-name="Path 2942" d="M4111.95,339.207a67.638,67.638,0,1,1-41.9-62.611A67.7,67.7,0,0,1,4111.95,339.207Z" transform="translate(-3944.063 -239.02)" fill="#f1f0f1" opacity="0.079"/>
        <path id="Path_2943" data-name="Path 2943" d="M4111.718,338.976a67.639,67.639,0,1,1-41.9-62.613A67.7,67.7,0,0,1,4111.718,338.976Z" transform="translate(-3944.18 -239.137)" fill="#efeeef" opacity="0.089"/>
        <path id="Path_2944" data-name="Path 2944" d="M4111.485,338.743a67.64,67.64,0,1,1-41.9-62.613A67.7,67.7,0,0,1,4111.485,338.743Z" transform="translate(-3944.297 -239.253)" fill="#edeced" opacity="0.099"/>
        <path id="Path_2945" data-name="Path 2945" d="M4111.252,338.51a67.645,67.645,0,1,1-41.9-62.611A67.7,67.7,0,0,1,4111.252,338.51Z" transform="translate(-3944.414 -239.37)" fill="#ecebeb" opacity="0.109"/>
        <path id="Path_2946" data-name="Path 2946" d="M4111.019,338.276a67.638,67.638,0,1,1-41.9-62.611A67.7,67.7,0,0,1,4111.019,338.276Z" transform="translate(-3944.53 -239.486)" fill="#ebeaea" opacity="0.119"/>
        <path id="Path_2947" data-name="Path 2947" d="M4110.787,338.045a67.64,67.64,0,1,1-41.9-62.613A67.7,67.7,0,0,1,4110.787,338.045Z" transform="translate(-3944.647 -239.603)" fill="#e8e8e8" opacity="0.129"/>
        <path id="Path_2948" data-name="Path 2948" d="M4110.554,337.812a67.64,67.64,0,1,1-41.9-62.613A67.7,67.7,0,0,1,4110.554,337.812Z" transform="translate(-3944.763 -239.72)" fill="#e7e5e6" opacity="0.139"/>
        <path id="Path_2949" data-name="Path 2949" d="M4110.321,337.579a67.639,67.639,0,1,1-41.9-62.613A67.7,67.7,0,0,1,4110.321,337.579Z" transform="translate(-3944.879 -239.836)" fill="#e4e3e4" opacity="0.149"/>
        <path id="Path_2950" data-name="Path 2950" d="M4110.088,337.346a67.644,67.644,0,1,1-41.9-62.611A67.7,67.7,0,0,1,4110.088,337.346Z" transform="translate(-3944.996 -239.953)" fill="#e3e1e2" opacity="0.158"/>
        <path id="Path_2951" data-name="Path 2951" d="M4109.854,337.112a67.637,67.637,0,1,1-41.9-62.611A67.7,67.7,0,0,1,4109.854,337.112Z" transform="translate(-3945.113 -240.069)" fill="#e1e0e1" opacity="0.168"/>
        <path id="Path_2952" data-name="Path 2952" d="M4109.623,336.881a67.639,67.639,0,1,1-41.9-62.613A67.7,67.7,0,0,1,4109.623,336.881Z" transform="translate(-3945.229 -240.186)" fill="#e0dedf" opacity="0.178"/>
        <path id="Path_2953" data-name="Path 2953" d="M4109.389,336.648a67.639,67.639,0,1,1-41.9-62.613A67.7,67.7,0,0,1,4109.389,336.648Z" transform="translate(-3945.346 -240.302)" fill="#dedddd" opacity="0.188"/>
        <path id="Path_2954" data-name="Path 2954" d="M4109.156,336.415a67.64,67.64,0,1,1-41.9-62.613A67.7,67.7,0,0,1,4109.156,336.415Z" transform="translate(-3945.462 -240.419)" fill="#dcdbdc" opacity="0.198"/>
        <path id="Path_2955" data-name="Path 2955" d="M4108.923,336.182a67.641,67.641,0,1,1-41.9-62.611A67.7,67.7,0,0,1,4108.923,336.182Z" transform="translate(-3945.579 -240.536)" fill="#dbd9da" opacity="0.208"/>
        <path id="Path_2956" data-name="Path 2956" d="M4108.69,335.948a67.638,67.638,0,1,1-41.9-62.611A67.7,67.7,0,0,1,4108.69,335.948Z" transform="translate(-3945.695 -240.652)" fill="#d8d7d8" opacity="0.218"/>
        <path id="Path_2957" data-name="Path 2957" d="M4108.459,335.717a67.64,67.64,0,1,1-41.9-62.613A67.7,67.7,0,0,1,4108.459,335.717Z" transform="translate(-3945.812 -240.768)" fill="#d8d6d7" opacity="0.228"/>
        <path id="Path_2958" data-name="Path 2958" d="M4108.226,335.484a67.639,67.639,0,1,1-41.9-62.613A67.7,67.7,0,0,1,4108.226,335.484Z" transform="translate(-3945.929 -240.885)" fill="#d6d4d4" opacity="0.238"/>
        <path id="Path_2959" data-name="Path 2959" d="M4107.993,335.251a67.64,67.64,0,1,1-41.9-62.613A67.7,67.7,0,0,1,4107.993,335.251Z" transform="translate(-3946.045 -241.002)" fill="#d4d2d3" opacity="0.248"/>
        <path id="Path_2960" data-name="Path 2960" d="M4107.759,335.018a67.643,67.643,0,1,1-41.9-62.611A67.7,67.7,0,0,1,4107.759,335.018Z" transform="translate(-3946.161 -241.118)" fill="#d2d1d1" opacity="0.257"/>
        <path id="Path_2961" data-name="Path 2961" d="M4107.528,334.784a67.64,67.64,0,1,1-41.9-62.611A67.7,67.7,0,0,1,4107.528,334.784Z" transform="translate(-3946.278 -241.234)" fill="#d0cecf" opacity="0.267"/>
        <path id="Path_2962" data-name="Path 2962" d="M4107.295,334.553a67.639,67.639,0,1,1-41.9-62.613A67.7,67.7,0,0,1,4107.295,334.553Z" transform="translate(-3946.395 -241.351)" fill="#cfcdcd" opacity="0.277"/>
        <path id="Path_2963" data-name="Path 2963" d="M4107.062,334.32a67.64,67.64,0,1,1-41.9-62.613A67.7,67.7,0,0,1,4107.062,334.32Z" transform="translate(-3946.512 -241.468)" fill="#cdcbcc" opacity="0.287"/>
        <path id="Path_2964" data-name="Path 2964" d="M4106.828,334.087a67.643,67.643,0,1,1-41.9-62.611A67.7,67.7,0,0,1,4106.828,334.087Z" transform="translate(-3946.628 -241.584)" fill="#cccacb" opacity="0.297"/>
        <path id="Path_2965" data-name="Path 2965" d="M4106.6,333.853a67.638,67.638,0,1,1-41.9-62.611A67.7,67.7,0,0,1,4106.6,333.853Z" transform="translate(-3946.744 -241.701)" fill="#cac8c9" opacity="0.307"/>
        <path id="Path_2966" data-name="Path 2966" d="M4106.364,333.622a67.64,67.64,0,1,1-41.9-62.613A67.7,67.7,0,0,1,4106.364,333.622Z" transform="translate(-3946.861 -241.817)" fill="#c8c6c7" opacity="0.317"/>
        <path id="Path_2967" data-name="Path 2967" d="M4106.13,333.389a67.639,67.639,0,1,1-41.9-62.613A67.7,67.7,0,0,1,4106.13,333.389Z" transform="translate(-3946.978 -241.934)" fill="#c7c5c5" opacity="0.327"/>
        <path id="Path_2968" data-name="Path 2968" d="M4105.9,333.156a67.64,67.64,0,1,1-41.9-62.613A67.7,67.7,0,0,1,4105.9,333.156Z" transform="translate(-3947.094 -242.051)" fill="#c5c3c4" opacity="0.337"/>
        <path id="Path_2969" data-name="Path 2969" d="M4105.664,332.923a67.643,67.643,0,1,1-41.9-62.611A67.7,67.7,0,0,1,4105.664,332.923Z" transform="translate(-3947.21 -242.167)" fill="#c4c2c2" opacity="0.347"/>
        <path id="Path_2970" data-name="Path 2970" d="M4105.431,332.689a67.637,67.637,0,1,1-41.9-62.611A67.7,67.7,0,0,1,4105.431,332.689Z" transform="translate(-3947.327 -242.283)" fill="#c2c0c1" opacity="0.356"/>
        <path id="Path_2971" data-name="Path 2971" d="M4105.2,332.458a67.64,67.64,0,1,1-41.9-62.613A67.7,67.7,0,0,1,4105.2,332.458Z" transform="translate(-3947.444 -242.4)" fill="#c0bebf" opacity="0.366"/>
        <path id="Path_2972" data-name="Path 2972" d="M4104.967,332.225a67.639,67.639,0,1,1-41.9-62.613A67.7,67.7,0,0,1,4104.967,332.225Z" transform="translate(-3947.561 -242.517)" fill="#bfbdbe" opacity="0.376"/>
        <path id="Path_2973" data-name="Path 2973" d="M4104.733,331.992a67.639,67.639,0,1,1-41.9-62.613A67.7,67.7,0,0,1,4104.733,331.992Z" transform="translate(-3947.677 -242.633)" fill="#bdbbbb" opacity="0.386"/>
        <path id="Path_2974" data-name="Path 2974" d="M4104.5,331.759a67.642,67.642,0,1,1-41.9-62.611A67.7,67.7,0,0,1,4104.5,331.759Z" transform="translate(-3947.793 -242.75)" fill="#bcbaba" opacity="0.396"/>
        <path id="Path_2975" data-name="Path 2975" d="M4104.268,331.525a67.637,67.637,0,1,1-41.9-62.611A67.7,67.7,0,0,1,4104.268,331.525Z" transform="translate(-3947.91 -242.866)" fill="#bab8b9" opacity="0.406"/>
        <path id="Path_2976" data-name="Path 2976" d="M4104.035,331.294a67.638,67.638,0,1,1-41.9-62.613A67.7,67.7,0,0,1,4104.035,331.294Z" transform="translate(-3948.026 -242.983)" fill="#b9b6b7" opacity="0.416"/>
        <path id="Path_2977" data-name="Path 2977" d="M4103.8,331.061a67.639,67.639,0,1,1-41.9-62.613A67.7,67.7,0,0,1,4103.8,331.061Z" transform="translate(-3948.143 -243.099)" fill="#b8b5b6" opacity="0.426"/>
        <path id="Path_2978" data-name="Path 2978" d="M4103.569,330.828a67.639,67.639,0,1,1-41.9-62.613A67.7,67.7,0,0,1,4103.569,330.828Z" transform="translate(-3948.259 -243.216)" fill="#b6b3b4" opacity="0.436"/>
        <path id="Path_2979" data-name="Path 2979" d="M4103.337,330.595a67.643,67.643,0,1,1-41.9-62.611A67.7,67.7,0,0,1,4103.337,330.595Z" transform="translate(-3948.375 -243.333)" fill="#b5b2b3" opacity="0.446"/>
        <path id="Path_2980" data-name="Path 2980" d="M4103.105,330.361a67.641,67.641,0,1,1-41.9-62.611A67.7,67.7,0,0,1,4103.105,330.361Z" transform="translate(-3948.492 -243.449)" fill="#b3b1b1" opacity="0.455"/>
        <path id="Path_2981" data-name="Path 2981" d="M4102.873,330.13a67.64,67.64,0,1,1-41.9-62.613A67.7,67.7,0,0,1,4102.873,330.13Z" transform="translate(-3948.609 -243.565)" fill="#b2afaf" opacity="0.465"/>
        <path id="Path_2982" data-name="Path 2982" d="M4102.639,329.9a67.64,67.64,0,1,1-41.9-62.613A67.7,67.7,0,0,1,4102.639,329.9Z" transform="translate(-3948.726 -243.682)" fill="#b0adae" opacity="0.475"/>
        <path id="Path_2983" data-name="Path 2983" d="M4102.406,329.664a67.64,67.64,0,1,1-41.9-62.613A67.7,67.7,0,0,1,4102.406,329.664Z" transform="translate(-3948.842 -243.799)" fill="#aeacac" opacity="0.485"/>
        <path id="Path_2984" data-name="Path 2984" d="M4102.172,329.43a67.637,67.637,0,1,1-41.9-62.611A67.7,67.7,0,0,1,4102.172,329.43Z" transform="translate(-3948.959 -243.915)" fill="#adaaab" opacity="0.495"/>
        <path id="Path_2985" data-name="Path 2985" d="M4101.94,329.2a67.639,67.639,0,1,1-41.9-62.613A67.7,67.7,0,0,1,4101.94,329.2Z" transform="translate(-3949.076 -244.032)" fill="#aba9aa" opacity="0.505"/>
        <path id="Path_2986" data-name="Path 2986" d="M4101.708,328.966a67.639,67.639,0,1,1-41.9-62.613A67.7,67.7,0,0,1,4101.708,328.966Z" transform="translate(-3949.192 -244.148)" fill="#aaa8a8" opacity="0.515"/>
        <path id="Path_2987" data-name="Path 2987" d="M4101.475,328.733a67.639,67.639,0,1,1-41.9-62.613A67.7,67.7,0,0,1,4101.475,328.733Z" transform="translate(-3949.309 -244.265)" fill="#a8a6a7" opacity="0.525"/>
        <path id="Path_2988" data-name="Path 2988" d="M4101.242,328.5a67.644,67.644,0,1,1-41.9-62.611A67.7,67.7,0,0,1,4101.242,328.5Z" transform="translate(-3949.424 -244.382)" fill="#a7a4a5" opacity="0.535"/>
        <path id="Path_2989" data-name="Path 2989" d="M4101.008,328.266a67.638,67.638,0,1,1-41.9-62.611A67.7,67.7,0,0,1,4101.008,328.266Z" transform="translate(-3949.541 -244.498)" fill="#a5a3a3" opacity="0.545"/>
        <path id="Path_2990" data-name="Path 2990" d="M4100.776,328.035a67.639,67.639,0,1,1-41.9-62.613A67.7,67.7,0,0,1,4100.776,328.035Z" transform="translate(-3949.658 -244.614)" fill="#a3a1a1" opacity="0.554"/>
        <path id="Path_2991" data-name="Path 2991" d="M4100.543,327.8a67.639,67.639,0,1,1-41.9-62.613A67.7,67.7,0,0,1,4100.543,327.8Z" transform="translate(-3949.774 -244.731)" fill="#a3a0a0" opacity="0.564"/>
        <path id="Path_2992" data-name="Path 2992" d="M4100.311,327.569a67.639,67.639,0,1,1-41.9-62.613A67.7,67.7,0,0,1,4100.311,327.569Z" transform="translate(-3949.891 -244.848)" fill="#a19f9f" opacity="0.574"/>
        <path id="Path_2993" data-name="Path 2993" d="M4100.077,327.336a67.644,67.644,0,1,1-41.9-62.611A67.7,67.7,0,0,1,4100.077,327.336Z" transform="translate(-3950.007 -244.964)" fill="#9f9d9d" opacity="0.584"/>
        <path id="Path_2994" data-name="Path 2994" d="M4099.845,327.1a67.638,67.638,0,1,1-41.9-62.611A67.7,67.7,0,0,1,4099.845,327.1Z" transform="translate(-3950.124 -245.08)" fill="#9e9c9c" opacity="0.594"/>
        <path id="Path_2995" data-name="Path 2995" d="M4099.613,326.871a67.639,67.639,0,1,1-41.9-62.613A67.7,67.7,0,0,1,4099.613,326.871Z" transform="translate(-3950.241 -245.197)" fill="#9c9a9a" opacity="0.604"/>
        <path id="Path_2996" data-name="Path 2996" d="M4099.38,326.638a67.64,67.64,0,1,1-41.9-62.613A67.7,67.7,0,0,1,4099.38,326.638Z" transform="translate(-3950.357 -245.314)" fill="#9b9999" opacity="0.614"/>
        <path id="Path_2997" data-name="Path 2997" d="M4099.146,326.4a67.64,67.64,0,1,1-41.9-62.613A67.7,67.7,0,0,1,4099.146,326.4Z" transform="translate(-3950.473 -245.43)" fill="#999797" opacity="0.624"/>
        <path id="Path_2998" data-name="Path 2998" d="M4098.914,326.172a67.642,67.642,0,1,1-41.9-62.611A67.7,67.7,0,0,1,4098.914,326.172Z" transform="translate(-3950.59 -245.547)" fill="#989696" opacity="0.634"/>
        <path id="Path_2999" data-name="Path 2999" d="M4098.68,325.938a67.637,67.637,0,1,1-41.9-62.611A67.7,67.7,0,0,1,4098.68,325.938Z" transform="translate(-3950.707 -245.663)" fill="#969495" opacity="0.644"/>
        <path id="Path_3000" data-name="Path 3000" d="M4098.45,325.707a67.64,67.64,0,1,1-41.9-62.613A67.7,67.7,0,0,1,4098.45,325.707Z" transform="translate(-3950.824 -245.78)" fill="#959393" opacity="0.653"/>
        <path id="Path_3001" data-name="Path 3001" d="M4098.215,325.474a67.639,67.639,0,1,1-41.9-62.613A67.7,67.7,0,0,1,4098.215,325.474Z" transform="translate(-3950.94 -245.896)" fill="#949292" opacity="0.663"/>
        <path id="Path_3002" data-name="Path 3002" d="M4097.983,325.241a67.64,67.64,0,1,1-41.9-62.613A67.7,67.7,0,0,1,4097.983,325.241Z" transform="translate(-3951.056 -246.013)" fill="#929091" opacity="0.673"/>
        <path id="Path_3003" data-name="Path 3003" d="M4097.749,325.008a67.641,67.641,0,1,1-41.9-62.611A67.7,67.7,0,0,1,4097.749,325.008Z" transform="translate(-3951.173 -246.13)" fill="#918f8f" opacity="0.683"/>
        <path id="Path_3004" data-name="Path 3004" d="M4097.518,324.774a67.638,67.638,0,1,1-41.9-62.611A67.7,67.7,0,0,1,4097.518,324.774Z" transform="translate(-3951.29 -246.246)" fill="#8f8d8d" opacity="0.693"/>
        <path id="Path_3005" data-name="Path 3005" d="M4097.285,324.543a67.64,67.64,0,1,1-41.9-62.613A67.7,67.7,0,0,1,4097.285,324.543Z" transform="translate(-3951.406 -246.363)" fill="#8e8c8c" opacity="0.703"/>
        <path id="Path_3006" data-name="Path 3006" d="M4097.051,324.31a67.638,67.638,0,1,1-41.9-62.613A67.7,67.7,0,0,1,4097.051,324.31Z" transform="translate(-3951.523 -246.479)" fill="#8d8b8b" opacity="0.713"/>
        <path id="Path_3007" data-name="Path 3007" d="M4096.818,324.077a67.643,67.643,0,1,1-41.9-62.611A67.7,67.7,0,0,1,4096.818,324.077Z" transform="translate(-3951.639 -246.596)" fill="#8b8a8a" opacity="0.723"/>
        <path id="Path_3008" data-name="Path 3008" d="M4096.585,323.843a67.638,67.638,0,1,1-41.9-62.611A67.7,67.7,0,0,1,4096.585,323.843Z" transform="translate(-3951.756 -246.712)" fill="#8a8888" opacity="0.733"/>
        <path id="Path_3009" data-name="Path 3009" d="M4096.354,323.612A67.639,67.639,0,1,1,4054.45,261,67.7,67.7,0,0,1,4096.354,323.612Z" transform="translate(-3951.872 -246.829)" fill="#888687" opacity="0.743"/>
        <path id="Path_3010" data-name="Path 3010" d="M4096.121,323.379a67.64,67.64,0,1,1-41.9-62.613A67.7,67.7,0,0,1,4096.121,323.379Z" transform="translate(-3951.989 -246.945)" fill="#878585" opacity="0.752"/>
        <path id="Path_3011" data-name="Path 3011" d="M4095.888,323.146a67.64,67.64,0,1,1-41.9-62.613A67.7,67.7,0,0,1,4095.888,323.146Z" transform="translate(-3952.105 -247.062)" fill="#858484" opacity="0.762"/>
        <path id="Path_3012" data-name="Path 3012" d="M4095.654,322.913a67.644,67.644,0,1,1-41.9-62.611A67.7,67.7,0,0,1,4095.654,322.913Z" transform="translate(-3952.222 -247.179)" fill="#848282" opacity="0.772"/>
        <path id="Path_3013" data-name="Path 3013" d="M4095.422,322.679a67.638,67.638,0,1,1-41.9-62.611A67.7,67.7,0,0,1,4095.422,322.679Z" transform="translate(-3952.338 -247.295)" fill="#838281" opacity="0.782"/>
        <path id="Path_3014" data-name="Path 3014" d="M4095.19,322.448a67.64,67.64,0,1,1-41.9-62.613A67.7,67.7,0,0,1,4095.19,322.448Z" transform="translate(-3952.455 -247.411)" fill="#818080" opacity="0.792"/>
        <path id="Path_3015" data-name="Path 3015" d="M4094.957,322.215a67.639,67.639,0,1,1-41.9-62.613A67.7,67.7,0,0,1,4094.957,322.215Z" transform="translate(-3952.571 -247.528)" fill="gray" opacity="0.802"/>
        <path id="Path_3016" data-name="Path 3016" d="M4094.724,321.982a67.64,67.64,0,1,1-41.9-62.613A67.7,67.7,0,0,1,4094.724,321.982Z" transform="translate(-3952.688 -247.645)" fill="#7f7e7e" opacity="0.812"/>
        <path id="Path_3017" data-name="Path 3017" d="M4094.491,321.749a67.643,67.643,0,1,1-41.9-62.611A67.7,67.7,0,0,1,4094.491,321.749Z" transform="translate(-3952.805 -247.761)" fill="#7e7d7d" opacity="0.822"/>
        <path id="Path_3018" data-name="Path 3018" d="M4094.258,321.515a67.637,67.637,0,1,1-41.9-62.611A67.7,67.7,0,0,1,4094.258,321.515Z" transform="translate(-3952.922 -247.877)" fill="#7d7c7c" opacity="0.832"/>
        <path id="Path_3019" data-name="Path 3019" d="M4094.026,321.284a67.64,67.64,0,1,1-41.9-62.613A67.7,67.7,0,0,1,4094.026,321.284Z" transform="translate(-3953.038 -247.994)" fill="#7c7b7b" opacity="0.842"/>
        <path id="Path_3020" data-name="Path 3020" d="M4093.793,321.051a67.639,67.639,0,1,1-41.9-62.613A67.7,67.7,0,0,1,4093.793,321.051Z" transform="translate(-3953.154 -248.111)" fill="#7b7a79" opacity="0.851"/>
        <path id="Path_3021" data-name="Path 3021" d="M4093.559,320.818a67.639,67.639,0,1,1-41.9-62.613A67.7,67.7,0,0,1,4093.559,320.818Z" transform="translate(-3953.271 -248.227)" fill="#797878" opacity="0.861"/>
        <path id="Path_3022" data-name="Path 3022" d="M4093.326,320.585a67.642,67.642,0,1,1-41.9-62.611A67.7,67.7,0,0,1,4093.326,320.585Z" transform="translate(-3953.387 -248.344)" fill="#787676" opacity="0.871"/>
        <path id="Path_3023" data-name="Path 3023" d="M4093.095,320.351a67.639,67.639,0,1,1-41.9-62.611A67.7,67.7,0,0,1,4093.095,320.351Z" transform="translate(-3953.503 -248.46)" fill="#767575" opacity="0.881"/>
        <path id="Path_3024" data-name="Path 3024" d="M4092.862,320.12a67.639,67.639,0,1,1-41.9-62.613A67.7,67.7,0,0,1,4092.862,320.12Z" transform="translate(-3953.621 -248.577)" fill="#767475" opacity="0.891"/>
        <path id="Path_3025" data-name="Path 3025" d="M4092.629,319.887a67.639,67.639,0,1,1-41.9-62.613A67.7,67.7,0,0,1,4092.629,319.887Z" transform="translate(-3953.738 -248.694)" fill="#747373" opacity="0.901"/>
        <path id="Path_3026" data-name="Path 3026" d="M4092.4,319.654a67.644,67.644,0,1,1-41.9-62.611A67.7,67.7,0,0,1,4092.4,319.654Z" transform="translate(-3953.854 -248.81)" fill="#737272" opacity="0.911"/>
        <path id="Path_3027" data-name="Path 3027" d="M4092.163,319.42a67.638,67.638,0,1,1-41.9-62.611A67.7,67.7,0,0,1,4092.163,319.42Z" transform="translate(-3953.97 -248.926)" fill="#727171" opacity="0.921"/>
        <path id="Path_3028" data-name="Path 3028" d="M4091.931,319.189a67.64,67.64,0,1,1-41.9-62.613A67.7,67.7,0,0,1,4091.931,319.189Z" transform="translate(-3954.086 -249.043)" fill="#706f6f" opacity="0.931"/>
        <path id="Path_3029" data-name="Path 3029" d="M4091.7,318.956a67.639,67.639,0,1,1-41.9-62.613A67.7,67.7,0,0,1,4091.7,318.956Z" transform="translate(-3954.203 -249.16)" fill="#6f6e6e" opacity="0.941"/>
        <path id="Path_3030" data-name="Path 3030" d="M4091.465,318.723a67.64,67.64,0,1,1-41.9-62.613A67.7,67.7,0,0,1,4091.465,318.723Z" transform="translate(-3954.319 -249.276)" fill="#6e6d6d" opacity="0.95"/>
        <path id="Path_3031" data-name="Path 3031" d="M4091.232,318.49a67.644,67.644,0,1,1-41.9-62.611A67.7,67.7,0,0,1,4091.232,318.49Z" transform="translate(-3954.436 -249.393)" fill="#6c6c6c" opacity="0.96"/>
        <path id="Path_3032" data-name="Path 3032" d="M4091,318.256a67.637,67.637,0,1,1-41.9-62.611A67.7,67.7,0,0,1,4091,318.256Z" transform="translate(-3954.553 -249.509)" fill="#6b6b6b" opacity="0.97"/>
        <path id="Path_3033" data-name="Path 3033" d="M4090.767,318.025a67.64,67.64,0,1,1-41.9-62.613A67.7,67.7,0,0,1,4090.767,318.025Z" transform="translate(-3954.669 -249.626)" fill="#696a6a" opacity="0.98"/>
        <path id="Path_3034" data-name="Path 3034" d="M4090.534,317.792a67.64,67.64,0,1,1-41.9-62.613A67.7,67.7,0,0,1,4090.534,317.792Z" transform="translate(-3954.786 -249.742)" fill="#686869" opacity="0.99"/>
        <path id="Path_3035" data-name="Path 3035" d="M4090.3,317.559a67.64,67.64,0,1,1-41.9-62.613A67.7,67.7,0,0,1,4090.3,317.559Z" transform="translate(-3954.902 -249.859)" fill="#676767"/>
      </g>
      <g id="Group_696" data-name="Group 696">
        <g id="Group_116" data-name="Group 116" transform="translate(938.686 72.75)">
          <path id="Path_3039" data-name="Path 3039" d="M4059.264,303.357a.316.316,0,0,1-.226-.54l5.74-5.741-5.75-5.75a.317.317,0,0,1,.448-.449l5.976,5.975a.319.319,0,0,1,0,.449l-5.965,5.965A.316.316,0,0,1,4059.264,303.357Z" transform="translate(-4058.936 -290.784)" fill="gray"/>
        </g>
        <g id="Group_695" data-name="Group 695">
          <g id="Group_115" data-name="Group 115" transform="translate(926.09 78.721)">
            <path id="Path_3038" data-name="Path 3038" d="M4069.033,295.4H4050.86a.317.317,0,1,1,0-.633h18.173a.317.317,0,0,1,0,.633Z" transform="translate(-4050.542 -294.762)" fill="gray"/>
          </g>
          <g id="Group_694" data-name="Group 694">
            <g id="Group_117" data-name="Group 117" transform="translate(755.24 72.75)">
              <path id="Path_3040" data-name="Path 3040" d="M3937.018,303.357a.316.316,0,0,1-.223-.54l5.74-5.741-5.75-5.75a.317.317,0,0,1,.449-.449l5.975,5.975a.317.317,0,0,1,0,.449l-5.963,5.965A.322.322,0,0,1,3937.018,303.357Z" transform="translate(-3936.69 -290.784)" fill="gray"/>
            </g>
            <g id="Group_693" data-name="Group 693">
              <g id="Group_114" data-name="Group 114" transform="translate(761.215 78.721)">
                <path id="Path_3037" data-name="Path 3037" d="M3953.585,295.4h-12.6a.317.317,0,1,1,0-.633h12.6a.317.317,0,1,1,0,.633Z" transform="translate(-3940.672 -294.762)" fill="gray"/>
              </g>
              <g id="Group_692" data-name="Group 692">
                <g id="Group_112" data-name="Group 112" transform="translate(773.81 2.58)">
                  <path id="Path_2933" data-name="Path 2933" d="M4101.663,320.8a.317.317,0,0,1-.317-.317,75.823,75.823,0,1,0-151.645,0,.318.318,0,0,1-.635,0,76.458,76.458,0,1,1,152.915,0A.316.316,0,0,1,4101.663,320.8Z" transform="translate(-3949.065 -244.023)" fill="gray"/>
                </g>
                <g id="Group_691" data-name="Group 691">
                  <path id="Path_3036" data-name="Path 3036" d="M4090.3,317.559a67.64,67.64,0,1,1-41.9-62.613A67.7,67.7,0,0,1,4090.3,317.559Z" transform="translate(-3172.333 -238.522)" fill="#f9f9f9"/>
                  <g id="Group_118" data-name="Group 118" transform="translate(813.531 0.006)">
                    <path id="Path_3041" data-name="Path 3041" d="M3978.194,256.406l-2.66-5.054a79.131,79.131,0,0,1,73.473,0l-2.661,5.054a73.419,73.419,0,0,0-68.153,0Z" transform="translate(-3975.535 -242.308)" fill="#2193d1"/>
                  </g>
                </g>
              </g>
            </g>
          </g>
        </g>
      </g>
    </g>
    <g id="Group_119" data-name="Group 119" transform="translate(-3783.304 1890.321)">
      <path id="Path_3042" data-name="Path 3042" d="M3996.115,279.215h-6.506a1.3,1.3,0,0,0-1.3,1.3v13.015a1.3,1.3,0,0,0,1.3,1.3h6.506a1.3,1.3,0,0,0,1.3-1.3V280.516A1.3,1.3,0,0,0,3996.115,279.215Zm-1.3,13.015h-3.9V281.817h3.9Z" transform="translate(-3988.306 -258.786)" fill="gray"/>
      <path id="Path_3043" data-name="Path 3043" d="M4004.789,274.878h-6.508a1.3,1.3,0,0,0-1.3,1.3V295.7a1.3,1.3,0,0,0,1.3,1.3h6.508a1.3,1.3,0,0,0,1.3-1.3V276.179A1.3,1.3,0,0,0,4004.789,274.878Zm-1.3,19.523h-3.9v-16.92h3.9Z" transform="translate(-3983.963 -260.957)" fill="gray"/>
      <path id="Path_3044" data-name="Path 3044" d="M4013.462,270.542h-6.508a1.3,1.3,0,0,0-1.3,1.3v26.03a1.3,1.3,0,0,0,1.3,1.3h6.508a1.3,1.3,0,0,0,1.3-1.3v-26.03A1.3,1.3,0,0,0,4013.462,270.542Zm-1.3,26.03h-3.9V273.144h3.9Z" transform="translate(-3979.621 -263.128)" fill="gray"/>
      <path id="Path_3045" data-name="Path 3045" d="M4011.977,267.582a1.284,1.284,0,0,0-.183-.4.53.53,0,0,0-.03-.063c-.016-.023-.042-.035-.06-.056a1.2,1.2,0,0,0-.792-.461l-6.43-.99a1.3,1.3,0,0,0-.4,2.574l3.327.512-16.764,12.292a1.3,1.3,0,0,0,1.541,2.1l16.761-12.29-.51,3.324a1.3,1.3,0,0,0,2.572.4l.989-6.432A1.307,1.307,0,0,0,4011.977,267.582Z" transform="translate(-3987.399 -265.601)" fill="gray"/>
    </g>
    <text id="STEP_05" data-name="STEP 05" transform="translate(-3805.667 1960.589)" fill="#2193d1" font-size="16" font-family="Montserrat-ExtraBold, Montserrat" font-weight="800"><tspan x="0" y="0">STEP 05</tspan></text>
  </g>
</svg>
